%TF.GenerationSoftware,KiCad,Pcbnew,7.0.11+dfsg-1build4*%
%TF.CreationDate,2025-10-21T20:11:32-05:00*%
%TF.ProjectId,ISACard,49534143-6172-4642-9e6b-696361645f70,rev?*%
%TF.SameCoordinates,Original*%
%TF.FileFunction,Copper,L2,Bot*%
%TF.FilePolarity,Positive*%
%FSLAX46Y46*%
G04 Gerber Fmt 4.6, Leading zero omitted, Abs format (unit mm)*
G04 Created by KiCad (PCBNEW 7.0.11+dfsg-1build4) date 2025-10-21 20:11:32*
%MOMM*%
%LPD*%
G01*
G04 APERTURE LIST*
%TA.AperFunction,ComponentPad*%
%ADD10C,1.600000*%
%TD*%
%TA.AperFunction,ComponentPad*%
%ADD11O,1.600000X1.600000*%
%TD*%
%TA.AperFunction,ComponentPad*%
%ADD12R,1.700000X1.700000*%
%TD*%
%TA.AperFunction,ComponentPad*%
%ADD13O,1.700000X1.700000*%
%TD*%
%TA.AperFunction,ConnectorPad*%
%ADD14R,1.780000X7.620000*%
%TD*%
%TA.AperFunction,ComponentPad*%
%ADD15R,1.600000X1.600000*%
%TD*%
%TA.AperFunction,ComponentPad*%
%ADD16R,1.800000X1.800000*%
%TD*%
%TA.AperFunction,ComponentPad*%
%ADD17C,1.800000*%
%TD*%
%TA.AperFunction,ComponentPad*%
%ADD18R,1.500000X1.500000*%
%TD*%
%TA.AperFunction,ComponentPad*%
%ADD19C,1.500000*%
%TD*%
%TA.AperFunction,ComponentPad*%
%ADD20C,2.000000*%
%TD*%
%TA.AperFunction,ViaPad*%
%ADD21C,0.800000*%
%TD*%
%TA.AperFunction,Conductor*%
%ADD22C,0.350000*%
%TD*%
G04 APERTURE END LIST*
D10*
%TO.P,R9,1*%
%TO.N,Net-(D1-K)*%
X119690000Y-81510000D03*
D11*
%TO.P,R9,2*%
%TO.N,GND*%
X119690000Y-89130000D03*
%TD*%
D10*
%TO.P,R4,1*%
%TO.N,+5V*%
X188540000Y-124490000D03*
D11*
%TO.P,R4,2*%
%TO.N,Net-(JP4-B)*%
X188540000Y-132110000D03*
%TD*%
D12*
%TO.P,JP7,1,A*%
%TO.N,GND*%
X126750000Y-117160000D03*
D13*
%TO.P,JP7,2,B*%
%TO.N,Net-(JP7-B)*%
X126750000Y-119700000D03*
%TD*%
D10*
%TO.P,R17,1*%
%TO.N,Net-(Q1-B)*%
X87410000Y-93880000D03*
D11*
%TO.P,R17,2*%
%TO.N,GND*%
X79790000Y-93880000D03*
%TD*%
D10*
%TO.P,C15,1*%
%TO.N,GND*%
X163560000Y-93380000D03*
%TO.P,C15,2*%
%TO.N,+5V*%
X163560000Y-88380000D03*
%TD*%
D14*
%TO.P,J1,1,GND*%
%TO.N,GND*%
X219890000Y-153070000D03*
%TO.P,J1,2,RESET*%
%TO.N,RESET*%
X217350000Y-153070000D03*
%TO.P,J1,3,VCC*%
%TO.N,+5V*%
X214810000Y-153070000D03*
%TO.P,J1,4,IRQ2*%
%TO.N,unconnected-(J1-IRQ2-Pad4)*%
X212270000Y-153070000D03*
%TO.P,J1,5,-5V*%
%TO.N,unconnected-(J1--5V-Pad5)*%
X209730000Y-153070000D03*
%TO.P,J1,6,DRQ2*%
%TO.N,unconnected-(J1-DRQ2-Pad6)*%
X207190000Y-153070000D03*
%TO.P,J1,7,-12V*%
%TO.N,unconnected-(J1--12V-Pad7)*%
X204650000Y-153070000D03*
%TO.P,J1,8,UNUSED*%
%TO.N,unconnected-(J1-UNUSED-Pad8)*%
X202110000Y-153070000D03*
%TO.P,J1,9,+12V*%
%TO.N,unconnected-(J1-+12V-Pad9)*%
X199570000Y-153070000D03*
%TO.P,J1,10,GND*%
%TO.N,GND*%
X197030000Y-153070000D03*
%TO.P,J1,11,~{SMEMW}*%
%TO.N,MEMW*%
X194490000Y-153070000D03*
%TO.P,J1,12,~{SMEMR}*%
%TO.N,MEMR*%
X191950000Y-153070000D03*
%TO.P,J1,13,~{IOW}*%
%TO.N,IOW*%
X189410000Y-153070000D03*
%TO.P,J1,14,~{IOR}*%
%TO.N,IOR*%
X186870000Y-153070000D03*
%TO.P,J1,15,~{DACK3}*%
%TO.N,unconnected-(J1-~{DACK3}-Pad15)*%
X184330000Y-153070000D03*
%TO.P,J1,16,DRQ3*%
%TO.N,unconnected-(J1-DRQ3-Pad16)*%
X181790000Y-153070000D03*
%TO.P,J1,17,~{DACK1}*%
%TO.N,unconnected-(J1-~{DACK1}-Pad17)*%
X179250000Y-153070000D03*
%TO.P,J1,18,DRQ1*%
%TO.N,unconnected-(J1-DRQ1-Pad18)*%
X176710000Y-153070000D03*
%TO.P,J1,19,~{DACK0}*%
%TO.N,unconnected-(J1-~{DACK0}-Pad19)*%
X174170000Y-153070000D03*
%TO.P,J1,20,CLK*%
%TO.N,unconnected-(J1-CLK-Pad20)*%
X171630000Y-153070000D03*
%TO.P,J1,21,IRQ7*%
%TO.N,Net-(J1-IRQ7)*%
X169090000Y-153070000D03*
%TO.P,J1,22,IRQ6*%
%TO.N,unconnected-(J1-IRQ6-Pad22)*%
X166550000Y-153070000D03*
%TO.P,J1,23,IRQ5*%
%TO.N,Net-(J1-IRQ5)*%
X164010000Y-153070000D03*
%TO.P,J1,24,IRQ4*%
%TO.N,Net-(J1-IRQ4)*%
X161470000Y-153070000D03*
%TO.P,J1,25,IRQ3*%
%TO.N,Net-(J1-IRQ3)*%
X158930000Y-153070000D03*
%TO.P,J1,26,~{DACK2}*%
%TO.N,unconnected-(J1-~{DACK2}-Pad26)*%
X156390000Y-153070000D03*
%TO.P,J1,27,TC*%
%TO.N,unconnected-(J1-TC-Pad27)*%
X153850000Y-153070000D03*
%TO.P,J1,28,ALE*%
%TO.N,unconnected-(J1-ALE-Pad28)*%
X151310000Y-153070000D03*
%TO.P,J1,29,VCC*%
%TO.N,unconnected-(J1-VCC-Pad29)*%
X148770000Y-153070000D03*
%TO.P,J1,30,OSC*%
%TO.N,unconnected-(J1-OSC-Pad30)*%
X146230000Y-153070000D03*
%TO.P,J1,31,GND*%
%TO.N,GND*%
X143690000Y-153070000D03*
%TD*%
D12*
%TO.P,JP12,1,A*%
%TO.N,GND*%
X159760000Y-84670000D03*
D13*
%TO.P,JP12,2,B*%
%TO.N,Net-(JP12-B)*%
X159760000Y-87210000D03*
%TD*%
D15*
%TO.P,D6,1,K*%
%TO.N,Net-(D4-A)*%
X218230000Y-120770000D03*
D11*
%TO.P,D6,2,A*%
%TO.N,+5V*%
X218230000Y-113150000D03*
%TD*%
D10*
%TO.P,C11,1*%
%TO.N,GND*%
X171376000Y-120812000D03*
%TO.P,C11,2*%
%TO.N,+5V*%
X166376000Y-120812000D03*
%TD*%
%TO.P,C3,1*%
%TO.N,Net-(U11-XTAL1{slash}PB6)*%
X128000000Y-85860000D03*
%TO.P,C3,2*%
%TO.N,GND*%
X128000000Y-90860000D03*
%TD*%
D15*
%TO.P,U3,1*%
%TO.N,Net-(U1-Pad3)*%
X166950000Y-117505000D03*
D11*
%TO.P,U3,2*%
%TO.N,Net-(U1-Pad6)*%
X169490000Y-117505000D03*
%TO.P,U3,3*%
%TO.N,Net-(U3-Pad10)*%
X172030000Y-117505000D03*
%TO.P,U3,4*%
%TO.N,Net-(U1-Pad11)*%
X174570000Y-117505000D03*
%TO.P,U3,5*%
%TO.N,Net-(U1-Pad8)*%
X177110000Y-117505000D03*
%TO.P,U3,6*%
%TO.N,Net-(U3-Pad6)*%
X179650000Y-117505000D03*
%TO.P,U3,7,GND*%
%TO.N,GND*%
X182190000Y-117505000D03*
%TO.P,U3,8*%
%TO.N,Net-(U3-Pad12)*%
X182190000Y-109885000D03*
%TO.P,U3,9*%
%TO.N,Net-(U3-Pad6)*%
X179650000Y-109885000D03*
%TO.P,U3,10*%
%TO.N,Net-(U3-Pad10)*%
X177110000Y-109885000D03*
%TO.P,U3,11*%
%TO.N,Net-(U3-Pad11)*%
X174570000Y-109885000D03*
%TO.P,U3,12*%
%TO.N,Net-(U3-Pad12)*%
X172030000Y-109885000D03*
%TO.P,U3,13*%
%TO.N,Net-(U3-Pad13)*%
X169490000Y-109885000D03*
%TO.P,U3,14,VCC*%
%TO.N,+5V*%
X166950000Y-109885000D03*
%TD*%
D12*
%TO.P,JP5,1,A*%
%TO.N,GND*%
X134560000Y-117160000D03*
D13*
%TO.P,JP5,2,B*%
%TO.N,Net-(JP5-B)*%
X134560000Y-119700000D03*
%TD*%
D10*
%TO.P,R12,1*%
%TO.N,+5V*%
X159800000Y-91550000D03*
D11*
%TO.P,R12,2*%
%TO.N,Net-(JP12-B)*%
X159800000Y-99170000D03*
%TD*%
D12*
%TO.P,JP3,1,A*%
%TO.N,GND*%
X192370000Y-116640000D03*
D13*
%TO.P,JP3,2,B*%
%TO.N,Net-(JP3-B)*%
X192370000Y-119180000D03*
%TD*%
D12*
%TO.P,JP10,1,A*%
%TO.N,Net-(J2-Pin_2)*%
X152040000Y-79120000D03*
D13*
%TO.P,JP10,2,B*%
%TO.N,Net-(D1-K)*%
X149500000Y-79120000D03*
%TD*%
D10*
%TO.P,R21,1*%
%TO.N,SCK*%
X226222000Y-65714000D03*
D11*
%TO.P,R21,2*%
%TO.N,Net-(U12-SCLK)*%
X226222000Y-73334000D03*
%TD*%
D15*
%TO.P,D9,1,K*%
%TO.N,Net-(D8-A)*%
X219364000Y-88580000D03*
D11*
%TO.P,D9,2,A*%
%TO.N,+5V*%
X219364000Y-80960000D03*
%TD*%
D10*
%TO.P,R3,1*%
%TO.N,+5V*%
X192350000Y-124490000D03*
D11*
%TO.P,R3,2*%
%TO.N,Net-(JP3-B)*%
X192350000Y-132110000D03*
%TD*%
D10*
%TO.P,R5,1*%
%TO.N,+5V*%
X136470000Y-124490000D03*
D11*
%TO.P,R5,2*%
%TO.N,Net-(JP5-B)*%
X136470000Y-132110000D03*
%TD*%
D15*
%TO.P,D4,1,K*%
%TO.N,Net-(D4-K)*%
X218180000Y-130820000D03*
D11*
%TO.P,D4,2,A*%
%TO.N,Net-(D4-A)*%
X218180000Y-123200000D03*
%TD*%
D10*
%TO.P,R31,1*%
%TO.N,Net-(D4-K)*%
X221120000Y-121890000D03*
D11*
%TO.P,R31,2*%
%TO.N,GND*%
X221120000Y-114270000D03*
%TD*%
D16*
%TO.P,D5,1,K*%
%TO.N,CS2*%
X236090000Y-75100000D03*
D17*
%TO.P,D5,2,A*%
%TO.N,Net-(D5-A)*%
X236090000Y-77640000D03*
%TD*%
D15*
%TO.P,U11,1,~{RESET}/PC6*%
%TO.N,ARESET*%
X108480000Y-77340000D03*
D11*
%TO.P,U11,2,PD0*%
%TO.N,PA0*%
X111020000Y-77340000D03*
%TO.P,U11,3,PD1*%
%TO.N,PA1*%
X113560000Y-77340000D03*
%TO.P,U11,4,PD2*%
%TO.N,PA2*%
X116100000Y-77340000D03*
%TO.P,U11,5,PD3*%
%TO.N,PA3*%
X118640000Y-77340000D03*
%TO.P,U11,6,PD4*%
%TO.N,PA4*%
X121180000Y-77340000D03*
%TO.P,U11,7,VCC*%
%TO.N,Net-(D1-K)*%
X123720000Y-77340000D03*
%TO.P,U11,8,GND*%
%TO.N,GND*%
X126260000Y-77340000D03*
%TO.P,U11,9,XTAL1/PB6*%
%TO.N,Net-(U11-XTAL1{slash}PB6)*%
X128800000Y-77340000D03*
%TO.P,U11,10,XTAL2/PB7*%
%TO.N,Net-(U11-XTAL2{slash}PB7)*%
X131340000Y-77340000D03*
%TO.P,U11,11,PD5*%
%TO.N,PA5*%
X133880000Y-77340000D03*
%TO.P,U11,12,PD6*%
%TO.N,PA6*%
X136420000Y-77340000D03*
%TO.P,U11,13,PD7*%
%TO.N,PA7*%
X138960000Y-77340000D03*
%TO.P,U11,14,PB0*%
%TO.N,CS3*%
X141500000Y-77340000D03*
%TO.P,U11,15,PB1*%
%TO.N,CS2*%
X141500000Y-69720000D03*
%TO.P,U11,16,PB2*%
%TO.N,CS*%
X138960000Y-69720000D03*
%TO.P,U11,17,PB3*%
%TO.N,MOSI*%
X136420000Y-69720000D03*
%TO.P,U11,18,PB4*%
%TO.N,MISO*%
X133880000Y-69720000D03*
%TO.P,U11,19,PB5*%
%TO.N,SCK*%
X131340000Y-69720000D03*
%TO.P,U11,20,AVCC*%
%TO.N,Net-(D1-K)*%
X128800000Y-69720000D03*
%TO.P,U11,21,AREF*%
%TO.N,Net-(U11-AREF)*%
X126260000Y-69720000D03*
%TO.P,U11,22,GND*%
%TO.N,GND*%
X123720000Y-69720000D03*
%TO.P,U11,23,PC0*%
%TO.N,PC4*%
X121180000Y-69720000D03*
%TO.P,U11,24,PC1*%
%TO.N,PC5*%
X118640000Y-69720000D03*
%TO.P,U11,25,PC2*%
%TO.N,PC6*%
X116100000Y-69720000D03*
%TO.P,U11,26,PC3*%
%TO.N,PC7*%
X113560000Y-69720000D03*
%TO.P,U11,27,PC4*%
%TO.N,APC4*%
X111020000Y-69720000D03*
%TO.P,U11,28,PC5*%
%TO.N,APC5*%
X108480000Y-69720000D03*
%TD*%
D12*
%TO.P,JP18,1,A*%
%TO.N,MEMW*%
X144340000Y-89350000D03*
D13*
%TO.P,JP18,2,C*%
%TO.N,Net-(JP18-C)*%
X144340000Y-91890000D03*
%TO.P,JP18,3,B*%
%TO.N,+5V*%
X144340000Y-94430000D03*
%TD*%
D12*
%TO.P,JP15,1,A*%
%TO.N,GND*%
X148220000Y-84530000D03*
D13*
%TO.P,JP15,2,B*%
%TO.N,Net-(JP15-B)*%
X148220000Y-87070000D03*
%TD*%
D12*
%TO.P,J5,1,Pin_1*%
%TO.N,PB0*%
X112680000Y-142440000D03*
D13*
%TO.P,J5,2,Pin_2*%
%TO.N,PB1*%
X110140000Y-142440000D03*
%TO.P,J5,3,Pin_3*%
%TO.N,PB2*%
X107600000Y-142440000D03*
%TO.P,J5,4,Pin_4*%
%TO.N,PB3*%
X105060000Y-142440000D03*
%TO.P,J5,5,Pin_5*%
%TO.N,PB4*%
X102520000Y-142440000D03*
%TO.P,J5,6,Pin_6*%
%TO.N,PB5*%
X99980000Y-142440000D03*
%TO.P,J5,7,Pin_7*%
%TO.N,PB6*%
X97440000Y-142440000D03*
%TO.P,J5,8,Pin_8*%
%TO.N,PB7*%
X94900000Y-142440000D03*
%TO.P,J5,9,Pin_9*%
%TO.N,unconnected-(J5-Pin_9-Pad9)*%
X92360000Y-142440000D03*
%TO.P,J5,10,Pin_10*%
%TO.N,PC0*%
X89820000Y-142440000D03*
%TO.P,J5,11,Pin_11*%
%TO.N,PC1*%
X87280000Y-142440000D03*
%TO.P,J5,12,Pin_12*%
%TO.N,PC2*%
X84740000Y-142440000D03*
%TO.P,J5,13,Pin_13*%
%TO.N,unconnected-(J5-Pin_13-Pad13)*%
X82200000Y-142440000D03*
%TO.P,J5,14,Pin_14*%
%TO.N,unconnected-(J5-Pin_14-Pad14)*%
X79660000Y-142440000D03*
%TO.P,J5,15,Pin_15*%
%TO.N,+5V*%
X77120000Y-142440000D03*
%TO.P,J5,16,Pin_16*%
%TO.N,GND*%
X74580000Y-142440000D03*
%TD*%
D18*
%TO.P,Q1,1,E*%
%TO.N,GND*%
X85110000Y-89580000D03*
D19*
%TO.P,Q1,2,B*%
%TO.N,Net-(Q1-B)*%
X85110000Y-87040000D03*
%TO.P,Q1,3,C*%
%TO.N,ARESET*%
X85110000Y-84500000D03*
%TD*%
D15*
%TO.P,C17,1*%
%TO.N,+5V*%
X215826000Y-106334000D03*
D10*
%TO.P,C17,2*%
%TO.N,GND*%
X217826000Y-106334000D03*
%TD*%
D19*
%TO.P,Y1,1,1*%
%TO.N,Net-(U11-XTAL2{slash}PB7)*%
X133180000Y-81830000D03*
%TO.P,Y1,2,2*%
%TO.N,Net-(U11-XTAL1{slash}PB6)*%
X128300000Y-81830000D03*
%TD*%
D10*
%TO.P,R16,1*%
%TO.N,INT*%
X74940000Y-76320000D03*
D11*
%TO.P,R16,2*%
%TO.N,APC5*%
X67320000Y-76320000D03*
%TD*%
D10*
%TO.P,C14,1*%
%TO.N,GND*%
X107020000Y-114540000D03*
%TO.P,C14,2*%
%TO.N,+5V*%
X102020000Y-114540000D03*
%TD*%
%TO.P,R28,1*%
%TO.N,Net-(U13-~{CS})*%
X227570000Y-102770000D03*
D11*
%TO.P,R28,2*%
%TO.N,GND*%
X219950000Y-102770000D03*
%TD*%
D12*
%TO.P,JP22,1,A*%
%TO.N,PB7*%
X59900000Y-91850000D03*
D13*
%TO.P,JP22,2,B*%
%TO.N,Net-(J1-IRQ4)*%
X57360000Y-91850000D03*
%TD*%
D12*
%TO.P,J3,1,Pin_1*%
%TO.N,+5V*%
X80630000Y-68850000D03*
D13*
%TO.P,J3,2,Pin_2*%
%TO.N,unconnected-(J3-Pin_2-Pad2)*%
X83170000Y-68850000D03*
%TO.P,J3,3,Pin_3*%
%TO.N,GND*%
X80630000Y-71390000D03*
%TO.P,J3,4,Pin_4*%
%TO.N,MISO*%
X83170000Y-71390000D03*
%TO.P,J3,5,Pin_5*%
%TO.N,unconnected-(J3-Pin_5-Pad5)*%
X80630000Y-73930000D03*
%TO.P,J3,6,Pin_6*%
%TO.N,MOSI*%
X83170000Y-73930000D03*
%TO.P,J3,7,Pin_7*%
%TO.N,INT*%
X80630000Y-76470000D03*
%TO.P,J3,8,Pin_8*%
%TO.N,CS3*%
X83170000Y-76470000D03*
%TO.P,J3,9,Pin_9*%
%TO.N,unconnected-(J3-Pin_9-Pad9)*%
X80630000Y-79010000D03*
%TO.P,J3,10,Pin_10*%
%TO.N,SCK*%
X83170000Y-79010000D03*
%TD*%
D10*
%TO.P,C4,1*%
%TO.N,GND*%
X133540000Y-90860000D03*
%TO.P,C4,2*%
%TO.N,Net-(U11-XTAL2{slash}PB7)*%
X133540000Y-85860000D03*
%TD*%
%TO.P,R25,1*%
%TO.N,Net-(U12-DI)*%
X218856000Y-73588000D03*
D11*
%TO.P,R25,2*%
%TO.N,GND*%
X218856000Y-65968000D03*
%TD*%
D10*
%TO.P,C2,1*%
%TO.N,Net-(U11-AREF)*%
X113480000Y-65050000D03*
%TO.P,C2,2*%
%TO.N,GND*%
X108480000Y-65050000D03*
%TD*%
D15*
%TO.P,U9,1*%
%TO.N,Net-(JP19-C)*%
X167894000Y-85598000D03*
D11*
%TO.P,U9,2*%
%TO.N,Net-(U7-Pad11)*%
X170434000Y-85598000D03*
%TO.P,U9,3*%
%TO.N,Net-(JP17-B)*%
X172974000Y-85598000D03*
%TO.P,U9,4*%
%TO.N,Net-(U7-Pad6)*%
X175514000Y-85598000D03*
%TO.P,U9,5*%
%TO.N,Net-(U7-Pad8)*%
X178054000Y-85598000D03*
%TO.P,U9,6*%
%TO.N,Net-(U9-Pad6)*%
X180594000Y-85598000D03*
%TO.P,U9,7,GND*%
%TO.N,GND*%
X183134000Y-85598000D03*
%TO.P,U9,8*%
%TO.N,Net-(U9-Pad13)*%
X183134000Y-77978000D03*
%TO.P,U9,9*%
%TO.N,Net-(U9-Pad6)*%
X180594000Y-77978000D03*
%TO.P,U9,10*%
%TO.N,Net-(JP17-C)*%
X178054000Y-77978000D03*
%TO.P,U9,11*%
%TO.N,SELROM*%
X175514000Y-77978000D03*
%TO.P,U9,12*%
%TO.N,Net-(U8-Pad11)*%
X172974000Y-77978000D03*
%TO.P,U9,13*%
%TO.N,Net-(U9-Pad13)*%
X170434000Y-77978000D03*
%TO.P,U9,14,VCC*%
%TO.N,+5V*%
X167894000Y-77978000D03*
%TD*%
D12*
%TO.P,JP11,1,A*%
%TO.N,GND*%
X212610000Y-83200000D03*
D13*
%TO.P,JP11,2,B*%
%TO.N,Net-(JP11-B)*%
X212610000Y-85740000D03*
%TD*%
D10*
%TO.P,R13,1*%
%TO.N,+5V*%
X156390000Y-91500000D03*
D11*
%TO.P,R13,2*%
%TO.N,Net-(JP13-B)*%
X156390000Y-99120000D03*
%TD*%
D12*
%TO.P,JP21,1,A*%
%TO.N,PB7*%
X59890000Y-95700000D03*
D13*
%TO.P,JP21,2,B*%
%TO.N,Net-(J1-IRQ5)*%
X57350000Y-95700000D03*
%TD*%
D10*
%TO.P,R14,1*%
%TO.N,+5V*%
X152880000Y-91390000D03*
D11*
%TO.P,R14,2*%
%TO.N,Net-(JP14-B)*%
X152880000Y-99010000D03*
%TD*%
D10*
%TO.P,R7,1*%
%TO.N,+5V*%
X128850000Y-124490000D03*
D11*
%TO.P,R7,2*%
%TO.N,Net-(JP7-B)*%
X128850000Y-132110000D03*
%TD*%
D10*
%TO.P,C7,1*%
%TO.N,GND*%
X222412000Y-84550000D03*
%TO.P,C7,2*%
%TO.N,Net-(D8-K)*%
X222412000Y-89550000D03*
%TD*%
D12*
%TO.P,JP23,1,A*%
%TO.N,PB7*%
X59800000Y-88040000D03*
D13*
%TO.P,JP23,2,B*%
%TO.N,Net-(J1-IRQ3)*%
X57260000Y-88040000D03*
%TD*%
D12*
%TO.P,JP1,1,A*%
%TO.N,GND*%
X200200000Y-116610000D03*
D13*
%TO.P,JP1,2,B*%
%TO.N,Net-(JP1-B)*%
X200200000Y-119150000D03*
%TD*%
D12*
%TO.P,JP9,1,A*%
%TO.N,Net-(D1-K)*%
X128110000Y-64320000D03*
D13*
%TO.P,JP9,2,B*%
%TO.N,+5V*%
X125570000Y-64320000D03*
%TD*%
D10*
%TO.P,R15,1*%
%TO.N,+5V*%
X149280000Y-91440000D03*
D11*
%TO.P,R15,2*%
%TO.N,Net-(JP15-B)*%
X149280000Y-99060000D03*
%TD*%
D15*
%TO.P,U5,1,PA3*%
%TO.N,PA3*%
X64080000Y-133126000D03*
D11*
%TO.P,U5,2,PA2*%
%TO.N,PA2*%
X66620000Y-133126000D03*
%TO.P,U5,3,PA1*%
%TO.N,PA1*%
X69160000Y-133126000D03*
%TO.P,U5,4,PA0*%
%TO.N,PA0*%
X71700000Y-133126000D03*
%TO.P,U5,5,~{RD}*%
%TO.N,IOR*%
X74240000Y-133126000D03*
%TO.P,U5,6,~{CS}*%
%TO.N,SEL8255*%
X76780000Y-133126000D03*
%TO.P,U5,7,GND*%
%TO.N,GND*%
X79320000Y-133126000D03*
%TO.P,U5,8,A1*%
%TO.N,A1*%
X81860000Y-133126000D03*
%TO.P,U5,9,A0*%
%TO.N,A0*%
X84400000Y-133126000D03*
%TO.P,U5,10,PC7*%
%TO.N,PC7*%
X86940000Y-133126000D03*
%TO.P,U5,11,PC6*%
%TO.N,PC6*%
X89480000Y-133126000D03*
%TO.P,U5,12,PC5*%
%TO.N,PC5*%
X92020000Y-133126000D03*
%TO.P,U5,13,PC4*%
%TO.N,PC4*%
X94560000Y-133126000D03*
%TO.P,U5,14,PC0*%
%TO.N,PC0*%
X97100000Y-133126000D03*
%TO.P,U5,15,PC1*%
%TO.N,PC1*%
X99640000Y-133126000D03*
%TO.P,U5,16,PC2*%
%TO.N,PC2*%
X102180000Y-133126000D03*
%TO.P,U5,17,PC3*%
%TO.N,PC3*%
X104720000Y-133126000D03*
%TO.P,U5,18,PB0*%
%TO.N,PB0*%
X107260000Y-133126000D03*
%TO.P,U5,19,PB1*%
%TO.N,PB1*%
X109800000Y-133126000D03*
%TO.P,U5,20,PB2*%
%TO.N,PB2*%
X112340000Y-133126000D03*
%TO.P,U5,21,PB3*%
%TO.N,PB3*%
X112340000Y-117886000D03*
%TO.P,U5,22,PB4*%
%TO.N,PB4*%
X109800000Y-117886000D03*
%TO.P,U5,23,PB5*%
%TO.N,PB5*%
X107260000Y-117886000D03*
%TO.P,U5,24,PB6*%
%TO.N,PB6*%
X104720000Y-117886000D03*
%TO.P,U5,25,PB7*%
%TO.N,PB7*%
X102180000Y-117886000D03*
%TO.P,U5,26,VCC*%
%TO.N,+5V*%
X99640000Y-117886000D03*
%TO.P,U5,27,D7*%
%TO.N,D7*%
X97100000Y-117886000D03*
%TO.P,U5,28,D6*%
%TO.N,D6*%
X94560000Y-117886000D03*
%TO.P,U5,29,D5*%
%TO.N,D5*%
X92020000Y-117886000D03*
%TO.P,U5,30,D4*%
%TO.N,D4*%
X89480000Y-117886000D03*
%TO.P,U5,31,D3*%
%TO.N,D3*%
X86940000Y-117886000D03*
%TO.P,U5,32,D2*%
%TO.N,D2*%
X84400000Y-117886000D03*
%TO.P,U5,33,D1*%
%TO.N,D1*%
X81860000Y-117886000D03*
%TO.P,U5,34,D0*%
%TO.N,D0*%
X79320000Y-117886000D03*
%TO.P,U5,35,RESET*%
%TO.N,RESET*%
X76780000Y-117886000D03*
%TO.P,U5,36,~{WR}*%
%TO.N,IOW*%
X74240000Y-117886000D03*
%TO.P,U5,37,PA7*%
%TO.N,PA7*%
X71700000Y-117886000D03*
%TO.P,U5,38,PA6*%
%TO.N,PA6*%
X69160000Y-117886000D03*
%TO.P,U5,39,PA5*%
%TO.N,PA5*%
X66620000Y-117886000D03*
%TO.P,U5,40,PA4*%
%TO.N,PA4*%
X64080000Y-117886000D03*
%TD*%
D10*
%TO.P,R11,1*%
%TO.N,+5V*%
X213160000Y-91160000D03*
D11*
%TO.P,R11,2*%
%TO.N,Net-(JP11-B)*%
X213160000Y-98780000D03*
%TD*%
D20*
%TO.P,SW1,1,1*%
%TO.N,ARESET*%
X72720000Y-85940000D03*
X79220000Y-85940000D03*
%TO.P,SW1,2,2*%
%TO.N,GND*%
X72720000Y-90440000D03*
X79220000Y-90440000D03*
%TD*%
D12*
%TO.P,JP13,1,A*%
%TO.N,GND*%
X155960000Y-84710000D03*
D13*
%TO.P,JP13,2,B*%
%TO.N,Net-(JP13-B)*%
X155960000Y-87250000D03*
%TD*%
D10*
%TO.P,C12,1*%
%TO.N,GND*%
X144198000Y-121320000D03*
%TO.P,C12,2*%
%TO.N,+5V*%
X139198000Y-121320000D03*
%TD*%
%TO.P,R32,1*%
%TO.N,+5V*%
X224450000Y-111350000D03*
D11*
%TO.P,R32,2*%
%TO.N,Net-(D7-A)*%
X232070000Y-111350000D03*
%TD*%
D10*
%TO.P,R2,1*%
%TO.N,+5V*%
X196160000Y-124490000D03*
D11*
%TO.P,R2,2*%
%TO.N,Net-(JP2-B)*%
X196160000Y-132110000D03*
%TD*%
D10*
%TO.P,R22,1*%
%TO.N,Net-(U12-SCLK)*%
X229524000Y-73260000D03*
D11*
%TO.P,R22,2*%
%TO.N,GND*%
X229524000Y-65640000D03*
%TD*%
D10*
%TO.P,R23,1*%
%TO.N,Net-(D3-K)*%
X95560000Y-66330000D03*
D11*
%TO.P,R23,2*%
%TO.N,CS3*%
X87940000Y-66330000D03*
%TD*%
D10*
%TO.P,R27,1*%
%TO.N,Net-(U12-~{CS})*%
X230730000Y-135050000D03*
D11*
%TO.P,R27,2*%
%TO.N,CS*%
X238350000Y-135050000D03*
%TD*%
D10*
%TO.P,R24,1*%
%TO.N,MOSI*%
X222412000Y-65968000D03*
D11*
%TO.P,R24,2*%
%TO.N,Net-(U12-DI)*%
X222412000Y-73588000D03*
%TD*%
D16*
%TO.P,D7,1,K*%
%TO.N,CS*%
X235680000Y-107910000D03*
D17*
%TO.P,D7,2,A*%
%TO.N,Net-(D7-A)*%
X235680000Y-110450000D03*
%TD*%
D12*
%TO.P,JP4,1,A*%
%TO.N,GND*%
X188430000Y-116600000D03*
D13*
%TO.P,JP4,2,B*%
%TO.N,Net-(JP4-B)*%
X188430000Y-119140000D03*
%TD*%
D15*
%TO.P,U1,1*%
%TO.N,A6*%
X166945000Y-132100000D03*
D11*
%TO.P,U1,2*%
%TO.N,Net-(JP4-B)*%
X169485000Y-132100000D03*
%TO.P,U1,3*%
%TO.N,Net-(U1-Pad3)*%
X172025000Y-132100000D03*
%TO.P,U1,4*%
%TO.N,A7*%
X174565000Y-132100000D03*
%TO.P,U1,5*%
%TO.N,Net-(JP3-B)*%
X177105000Y-132100000D03*
%TO.P,U1,6*%
%TO.N,Net-(U1-Pad6)*%
X179645000Y-132100000D03*
%TO.P,U1,7,GND*%
%TO.N,GND*%
X182185000Y-132100000D03*
%TO.P,U1,8*%
%TO.N,Net-(U1-Pad8)*%
X182185000Y-124480000D03*
%TO.P,U1,9*%
%TO.N,A9*%
X179645000Y-124480000D03*
%TO.P,U1,10*%
%TO.N,Net-(JP1-B)*%
X177105000Y-124480000D03*
%TO.P,U1,11*%
%TO.N,Net-(U1-Pad11)*%
X174565000Y-124480000D03*
%TO.P,U1,12*%
%TO.N,Net-(JP2-B)*%
X172025000Y-124480000D03*
%TO.P,U1,13*%
%TO.N,A8*%
X169485000Y-124480000D03*
%TO.P,U1,14,VCC*%
%TO.N,+5V*%
X166945000Y-124480000D03*
%TD*%
D10*
%TO.P,R1,1*%
%TO.N,+5V*%
X199970000Y-124490000D03*
D11*
%TO.P,R1,2*%
%TO.N,Net-(JP1-B)*%
X199970000Y-132110000D03*
%TD*%
D15*
%TO.P,U6,1*%
%TO.N,A17*%
X192680000Y-98740000D03*
D11*
%TO.P,U6,2*%
%TO.N,Net-(JP11-B)*%
X195220000Y-98740000D03*
%TO.P,U6,3*%
%TO.N,Net-(U6-Pad3)*%
X197760000Y-98740000D03*
%TO.P,U6,4*%
%TO.N,AEN*%
X200300000Y-98740000D03*
%TO.P,U6,5*%
%TO.N,GND*%
X202840000Y-98740000D03*
%TO.P,U6,6*%
%TO.N,Net-(U6-Pad6)*%
X205380000Y-98740000D03*
%TO.P,U6,7,GND*%
%TO.N,GND*%
X207920000Y-98740000D03*
%TO.P,U6,8*%
%TO.N,Net-(U6-Pad8)*%
X207920000Y-91120000D03*
%TO.P,U6,9*%
%TO.N,A19*%
X205380000Y-91120000D03*
%TO.P,U6,10*%
%TO.N,+5V*%
X202840000Y-91120000D03*
%TO.P,U6,11*%
%TO.N,Net-(U6-Pad11)*%
X200300000Y-91120000D03*
%TO.P,U6,12*%
%TO.N,+5V*%
X197760000Y-91120000D03*
%TO.P,U6,13*%
%TO.N,A18*%
X195220000Y-91120000D03*
%TO.P,U6,14,VCC*%
%TO.N,+5V*%
X192680000Y-91120000D03*
%TD*%
D15*
%TO.P,U4,1*%
%TO.N,Net-(U2-Pad3)*%
X142815000Y-116860000D03*
D11*
%TO.P,U4,2*%
%TO.N,Net-(U2-Pad6)*%
X145355000Y-116860000D03*
%TO.P,U4,3*%
%TO.N,Net-(U4-Pad10)*%
X147895000Y-116860000D03*
%TO.P,U4,4*%
%TO.N,Net-(U2-Pad11)*%
X150435000Y-116860000D03*
%TO.P,U4,5*%
%TO.N,Net-(U2-Pad8)*%
X152975000Y-116860000D03*
%TO.P,U4,6*%
%TO.N,Net-(U4-Pad6)*%
X155515000Y-116860000D03*
%TO.P,U4,7,GND*%
%TO.N,GND*%
X158055000Y-116860000D03*
%TO.P,U4,8*%
%TO.N,Net-(U3-Pad13)*%
X158055000Y-109240000D03*
%TO.P,U4,9*%
%TO.N,Net-(U4-Pad6)*%
X155515000Y-109240000D03*
%TO.P,U4,10*%
%TO.N,Net-(U4-Pad10)*%
X152975000Y-109240000D03*
%TO.P,U4,11*%
%TO.N,SEL8255*%
X150435000Y-109240000D03*
%TO.P,U4,12*%
%TO.N,Net-(U3-Pad11)*%
X147895000Y-109240000D03*
%TO.P,U4,13*%
%TO.N,AEN*%
X145355000Y-109240000D03*
%TO.P,U4,14,VCC*%
%TO.N,+5V*%
X142815000Y-109240000D03*
%TD*%
D10*
%TO.P,C13,1*%
%TO.N,GND*%
X145210000Y-100870000D03*
%TO.P,C13,2*%
%TO.N,+5V*%
X140210000Y-100870000D03*
%TD*%
%TO.P,R29,1*%
%TO.N,Net-(U13-~{CS})*%
X229890000Y-102750000D03*
D11*
%TO.P,R29,2*%
%TO.N,CS2*%
X237510000Y-102750000D03*
%TD*%
D16*
%TO.P,D3,1,K*%
%TO.N,Net-(D3-K)*%
X98000000Y-65620000D03*
D17*
%TO.P,D3,2,A*%
%TO.N,+5V*%
X100540000Y-65620000D03*
%TD*%
D10*
%TO.P,R35,1*%
%TO.N,PB7*%
X56690000Y-83600000D03*
D11*
%TO.P,R35,2*%
%TO.N,GND*%
X56690000Y-75980000D03*
%TD*%
D10*
%TO.P,C16,1*%
%TO.N,GND*%
X187632000Y-92110000D03*
%TO.P,C16,2*%
%TO.N,+5V*%
X187632000Y-87110000D03*
%TD*%
D12*
%TO.P,JP19,1,A*%
%TO.N,GND*%
X163500000Y-78040000D03*
D13*
%TO.P,JP19,2,C*%
%TO.N,Net-(JP19-C)*%
X163500000Y-80580000D03*
%TO.P,JP19,3,B*%
%TO.N,Net-(JP19-B)*%
X163500000Y-83120000D03*
%TD*%
D12*
%TO.P,JP2,1,A*%
%TO.N,GND*%
X196290000Y-116630000D03*
D13*
%TO.P,JP2,2,B*%
%TO.N,Net-(JP2-B)*%
X196290000Y-119170000D03*
%TD*%
D12*
%TO.P,JP16,1,A*%
%TO.N,PB7*%
X59900000Y-99400000D03*
D13*
%TO.P,JP16,2,B*%
%TO.N,Net-(J1-IRQ7)*%
X57360000Y-99400000D03*
%TD*%
D15*
%TO.P,U8,1*%
%TO.N,Net-(U6-Pad3)*%
X192715000Y-85790000D03*
D11*
%TO.P,U8,2*%
%TO.N,Net-(U6-Pad11)*%
X195255000Y-85790000D03*
%TO.P,U8,3*%
%TO.N,Net-(U8-Pad13)*%
X197795000Y-85790000D03*
%TO.P,U8,4*%
%TO.N,Net-(U6-Pad6)*%
X200335000Y-85790000D03*
%TO.P,U8,5*%
%TO.N,Net-(U6-Pad8)*%
X202875000Y-85790000D03*
%TO.P,U8,6*%
%TO.N,Net-(U8-Pad12)*%
X205415000Y-85790000D03*
%TO.P,U8,7,GND*%
%TO.N,GND*%
X207955000Y-85790000D03*
%TO.P,U8,8*%
%TO.N,unconnected-(U8-Pad8)*%
X207955000Y-78170000D03*
%TO.P,U8,9*%
%TO.N,GND*%
X205415000Y-78170000D03*
%TO.P,U8,10*%
X202875000Y-78170000D03*
%TO.P,U8,11*%
%TO.N,Net-(U8-Pad11)*%
X200335000Y-78170000D03*
%TO.P,U8,12*%
%TO.N,Net-(U8-Pad12)*%
X197795000Y-78170000D03*
%TO.P,U8,13*%
%TO.N,Net-(U8-Pad13)*%
X195255000Y-78170000D03*
%TO.P,U8,14,VCC*%
%TO.N,+5V*%
X192715000Y-78170000D03*
%TD*%
D15*
%TO.P,U2,1*%
%TO.N,A2*%
X142815000Y-132100000D03*
D11*
%TO.P,U2,2*%
%TO.N,Net-(JP8-B)*%
X145355000Y-132100000D03*
%TO.P,U2,3*%
%TO.N,Net-(U2-Pad3)*%
X147895000Y-132100000D03*
%TO.P,U2,4*%
%TO.N,A3*%
X150435000Y-132100000D03*
%TO.P,U2,5*%
%TO.N,Net-(JP7-B)*%
X152975000Y-132100000D03*
%TO.P,U2,6*%
%TO.N,Net-(U2-Pad6)*%
X155515000Y-132100000D03*
%TO.P,U2,7,GND*%
%TO.N,GND*%
X158055000Y-132100000D03*
%TO.P,U2,8*%
%TO.N,Net-(U2-Pad8)*%
X158055000Y-124480000D03*
%TO.P,U2,9*%
%TO.N,A5*%
X155515000Y-124480000D03*
%TO.P,U2,10*%
%TO.N,Net-(JP5-B)*%
X152975000Y-124480000D03*
%TO.P,U2,11*%
%TO.N,Net-(U2-Pad11)*%
X150435000Y-124480000D03*
%TO.P,U2,12*%
%TO.N,A4*%
X147895000Y-124480000D03*
%TO.P,U2,13*%
%TO.N,Net-(JP6-B)*%
X145355000Y-124480000D03*
%TO.P,U2,14,VCC*%
%TO.N,+5V*%
X142815000Y-124480000D03*
%TD*%
D10*
%TO.P,R6,1*%
%TO.N,+5V*%
X132660000Y-124490000D03*
D11*
%TO.P,R6,2*%
%TO.N,Net-(JP6-B)*%
X132660000Y-132110000D03*
%TD*%
D10*
%TO.P,R30,1*%
%TO.N,Net-(D5-A)*%
X232570000Y-78360000D03*
D11*
%TO.P,R30,2*%
%TO.N,+5V*%
X224950000Y-78360000D03*
%TD*%
D15*
%TO.P,D8,1,K*%
%TO.N,Net-(D8-K)*%
X219120000Y-99950000D03*
D11*
%TO.P,D8,2,A*%
%TO.N,Net-(D8-A)*%
X219120000Y-92330000D03*
%TD*%
D15*
%TO.P,U10,1,A14*%
%TO.N,A14*%
X135830000Y-93700000D03*
D11*
%TO.P,U10,2,A12*%
%TO.N,A12*%
X133290000Y-93700000D03*
%TO.P,U10,3,A7*%
%TO.N,A7*%
X130750000Y-93700000D03*
%TO.P,U10,4,A6*%
%TO.N,A6*%
X128210000Y-93700000D03*
%TO.P,U10,5,A5*%
%TO.N,A5*%
X125670000Y-93700000D03*
%TO.P,U10,6,A4*%
%TO.N,A4*%
X123130000Y-93700000D03*
%TO.P,U10,7,A3*%
%TO.N,A3*%
X120590000Y-93700000D03*
%TO.P,U10,8,A2*%
%TO.N,A2*%
X118050000Y-93700000D03*
%TO.P,U10,9,A1*%
%TO.N,A1*%
X115510000Y-93700000D03*
%TO.P,U10,10,A0*%
%TO.N,A0*%
X112970000Y-93700000D03*
%TO.P,U10,11,D0*%
%TO.N,D0*%
X110430000Y-93700000D03*
%TO.P,U10,12,D1*%
%TO.N,D1*%
X107890000Y-93700000D03*
%TO.P,U10,13,D2*%
%TO.N,D2*%
X105350000Y-93700000D03*
%TO.P,U10,14,GND*%
%TO.N,GND*%
X102810000Y-93700000D03*
%TO.P,U10,15,D3*%
%TO.N,D3*%
X102810000Y-108940000D03*
%TO.P,U10,16,D4*%
%TO.N,D4*%
X105350000Y-108940000D03*
%TO.P,U10,17,D5*%
%TO.N,D5*%
X107890000Y-108940000D03*
%TO.P,U10,18,D6*%
%TO.N,D6*%
X110430000Y-108940000D03*
%TO.P,U10,19,D7*%
%TO.N,D7*%
X112970000Y-108940000D03*
%TO.P,U10,20,~{CS}*%
%TO.N,SELROM*%
X115510000Y-108940000D03*
%TO.P,U10,21,A10*%
%TO.N,A10*%
X118050000Y-108940000D03*
%TO.P,U10,22,~{OE}*%
%TO.N,MEMR*%
X120590000Y-108940000D03*
%TO.P,U10,23,A11*%
%TO.N,A11*%
X123130000Y-108940000D03*
%TO.P,U10,24,A9*%
%TO.N,A9*%
X125670000Y-108940000D03*
%TO.P,U10,25,A8*%
%TO.N,A8*%
X128210000Y-108940000D03*
%TO.P,U10,26,A13*%
%TO.N,A13*%
X130750000Y-108940000D03*
%TO.P,U10,27,~{WE}*%
%TO.N,Net-(JP18-C)*%
X133290000Y-108940000D03*
%TO.P,U10,28,VCC*%
%TO.N,+5V*%
X135830000Y-108940000D03*
%TD*%
D10*
%TO.P,R26,1*%
%TO.N,Net-(U12-~{CS})*%
X228320000Y-134950000D03*
D11*
%TO.P,R26,2*%
%TO.N,GND*%
X220700000Y-134950000D03*
%TD*%
D12*
%TO.P,J2,1,Pin_1*%
%TO.N,MISO*%
X155070000Y-73650000D03*
D13*
%TO.P,J2,2,Pin_2*%
%TO.N,Net-(J2-Pin_2)*%
X152530000Y-73650000D03*
%TO.P,J2,3,Pin_3*%
%TO.N,SCK*%
X155070000Y-71110000D03*
%TO.P,J2,4,Pin_4*%
%TO.N,MOSI*%
X152530000Y-71110000D03*
%TO.P,J2,5,Pin_5*%
%TO.N,ARESET*%
X155070000Y-68570000D03*
%TO.P,J2,6,Pin_6*%
%TO.N,GND*%
X152530000Y-68570000D03*
%TD*%
D15*
%TO.P,D1,1,K*%
%TO.N,Net-(D1-K)*%
X131100000Y-64370000D03*
D11*
%TO.P,D1,2,A*%
%TO.N,+5V*%
X138720000Y-64370000D03*
%TD*%
D12*
%TO.P,JP14,1,A*%
%TO.N,GND*%
X152020000Y-84670000D03*
D13*
%TO.P,JP14,2,B*%
%TO.N,Net-(JP14-B)*%
X152020000Y-87210000D03*
%TD*%
D10*
%TO.P,R36,1*%
%TO.N,+5V*%
X59890000Y-76000000D03*
D11*
%TO.P,R36,2*%
%TO.N,PB7*%
X59890000Y-83620000D03*
%TD*%
D12*
%TO.P,JP8,1,A*%
%TO.N,GND*%
X122880000Y-117160000D03*
D13*
%TO.P,JP8,2,B*%
%TO.N,Net-(JP8-B)*%
X122880000Y-119700000D03*
%TD*%
D10*
%TO.P,R33,1*%
%TO.N,Net-(D8-K)*%
X222158000Y-92384000D03*
D11*
%TO.P,R33,2*%
%TO.N,GND*%
X222158000Y-100004000D03*
%TD*%
D15*
%TO.P,U7,1*%
%TO.N,A13*%
X167889000Y-98796000D03*
D11*
%TO.P,U7,2*%
%TO.N,Net-(JP15-B)*%
X170429000Y-98796000D03*
%TO.P,U7,3*%
%TO.N,Net-(JP19-B)*%
X172969000Y-98796000D03*
%TO.P,U7,4*%
%TO.N,Net-(JP13-B)*%
X175509000Y-98796000D03*
%TO.P,U7,5*%
%TO.N,A15*%
X178049000Y-98796000D03*
%TO.P,U7,6*%
%TO.N,Net-(U7-Pad6)*%
X180589000Y-98796000D03*
%TO.P,U7,7,GND*%
%TO.N,GND*%
X183129000Y-98796000D03*
%TO.P,U7,8*%
%TO.N,Net-(U7-Pad8)*%
X183129000Y-91176000D03*
%TO.P,U7,9*%
%TO.N,A16*%
X180589000Y-91176000D03*
%TO.P,U7,10*%
%TO.N,Net-(JP12-B)*%
X178049000Y-91176000D03*
%TO.P,U7,11*%
%TO.N,Net-(U7-Pad11)*%
X175509000Y-91176000D03*
%TO.P,U7,12*%
%TO.N,A14*%
X172969000Y-91176000D03*
%TO.P,U7,13*%
%TO.N,Net-(JP14-B)*%
X170429000Y-91176000D03*
%TO.P,U7,14,VCC*%
%TO.N,+5V*%
X167889000Y-91176000D03*
%TD*%
D10*
%TO.P,C6,1*%
%TO.N,GND*%
X221060000Y-129230000D03*
%TO.P,C6,2*%
%TO.N,Net-(D4-K)*%
X221060000Y-124230000D03*
%TD*%
D12*
%TO.P,JP17,1,A*%
%TO.N,GND*%
X180570000Y-72950000D03*
D13*
%TO.P,JP17,2,C*%
%TO.N,Net-(JP17-C)*%
X178030000Y-72950000D03*
%TO.P,JP17,3,B*%
%TO.N,Net-(JP17-B)*%
X175490000Y-72950000D03*
%TD*%
D10*
%TO.P,R37,1*%
%TO.N,APC4*%
X63080000Y-75970000D03*
D11*
%TO.P,R37,2*%
%TO.N,PB7*%
X63080000Y-83590000D03*
%TD*%
D15*
%TO.P,D2,1,K*%
%TO.N,Net-(D1-K)*%
X102970000Y-69860000D03*
D11*
%TO.P,D2,2,A*%
%TO.N,ARESET*%
X102970000Y-77480000D03*
%TD*%
D10*
%TO.P,C1,1*%
%TO.N,Net-(D1-K)*%
X123040000Y-80130000D03*
%TO.P,C1,2*%
%TO.N,GND*%
X123040000Y-85130000D03*
%TD*%
D12*
%TO.P,JP6,1,A*%
%TO.N,GND*%
X130580000Y-117200000D03*
D13*
%TO.P,JP6,2,B*%
%TO.N,Net-(JP6-B)*%
X130580000Y-119740000D03*
%TD*%
D12*
%TO.P,J4,1,Pin_1*%
%TO.N,APC4*%
X62670000Y-69060000D03*
D13*
%TO.P,J4,2,Pin_2*%
%TO.N,APC5*%
X65210000Y-69060000D03*
%TO.P,J4,3,Pin_3*%
%TO.N,+5V*%
X67750000Y-69060000D03*
%TO.P,J4,4,Pin_4*%
%TO.N,GND*%
X70290000Y-69060000D03*
%TD*%
D10*
%TO.P,R10,1*%
%TO.N,RESET*%
X66010000Y-114520000D03*
D11*
%TO.P,R10,2*%
%TO.N,Net-(Q1-B)*%
X55850000Y-114520000D03*
%TD*%
D10*
%TO.P,R18,1*%
%TO.N,Net-(D1-K)*%
X99980000Y-69860000D03*
D11*
%TO.P,R18,2*%
%TO.N,ARESET*%
X99980000Y-77480000D03*
%TD*%
D10*
%TO.P,R8,1*%
%TO.N,+5V*%
X125040000Y-124490000D03*
D11*
%TO.P,R8,2*%
%TO.N,Net-(JP8-B)*%
X125040000Y-132110000D03*
%TD*%
D21*
%TO.N,Net-(D4-K)*%
X223180000Y-123230000D03*
%TO.N,GND*%
X214690000Y-136670000D03*
X142090000Y-147400000D03*
X220380000Y-146740000D03*
X197520000Y-146740000D03*
%TO.N,RESET*%
X203570000Y-112540000D03*
X216824000Y-134040000D03*
X113120000Y-119540000D03*
%TO.N,+5V*%
X217350000Y-90670000D03*
X215300000Y-134802000D03*
X93280000Y-136200000D03*
X213170000Y-69670000D03*
X140850000Y-116760000D03*
X99010000Y-122110000D03*
X208850000Y-89600000D03*
X213905000Y-74845000D03*
X184222000Y-122458000D03*
%TO.N,A9*%
X161720000Y-125638000D03*
X170750000Y-143790000D03*
X126580000Y-113400000D03*
X178340345Y-129609655D03*
%TO.N,A8*%
X168495000Y-143765000D03*
X161870000Y-123030000D03*
X128250000Y-113300000D03*
%TO.N,A7*%
X166116992Y-142973008D03*
X131790000Y-107070000D03*
X139270000Y-111200000D03*
%TO.N,A6*%
X138200000Y-112260000D03*
X164520000Y-142580000D03*
X129410000Y-107030000D03*
%TO.N,A5*%
X124180000Y-107150000D03*
X156260000Y-142515000D03*
X124550000Y-113510000D03*
%TO.N,A4*%
X150100000Y-126914500D03*
X134320000Y-132950000D03*
X121860000Y-107230000D03*
X153800000Y-142650000D03*
%TO.N,A3*%
X151110000Y-142515000D03*
X119250000Y-107220000D03*
X146430000Y-130090000D03*
%TO.N,A2*%
X148850000Y-142515000D03*
X116970000Y-107250000D03*
%TO.N,A1*%
X146960000Y-142515000D03*
%TO.N,A0*%
X143930000Y-143045000D03*
X83210000Y-128510000D03*
%TO.N,Net-(U2-Pad3)*%
X146620000Y-125610000D03*
%TO.N,Net-(U2-Pad6)*%
X148390000Y-120450000D03*
%TO.N,IOW*%
X188270000Y-146480000D03*
X132820000Y-142630000D03*
%TO.N,IOR*%
X134060000Y-143390000D03*
X185760000Y-146320000D03*
%TO.N,D7*%
X141110000Y-133410000D03*
%TO.N,D6*%
X140550000Y-134340000D03*
%TO.N,D5*%
X141820000Y-135385000D03*
%TO.N,D4*%
X140900000Y-136280000D03*
%TO.N,D3*%
X142190000Y-137240000D03*
%TO.N,D2*%
X141490000Y-138230000D03*
%TO.N,D1*%
X142080000Y-139280000D03*
%TO.N,D0*%
X144270000Y-139050000D03*
%TO.N,SEL8255*%
X114750000Y-119490000D03*
%TO.N,MEMW*%
X139540000Y-87580000D03*
%TO.N,MEMR*%
X121240000Y-112420000D03*
%TO.N,A19*%
X193190000Y-143250000D03*
%TO.N,A18*%
X191000000Y-143150000D03*
%TO.N,A17*%
X187170000Y-144160000D03*
%TO.N,A16*%
X184680000Y-144050000D03*
%TO.N,A15*%
X183650000Y-142950000D03*
%TO.N,A14*%
X181720000Y-143020000D03*
%TO.N,A13*%
X179340000Y-142930000D03*
X166790000Y-104055000D03*
X167889000Y-101800000D03*
%TO.N,A12*%
X176780000Y-142950000D03*
%TO.N,A11*%
X122750000Y-113410000D03*
X118240000Y-120730000D03*
%TO.N,A10*%
X117930000Y-113710000D03*
X117100000Y-120110000D03*
%TO.N,ARESET*%
X154810000Y-63750000D03*
%TO.N,Net-(JP3-B)*%
X181010000Y-133180000D03*
%TO.N,MISO*%
X101630000Y-73030000D03*
X228070000Y-126260000D03*
X228850000Y-93810000D03*
%TO.N,Net-(JP4-B)*%
X184980000Y-132960000D03*
%TO.N,SCK*%
X101790000Y-74820000D03*
X131390000Y-72860000D03*
%TO.N,MOSI*%
X102890000Y-73960000D03*
%TO.N,Net-(JP5-B)*%
X134640000Y-128750000D03*
%TO.N,CS3*%
X83940000Y-80875000D03*
X103270000Y-75620000D03*
%TO.N,Net-(JP11-B)*%
X210728000Y-100004000D03*
%TO.N,Net-(JP12-B)*%
X171290000Y-93920000D03*
%TO.N,Net-(JP13-B)*%
X164930000Y-96800000D03*
%TO.N,APC4*%
X103920000Y-64260000D03*
%TO.N,Net-(JP14-B)*%
X168580000Y-93600000D03*
X162750000Y-91400000D03*
X155630000Y-93360000D03*
%TO.N,APC5*%
X102460000Y-65570000D03*
%TO.N,CS*%
X139270000Y-67290000D03*
%TO.N,CS2*%
X141590000Y-67260000D03*
%TO.N,PC7*%
X88150000Y-136230000D03*
%TO.N,PC1*%
X95660000Y-134900000D03*
%TO.N,PC2*%
X96210000Y-139640000D03*
%TO.N,PB2*%
X115230000Y-139610000D03*
%TO.N,PB3*%
X108980000Y-136870000D03*
X111140000Y-121440000D03*
%TO.N,PB4*%
X108590000Y-121294500D03*
X107770000Y-135860000D03*
%TO.N,PB5*%
X106670000Y-121294500D03*
X105960000Y-134820000D03*
%TO.N,PB6*%
X104710000Y-121294500D03*
X103460000Y-135010000D03*
%TO.N,PB7*%
X102180000Y-121340000D03*
X99960000Y-135210000D03*
%TO.N,Net-(U12-SCLK)*%
X230660000Y-90850000D03*
X229320000Y-124170000D03*
%TO.N,Net-(U12-DI)*%
X228570000Y-89110000D03*
X229220000Y-122130000D03*
%TO.N,Net-(U12-~{CS})*%
X224530000Y-121320000D03*
%TO.N,Net-(U13-~{CS})*%
X224400000Y-88260000D03*
%TO.N,AEN*%
X146030000Y-106620000D03*
X208040000Y-96560000D03*
X197012000Y-142930000D03*
X190310000Y-106090000D03*
%TO.N,Net-(U3-Pad11)*%
X149650000Y-106745000D03*
%TO.N,Net-(U8-Pad11)*%
X172974000Y-74850000D03*
%TD*%
D22*
%TO.N,PB7*%
X59900000Y-99400000D02*
X54280000Y-105020000D01*
X54280000Y-105020000D02*
X54280000Y-139290000D01*
X59790000Y-144800000D02*
X93740000Y-144800000D01*
X54280000Y-139290000D02*
X59790000Y-144800000D01*
X93740000Y-144800000D02*
X94900000Y-143640000D01*
X94900000Y-143640000D02*
X94900000Y-142440000D01*
%TO.N,PC4*%
X67160000Y-101390000D02*
X82490000Y-101390000D01*
X89200000Y-87180000D02*
X96690000Y-79690000D01*
X57170000Y-111380000D02*
X67160000Y-101390000D01*
X89200000Y-94690000D02*
X89200000Y-87180000D01*
X88880000Y-95010000D02*
X89200000Y-94690000D01*
X104490000Y-67520000D02*
X105450000Y-66560000D01*
X57170000Y-136270000D02*
X57170000Y-111380000D01*
X60360000Y-139460000D02*
X57170000Y-136270000D01*
X88870000Y-95010000D02*
X88880000Y-95010000D01*
X104490000Y-78970000D02*
X104490000Y-67520000D01*
X88960000Y-139460000D02*
X60360000Y-139460000D01*
X92000000Y-136420000D02*
X88960000Y-139460000D01*
X121180000Y-69580000D02*
X121180000Y-69720000D01*
X82490000Y-101390000D02*
X88870000Y-95010000D01*
X92000000Y-135686000D02*
X92000000Y-136420000D01*
X94560000Y-133126000D02*
X92000000Y-135686000D01*
X96690000Y-79690000D02*
X103770000Y-79690000D01*
X105450000Y-66560000D02*
X118160000Y-66560000D01*
X103770000Y-79690000D02*
X104490000Y-78970000D01*
X118160000Y-66560000D02*
X121180000Y-69580000D01*
%TO.N,PC5*%
X89880000Y-95210000D02*
X89880000Y-87800000D01*
X57980000Y-112080000D02*
X67970000Y-102090000D01*
X60880000Y-138760000D02*
X57980000Y-135860000D01*
X116700000Y-67280000D02*
X118640000Y-69220000D01*
X67970000Y-102090000D02*
X83000000Y-102090000D01*
X57980000Y-135860000D02*
X57980000Y-112080000D01*
X83000000Y-102090000D02*
X89880000Y-95210000D01*
X97200000Y-80480000D02*
X104270000Y-80480000D01*
X90430000Y-136770000D02*
X88440000Y-138760000D01*
X90430000Y-135810000D02*
X90430000Y-136770000D01*
X92020000Y-134220000D02*
X90430000Y-135810000D01*
X106330000Y-67280000D02*
X116700000Y-67280000D01*
X89880000Y-87800000D02*
X97200000Y-80480000D01*
X88440000Y-138760000D02*
X60880000Y-138760000D01*
X92020000Y-133126000D02*
X92020000Y-134220000D01*
X104270000Y-80480000D02*
X105270000Y-79480000D01*
X105270000Y-79480000D02*
X105270000Y-68340000D01*
X105270000Y-68340000D02*
X106330000Y-67280000D01*
X118640000Y-69220000D02*
X118640000Y-69720000D01*
%TO.N,PC6*%
X105940000Y-79910000D02*
X105940000Y-69040000D01*
X90740000Y-95540000D02*
X90740000Y-88110000D01*
X83410000Y-102870000D02*
X90740000Y-95540000D01*
X90740000Y-88110000D02*
X97600000Y-81250000D01*
X68380000Y-102870000D02*
X83410000Y-102870000D01*
X58690000Y-112560000D02*
X68380000Y-102870000D01*
X58690000Y-135390000D02*
X58690000Y-112560000D01*
X61310000Y-138010000D02*
X58690000Y-135390000D01*
X87860000Y-138010000D02*
X61310000Y-138010000D01*
X107070000Y-67910000D02*
X115320000Y-67910000D01*
X104600000Y-81250000D02*
X105940000Y-79910000D01*
X89480000Y-136390000D02*
X87860000Y-138010000D01*
X97600000Y-81250000D02*
X104600000Y-81250000D01*
X89480000Y-133126000D02*
X89480000Y-136390000D01*
X105940000Y-69040000D02*
X107070000Y-67910000D01*
X115320000Y-67910000D02*
X116100000Y-68690000D01*
X116100000Y-68690000D02*
X116100000Y-69720000D01*
%TO.N,PC7*%
X105370000Y-81990000D02*
X106760000Y-80600000D01*
X106760000Y-80600000D02*
X106760000Y-72850000D01*
X98040000Y-81990000D02*
X105370000Y-81990000D01*
X112580000Y-71450000D02*
X113560000Y-70470000D01*
X106760000Y-72850000D02*
X108160000Y-71450000D01*
X68840000Y-103580000D02*
X83830000Y-103580000D01*
X91610000Y-95800000D02*
X91610000Y-88420000D01*
X91610000Y-88420000D02*
X98040000Y-81990000D01*
X83830000Y-103580000D02*
X91610000Y-95800000D01*
X113560000Y-70470000D02*
X113560000Y-69720000D01*
X59440000Y-112980000D02*
X68840000Y-103580000D01*
X59440000Y-134990000D02*
X59440000Y-112980000D01*
X61540000Y-137090000D02*
X59440000Y-134990000D01*
X87290000Y-137090000D02*
X61540000Y-137090000D01*
X88150000Y-136230000D02*
X87290000Y-137090000D01*
X108160000Y-71450000D02*
X112580000Y-71450000D01*
%TO.N,PA0*%
X71700000Y-133126000D02*
X71484000Y-133126000D01*
X106560000Y-82730000D02*
X111020000Y-78270000D01*
X71484000Y-133126000D02*
X68240000Y-136370000D01*
X61950000Y-136370000D02*
X60190000Y-134610000D01*
X60190000Y-134610000D02*
X60190000Y-113430000D01*
X98450000Y-82730000D02*
X106560000Y-82730000D01*
X68240000Y-136370000D02*
X61950000Y-136370000D01*
X92380000Y-88800000D02*
X98450000Y-82730000D01*
X60190000Y-113430000D02*
X68500000Y-105120000D01*
X68500000Y-105120000D02*
X83400000Y-105120000D01*
X83400000Y-105120000D02*
X92380000Y-96140000D01*
X111020000Y-78270000D02*
X111020000Y-77340000D01*
X92380000Y-96140000D02*
X92380000Y-88800000D01*
%TO.N,PA1*%
X69160000Y-133126000D02*
X69160000Y-133780000D01*
X69160000Y-133780000D02*
X67270000Y-135670000D01*
X93220000Y-89280000D02*
X98860000Y-83640000D01*
X67270000Y-135670000D02*
X62240000Y-135670000D01*
X62240000Y-135670000D02*
X60920000Y-134350000D01*
X93220000Y-96430000D02*
X93220000Y-89280000D01*
X60920000Y-134350000D02*
X60920000Y-113910000D01*
X60920000Y-113910000D02*
X67990000Y-106840000D01*
X67990000Y-106840000D02*
X82810000Y-106840000D01*
X82810000Y-106840000D02*
X93220000Y-96430000D01*
X98860000Y-83640000D02*
X107310000Y-83640000D01*
X107310000Y-83640000D02*
X113560000Y-77390000D01*
X113560000Y-77390000D02*
X113560000Y-77340000D01*
%TO.N,PA3*%
X68020000Y-109250000D02*
X62450000Y-114820000D01*
X63146000Y-133126000D02*
X64080000Y-133126000D01*
X82720000Y-109250000D02*
X68020000Y-109250000D01*
X94760000Y-97210000D02*
X82720000Y-109250000D01*
X62450000Y-132430000D02*
X63146000Y-133126000D01*
X62450000Y-114820000D02*
X62450000Y-132430000D01*
X99450000Y-85360000D02*
X94760000Y-90050000D01*
X111020000Y-85360000D02*
X99450000Y-85360000D01*
X118640000Y-77740000D02*
X111020000Y-85360000D01*
X94760000Y-90050000D02*
X94760000Y-97210000D01*
X118640000Y-77340000D02*
X118640000Y-77740000D01*
%TO.N,Net-(Q1-B)*%
X55850000Y-114520000D02*
X55900000Y-114470000D01*
X81750000Y-100680000D02*
X87520000Y-94910000D01*
X55900000Y-114470000D02*
X55900000Y-110110000D01*
X55900000Y-110110000D02*
X65330000Y-100680000D01*
X65330000Y-100680000D02*
X81750000Y-100680000D01*
X87520000Y-94910000D02*
X87520000Y-92920000D01*
%TO.N,PA2*%
X66620000Y-133126000D02*
X66620000Y-134290000D01*
X66620000Y-134290000D02*
X65880000Y-135030000D01*
X93960000Y-96840000D02*
X93960000Y-89580000D01*
X65880000Y-135030000D02*
X62720000Y-135030000D01*
X82460000Y-108340000D02*
X93960000Y-96840000D01*
X115950000Y-77340000D02*
X116100000Y-77340000D01*
X62720000Y-135030000D02*
X61680000Y-133990000D01*
X93960000Y-89580000D02*
X98980000Y-84560000D01*
X61680000Y-133990000D02*
X61680000Y-114350000D01*
X61680000Y-114350000D02*
X67690000Y-108340000D01*
X67690000Y-108340000D02*
X82460000Y-108340000D01*
X98980000Y-84560000D02*
X108730000Y-84560000D01*
X108730000Y-84560000D02*
X115950000Y-77340000D01*
%TO.N,PC2*%
X97290000Y-139640000D02*
X102180000Y-134750000D01*
X96210000Y-139640000D02*
X97290000Y-139640000D01*
X102180000Y-134750000D02*
X102180000Y-133126000D01*
%TO.N,PC0*%
X97100000Y-133126000D02*
X97100000Y-135170000D01*
X97100000Y-135170000D02*
X89830000Y-142440000D01*
X89830000Y-142440000D02*
X89820000Y-142440000D01*
%TO.N,PB6*%
X103450000Y-135010000D02*
X97440000Y-141020000D01*
%TO.N,PB3*%
X108980000Y-136950000D02*
X105060000Y-140870000D01*
%TO.N,PB1*%
X110490000Y-144950000D02*
X110140000Y-144600000D01*
%TO.N,PB3*%
X108980000Y-136870000D02*
X108980000Y-136950000D01*
X105060000Y-140870000D02*
X105060000Y-142440000D01*
%TO.N,PB1*%
X113850000Y-144950000D02*
X110490000Y-144950000D01*
X110140000Y-144600000D02*
X110140000Y-142440000D01*
X109800000Y-135100000D02*
X114470000Y-139770000D01*
X109800000Y-133126000D02*
X109800000Y-135100000D01*
%TO.N,PB0*%
X112700000Y-142420000D02*
X112680000Y-142440000D01*
X107260000Y-133760000D02*
X112700000Y-139200000D01*
X107260000Y-133126000D02*
X107260000Y-133760000D01*
%TO.N,PB5*%
X99980000Y-140540000D02*
X99980000Y-142440000D01*
%TO.N,PB7*%
X99030000Y-135210000D02*
X94920000Y-139320000D01*
%TO.N,PB6*%
X97440000Y-141020000D02*
X97440000Y-142440000D01*
%TO.N,PB4*%
X107770000Y-135860000D02*
X107620000Y-135860000D01*
%TO.N,PC1*%
X87280000Y-141730000D02*
X87280000Y-142440000D01*
%TO.N,PB5*%
X105960000Y-134820000D02*
X105700000Y-134820000D01*
%TO.N,PB4*%
X102520000Y-140960000D02*
X102520000Y-142440000D01*
%TO.N,PB6*%
X103460000Y-135010000D02*
X103450000Y-135010000D01*
%TO.N,+5V*%
X78030000Y-140270000D02*
X77120000Y-141180000D01*
%TO.N,PB1*%
X114470000Y-144330000D02*
X113850000Y-144950000D01*
%TO.N,PB5*%
X105700000Y-134820000D02*
X99980000Y-140540000D01*
%TO.N,PB4*%
X107620000Y-135860000D02*
X102520000Y-140960000D01*
%TO.N,+5V*%
X77120000Y-141180000D02*
X77120000Y-142440000D01*
%TO.N,PB1*%
X114470000Y-139770000D02*
X114470000Y-144330000D01*
%TO.N,PB0*%
X112700000Y-139200000D02*
X112700000Y-142420000D01*
%TO.N,PB7*%
X99960000Y-135210000D02*
X99030000Y-135210000D01*
X94920000Y-139320000D02*
X94920000Y-142420000D01*
X94920000Y-142420000D02*
X94900000Y-142440000D01*
%TO.N,PC1*%
X95660000Y-134900000D02*
X95660000Y-135450000D01*
X95660000Y-135450000D02*
X90120000Y-140990000D01*
X90120000Y-140990000D02*
X88020000Y-140990000D01*
X88020000Y-140990000D02*
X87280000Y-141730000D01*
%TO.N,+5V*%
X93280000Y-136200000D02*
X93280000Y-136460000D01*
X93280000Y-136460000D02*
X89470000Y-140270000D01*
X89470000Y-140270000D02*
X78030000Y-140270000D01*
%TO.N,PB2*%
X115230000Y-139610000D02*
X115230000Y-139240000D01*
X115230000Y-139240000D02*
X112340000Y-136350000D01*
X112340000Y-136350000D02*
X112340000Y-133126000D01*
%TO.N,IOR*%
X134060000Y-143390000D02*
X134045000Y-143405000D01*
X115080000Y-132720000D02*
X114100000Y-131740000D01*
X74240000Y-133440000D02*
X74240000Y-133126000D01*
X134045000Y-143405000D02*
X120615000Y-143405000D01*
X114100000Y-131740000D02*
X88670000Y-131740000D01*
X87150000Y-135850000D02*
X76650000Y-135850000D01*
X120615000Y-143405000D02*
X115080000Y-137870000D01*
X115080000Y-137870000D02*
X115080000Y-132720000D01*
X88670000Y-131740000D02*
X88190000Y-132220000D01*
X76650000Y-135850000D02*
X74240000Y-133440000D01*
X88190000Y-132220000D02*
X88190000Y-134810000D01*
X88190000Y-134810000D02*
X87150000Y-135850000D01*
%TO.N,IOW*%
X81470000Y-135090000D02*
X80620000Y-134240000D01*
X84690000Y-135090000D02*
X81470000Y-135090000D01*
X80620000Y-134240000D02*
X80620000Y-132160000D01*
X85660000Y-134120000D02*
X84690000Y-135090000D01*
X85660000Y-131870000D02*
X85660000Y-134120000D01*
X86610000Y-130920000D02*
X85660000Y-131870000D01*
X115870000Y-131660000D02*
X115130000Y-130920000D01*
X115130000Y-130920000D02*
X86610000Y-130920000D01*
X115870000Y-137370000D02*
X115870000Y-131660000D01*
X132820000Y-142630000D02*
X132790000Y-142660000D01*
X121160000Y-142660000D02*
X115870000Y-137370000D01*
X75450000Y-126990000D02*
X75450000Y-122260000D01*
X75450000Y-122260000D02*
X74240000Y-121050000D01*
X132790000Y-142660000D02*
X121160000Y-142660000D01*
X80620000Y-132160000D02*
X75450000Y-126990000D01*
X74240000Y-121050000D02*
X74240000Y-117886000D01*
%TO.N,Net-(D1-K)*%
X121070000Y-80130000D02*
X119690000Y-81510000D01*
X119040000Y-63350000D02*
X107570000Y-63350000D01*
X145915000Y-74430000D02*
X130830000Y-74430000D01*
X131200000Y-64470000D02*
X131200000Y-67170000D01*
X122470000Y-66780000D02*
X119040000Y-63350000D01*
X99990000Y-69870000D02*
X99980000Y-69860000D01*
X103820000Y-68950000D02*
X102970000Y-69800000D01*
X123040000Y-80130000D02*
X123040000Y-78020000D01*
X149500000Y-78015000D02*
X145915000Y-74430000D01*
X102970000Y-69800000D02*
X102970000Y-69860000D01*
X128800000Y-72400000D02*
X128800000Y-69720000D01*
X103820000Y-67100000D02*
X103820000Y-68950000D01*
X130800000Y-64670000D02*
X128460000Y-64670000D01*
X131200000Y-67170000D02*
X128940000Y-69430000D01*
X128110000Y-64320000D02*
X125650000Y-66780000D01*
X128940000Y-69580000D02*
X128800000Y-69720000D01*
X125650000Y-66780000D02*
X122470000Y-66780000D01*
X149500000Y-79120000D02*
X149500000Y-78015000D01*
X128460000Y-64670000D02*
X128110000Y-64320000D01*
X102960000Y-69870000D02*
X99990000Y-69870000D01*
X131100000Y-64370000D02*
X131200000Y-64470000D01*
X123040000Y-78020000D02*
X123720000Y-77340000D01*
X102970000Y-69860000D02*
X102960000Y-69870000D01*
X123720000Y-77340000D02*
X123720000Y-74800000D01*
X123720000Y-74800000D02*
X128800000Y-69720000D01*
X107570000Y-63350000D02*
X103820000Y-67100000D01*
X128940000Y-69430000D02*
X128940000Y-69580000D01*
X131100000Y-64370000D02*
X130800000Y-64670000D01*
X123040000Y-80130000D02*
X121070000Y-80130000D01*
X130830000Y-74430000D02*
X128800000Y-72400000D01*
%TO.N,Net-(U11-AREF)*%
X113860000Y-64670000D02*
X113480000Y-65050000D01*
X123980000Y-67440000D02*
X120600000Y-67440000D01*
X126260000Y-69720000D02*
X123980000Y-67440000D01*
X117830000Y-64670000D02*
X113860000Y-64670000D01*
X120600000Y-67440000D02*
X117830000Y-64670000D01*
%TO.N,Net-(U11-XTAL1{slash}PB6)*%
X128000000Y-85860000D02*
X128000000Y-82130000D01*
X128800000Y-81330000D02*
X128300000Y-81830000D01*
X128000000Y-82130000D02*
X128300000Y-81830000D01*
X128800000Y-77340000D02*
X128800000Y-81330000D01*
%TO.N,Net-(U11-XTAL2{slash}PB7)*%
X133180000Y-81830000D02*
X133180000Y-85500000D01*
X133180000Y-85500000D02*
X133540000Y-85860000D01*
X131340000Y-79990000D02*
X133180000Y-81830000D01*
X131340000Y-77340000D02*
X131340000Y-79990000D01*
%TO.N,Net-(D4-K)*%
X221120000Y-123230000D02*
X221120000Y-124170000D01*
X221120000Y-121890000D02*
X221120000Y-123230000D01*
X223180000Y-123230000D02*
X221120000Y-123230000D01*
X221120000Y-124170000D02*
X221060000Y-124230000D01*
X218180000Y-127370000D02*
X218180000Y-130820000D01*
X221060000Y-124230000D02*
X221060000Y-124490000D01*
X221060000Y-124490000D02*
X218180000Y-127370000D01*
%TO.N,Net-(D8-K)*%
X222412000Y-89550000D02*
X222412000Y-92130000D01*
X219120000Y-97200000D02*
X219120000Y-99950000D01*
X222412000Y-92130000D02*
X222158000Y-92384000D01*
X222158000Y-94162000D02*
X219120000Y-97200000D01*
X222158000Y-92384000D02*
X222158000Y-94162000D01*
%TO.N,Net-(D3-K)*%
X98000000Y-65620000D02*
X96270000Y-65620000D01*
X96270000Y-65620000D02*
X95560000Y-66330000D01*
%TO.N,Net-(D4-A)*%
X218230000Y-120770000D02*
X218230000Y-123150000D01*
X218230000Y-123150000D02*
X218180000Y-123200000D01*
%TO.N,Net-(D5-A)*%
X233360000Y-77570000D02*
X236020000Y-77570000D01*
X236020000Y-77570000D02*
X236090000Y-77640000D01*
X232570000Y-78360000D02*
X233360000Y-77570000D01*
%TO.N,Net-(D7-A)*%
X232600000Y-111880000D02*
X232070000Y-111350000D01*
X235680000Y-110450000D02*
X234250000Y-111880000D01*
X234250000Y-111880000D02*
X232600000Y-111880000D01*
%TO.N,Net-(D8-A)*%
X219364000Y-92086000D02*
X219120000Y-92330000D01*
X219364000Y-88580000D02*
X219364000Y-92086000D01*
%TO.N,Net-(J1-IRQ7)*%
X57360000Y-99400000D02*
X53570000Y-103190000D01*
X169090000Y-150150000D02*
X164110000Y-145170000D01*
X139150000Y-144150000D02*
X137700000Y-145600000D01*
X59260000Y-145600000D02*
X137700000Y-145600000D01*
X59260000Y-145600000D02*
X53570000Y-139910000D01*
X53570000Y-103190000D02*
X53570000Y-139910000D01*
X145650000Y-145170000D02*
X164110000Y-145170000D01*
X145650000Y-145170000D02*
X144630000Y-144150000D01*
X144630000Y-144150000D02*
X139150000Y-144150000D01*
X169090000Y-153070000D02*
X169090000Y-150150000D01*
%TO.N,GND*%
X197520000Y-146740000D02*
X197520000Y-146720000D01*
X208550000Y-145320000D02*
X214690000Y-139180000D01*
X143690000Y-149000000D02*
X142090000Y-147400000D01*
X197030000Y-153070000D02*
X197030000Y-147230000D01*
X219890000Y-153070000D02*
X219890000Y-147230000D01*
X197520000Y-146720000D02*
X198920000Y-145320000D01*
X197030000Y-147230000D02*
X197520000Y-146740000D01*
X214690000Y-139180000D02*
X214690000Y-136670000D01*
X143690000Y-153070000D02*
X143690000Y-149000000D01*
X219890000Y-147230000D02*
X220380000Y-146740000D01*
X198920000Y-145320000D02*
X208550000Y-145320000D01*
%TO.N,RESET*%
X130250000Y-111630000D02*
X136570000Y-111630000D01*
X143260000Y-104940000D02*
X189270000Y-104940000D01*
X136570000Y-111630000D02*
X143260000Y-104940000D01*
X202110000Y-106230000D02*
X203680000Y-107800000D01*
X194550000Y-106230000D02*
X202110000Y-106230000D01*
X113120000Y-119540000D02*
X113120000Y-119320000D01*
X114410000Y-113960000D02*
X117760000Y-110610000D01*
X203680000Y-107800000D02*
X203680000Y-112430000D01*
X203680000Y-112430000D02*
X203570000Y-112540000D01*
X189270000Y-104940000D02*
X189340000Y-104870000D01*
X216824000Y-134040000D02*
X217350000Y-134566000D01*
X117760000Y-110610000D02*
X129230000Y-110610000D01*
X189340000Y-104870000D02*
X193190000Y-104870000D01*
X193190000Y-104870000D02*
X194550000Y-106230000D01*
X113120000Y-119320000D02*
X114410000Y-118030000D01*
X129230000Y-110610000D02*
X130250000Y-111630000D01*
X217350000Y-134566000D02*
X217350000Y-153070000D01*
X114410000Y-118030000D02*
X114410000Y-113960000D01*
%TO.N,+5V*%
X219364000Y-80960000D02*
X217610000Y-80960000D01*
X170760000Y-108980000D02*
X170270000Y-108490000D01*
X187270000Y-124490000D02*
X185238000Y-122458000D01*
X141640000Y-98140000D02*
X144340000Y-95440000D01*
X80630000Y-63990000D02*
X80380000Y-63740000D01*
X119500000Y-122380000D02*
X121610000Y-124490000D01*
X135830000Y-108940000D02*
X135830000Y-98910000D01*
X169150000Y-87850000D02*
X169150000Y-79234000D01*
X139040000Y-64690000D02*
X190040000Y-64690000D01*
X107040000Y-62720000D02*
X123970000Y-62720000D01*
X142815000Y-108455000D02*
X143750000Y-107520000D01*
X140642000Y-121320000D02*
X139198000Y-121320000D01*
X140760000Y-116850000D02*
X140760000Y-121202000D01*
X142645000Y-124650000D02*
X137190000Y-124650000D01*
X142815000Y-123305000D02*
X142815000Y-124480000D01*
X166775000Y-109885000D02*
X166950000Y-109885000D01*
X126706000Y-62700000D02*
X138210000Y-62700000D01*
X219364000Y-80960000D02*
X224184000Y-80960000D01*
X121610000Y-124490000D02*
X125040000Y-124490000D01*
X144340000Y-95440000D02*
X144340000Y-94430000D01*
X187632000Y-87110000D02*
X191642000Y-91120000D01*
X135830000Y-108090000D02*
X135830000Y-108940000D01*
X165093000Y-88380000D02*
X165133000Y-88420000D01*
X163560000Y-88380000D02*
X165093000Y-88380000D01*
X169150000Y-79234000D02*
X167894000Y-77978000D01*
X123970000Y-62720000D02*
X125570000Y-64320000D01*
X138720000Y-63210000D02*
X138720000Y-64370000D01*
X168074000Y-120812000D02*
X168220000Y-120666000D01*
X168220000Y-113822000D02*
X170760000Y-111282000D01*
X80380000Y-63740000D02*
X77130000Y-63740000D01*
X142815000Y-124480000D02*
X142645000Y-124650000D01*
X191642000Y-91120000D02*
X192680000Y-91120000D01*
X99640000Y-117886000D02*
X99640000Y-121480000D01*
X61910000Y-79240000D02*
X59890000Y-77220000D01*
X140760000Y-121202000D02*
X140642000Y-121320000D01*
X217610000Y-80960000D02*
X217350000Y-80700000D01*
X168220000Y-120666000D02*
X168220000Y-113822000D01*
X192350000Y-124490000D02*
X196160000Y-124490000D01*
X185238000Y-122458000D02*
X184222000Y-122458000D01*
X167202000Y-108490000D02*
X166950000Y-108742000D01*
X100680000Y-122380000D02*
X119500000Y-122380000D01*
X73030000Y-76490000D02*
X70280000Y-79240000D01*
X224950000Y-80194000D02*
X224950000Y-78360000D01*
X140850000Y-116760000D02*
X140760000Y-116850000D01*
X101440000Y-66520000D02*
X103240000Y-66520000D01*
X210210000Y-90960000D02*
X212960000Y-90960000D01*
X135830000Y-98910000D02*
X136600000Y-98140000D01*
X59890000Y-77220000D02*
X59890000Y-76000000D01*
X83380000Y-63740000D02*
X80380000Y-63740000D01*
X215826000Y-112830000D02*
X215826000Y-106334000D01*
X140210000Y-103710000D02*
X135830000Y-108090000D01*
X224184000Y-80960000D02*
X224950000Y-80194000D01*
X140760000Y-121202000D02*
X140760000Y-121250000D01*
X190040000Y-64690000D02*
X195010000Y-69660000D01*
X217350000Y-90670000D02*
X217350000Y-100430000D01*
X69050000Y-66360000D02*
X74510000Y-66360000D01*
X136600000Y-98140000D02*
X141640000Y-98140000D01*
X140760000Y-121250000D02*
X142815000Y-123305000D01*
X168580000Y-88420000D02*
X169150000Y-87850000D01*
X214830000Y-140930000D02*
X216062000Y-139698000D01*
X100540000Y-65620000D02*
X101440000Y-66520000D01*
X216062000Y-135564000D02*
X215300000Y-134802000D01*
X142815000Y-109240000D02*
X142815000Y-108455000D01*
X217350000Y-78440000D02*
X217350000Y-80700000D01*
X166376000Y-120812000D02*
X168074000Y-120812000D01*
X170270000Y-108490000D02*
X167202000Y-108490000D01*
X103240000Y-66520000D02*
X107040000Y-62720000D01*
X170760000Y-111282000D02*
X170760000Y-108980000D01*
X168220000Y-122740000D02*
X168220000Y-120666000D01*
X216146000Y-113150000D02*
X215826000Y-112830000D01*
X70280000Y-79240000D02*
X61910000Y-79240000D01*
X208840000Y-69670000D02*
X213170000Y-69670000D01*
X166945000Y-124480000D02*
X166945000Y-124015000D01*
X214810000Y-153070000D02*
X214830000Y-153050000D01*
X137190000Y-124650000D02*
X137030000Y-124490000D01*
X213905000Y-74845000D02*
X213905000Y-74995000D01*
X77130000Y-63740000D02*
X74510000Y-66360000D01*
X187632000Y-87110000D02*
X187632000Y-83253000D01*
X125570000Y-63836000D02*
X126706000Y-62700000D01*
X218230000Y-113150000D02*
X216146000Y-113150000D01*
X166945000Y-124015000D02*
X168220000Y-122740000D01*
X187632000Y-83253000D02*
X192715000Y-78170000D01*
X99240000Y-64320000D02*
X83960000Y-64320000D01*
X80630000Y-68850000D02*
X80630000Y-63990000D01*
X224366000Y-111434000D02*
X219946000Y-111434000D01*
X188540000Y-124490000D02*
X192350000Y-124490000D01*
X188540000Y-124490000D02*
X187270000Y-124490000D01*
X215826000Y-101954000D02*
X215826000Y-106334000D01*
X143750000Y-107520000D02*
X164410000Y-107520000D01*
X99380000Y-121740000D02*
X99010000Y-122110000D01*
X165093000Y-88380000D02*
X167889000Y-91176000D01*
X216062000Y-139698000D02*
X216062000Y-135564000D01*
X199970000Y-124490000D02*
X196160000Y-124490000D01*
X137030000Y-124490000D02*
X136470000Y-124490000D01*
X99640000Y-121480000D02*
X99380000Y-121740000D01*
X100540000Y-65620000D02*
X99240000Y-64320000D01*
X208850000Y-89600000D02*
X210210000Y-90960000D01*
X166950000Y-108742000D02*
X166950000Y-109885000D01*
X215826000Y-134276000D02*
X215826000Y-112830000D01*
X125570000Y-64320000D02*
X125570000Y-63836000D01*
X217350000Y-100430000D02*
X215826000Y-101954000D01*
X67750000Y-67660000D02*
X69050000Y-66360000D01*
X214830000Y-153050000D02*
X214830000Y-140930000D01*
X100040000Y-121740000D02*
X100680000Y-122380000D01*
X208830000Y-69660000D02*
X208840000Y-69670000D01*
X100040000Y-121740000D02*
X99380000Y-121740000D01*
X217350000Y-80700000D02*
X217350000Y-90670000D01*
X74510000Y-66360000D02*
X73030000Y-67840000D01*
X83960000Y-64320000D02*
X83380000Y-63740000D01*
X224450000Y-111350000D02*
X224366000Y-111434000D01*
X195010000Y-69660000D02*
X208830000Y-69660000D01*
X215300000Y-134802000D02*
X215826000Y-134276000D01*
X67750000Y-69060000D02*
X67750000Y-67660000D01*
X164410000Y-107520000D02*
X166775000Y-109885000D01*
X73030000Y-67840000D02*
X73030000Y-76490000D01*
X140210000Y-100870000D02*
X140210000Y-103710000D01*
X165133000Y-88420000D02*
X168580000Y-88420000D01*
X219946000Y-111434000D02*
X218230000Y-113150000D01*
X138720000Y-64370000D02*
X139040000Y-64690000D01*
X138210000Y-62700000D02*
X138720000Y-63210000D01*
X212960000Y-90960000D02*
X213160000Y-91160000D01*
X213905000Y-74995000D02*
X217350000Y-78440000D01*
%TO.N,A9*%
X171160000Y-143790000D02*
X173240000Y-141710000D01*
X161720000Y-125638000D02*
X161720000Y-124460000D01*
X170750000Y-143790000D02*
X171160000Y-143790000D01*
X173240000Y-139790000D02*
X178380000Y-134650000D01*
X178380000Y-134650000D02*
X178380000Y-129649310D01*
X127700000Y-114520000D02*
X126580000Y-113400000D01*
X161720000Y-124460000D02*
X159540000Y-122280000D01*
X158450000Y-114520000D02*
X127700000Y-114520000D01*
X173240000Y-141710000D02*
X173240000Y-139790000D01*
X159540000Y-115610000D02*
X158450000Y-114520000D01*
X178380000Y-129649310D02*
X178340345Y-129609655D01*
X159540000Y-122280000D02*
X159540000Y-115610000D01*
%TO.N,A8*%
X161870000Y-123020000D02*
X160330000Y-121480000D01*
X175840000Y-133380000D02*
X175840000Y-131713990D01*
X169485000Y-127025000D02*
X169485000Y-124480000D01*
X128690000Y-113740000D02*
X128250000Y-113300000D01*
X160330000Y-115190000D02*
X158880000Y-113740000D01*
X170760000Y-141500000D02*
X170760000Y-137444000D01*
X168495000Y-143765000D02*
X170760000Y-141500000D01*
X171522000Y-129062000D02*
X169485000Y-127025000D01*
X158880000Y-113740000D02*
X128690000Y-113740000D01*
X170760000Y-137444000D02*
X174062000Y-134142000D01*
X174062000Y-134142000D02*
X175078000Y-134142000D01*
X160330000Y-121480000D02*
X160330000Y-115190000D01*
X161870000Y-123030000D02*
X161870000Y-123020000D01*
X173188010Y-129062000D02*
X171522000Y-129062000D01*
X175840000Y-131713990D02*
X173188010Y-129062000D01*
X175078000Y-134142000D02*
X175840000Y-133380000D01*
%TO.N,A7*%
X164290000Y-121570000D02*
X162560000Y-119840000D01*
X168220000Y-140530000D02*
X168220000Y-132100000D01*
X168200000Y-130300000D02*
X164290000Y-126390000D01*
X164290000Y-126390000D02*
X164290000Y-121570000D01*
X168220000Y-137940000D02*
X174060000Y-132100000D01*
X166116992Y-142973008D02*
X166116992Y-142633008D01*
X168220000Y-132100000D02*
X168200000Y-132080000D01*
X166116992Y-142633008D02*
X168220000Y-140530000D01*
X174060000Y-132100000D02*
X174565000Y-132100000D01*
X131790000Y-107070000D02*
X130750000Y-106030000D01*
X162560000Y-114300000D02*
X159710000Y-111450000D01*
X130750000Y-106030000D02*
X130750000Y-93700000D01*
X159710000Y-111450000D02*
X139520000Y-111450000D01*
X162560000Y-119840000D02*
X162560000Y-114300000D01*
X168200000Y-132080000D02*
X168200000Y-130300000D01*
X139520000Y-111450000D02*
X139270000Y-111200000D01*
%TO.N,A6*%
X163530000Y-121930000D02*
X163530000Y-128685000D01*
X159490000Y-112280000D02*
X161820000Y-114610000D01*
X165410000Y-141580000D02*
X165390000Y-141560000D01*
X129410000Y-107030000D02*
X128210000Y-105830000D01*
X138220000Y-112280000D02*
X159490000Y-112280000D01*
X128210000Y-105830000D02*
X128210000Y-93700000D01*
X138200000Y-112260000D02*
X138220000Y-112280000D01*
X164520000Y-142580000D02*
X165410000Y-141690000D01*
X165390000Y-133490000D02*
X166780000Y-132100000D01*
X166780000Y-132100000D02*
X166945000Y-132100000D01*
X163530000Y-128685000D02*
X166945000Y-132100000D01*
X165390000Y-141560000D02*
X165390000Y-133490000D01*
X161820000Y-114610000D02*
X161820000Y-120220000D01*
X161820000Y-120220000D02*
X163530000Y-121930000D01*
X165410000Y-141690000D02*
X165410000Y-141580000D01*
%TO.N,A5*%
X124060000Y-95310000D02*
X125670000Y-93700000D01*
X124180000Y-107150000D02*
X124060000Y-107030000D01*
X156260000Y-142515000D02*
X156260000Y-133910000D01*
X151700000Y-115770000D02*
X151220000Y-115290000D01*
X151220000Y-115290000D02*
X126330000Y-115290000D01*
X156790000Y-128808000D02*
X155515000Y-127533000D01*
X156260000Y-133910000D02*
X156790000Y-133380000D01*
X155515000Y-124480000D02*
X151700000Y-120665000D01*
X126330000Y-115290000D02*
X124550000Y-113510000D01*
X156790000Y-133380000D02*
X156790000Y-128808000D01*
X124060000Y-107030000D02*
X124060000Y-95310000D01*
X151700000Y-120665000D02*
X151700000Y-115770000D01*
X155515000Y-127533000D02*
X155515000Y-124480000D01*
%TO.N,A4*%
X153800000Y-142650000D02*
X153800000Y-135000000D01*
X147895000Y-126305000D02*
X147110000Y-127090000D01*
X154250000Y-130840000D02*
X150324500Y-126914500D01*
X134490000Y-132780000D02*
X134320000Y-132950000D01*
X154250000Y-134550000D02*
X154250000Y-130840000D01*
X153800000Y-135000000D02*
X154250000Y-134550000D01*
X134490000Y-131630000D02*
X139030000Y-127090000D01*
X121830000Y-95000000D02*
X123130000Y-93700000D01*
X139030000Y-127090000D02*
X147110000Y-127090000D01*
X134490000Y-131630000D02*
X134490000Y-132780000D01*
X121830000Y-107200000D02*
X121830000Y-95000000D01*
X150324500Y-126914500D02*
X150100000Y-126914500D01*
X147895000Y-124480000D02*
X147895000Y-126305000D01*
X121860000Y-107230000D02*
X121830000Y-107200000D01*
%TO.N,A3*%
X119250000Y-107220000D02*
X119450000Y-107020000D01*
X150435000Y-134385000D02*
X150435000Y-132100000D01*
X148425000Y-130090000D02*
X146430000Y-130090000D01*
X119450000Y-107020000D02*
X119450000Y-94840000D01*
X151110000Y-142515000D02*
X151110000Y-135060000D01*
X150435000Y-132100000D02*
X148425000Y-130090000D01*
X119450000Y-94840000D02*
X120590000Y-93700000D01*
X151110000Y-135060000D02*
X150435000Y-134385000D01*
%TO.N,A2*%
X148910000Y-138010000D02*
X143000000Y-132100000D01*
X148910000Y-142455000D02*
X148910000Y-138010000D01*
X118050000Y-97940000D02*
X118050000Y-93700000D01*
X116970000Y-107250000D02*
X116970000Y-99020000D01*
X143000000Y-132100000D02*
X142815000Y-132100000D01*
X148850000Y-142515000D02*
X148910000Y-142455000D01*
X116970000Y-99020000D02*
X118050000Y-97940000D01*
%TO.N,A1*%
X77840000Y-116170000D02*
X76140000Y-116170000D01*
X84250000Y-113840000D02*
X80170000Y-113840000D01*
X75500000Y-116810000D02*
X75500000Y-120840000D01*
X146960000Y-142515000D02*
X146960000Y-142410000D01*
X111010000Y-89200000D02*
X101430000Y-89200000D01*
X145600000Y-141050000D02*
X121860000Y-141050000D01*
X76140000Y-116170000D02*
X75500000Y-116810000D01*
X75500000Y-120840000D02*
X76440000Y-121780000D01*
X117520000Y-131100000D02*
X115820000Y-129400000D01*
X146960000Y-142410000D02*
X145600000Y-141050000D01*
X83860000Y-129400000D02*
X81860000Y-131400000D01*
X76440000Y-121780000D02*
X76440000Y-126720000D01*
X80170000Y-113840000D02*
X77840000Y-116170000D01*
X76440000Y-126720000D02*
X81860000Y-132140000D01*
X121860000Y-141050000D02*
X117520000Y-136710000D01*
X98920000Y-99170000D02*
X84250000Y-113840000D01*
X115510000Y-93700000D02*
X111010000Y-89200000D01*
X117520000Y-136710000D02*
X117520000Y-131100000D01*
X98920000Y-91710000D02*
X98920000Y-99170000D01*
X115820000Y-129400000D02*
X83860000Y-129400000D01*
X101430000Y-89200000D02*
X98920000Y-91710000D01*
X81860000Y-131400000D02*
X81860000Y-133126000D01*
%TO.N,A0*%
X143930000Y-142970000D02*
X142770000Y-141810000D01*
X109200000Y-89930000D02*
X112970000Y-93700000D01*
X121450000Y-141810000D02*
X116700000Y-137060000D01*
X80570000Y-114640000D02*
X84700000Y-114640000D01*
X84400000Y-131510000D02*
X84400000Y-133126000D01*
X78040000Y-117170000D02*
X80570000Y-114640000D01*
X142770000Y-141810000D02*
X121450000Y-141810000D01*
X116700000Y-131460000D02*
X115420000Y-130180000D01*
X143930000Y-143045000D02*
X143930000Y-142970000D01*
X83210000Y-128510000D02*
X83150000Y-128510000D01*
X80630000Y-125970000D02*
X78040000Y-123380000D01*
X83150000Y-128510000D02*
X80630000Y-125990000D01*
X78040000Y-123380000D02*
X78040000Y-117170000D01*
X99690000Y-92020000D02*
X101780000Y-89930000D01*
X80630000Y-125990000D02*
X80630000Y-125970000D01*
X84700000Y-114640000D02*
X99690000Y-99650000D01*
X101780000Y-89930000D02*
X109200000Y-89930000D01*
X99690000Y-99650000D02*
X99690000Y-92020000D01*
X85730000Y-130180000D02*
X84400000Y-131510000D01*
X115420000Y-130180000D02*
X85730000Y-130180000D01*
X116700000Y-137060000D02*
X116700000Y-131460000D01*
%TO.N,Net-(J1-IRQ5)*%
X52840000Y-100190000D02*
X52860000Y-100190000D01*
X144450000Y-144990000D02*
X139520000Y-144990000D01*
X145260000Y-145800000D02*
X144450000Y-144990000D01*
X52840000Y-140340000D02*
X52840000Y-100190000D01*
X58730000Y-146230000D02*
X52840000Y-140340000D01*
X160920000Y-145800000D02*
X145260000Y-145800000D01*
X52860000Y-100190000D02*
X57350000Y-95700000D01*
X164010000Y-148890000D02*
X160920000Y-145800000D01*
X138280000Y-146230000D02*
X58730000Y-146230000D01*
X139520000Y-144990000D02*
X138280000Y-146230000D01*
X164010000Y-153070000D02*
X164010000Y-148890000D01*
%TO.N,Net-(J1-IRQ4)*%
X140070000Y-145750000D02*
X138920000Y-146900000D01*
X144680000Y-146500000D02*
X143930000Y-145750000D01*
X143930000Y-145750000D02*
X140070000Y-145750000D01*
X58110000Y-146900000D02*
X52110000Y-140900000D01*
X52110000Y-97100000D02*
X57360000Y-91850000D01*
X161470000Y-148200000D02*
X159770000Y-146500000D01*
X159770000Y-146500000D02*
X144680000Y-146500000D01*
X138920000Y-146900000D02*
X58110000Y-146900000D01*
X161470000Y-153070000D02*
X161470000Y-148200000D01*
X52110000Y-140900000D02*
X52110000Y-97100000D01*
%TO.N,Net-(J1-IRQ3)*%
X158930000Y-153070000D02*
X158930000Y-148700000D01*
X157460000Y-147230000D02*
X143680000Y-147230000D01*
X158930000Y-148700000D02*
X157460000Y-147230000D01*
X142980000Y-146530000D02*
X140560000Y-146530000D01*
X143680000Y-147230000D02*
X142980000Y-146530000D01*
X51450000Y-141410000D02*
X51450000Y-93850000D01*
X139530000Y-147560000D02*
X57600000Y-147560000D01*
X140560000Y-146530000D02*
X139530000Y-147560000D01*
X51450000Y-93850000D02*
X57260000Y-88040000D01*
X57600000Y-147560000D02*
X51450000Y-141410000D01*
%TO.N,Net-(U1-Pad3)*%
X165020000Y-125240000D02*
X165020000Y-119435000D01*
X172025000Y-132100000D02*
X171880000Y-132100000D01*
X165020000Y-119435000D02*
X166950000Y-117505000D01*
X171880000Y-132100000D02*
X165020000Y-125240000D01*
%TO.N,Net-(U1-Pad6)*%
X179645000Y-129057000D02*
X178634000Y-128046000D01*
X179645000Y-132100000D02*
X179645000Y-129057000D01*
X172646000Y-120050000D02*
X170101000Y-117505000D01*
X178634000Y-128046000D02*
X173276000Y-128046000D01*
X170760000Y-123714000D02*
X172646000Y-121828000D01*
X170101000Y-117505000D02*
X169490000Y-117505000D01*
X170760000Y-125530000D02*
X170760000Y-123714000D01*
X173276000Y-128046000D02*
X170760000Y-125530000D01*
X172646000Y-121828000D02*
X172646000Y-120050000D01*
%TO.N,Net-(U2-Pad3)*%
X146620000Y-120694000D02*
X142815000Y-116889000D01*
X146620000Y-125610000D02*
X146620000Y-120694000D01*
X142815000Y-116889000D02*
X142815000Y-116860000D01*
%TO.N,Net-(U2-Pad6)*%
X145355000Y-117475000D02*
X145355000Y-116860000D01*
X148330000Y-120450000D02*
X145355000Y-117475000D01*
X148390000Y-120450000D02*
X148330000Y-120450000D01*
%TO.N,Net-(U2-Pad8)*%
X152975000Y-117795000D02*
X152975000Y-116860000D01*
X158055000Y-124480000D02*
X158055000Y-122875000D01*
X158055000Y-122875000D02*
X152975000Y-117795000D01*
%TO.N,Net-(U2-Pad11)*%
X150435000Y-124480000D02*
X150435000Y-116860000D01*
%TO.N,Net-(U1-Pad8)*%
X177110000Y-117505000D02*
X182190000Y-122585000D01*
X182190000Y-122585000D02*
X182190000Y-124475000D01*
X182190000Y-124475000D02*
X182185000Y-124480000D01*
%TO.N,Net-(U1-Pad11)*%
X174565000Y-117510000D02*
X174570000Y-117505000D01*
X174565000Y-124480000D02*
X174565000Y-117510000D01*
%TO.N,IOW*%
X189410000Y-147620000D02*
X188270000Y-146480000D01*
X189410000Y-153070000D02*
X189410000Y-147620000D01*
%TO.N,IOR*%
X186870000Y-147430000D02*
X186870000Y-153070000D01*
X185760000Y-146320000D02*
X186870000Y-147430000D01*
%TO.N,D7*%
X118834000Y-123110000D02*
X98160000Y-123110000D01*
X97100000Y-122050000D02*
X97100000Y-117886000D01*
X97100000Y-117886000D02*
X97100000Y-117130000D01*
X123060000Y-132670000D02*
X123060000Y-127336000D01*
X112720000Y-108940000D02*
X112970000Y-108940000D01*
X108610000Y-113050000D02*
X112720000Y-108940000D01*
X101180000Y-113050000D02*
X108610000Y-113050000D01*
X141110000Y-133410000D02*
X140340000Y-133410000D01*
X125680000Y-135290000D02*
X123060000Y-132670000D01*
X138460000Y-135290000D02*
X125680000Y-135290000D01*
X123060000Y-127336000D02*
X118834000Y-123110000D01*
X140340000Y-133410000D02*
X138460000Y-135290000D01*
X97100000Y-117130000D02*
X101180000Y-113050000D01*
X98160000Y-123110000D02*
X97100000Y-122050000D01*
%TO.N,D6*%
X94560000Y-121670000D02*
X94560000Y-117886000D01*
X125180000Y-136050000D02*
X122330000Y-133200000D01*
X94560000Y-117400000D02*
X99580000Y-112380000D01*
X138920000Y-136050000D02*
X125180000Y-136050000D01*
X140550000Y-134420000D02*
X138920000Y-136050000D01*
X106990000Y-112380000D02*
X110430000Y-108940000D01*
X99580000Y-112380000D02*
X106990000Y-112380000D01*
X118334000Y-123880000D02*
X96770000Y-123880000D01*
X122330000Y-127876000D02*
X118334000Y-123880000D01*
X140550000Y-134340000D02*
X140550000Y-134420000D01*
X122330000Y-133200000D02*
X122330000Y-127876000D01*
X96770000Y-123880000D02*
X94560000Y-121670000D01*
X94560000Y-117886000D02*
X94560000Y-117400000D01*
%TO.N,D5*%
X92020000Y-117886000D02*
X98316000Y-111590000D01*
X141820000Y-135385000D02*
X140625000Y-135385000D01*
X98316000Y-111590000D02*
X104790000Y-111590000D01*
X107440000Y-108940000D02*
X107890000Y-108940000D01*
X121580000Y-128269000D02*
X117881000Y-124570000D01*
X117881000Y-124570000D02*
X95090000Y-124570000D01*
X92020000Y-121500000D02*
X92020000Y-117886000D01*
X121580000Y-133530000D02*
X121580000Y-128269000D01*
X140625000Y-135385000D02*
X139240000Y-136770000D01*
X104790000Y-111590000D02*
X107440000Y-108940000D01*
X124820000Y-136770000D02*
X121580000Y-133530000D01*
X139240000Y-136770000D02*
X124820000Y-136770000D01*
X95090000Y-124570000D02*
X92020000Y-121500000D01*
%TO.N,D4*%
X124270000Y-137510000D02*
X120930000Y-134170000D01*
X120930000Y-134170000D02*
X120930000Y-128762000D01*
X93580000Y-125390000D02*
X89480000Y-121290000D01*
X105350000Y-109250000D02*
X105350000Y-108940000D01*
X120930000Y-128762000D02*
X117558000Y-125390000D01*
X89480000Y-117886000D02*
X96626000Y-110740000D01*
X89480000Y-121290000D02*
X89480000Y-117886000D01*
X139670000Y-137510000D02*
X124270000Y-137510000D01*
X96626000Y-110740000D02*
X103860000Y-110740000D01*
X140900000Y-136280000D02*
X139670000Y-137510000D01*
X117558000Y-125390000D02*
X93580000Y-125390000D01*
X103860000Y-110740000D02*
X105350000Y-109250000D01*
%TO.N,D3*%
X94996000Y-109830000D02*
X86940000Y-117886000D01*
X140180000Y-138210000D02*
X123740000Y-138210000D01*
X120310000Y-129260000D02*
X117320000Y-126270000D01*
X86940000Y-121130000D02*
X86940000Y-117886000D01*
X120310000Y-134780000D02*
X120310000Y-129260000D01*
X102810000Y-108940000D02*
X101920000Y-109830000D01*
X92080000Y-126270000D02*
X86940000Y-121130000D01*
X123740000Y-138210000D02*
X120310000Y-134780000D01*
X142190000Y-137240000D02*
X141150000Y-137240000D01*
X101920000Y-109830000D02*
X94996000Y-109830000D01*
X117320000Y-126270000D02*
X92080000Y-126270000D01*
X141150000Y-137240000D02*
X140180000Y-138210000D01*
%TO.N,D2*%
X85765489Y-117886000D02*
X85765489Y-117399501D01*
X123130000Y-138910000D02*
X119650000Y-135430000D01*
X84400000Y-117886000D02*
X85765489Y-117886000D01*
X141490000Y-138230000D02*
X140810000Y-138910000D01*
X85765489Y-117399501D02*
X105350000Y-97814990D01*
X140810000Y-138910000D02*
X123130000Y-138910000D01*
X84400000Y-120860000D02*
X84400000Y-117886000D01*
X105350000Y-97814990D02*
X105350000Y-93700000D01*
X90560000Y-127020000D02*
X84400000Y-120860000D01*
X116980000Y-127020000D02*
X90560000Y-127020000D01*
X119650000Y-135430000D02*
X119650000Y-129690000D01*
X119650000Y-129690000D02*
X116980000Y-127020000D01*
%TO.N,D1*%
X83626000Y-116120000D02*
X85770000Y-116120000D01*
X119000000Y-130150000D02*
X116690000Y-127840000D01*
X142080000Y-139280000D02*
X141780000Y-139580000D01*
X122580000Y-139580000D02*
X119000000Y-136000000D01*
X106940000Y-91570000D02*
X107890000Y-92520000D01*
X107890000Y-92520000D02*
X107890000Y-93700000D01*
X102480000Y-91570000D02*
X106940000Y-91570000D01*
X101130000Y-92920000D02*
X102480000Y-91570000D01*
X81860000Y-117886000D02*
X83626000Y-116120000D01*
X85770000Y-116120000D02*
X101130000Y-100760000D01*
X101130000Y-100760000D02*
X101130000Y-92920000D01*
X81860000Y-121690000D02*
X81860000Y-117886000D01*
X119000000Y-136000000D02*
X119000000Y-130150000D01*
X88010000Y-127840000D02*
X81860000Y-121690000D01*
X141780000Y-139580000D02*
X122580000Y-139580000D01*
X116690000Y-127840000D02*
X88010000Y-127840000D01*
%TO.N,D0*%
X144270000Y-139050000D02*
X144270000Y-139120000D01*
X79320000Y-121900000D02*
X79320000Y-117886000D01*
X122380000Y-140360000D02*
X118190000Y-136170000D01*
X100430000Y-100130000D02*
X100430000Y-92250000D01*
X79320000Y-117886000D02*
X81826000Y-115380000D01*
X101870000Y-90810000D02*
X107540000Y-90810000D01*
X85180000Y-115380000D02*
X100430000Y-100130000D01*
X100430000Y-92250000D02*
X101870000Y-90810000D01*
X107540000Y-90810000D02*
X110430000Y-93700000D01*
X144270000Y-139120000D02*
X143030000Y-140360000D01*
X118190000Y-130540000D02*
X116290000Y-128640000D01*
X143030000Y-140360000D02*
X122380000Y-140360000D01*
X116290000Y-128640000D02*
X86060000Y-128640000D01*
X86060000Y-128640000D02*
X79320000Y-121900000D01*
X81826000Y-115380000D02*
X85180000Y-115380000D01*
X118190000Y-136170000D02*
X118190000Y-130540000D01*
%TO.N,SEL8255*%
X118630000Y-111420000D02*
X115340000Y-114710000D01*
X129050000Y-111420000D02*
X118630000Y-111420000D01*
X150435000Y-109240000D02*
X149125000Y-110550000D01*
X115340000Y-118380000D02*
X114750000Y-118970000D01*
X140270000Y-109920000D02*
X139310000Y-109920000D01*
X129990000Y-112360000D02*
X129050000Y-111420000D01*
X115340000Y-114710000D02*
X115340000Y-118380000D01*
X114750000Y-118970000D02*
X114750000Y-119490000D01*
X139310000Y-109920000D02*
X136870000Y-112360000D01*
X149125000Y-110550000D02*
X140900000Y-110550000D01*
X136870000Y-112360000D02*
X129990000Y-112360000D01*
X140900000Y-110550000D02*
X140270000Y-109920000D01*
%TO.N,MEMW*%
X216230000Y-79900000D02*
X216230000Y-99326000D01*
X139540000Y-87580000D02*
X139540000Y-86356000D01*
X144756000Y-81140000D02*
X156070000Y-81140000D01*
X198614409Y-75050000D02*
X199692409Y-76128000D01*
X168910000Y-75020000D02*
X173710000Y-70220000D01*
X194490000Y-147660000D02*
X194490000Y-153070000D01*
X187422000Y-75050000D02*
X198614409Y-75050000D01*
X216230000Y-99326000D02*
X213775000Y-101781000D01*
X213775000Y-138105000D02*
X208188000Y-143692000D01*
X198458000Y-143692000D02*
X194490000Y-147660000D01*
X162190000Y-75020000D02*
X168910000Y-75020000D01*
X212458000Y-76128000D02*
X216230000Y-79900000D01*
X182592000Y-70220000D02*
X187422000Y-75050000D01*
X173710000Y-70220000D02*
X182592000Y-70220000D01*
X208188000Y-143692000D02*
X198458000Y-143692000D01*
X199692409Y-76128000D02*
X212458000Y-76128000D01*
X156070000Y-81140000D02*
X162190000Y-75020000D01*
X139540000Y-86356000D02*
X144756000Y-81140000D01*
X213775000Y-101781000D02*
X213775000Y-138105000D01*
%TO.N,MEMR*%
X128750000Y-112360000D02*
X121300000Y-112360000D01*
X187491016Y-144935000D02*
X186848984Y-144935000D01*
X191950000Y-153070000D02*
X191950000Y-148490000D01*
X162740000Y-126060000D02*
X162740000Y-122320000D01*
X121300000Y-112360000D02*
X121240000Y-112420000D01*
X191950000Y-148490000D02*
X188300000Y-144840000D01*
X160040000Y-139510000D02*
X160040000Y-128760000D01*
X129480000Y-113090000D02*
X128750000Y-112360000D01*
X188300000Y-144840000D02*
X187586016Y-144840000D01*
X187586016Y-144840000D02*
X187491016Y-144935000D01*
X186753984Y-144840000D02*
X165370000Y-144840000D01*
X162740000Y-122320000D02*
X161060000Y-120640000D01*
X165370000Y-144840000D02*
X160040000Y-139510000D01*
X161060000Y-114940000D02*
X159210000Y-113090000D01*
X161060000Y-120640000D02*
X161060000Y-114940000D01*
X186848984Y-144935000D02*
X186753984Y-144840000D01*
X159210000Y-113090000D02*
X129480000Y-113090000D01*
X160040000Y-128760000D02*
X162740000Y-126060000D01*
%TO.N,A19*%
X193190000Y-143250000D02*
X193190000Y-143230000D01*
X206194000Y-139476000D02*
X210720000Y-134950000D01*
X196944000Y-139476000D02*
X206194000Y-139476000D01*
X210720000Y-104640000D02*
X206620000Y-100540000D01*
X206620000Y-100540000D02*
X206620000Y-95380000D01*
X205380000Y-94140000D02*
X205380000Y-91120000D01*
X193190000Y-143230000D02*
X196944000Y-139476000D01*
X210720000Y-134950000D02*
X210720000Y-104640000D01*
X206620000Y-95380000D02*
X205380000Y-94140000D01*
%TO.N,A18*%
X195566000Y-138714000D02*
X204936000Y-138714000D01*
X201690000Y-95080000D02*
X197380000Y-95080000D01*
X209650000Y-104970000D02*
X204040000Y-99360000D01*
X204040000Y-97430000D02*
X201690000Y-95080000D01*
X191130000Y-143150000D02*
X195566000Y-138714000D01*
X191000000Y-143150000D02*
X191130000Y-143150000D01*
X209650000Y-134000000D02*
X209650000Y-104970000D01*
X197380000Y-95080000D02*
X195220000Y-92920000D01*
X204040000Y-99360000D02*
X204040000Y-97430000D01*
X195220000Y-92920000D02*
X195220000Y-91120000D01*
X204936000Y-138714000D02*
X209650000Y-134000000D01*
%TO.N,A17*%
X192680000Y-98740000D02*
X192920000Y-98740000D01*
X194650000Y-100470000D02*
X203640000Y-100470000D01*
X193098000Y-137952000D02*
X187170000Y-143880000D01*
X203808000Y-137952000D02*
X193098000Y-137952000D01*
X208696000Y-133064000D02*
X203808000Y-137952000D01*
X203640000Y-100470000D02*
X208696000Y-105526000D01*
X192920000Y-98740000D02*
X194650000Y-100470000D01*
X187170000Y-143880000D02*
X187170000Y-144160000D01*
X208696000Y-105526000D02*
X208696000Y-133064000D01*
%TO.N,A16*%
X202580000Y-101240000D02*
X191850000Y-101240000D01*
X190370000Y-99760000D02*
X189173000Y-99760000D01*
X203010000Y-137190000D02*
X207820000Y-132380000D01*
X184680000Y-144050000D02*
X184750000Y-144050000D01*
X189173000Y-99760000D02*
X180589000Y-91176000D01*
X207820000Y-106480000D02*
X202580000Y-101240000D01*
X191850000Y-101240000D02*
X190370000Y-99760000D01*
X191610000Y-137190000D02*
X203010000Y-137190000D01*
X207820000Y-132380000D02*
X207820000Y-106480000D01*
X184750000Y-144050000D02*
X191610000Y-137190000D01*
%TO.N,A15*%
X194880000Y-101990000D02*
X196090000Y-103200000D01*
X196090000Y-103200000D02*
X203450000Y-103200000D01*
X183700000Y-142950000D02*
X183650000Y-142950000D01*
X179733000Y-100480000D02*
X189110000Y-100480000D01*
X206830000Y-131960000D02*
X202362000Y-136428000D01*
X190620000Y-101990000D02*
X194880000Y-101990000D01*
X203450000Y-103200000D02*
X206830000Y-106580000D01*
X202362000Y-136428000D02*
X190222000Y-136428000D01*
X189110000Y-100480000D02*
X190620000Y-101990000D01*
X178049000Y-98796000D02*
X179733000Y-100480000D01*
X190222000Y-136428000D02*
X183700000Y-142950000D01*
X206830000Y-106580000D02*
X206830000Y-131960000D01*
%TO.N,A14*%
X142345000Y-86645000D02*
X142350000Y-86640000D01*
X181720000Y-142850000D02*
X188904000Y-135666000D01*
X178800000Y-102610000D02*
X177970000Y-102610000D01*
X201614000Y-135666000D02*
X206130000Y-131150000D01*
X203060000Y-103900000D02*
X195870000Y-103900000D01*
X177970000Y-102610000D02*
X176780000Y-101420000D01*
X194580000Y-102610000D02*
X178800000Y-102610000D01*
X137970000Y-93700000D02*
X135830000Y-93700000D01*
X167280000Y-100630000D02*
X169180000Y-100630000D01*
X141770000Y-87220000D02*
X141770000Y-89900000D01*
X147630000Y-100180000D02*
X150080000Y-102630000D01*
X176780000Y-101420000D02*
X176780000Y-94987000D01*
X188904000Y-135666000D02*
X201614000Y-135666000D01*
X172969000Y-91176000D02*
X176780000Y-94987000D01*
X206130000Y-106970000D02*
X203060000Y-103900000D01*
X206130000Y-131150000D02*
X206130000Y-106970000D01*
X142345000Y-86645000D02*
X141770000Y-87220000D01*
X181720000Y-143020000D02*
X181720000Y-142850000D01*
X142350000Y-86640000D02*
X145160000Y-86640000D01*
X147630000Y-89110000D02*
X147630000Y-100180000D01*
X141770000Y-89900000D02*
X137970000Y-93700000D01*
X169180000Y-100630000D02*
X171160000Y-102610000D01*
X145160000Y-86640000D02*
X147630000Y-89110000D01*
X171160000Y-102610000D02*
X178800000Y-102610000D01*
X150080000Y-102630000D02*
X165280000Y-102630000D01*
X165280000Y-102630000D02*
X167280000Y-100630000D01*
X195870000Y-103900000D02*
X194580000Y-102610000D01*
%TO.N,A13*%
X189820000Y-103440000D02*
X169529000Y-103440000D01*
X169529000Y-103440000D02*
X167889000Y-101800000D01*
X195550000Y-104760000D02*
X194130000Y-103340000D01*
X136250000Y-110940000D02*
X132750000Y-110940000D01*
X187046000Y-134904000D02*
X200966000Y-134904000D01*
X179340000Y-142930000D02*
X179340000Y-142610000D01*
X142010000Y-104040000D02*
X137520000Y-108530000D01*
X202880000Y-104760000D02*
X195550000Y-104760000D01*
X166790000Y-104055000D02*
X166775000Y-104040000D01*
X166775000Y-104040000D02*
X142010000Y-104040000D01*
X200966000Y-134904000D02*
X205300000Y-130570000D01*
X137520000Y-109670000D02*
X136250000Y-110940000D01*
X132750000Y-110940000D02*
X130750000Y-108940000D01*
X205300000Y-107180000D02*
X202880000Y-104760000D01*
X179340000Y-142610000D02*
X187046000Y-134904000D01*
X194130000Y-103340000D02*
X189920000Y-103340000D01*
X189920000Y-103340000D02*
X189820000Y-103440000D01*
X137520000Y-108530000D02*
X137520000Y-109670000D01*
X205300000Y-130570000D02*
X205300000Y-107180000D01*
%TO.N,A12*%
X149450000Y-103280000D02*
X168270000Y-103280000D01*
X142850000Y-90640000D02*
X145310000Y-90640000D01*
X145310000Y-90640000D02*
X146690000Y-92020000D01*
X133290000Y-94440000D02*
X134110000Y-95260000D01*
X185678000Y-134142000D02*
X176870000Y-142950000D01*
X138230000Y-95260000D02*
X142850000Y-90640000D01*
X189580000Y-104100000D02*
X193690000Y-104100000D01*
X204490000Y-107540000D02*
X204490000Y-130030000D01*
X146690000Y-100520000D02*
X149450000Y-103280000D01*
X169240000Y-104250000D02*
X189430000Y-104250000D01*
X200378000Y-134142000D02*
X185678000Y-134142000D01*
X133290000Y-93700000D02*
X133290000Y-94440000D01*
X176870000Y-142950000D02*
X176780000Y-142950000D01*
X189430000Y-104250000D02*
X189580000Y-104100000D01*
X168270000Y-103280000D02*
X169240000Y-104250000D01*
X134110000Y-95260000D02*
X138230000Y-95260000D01*
X195000000Y-105410000D02*
X202360000Y-105410000D01*
X204490000Y-130030000D02*
X200378000Y-134142000D01*
X193690000Y-104100000D02*
X195000000Y-105410000D01*
X202360000Y-105410000D02*
X204490000Y-107540000D01*
X146690000Y-92020000D02*
X146690000Y-100520000D01*
%TO.N,A11*%
X122030000Y-113410000D02*
X122750000Y-113410000D01*
X118770000Y-116670000D02*
X122030000Y-113410000D01*
X118240000Y-120730000D02*
X118770000Y-120200000D01*
X118770000Y-120200000D02*
X118770000Y-116670000D01*
%TO.N,A10*%
X117760000Y-119450000D02*
X117760000Y-113880000D01*
X117760000Y-113880000D02*
X117930000Y-113710000D01*
X117100000Y-120110000D02*
X117760000Y-119450000D01*
%TO.N,Net-(U6-Pad3)*%
X193940000Y-94920000D02*
X193940000Y-90410000D01*
X192715000Y-89185000D02*
X192715000Y-85790000D01*
X197760000Y-98740000D02*
X193940000Y-94920000D01*
X193940000Y-90410000D02*
X192715000Y-89185000D01*
%TO.N,Net-(U6-Pad8)*%
X202875000Y-85905000D02*
X202875000Y-85790000D01*
X207920000Y-90950000D02*
X202875000Y-85905000D01*
X207920000Y-91120000D02*
X207920000Y-90950000D01*
%TO.N,INT*%
X80630000Y-76470000D02*
X75090000Y-76470000D01*
X75090000Y-76470000D02*
X74940000Y-76320000D01*
%TO.N,Net-(U7-Pad8)*%
X179440000Y-87760000D02*
X178054000Y-86374000D01*
X183129000Y-91176000D02*
X183129000Y-89299000D01*
X178054000Y-86374000D02*
X178054000Y-85598000D01*
X183129000Y-89299000D02*
X181590000Y-87760000D01*
X178054000Y-86101000D02*
X178054000Y-85598000D01*
X181590000Y-87760000D02*
X179440000Y-87760000D01*
%TO.N,SELROM*%
X115510000Y-108940000D02*
X115510000Y-96470000D01*
X145540000Y-82200000D02*
X156350000Y-82200000D01*
X137995000Y-92035000D02*
X140684511Y-89345489D01*
X116800000Y-93288990D02*
X118208990Y-91880000D01*
X127358299Y-91880000D02*
X127513299Y-92035000D01*
X115510000Y-96470000D02*
X116800000Y-95180000D01*
X140684511Y-89345489D02*
X140684511Y-87055489D01*
X162660000Y-75890000D02*
X173980000Y-75890000D01*
X116800000Y-95180000D02*
X116800000Y-93288990D01*
X175514000Y-77424000D02*
X175514000Y-77978000D01*
X140684511Y-87055489D02*
X145540000Y-82200000D01*
X118208990Y-91880000D02*
X127358299Y-91880000D01*
X173980000Y-75890000D02*
X175514000Y-77424000D01*
X156350000Y-82200000D02*
X162660000Y-75890000D01*
X127513299Y-92035000D02*
X137995000Y-92035000D01*
%TO.N,Net-(U3-Pad10)*%
X172030000Y-117505000D02*
X172030000Y-114965000D01*
X172030000Y-114965000D02*
X177110000Y-109885000D01*
%TO.N,Net-(U3-Pad6)*%
X179650000Y-117505000D02*
X179650000Y-109885000D01*
%TO.N,Net-(U3-Pad13)*%
X169490000Y-109885000D02*
X169490000Y-110330000D01*
X168450000Y-111370000D02*
X160750000Y-111370000D01*
X160750000Y-111370000D02*
X158620000Y-109240000D01*
X169490000Y-110330000D02*
X168450000Y-111370000D01*
X158620000Y-109240000D02*
X158055000Y-109240000D01*
%TO.N,Net-(JP1-B)*%
X180920000Y-125252000D02*
X182190000Y-126522000D01*
X178126000Y-122966000D02*
X180412000Y-122966000D01*
X177105000Y-124480000D02*
X177105000Y-123987000D01*
X177105000Y-123987000D02*
X178126000Y-122966000D01*
X194382000Y-126522000D02*
X199970000Y-132110000D01*
X180412000Y-122966000D02*
X180920000Y-123474000D01*
X180920000Y-123474000D02*
X180920000Y-125252000D01*
X182190000Y-126522000D02*
X194382000Y-126522000D01*
%TO.N,ARESET*%
X96410000Y-78900000D02*
X90810000Y-84500000D01*
X153020000Y-61960000D02*
X154810000Y-63750000D01*
X90810000Y-84500000D02*
X85110000Y-84500000D01*
X99980000Y-77480000D02*
X98560000Y-78900000D01*
X102970000Y-77480000D02*
X102960000Y-77490000D01*
X54920000Y-81770000D02*
X52390000Y-79240000D01*
X79220000Y-85940000D02*
X72720000Y-85940000D01*
X57490000Y-61960000D02*
X153020000Y-61960000D01*
X85110000Y-84500000D02*
X80660000Y-84500000D01*
X98560000Y-78900000D02*
X96410000Y-78900000D01*
X99990000Y-77490000D02*
X99980000Y-77480000D01*
X80660000Y-84500000D02*
X79220000Y-85940000D01*
X72720000Y-85940000D02*
X68550000Y-81770000D01*
X102960000Y-77490000D02*
X99990000Y-77490000D01*
X52390000Y-79240000D02*
X52390000Y-67060000D01*
X68550000Y-81770000D02*
X54920000Y-81770000D01*
X52390000Y-67060000D02*
X57490000Y-61960000D01*
%TO.N,Net-(JP2-B)*%
X174829000Y-127284000D02*
X191334000Y-127284000D01*
X174829000Y-127284000D02*
X172025000Y-124480000D01*
X196160000Y-132110000D02*
X191334000Y-127284000D01*
%TO.N,Net-(JP3-B)*%
X191080000Y-132110000D02*
X192350000Y-132110000D01*
X181010000Y-133180000D02*
X181200000Y-133370000D01*
X181200000Y-133370000D02*
X183150000Y-133370000D01*
X189556000Y-130586000D02*
X191080000Y-132110000D01*
X183150000Y-133370000D02*
X185934000Y-130586000D01*
X185934000Y-130586000D02*
X189556000Y-130586000D01*
%TO.N,MISO*%
X217270000Y-76100000D02*
X226710000Y-76100000D01*
X133880000Y-69720000D02*
X133880000Y-70980000D01*
X228070000Y-126260000D02*
X228070000Y-109540000D01*
X133880000Y-70980000D02*
X135960000Y-73060000D01*
X154865000Y-75395000D02*
X155070000Y-75190000D01*
X135960000Y-73060000D02*
X149650000Y-73060000D01*
X154700000Y-75560000D02*
X154865000Y-75395000D01*
X231510000Y-100380000D02*
X229150000Y-98020000D01*
X152150000Y-75560000D02*
X154700000Y-75560000D01*
X159340000Y-75490000D02*
X160650000Y-74180000D01*
X229150000Y-98020000D02*
X229150000Y-94110000D01*
X231510000Y-106100000D02*
X231510000Y-100380000D01*
X149650000Y-73060000D02*
X152150000Y-75560000D01*
X227350000Y-92310000D02*
X228850000Y-93810000D01*
X227350000Y-76740000D02*
X227350000Y-92310000D01*
X87530000Y-73030000D02*
X101630000Y-73030000D01*
X183300000Y-69410000D02*
X187840000Y-73950000D01*
X160650000Y-74180000D02*
X167970000Y-74180000D01*
X85890000Y-71390000D02*
X87530000Y-73030000D01*
X187840000Y-73950000D02*
X215120000Y-73950000D01*
X154960000Y-75490000D02*
X159340000Y-75490000D01*
X228070000Y-109540000D02*
X231510000Y-106100000D01*
X155070000Y-75190000D02*
X155070000Y-73650000D01*
X229150000Y-94110000D02*
X228850000Y-93810000D01*
X226710000Y-76100000D02*
X227350000Y-76740000D01*
X167970000Y-74180000D02*
X172740000Y-69410000D01*
X154865000Y-75395000D02*
X154960000Y-75490000D01*
X83170000Y-71390000D02*
X85890000Y-71390000D01*
X172740000Y-69410000D02*
X183300000Y-69410000D01*
X215120000Y-73950000D02*
X217270000Y-76100000D01*
%TO.N,Net-(JP4-B)*%
X185830000Y-132110000D02*
X188540000Y-132110000D01*
X184980000Y-132960000D02*
X185830000Y-132110000D01*
%TO.N,SCK*%
X131390000Y-72860000D02*
X131390000Y-69770000D01*
X131340000Y-69720000D02*
X132960000Y-68100000D01*
X86650000Y-79010000D02*
X90840000Y-74820000D01*
X149500000Y-69840000D02*
X153800000Y-69840000D01*
X131390000Y-69770000D02*
X131340000Y-69720000D01*
X168460000Y-71110000D02*
X171650000Y-67920000D01*
X221650000Y-64480000D02*
X224988000Y-64480000D01*
X184380000Y-67920000D02*
X188540000Y-72080000D01*
X219790000Y-71170000D02*
X220810000Y-70150000D01*
X216990000Y-71170000D02*
X219790000Y-71170000D01*
X155070000Y-71110000D02*
X168460000Y-71110000D01*
X132960000Y-68100000D02*
X147760000Y-68100000D01*
X153800000Y-69840000D02*
X155070000Y-71110000D01*
X224988000Y-64480000D02*
X226222000Y-65714000D01*
X83170000Y-79010000D02*
X86650000Y-79010000D01*
X90840000Y-74820000D02*
X101790000Y-74820000D01*
X216080000Y-72080000D02*
X216990000Y-71170000D01*
X220810000Y-65320000D02*
X221650000Y-64480000D01*
X220810000Y-70150000D02*
X220810000Y-65320000D01*
X147760000Y-68100000D02*
X149500000Y-69840000D01*
X188540000Y-72080000D02*
X216080000Y-72080000D01*
X171650000Y-67920000D02*
X184380000Y-67920000D01*
%TO.N,MOSI*%
X136420000Y-69720000D02*
X138720000Y-72020000D01*
X168470000Y-72390000D02*
X172270000Y-68590000D01*
X216450000Y-72890000D02*
X217250000Y-72090000D01*
X153810000Y-72390000D02*
X168470000Y-72390000D01*
X221210000Y-72090000D02*
X222412000Y-70888000D01*
X183590000Y-68590000D02*
X187890000Y-72890000D01*
X222412000Y-70888000D02*
X222412000Y-65968000D01*
X187890000Y-72890000D02*
X216450000Y-72890000D01*
X151620000Y-72020000D02*
X152530000Y-71110000D01*
X152530000Y-71110000D02*
X153810000Y-72390000D01*
X217250000Y-72090000D02*
X221210000Y-72090000D01*
X172270000Y-68590000D02*
X183590000Y-68590000D01*
X138720000Y-72020000D02*
X151620000Y-72020000D01*
X102860000Y-73930000D02*
X102890000Y-73960000D01*
X83170000Y-73930000D02*
X102860000Y-73930000D01*
%TO.N,Net-(JP5-B)*%
X141050000Y-128200000D02*
X147500000Y-128200000D01*
X151315000Y-126140000D02*
X152975000Y-124480000D01*
X136470000Y-132110000D02*
X137140000Y-132110000D01*
X137140000Y-132110000D02*
X141050000Y-128200000D01*
X134560000Y-128670000D02*
X134560000Y-119700000D01*
X134640000Y-128750000D02*
X134560000Y-128670000D01*
X147500000Y-128200000D02*
X149560000Y-126140000D01*
X149560000Y-126140000D02*
X151315000Y-126140000D01*
%TO.N,Net-(JP6-B)*%
X131510000Y-130930000D02*
X131510000Y-130960000D01*
X145355000Y-124480000D02*
X145355000Y-124495000D01*
X143900000Y-125950000D02*
X138820000Y-125950000D01*
X138820000Y-125950000D02*
X132660000Y-132110000D01*
X131050000Y-130470000D02*
X131510000Y-130930000D01*
X130580000Y-122040000D02*
X131050000Y-122510000D01*
X131050000Y-122510000D02*
X131050000Y-130470000D01*
X130580000Y-119740000D02*
X130580000Y-122040000D01*
X145355000Y-124495000D02*
X143900000Y-125950000D01*
X131510000Y-130960000D02*
X132660000Y-132110000D01*
%TO.N,Net-(JP7-B)*%
X130170000Y-123120000D02*
X130170000Y-130790000D01*
X126750000Y-119700000D02*
X130170000Y-123120000D01*
X152980000Y-132095000D02*
X152975000Y-132100000D01*
X140150000Y-130940000D02*
X140150000Y-130660000D01*
X130630000Y-133890000D02*
X137200000Y-133890000D01*
X150694000Y-129062000D02*
X152980000Y-131348000D01*
X152980000Y-131348000D02*
X152980000Y-132095000D01*
X130170000Y-130790000D02*
X128850000Y-132110000D01*
X128850000Y-132110000D02*
X130630000Y-133890000D01*
X137200000Y-133890000D02*
X140150000Y-130940000D01*
X140150000Y-130660000D02*
X141748000Y-129062000D01*
X141748000Y-129062000D02*
X150694000Y-129062000D01*
%TO.N,CS3*%
X87330000Y-65720000D02*
X87940000Y-66330000D01*
X84530000Y-65720000D02*
X87330000Y-65720000D01*
X81920000Y-75220000D02*
X81920000Y-68330000D01*
X92690000Y-75620000D02*
X91410000Y-76900000D01*
X84335000Y-81270000D02*
X83940000Y-80875000D01*
X81920000Y-68330000D02*
X84530000Y-65720000D01*
X91410000Y-76900000D02*
X91410000Y-79620000D01*
X83170000Y-76470000D02*
X81920000Y-75220000D01*
X89760000Y-81270000D02*
X84335000Y-81270000D01*
X91410000Y-79620000D02*
X89760000Y-81270000D01*
X103270000Y-75620000D02*
X92690000Y-75620000D01*
%TO.N,Net-(JP8-B)*%
X127530000Y-134600000D02*
X137940000Y-134600000D01*
X122880000Y-119770000D02*
X126730000Y-123620000D01*
X137940000Y-134600000D02*
X141010000Y-131530000D01*
X126730000Y-123620000D02*
X126730000Y-127460000D01*
X142446000Y-129824000D02*
X144090000Y-129824000D01*
X125040000Y-132110000D02*
X127530000Y-134600000D01*
X126730000Y-127460000D02*
X125040000Y-129150000D01*
X125040000Y-129150000D02*
X125040000Y-132110000D01*
X145360000Y-131094000D02*
X145360000Y-132095000D01*
X141010000Y-131260000D02*
X142446000Y-129824000D01*
X144090000Y-129824000D02*
X145360000Y-131094000D01*
X141010000Y-131530000D02*
X141010000Y-131260000D01*
X145360000Y-132095000D02*
X145355000Y-132100000D01*
X122880000Y-119700000D02*
X122880000Y-119770000D01*
%TO.N,Net-(JP11-B)*%
X215220000Y-87700000D02*
X215220000Y-98070000D01*
X210728000Y-100004000D02*
X210812000Y-99920000D01*
X215220000Y-98070000D02*
X214510000Y-98780000D01*
X212610000Y-85740000D02*
X213260000Y-85740000D01*
X213260000Y-85740000D02*
X215220000Y-87700000D01*
X210812000Y-99920000D02*
X212020000Y-99920000D01*
X212020000Y-99920000D02*
X213160000Y-98780000D01*
X214510000Y-98780000D02*
X213160000Y-98780000D01*
%TO.N,Net-(JP12-B)*%
X161460000Y-90750000D02*
X161460000Y-95560000D01*
X161460000Y-97510000D02*
X159800000Y-99170000D01*
X159760000Y-87210000D02*
X159760000Y-89050000D01*
X159760000Y-89050000D02*
X161460000Y-90750000D01*
X161460000Y-95560000D02*
X161460000Y-97510000D01*
X161460000Y-95560000D02*
X169650000Y-95560000D01*
X169650000Y-95560000D02*
X171290000Y-93920000D01*
%TO.N,Net-(JP13-B)*%
X164860000Y-96800000D02*
X160850000Y-100810000D01*
X164930000Y-96800000D02*
X164860000Y-96800000D01*
X158000000Y-89290000D02*
X158000000Y-97510000D01*
X160850000Y-100810000D02*
X158080000Y-100810000D01*
X155960000Y-87250000D02*
X158000000Y-89290000D01*
X158080000Y-100810000D02*
X156390000Y-99120000D01*
X158000000Y-97510000D02*
X156390000Y-99120000D01*
%TO.N,APC4*%
X62670000Y-65980000D02*
X66120000Y-62530000D01*
X62670000Y-69060000D02*
X62670000Y-65980000D01*
X62670000Y-75560000D02*
X63080000Y-75970000D01*
X62670000Y-69060000D02*
X62670000Y-75560000D01*
X102190000Y-62530000D02*
X103920000Y-64260000D01*
X66120000Y-62530000D02*
X102190000Y-62530000D01*
%TO.N,Net-(JP14-B)*%
X154480000Y-91910000D02*
X153390000Y-93000000D01*
X164560000Y-91400000D02*
X166760000Y-93600000D01*
X153750000Y-93360000D02*
X155630000Y-93360000D01*
X152020000Y-87210000D02*
X154480000Y-89670000D01*
X153390000Y-93000000D02*
X153750000Y-93360000D01*
X162750000Y-91400000D02*
X164560000Y-91400000D01*
X166760000Y-93600000D02*
X168580000Y-93600000D01*
X153390000Y-93000000D02*
X152880000Y-93510000D01*
X154480000Y-89670000D02*
X154480000Y-91910000D01*
X152880000Y-93510000D02*
X152880000Y-99010000D01*
%TO.N,APC5*%
X102460000Y-64990000D02*
X102460000Y-65570000D01*
X65210000Y-74210000D02*
X67320000Y-76320000D01*
X100640000Y-63170000D02*
X102460000Y-64990000D01*
X65210000Y-65690000D02*
X67730000Y-63170000D01*
X65210000Y-69060000D02*
X65210000Y-65690000D01*
X67730000Y-63170000D02*
X100640000Y-63170000D01*
X65210000Y-69060000D02*
X65210000Y-74210000D01*
%TO.N,Net-(JP15-B)*%
X167130000Y-96930000D02*
X169050000Y-96930000D01*
X150910000Y-89760000D02*
X150910000Y-92130000D01*
X149280000Y-93760000D02*
X149280000Y-99060000D01*
X170429000Y-98309000D02*
X170429000Y-98796000D01*
X148220000Y-87070000D02*
X150910000Y-89760000D01*
X162380000Y-101680000D02*
X167130000Y-96930000D01*
X150910000Y-92130000D02*
X149280000Y-93760000D01*
X149280000Y-99060000D02*
X151900000Y-101680000D01*
X151900000Y-101680000D02*
X162380000Y-101680000D01*
X169050000Y-96930000D02*
X170429000Y-98309000D01*
%TO.N,Net-(JP17-C)*%
X178070000Y-72990000D02*
X178070000Y-77962000D01*
X178030000Y-72950000D02*
X178070000Y-72990000D01*
X178070000Y-77962000D02*
X178054000Y-77978000D01*
%TO.N,Net-(JP17-B)*%
X172974000Y-84286000D02*
X176730000Y-80530000D01*
X176730000Y-80530000D02*
X176730000Y-74190000D01*
X172974000Y-85598000D02*
X172974000Y-84286000D01*
X176730000Y-74190000D02*
X175490000Y-72950000D01*
%TO.N,Net-(JP18-C)*%
X136170000Y-97320000D02*
X137950000Y-97320000D01*
X133290000Y-100200000D02*
X136170000Y-97320000D01*
X137950000Y-97320000D02*
X143380000Y-91890000D01*
X143380000Y-91890000D02*
X144340000Y-91890000D01*
X133290000Y-108940000D02*
X133290000Y-100200000D01*
%TO.N,CS*%
X214450000Y-70570000D02*
X215910000Y-69110000D01*
X238350000Y-109140000D02*
X238350000Y-135050000D01*
X184640000Y-65540000D02*
X189670000Y-70570000D01*
X234100000Y-72970000D02*
X238720000Y-72970000D01*
X237120000Y-107910000D02*
X238350000Y-109140000D01*
X236380000Y-107910000D02*
X235680000Y-107910000D01*
X215910000Y-69110000D02*
X215910000Y-64520000D01*
X232120000Y-64400000D02*
X232120000Y-70990000D01*
X217580000Y-62850000D02*
X230570000Y-62850000D01*
X239980000Y-104310000D02*
X236380000Y-107910000D01*
X139270000Y-67290000D02*
X141020000Y-65540000D01*
X232120000Y-70990000D02*
X234100000Y-72970000D01*
X235680000Y-107910000D02*
X237120000Y-107910000D01*
X239980000Y-74230000D02*
X239980000Y-104310000D01*
X141020000Y-65540000D02*
X184640000Y-65540000D01*
X215910000Y-64520000D02*
X217580000Y-62850000D01*
X230570000Y-62850000D02*
X232120000Y-64400000D01*
X189670000Y-70570000D02*
X214450000Y-70570000D01*
X238720000Y-72970000D02*
X239980000Y-74230000D01*
%TO.N,Net-(JP19-C)*%
X167894000Y-82884000D02*
X165590000Y-80580000D01*
X165590000Y-80580000D02*
X163500000Y-80580000D01*
X167894000Y-85598000D02*
X167894000Y-82884000D01*
%TO.N,CS2*%
X215360000Y-71310000D02*
X217120000Y-69550000D01*
X142460000Y-66390000D02*
X184110000Y-66390000D01*
X229950000Y-63710000D02*
X231110000Y-64870000D01*
X141590000Y-67260000D02*
X142460000Y-66390000D01*
X217120000Y-64720000D02*
X218130000Y-63710000D01*
X184110000Y-66390000D02*
X189030000Y-71310000D01*
X231110000Y-81490000D02*
X235120000Y-85500000D01*
X217120000Y-69550000D02*
X217120000Y-64720000D01*
X235120000Y-85500000D02*
X235120000Y-98742000D01*
X235120000Y-98742000D02*
X237510000Y-101132000D01*
X218130000Y-63710000D02*
X229950000Y-63710000D01*
X237510000Y-101132000D02*
X237510000Y-102750000D01*
X189030000Y-71310000D02*
X215360000Y-71310000D01*
X236090000Y-75100000D02*
X236030000Y-75040000D01*
X236030000Y-75040000D02*
X231110000Y-75040000D01*
X231110000Y-64870000D02*
X231110000Y-75040000D01*
X231110000Y-75040000D02*
X231110000Y-81490000D01*
%TO.N,PB3*%
X112340000Y-118310000D02*
X112340000Y-117886000D01*
X112090000Y-118560000D02*
X112340000Y-118310000D01*
X112090000Y-120490000D02*
X112090000Y-118560000D01*
X111140000Y-121440000D02*
X112090000Y-120490000D01*
%TO.N,PB4*%
X108590000Y-121294500D02*
X109800000Y-120084500D01*
X109800000Y-120084500D02*
X109800000Y-117886000D01*
%TO.N,PB5*%
X107260000Y-117886000D02*
X107260000Y-120704500D01*
X107260000Y-120704500D02*
X106670000Y-121294500D01*
%TO.N,PB6*%
X104720000Y-121284500D02*
X104710000Y-121294500D01*
X104720000Y-117886000D02*
X104720000Y-121284500D01*
%TO.N,PB7*%
X102180000Y-117886000D02*
X102180000Y-121340000D01*
%TO.N,PA7*%
X98140000Y-91470000D02*
X101150000Y-88460000D01*
X71700000Y-117886000D02*
X76996000Y-112590000D01*
X122470000Y-89280000D02*
X135590000Y-89280000D01*
X135590000Y-89280000D02*
X138960000Y-85910000D01*
X120600000Y-87410000D02*
X122470000Y-89280000D01*
X101150000Y-88460000D02*
X114700000Y-88460000D01*
X114700000Y-88460000D02*
X115750000Y-87410000D01*
X84180000Y-112590000D02*
X98140000Y-98630000D01*
X115750000Y-87410000D02*
X120600000Y-87410000D01*
X76996000Y-112590000D02*
X84180000Y-112590000D01*
X98140000Y-98630000D02*
X98140000Y-91470000D01*
X138960000Y-85910000D02*
X138960000Y-77340000D01*
%TO.N,PA6*%
X137540000Y-78460000D02*
X136420000Y-77340000D01*
X115460000Y-86550000D02*
X120950000Y-86550000D01*
X120950000Y-86550000D02*
X122740000Y-88340000D01*
X83710000Y-111840000D02*
X97390000Y-98160000D01*
X114300000Y-87710000D02*
X115460000Y-86550000D01*
X75206000Y-111840000D02*
X83710000Y-111840000D01*
X97390000Y-98160000D02*
X97390000Y-90930000D01*
X137540000Y-86240000D02*
X137540000Y-78460000D01*
X122740000Y-88340000D02*
X135440000Y-88340000D01*
X97390000Y-90930000D02*
X100610000Y-87710000D01*
X100610000Y-87710000D02*
X114300000Y-87710000D01*
X69160000Y-117886000D02*
X75206000Y-111840000D01*
X135440000Y-88340000D02*
X137540000Y-86240000D01*
%TO.N,PA5*%
X134560000Y-78020000D02*
X133880000Y-77340000D01*
X96400000Y-90790000D02*
X100210000Y-86980000D01*
X73980000Y-111030000D02*
X83410000Y-111030000D01*
X121000000Y-85570000D02*
X123130000Y-87700000D01*
X67124000Y-117886000D02*
X73980000Y-111030000D01*
X136320000Y-86140000D02*
X136320000Y-82190000D01*
X113670000Y-86980000D02*
X115080000Y-85570000D01*
X115080000Y-85570000D02*
X121000000Y-85570000D01*
X134560000Y-80430000D02*
X134560000Y-78020000D01*
X96400000Y-98040000D02*
X96400000Y-90790000D01*
X66620000Y-117886000D02*
X67124000Y-117886000D01*
X100210000Y-86980000D02*
X113670000Y-86980000D01*
X123130000Y-87700000D02*
X134760000Y-87700000D01*
X136320000Y-82190000D02*
X134560000Y-80430000D01*
X134760000Y-87700000D02*
X136320000Y-86140000D01*
X83410000Y-111030000D02*
X96400000Y-98040000D01*
%TO.N,PA4*%
X64080000Y-117670000D02*
X65210000Y-116540000D01*
X121180000Y-77410000D02*
X121180000Y-77340000D01*
X112440000Y-86150000D02*
X121180000Y-77410000D01*
X73740000Y-110090000D02*
X83160000Y-110090000D01*
X67290000Y-116540000D02*
X73740000Y-110090000D01*
X64080000Y-117886000D02*
X64080000Y-117670000D01*
X95600000Y-97650000D02*
X95600000Y-90390000D01*
X99840000Y-86150000D02*
X112440000Y-86150000D01*
X65210000Y-116540000D02*
X67290000Y-116540000D01*
X95600000Y-90390000D02*
X99840000Y-86150000D01*
X83160000Y-110090000D02*
X95600000Y-97650000D01*
%TO.N,Net-(JP19-B)*%
X167180000Y-92700000D02*
X171850000Y-92700000D01*
X161740000Y-84880000D02*
X161740000Y-88221701D01*
X163500000Y-83120000D02*
X161740000Y-84880000D01*
X171850000Y-92700000D02*
X172969000Y-93819000D01*
X161740000Y-88221701D02*
X163598299Y-90080000D01*
X164560000Y-90080000D02*
X167180000Y-92700000D01*
X172969000Y-93819000D02*
X172969000Y-98796000D01*
X163598299Y-90080000D02*
X164560000Y-90080000D01*
%TO.N,Net-(Q1-B)*%
X87520000Y-92920000D02*
X87520000Y-87870000D01*
X87520000Y-87870000D02*
X86690000Y-87040000D01*
X86690000Y-87040000D02*
X85110000Y-87040000D01*
X87410000Y-93030000D02*
X87520000Y-92920000D01*
X87410000Y-93880000D02*
X87410000Y-93030000D01*
%TO.N,Net-(U12-SCLK)*%
X233030000Y-99490000D02*
X233030000Y-107290000D01*
X229580000Y-89770000D02*
X229580000Y-73316000D01*
X230660000Y-90850000D02*
X230770000Y-90960000D01*
X230400000Y-123240000D02*
X229470000Y-124170000D01*
X230660000Y-90850000D02*
X229580000Y-89770000D01*
X233030000Y-107290000D02*
X230400000Y-109920000D01*
X226296000Y-73260000D02*
X226222000Y-73334000D01*
X230400000Y-109920000D02*
X230400000Y-123240000D01*
X229470000Y-124170000D02*
X229320000Y-124170000D01*
X230770000Y-97230000D02*
X233030000Y-99490000D01*
X229524000Y-73260000D02*
X226296000Y-73260000D01*
X229580000Y-73316000D02*
X229524000Y-73260000D01*
X230770000Y-90960000D02*
X230770000Y-97230000D01*
%TO.N,Net-(U12-DI)*%
X223500000Y-74860000D02*
X222412000Y-73772000D01*
X228570000Y-89110000D02*
X228570000Y-91096016D01*
X230020000Y-97660000D02*
X232220000Y-99860000D01*
X228570000Y-89110000D02*
X228570000Y-75790000D01*
X229130000Y-109910000D02*
X229130000Y-122040000D01*
X229130000Y-122040000D02*
X229220000Y-122130000D01*
X228570000Y-91096016D02*
X230020000Y-92546016D01*
X222412000Y-73588000D02*
X218856000Y-73588000D01*
X232220000Y-106820000D02*
X229130000Y-109910000D01*
X222412000Y-73772000D02*
X222412000Y-73588000D01*
X232220000Y-99860000D02*
X232220000Y-106820000D01*
X230020000Y-92546016D02*
X230020000Y-97660000D01*
X228570000Y-75790000D02*
X227640000Y-74860000D01*
X227640000Y-74860000D02*
X223500000Y-74860000D01*
%TO.N,Net-(U12-~{CS})*%
X224270000Y-121580000D02*
X224270000Y-131500000D01*
X224530000Y-121320000D02*
X224270000Y-121580000D01*
X228420000Y-135050000D02*
X228320000Y-134950000D01*
X227720000Y-134950000D02*
X228320000Y-134950000D01*
X224270000Y-131500000D02*
X227720000Y-134950000D01*
X230730000Y-135050000D02*
X228420000Y-135050000D01*
%TO.N,Net-(U13-~{CS})*%
X229890000Y-102750000D02*
X229842000Y-102798000D01*
X227570000Y-102770000D02*
X224200000Y-99400000D01*
X224200000Y-88460000D02*
X224400000Y-88260000D01*
X227598000Y-102798000D02*
X227570000Y-102770000D01*
X224200000Y-99400000D02*
X224200000Y-88460000D01*
X229842000Y-102798000D02*
X227598000Y-102798000D01*
%TO.N,Net-(U7-Pad11)*%
X175509000Y-90673000D02*
X175509000Y-91176000D01*
X170434000Y-85598000D02*
X175509000Y-90673000D01*
%TO.N,AEN*%
X209680000Y-101510000D02*
X211744000Y-103574000D01*
X189090000Y-105900000D02*
X188760000Y-105570000D01*
X207426000Y-141660000D02*
X198282000Y-141660000D01*
X211744000Y-103574000D02*
X211744000Y-137342000D01*
X211744000Y-137342000D02*
X207426000Y-141660000D01*
X188760000Y-105570000D02*
X146780000Y-105570000D01*
X146780000Y-105570000D02*
X146030000Y-106320000D01*
X190310000Y-106090000D02*
X190120000Y-105900000D01*
X146030000Y-106320000D02*
X146030000Y-106620000D01*
X190120000Y-105900000D02*
X189090000Y-105900000D01*
X209680000Y-98070000D02*
X209680000Y-101510000D01*
X208170000Y-96560000D02*
X209680000Y-98070000D01*
X198282000Y-141660000D02*
X197012000Y-142930000D01*
X208040000Y-96560000D02*
X208170000Y-96560000D01*
%TO.N,Net-(U3-Pad11)*%
X165800000Y-106470000D02*
X167080000Y-107750000D01*
X167080000Y-107750000D02*
X172435000Y-107750000D01*
X172435000Y-107750000D02*
X174570000Y-109885000D01*
X149650000Y-106745000D02*
X149925000Y-106470000D01*
X149925000Y-106470000D02*
X165800000Y-106470000D01*
%TO.N,Net-(U6-Pad6)*%
X200830000Y-86570000D02*
X200820000Y-86570000D01*
X204120000Y-89860000D02*
X200830000Y-86570000D01*
X204120000Y-94870000D02*
X204120000Y-89860000D01*
X200820000Y-86570000D02*
X200335000Y-86085000D01*
X205380000Y-98740000D02*
X205380000Y-96130000D01*
X200335000Y-86085000D02*
X200335000Y-85790000D01*
X205380000Y-96130000D02*
X204120000Y-94870000D01*
%TO.N,Net-(U6-Pad11)*%
X200300000Y-91120000D02*
X198400000Y-89220000D01*
X195255000Y-87655000D02*
X195255000Y-85790000D01*
X198400000Y-89220000D02*
X196820000Y-89220000D01*
X196820000Y-89220000D02*
X195255000Y-87655000D01*
%TO.N,Net-(U7-Pad6)*%
X179330000Y-89940000D02*
X175514000Y-86124000D01*
X179330000Y-95670000D02*
X179330000Y-89940000D01*
X180589000Y-96929000D02*
X179330000Y-95670000D01*
X180589000Y-98796000D02*
X180589000Y-96929000D01*
X175514000Y-86124000D02*
X175514000Y-85598000D01*
%TO.N,Net-(U9-Pad6)*%
X180594000Y-85598000D02*
X180594000Y-77978000D01*
%TO.N,Net-(U8-Pad13)*%
X197795000Y-84465000D02*
X197795000Y-85790000D01*
X195255000Y-81925000D02*
X197795000Y-84465000D01*
X195255000Y-78170000D02*
X195255000Y-81925000D01*
%TO.N,Net-(U8-Pad12)*%
X197795000Y-78170000D02*
X205415000Y-85790000D01*
%TO.N,Net-(U8-Pad11)*%
X174240000Y-71060000D02*
X173060000Y-72240000D01*
X186940000Y-75990000D02*
X182010000Y-71060000D01*
X173060000Y-74764000D02*
X172974000Y-74850000D01*
X182010000Y-71060000D02*
X174240000Y-71060000D01*
X200335000Y-78170000D02*
X198155000Y-75990000D01*
X198155000Y-75990000D02*
X186940000Y-75990000D01*
X173060000Y-72240000D02*
X173060000Y-74764000D01*
%TO.N,PB7*%
X59890000Y-87950000D02*
X59800000Y-88040000D01*
X63080000Y-83590000D02*
X59920000Y-83590000D01*
X59890000Y-91860000D02*
X59900000Y-91850000D01*
X56710000Y-83620000D02*
X56690000Y-83600000D01*
X59800000Y-91750000D02*
X59900000Y-91850000D01*
X59890000Y-95700000D02*
X59890000Y-91860000D01*
X59900000Y-99400000D02*
X59900000Y-95710000D01*
X59920000Y-83590000D02*
X59890000Y-83620000D01*
X59900000Y-95710000D02*
X59890000Y-95700000D01*
X59890000Y-83620000D02*
X59890000Y-87950000D01*
X59890000Y-83620000D02*
X56710000Y-83620000D01*
X59800000Y-88040000D02*
X59800000Y-91750000D01*
%TD*%
M02*
