%TF.GenerationSoftware,KiCad,Pcbnew,7.0.11+dfsg-1build4*%
%TF.CreationDate,2025-10-21T14:51:23-05:00*%
%TF.ProjectId,ISACard,49534143-6172-4642-9e6b-696361645f70,rev?*%
%TF.SameCoordinates,Original*%
%TF.FileFunction,Soldermask,Top*%
%TF.FilePolarity,Negative*%
%FSLAX46Y46*%
G04 Gerber Fmt 4.6, Leading zero omitted, Abs format (unit mm)*
G04 Created by KiCad (PCBNEW 7.0.11+dfsg-1build4) date 2025-10-21 14:51:23*
%MOMM*%
%LPD*%
G01*
G04 APERTURE LIST*
%ADD10C,1.600000*%
%ADD11O,1.600000X1.600000*%
%ADD12R,1.700000X1.700000*%
%ADD13O,1.700000X1.700000*%
%ADD14R,1.780000X7.620000*%
%ADD15R,1.600000X1.600000*%
%ADD16R,1.800000X1.800000*%
%ADD17C,1.800000*%
%ADD18R,1.500000X1.500000*%
%ADD19C,1.500000*%
%ADD20C,3.700000*%
%ADD21R,1.400000X1.600000*%
%ADD22C,1.000000*%
%ADD23R,2.200000X1.200000*%
%ADD24R,1.600000X0.700000*%
%ADD25R,1.400000X1.200000*%
%ADD26C,2.000000*%
G04 APERTURE END LIST*
D10*
%TO.C,R37*%
X63080000Y-75970000D03*
D11*
X63080000Y-83590000D03*
%TD*%
D10*
%TO.C,R16*%
X74940000Y-76320000D03*
D11*
X67320000Y-76320000D03*
%TD*%
D12*
%TO.C,J4*%
X62670000Y-69060000D03*
D13*
X65210000Y-69060000D03*
X67750000Y-69060000D03*
X70290000Y-69060000D03*
%TD*%
D10*
%TO.C,R9*%
X119690000Y-81510000D03*
D11*
X119690000Y-89130000D03*
%TD*%
D10*
%TO.C,R4*%
X188540000Y-124490000D03*
D11*
X188540000Y-132110000D03*
%TD*%
D12*
%TO.C,JP7*%
X126750000Y-117160000D03*
D13*
X126750000Y-119700000D03*
%TD*%
D10*
%TO.C,R17*%
X87410000Y-93880000D03*
D11*
X79790000Y-93880000D03*
%TD*%
D10*
%TO.C,C15*%
X163560000Y-93380000D03*
X163560000Y-88380000D03*
%TD*%
D14*
%TO.C,J1*%
X219890000Y-153070000D03*
X217350000Y-153070000D03*
X214810000Y-153070000D03*
X212270000Y-153070000D03*
X209730000Y-153070000D03*
X207190000Y-153070000D03*
X204650000Y-153070000D03*
X202110000Y-153070000D03*
X199570000Y-153070000D03*
X197030000Y-153070000D03*
X194490000Y-153070000D03*
X191950000Y-153070000D03*
X189410000Y-153070000D03*
X186870000Y-153070000D03*
X184330000Y-153070000D03*
X181790000Y-153070000D03*
X179250000Y-153070000D03*
X176710000Y-153070000D03*
X174170000Y-153070000D03*
X171630000Y-153070000D03*
X169090000Y-153070000D03*
X166550000Y-153070000D03*
X164010000Y-153070000D03*
X161470000Y-153070000D03*
X158930000Y-153070000D03*
X156390000Y-153070000D03*
X153850000Y-153070000D03*
X151310000Y-153070000D03*
X148770000Y-153070000D03*
X146230000Y-153070000D03*
X143690000Y-153070000D03*
%TD*%
D12*
%TO.C,JP12*%
X159760000Y-84670000D03*
D13*
X159760000Y-87210000D03*
%TD*%
D15*
%TO.C,D6*%
X218230000Y-120770000D03*
D11*
X218230000Y-113150000D03*
%TD*%
D10*
%TO.C,C11*%
X171376000Y-120812000D03*
X166376000Y-120812000D03*
%TD*%
%TO.C,C3*%
X128000000Y-85860000D03*
X128000000Y-90860000D03*
%TD*%
D15*
%TO.C,U3*%
X166950000Y-117505000D03*
D11*
X169490000Y-117505000D03*
X172030000Y-117505000D03*
X174570000Y-117505000D03*
X177110000Y-117505000D03*
X179650000Y-117505000D03*
X182190000Y-117505000D03*
X182190000Y-109885000D03*
X179650000Y-109885000D03*
X177110000Y-109885000D03*
X174570000Y-109885000D03*
X172030000Y-109885000D03*
X169490000Y-109885000D03*
X166950000Y-109885000D03*
%TD*%
D12*
%TO.C,JP5*%
X134560000Y-117160000D03*
D13*
X134560000Y-119700000D03*
%TD*%
D10*
%TO.C,R12*%
X159800000Y-91550000D03*
D11*
X159800000Y-99170000D03*
%TD*%
D12*
%TO.C,JP3*%
X192370000Y-116640000D03*
D13*
X192370000Y-119180000D03*
%TD*%
D12*
%TO.C,JP10*%
X152040000Y-79120000D03*
D13*
X149500000Y-79120000D03*
%TD*%
D10*
%TO.C,R21*%
X226222000Y-65714000D03*
D11*
X226222000Y-73334000D03*
%TD*%
D15*
%TO.C,D9*%
X219364000Y-88580000D03*
D11*
X219364000Y-80960000D03*
%TD*%
D10*
%TO.C,R3*%
X192350000Y-124490000D03*
D11*
X192350000Y-132110000D03*
%TD*%
D10*
%TO.C,R5*%
X136470000Y-124490000D03*
D11*
X136470000Y-132110000D03*
%TD*%
D15*
%TO.C,D4*%
X218180000Y-130820000D03*
D11*
X218180000Y-123200000D03*
%TD*%
D10*
%TO.C,R31*%
X221120000Y-121890000D03*
D11*
X221120000Y-114270000D03*
%TD*%
D16*
%TO.C,D5*%
X236090000Y-75100000D03*
D17*
X236090000Y-77640000D03*
%TD*%
D15*
%TO.C,U11*%
X108480000Y-77340000D03*
D11*
X111020000Y-77340000D03*
X113560000Y-77340000D03*
X116100000Y-77340000D03*
X118640000Y-77340000D03*
X121180000Y-77340000D03*
X123720000Y-77340000D03*
X126260000Y-77340000D03*
X128800000Y-77340000D03*
X131340000Y-77340000D03*
X133880000Y-77340000D03*
X136420000Y-77340000D03*
X138960000Y-77340000D03*
X141500000Y-77340000D03*
X141500000Y-69720000D03*
X138960000Y-69720000D03*
X136420000Y-69720000D03*
X133880000Y-69720000D03*
X131340000Y-69720000D03*
X128800000Y-69720000D03*
X126260000Y-69720000D03*
X123720000Y-69720000D03*
X121180000Y-69720000D03*
X118640000Y-69720000D03*
X116100000Y-69720000D03*
X113560000Y-69720000D03*
X111020000Y-69720000D03*
X108480000Y-69720000D03*
%TD*%
D12*
%TO.C,JP18*%
X144340000Y-89350000D03*
D13*
X144340000Y-91890000D03*
X144340000Y-94430000D03*
%TD*%
D12*
%TO.C,JP15*%
X148220000Y-84530000D03*
D13*
X148220000Y-87070000D03*
%TD*%
D12*
%TO.C,J5*%
X112700000Y-143460000D03*
D13*
X110160000Y-143460000D03*
X107620000Y-143460000D03*
X105080000Y-143460000D03*
X102540000Y-143460000D03*
X100000000Y-143460000D03*
X97460000Y-143460000D03*
X94920000Y-143460000D03*
X92380000Y-143460000D03*
X89840000Y-143460000D03*
X87300000Y-143460000D03*
X84760000Y-143460000D03*
X82220000Y-143460000D03*
X79680000Y-143460000D03*
X77140000Y-143460000D03*
X74600000Y-143460000D03*
%TD*%
D18*
%TO.C,Q1*%
X85110000Y-89580000D03*
D19*
X85110000Y-87040000D03*
X85110000Y-84500000D03*
%TD*%
D15*
%TO.C,C17*%
X215826000Y-106334000D03*
D10*
X217826000Y-106334000D03*
%TD*%
D20*
%TO.C,H1*%
X236000000Y-66000000D03*
%TD*%
D19*
%TO.C,Y1*%
X133180000Y-81830000D03*
X128300000Y-81830000D03*
%TD*%
D10*
%TO.C,C14*%
X107020000Y-114540000D03*
X102020000Y-114540000D03*
%TD*%
%TO.C,R28*%
X227570000Y-102770000D03*
D11*
X219950000Y-102770000D03*
%TD*%
D12*
%TO.C,JP22*%
X59900000Y-91850000D03*
D13*
X57360000Y-91850000D03*
%TD*%
D12*
%TO.C,J3*%
X80630000Y-68850000D03*
D13*
X83170000Y-68850000D03*
X80630000Y-71390000D03*
X83170000Y-71390000D03*
X80630000Y-73930000D03*
X83170000Y-73930000D03*
X80630000Y-76470000D03*
X83170000Y-76470000D03*
X80630000Y-79010000D03*
X83170000Y-79010000D03*
%TD*%
D10*
%TO.C,C4*%
X133540000Y-90860000D03*
X133540000Y-85860000D03*
%TD*%
%TO.C,R25*%
X218856000Y-73588000D03*
D11*
X218856000Y-65968000D03*
%TD*%
D10*
%TO.C,C2*%
X113480000Y-65050000D03*
X108480000Y-65050000D03*
%TD*%
D15*
%TO.C,U9*%
X167894000Y-85598000D03*
D11*
X170434000Y-85598000D03*
X172974000Y-85598000D03*
X175514000Y-85598000D03*
X178054000Y-85598000D03*
X180594000Y-85598000D03*
X183134000Y-85598000D03*
X183134000Y-77978000D03*
X180594000Y-77978000D03*
X178054000Y-77978000D03*
X175514000Y-77978000D03*
X172974000Y-77978000D03*
X170434000Y-77978000D03*
X167894000Y-77978000D03*
%TD*%
D12*
%TO.C,JP11*%
X212610000Y-83200000D03*
D13*
X212610000Y-85740000D03*
%TD*%
D10*
%TO.C,R13*%
X156390000Y-91500000D03*
D11*
X156390000Y-99120000D03*
%TD*%
D12*
%TO.C,JP21*%
X59890000Y-95700000D03*
D13*
X57350000Y-95700000D03*
%TD*%
D10*
%TO.C,R14*%
X152880000Y-91390000D03*
D11*
X152880000Y-99010000D03*
%TD*%
D21*
%TO.C,U13*%
X227140000Y-82370000D03*
D22*
X237040000Y-86170000D03*
X237040000Y-94170000D03*
D23*
X236640000Y-96970000D03*
D24*
X226540000Y-86970000D03*
X226540000Y-88070000D03*
X226540000Y-89170000D03*
X226540000Y-90270000D03*
X226540000Y-91370000D03*
X226540000Y-92470000D03*
X226540000Y-93570000D03*
X226540000Y-94670000D03*
X226540000Y-95770000D03*
D25*
X227140000Y-96970000D03*
D23*
X236740000Y-81470000D03*
%TD*%
D10*
%TO.C,R7*%
X128850000Y-124490000D03*
D11*
X128850000Y-132110000D03*
%TD*%
D10*
%TO.C,C7*%
X222412000Y-84550000D03*
X222412000Y-89550000D03*
%TD*%
D12*
%TO.C,JP23*%
X59800000Y-88040000D03*
D13*
X57260000Y-88040000D03*
%TD*%
D12*
%TO.C,JP1*%
X200200000Y-116610000D03*
D13*
X200200000Y-119150000D03*
%TD*%
D12*
%TO.C,JP9*%
X128110000Y-64320000D03*
D13*
X125570000Y-64320000D03*
%TD*%
D10*
%TO.C,R15*%
X149280000Y-91440000D03*
D11*
X149280000Y-99060000D03*
%TD*%
D15*
%TO.C,U5*%
X64080000Y-133126000D03*
D11*
X66620000Y-133126000D03*
X69160000Y-133126000D03*
X71700000Y-133126000D03*
X74240000Y-133126000D03*
X76780000Y-133126000D03*
X79320000Y-133126000D03*
X81860000Y-133126000D03*
X84400000Y-133126000D03*
X86940000Y-133126000D03*
X89480000Y-133126000D03*
X92020000Y-133126000D03*
X94560000Y-133126000D03*
X97100000Y-133126000D03*
X99640000Y-133126000D03*
X102180000Y-133126000D03*
X104720000Y-133126000D03*
X107260000Y-133126000D03*
X109800000Y-133126000D03*
X112340000Y-133126000D03*
X112340000Y-117886000D03*
X109800000Y-117886000D03*
X107260000Y-117886000D03*
X104720000Y-117886000D03*
X102180000Y-117886000D03*
X99640000Y-117886000D03*
X97100000Y-117886000D03*
X94560000Y-117886000D03*
X92020000Y-117886000D03*
X89480000Y-117886000D03*
X86940000Y-117886000D03*
X84400000Y-117886000D03*
X81860000Y-117886000D03*
X79320000Y-117886000D03*
X76780000Y-117886000D03*
X74240000Y-117886000D03*
X71700000Y-117886000D03*
X69160000Y-117886000D03*
X66620000Y-117886000D03*
X64080000Y-117886000D03*
%TD*%
D10*
%TO.C,R11*%
X213160000Y-91160000D03*
D11*
X213160000Y-98780000D03*
%TD*%
D26*
%TO.C,SW1*%
X72720000Y-85940000D03*
X79220000Y-85940000D03*
X72720000Y-90440000D03*
X79220000Y-90440000D03*
%TD*%
D12*
%TO.C,JP13*%
X155960000Y-84710000D03*
D13*
X155960000Y-87250000D03*
%TD*%
D10*
%TO.C,C12*%
X144198000Y-121320000D03*
X139198000Y-121320000D03*
%TD*%
%TO.C,R32*%
X224450000Y-111350000D03*
D11*
X232070000Y-111350000D03*
%TD*%
D20*
%TO.C,H2*%
X236000000Y-142930000D03*
%TD*%
D10*
%TO.C,R2*%
X196160000Y-124490000D03*
D11*
X196160000Y-132110000D03*
%TD*%
D10*
%TO.C,R22*%
X229524000Y-73260000D03*
D11*
X229524000Y-65640000D03*
%TD*%
D10*
%TO.C,R23*%
X95560000Y-66330000D03*
D11*
X87940000Y-66330000D03*
%TD*%
D10*
%TO.C,R27*%
X230730000Y-135050000D03*
D11*
X238350000Y-135050000D03*
%TD*%
D10*
%TO.C,R24*%
X222412000Y-65968000D03*
D11*
X222412000Y-73588000D03*
%TD*%
D16*
%TO.C,D7*%
X235680000Y-107910000D03*
D17*
X235680000Y-110450000D03*
%TD*%
D21*
%TO.C,U12*%
X227010000Y-115230000D03*
D22*
X236910000Y-119030000D03*
X236910000Y-127030000D03*
D23*
X236510000Y-129830000D03*
D24*
X226410000Y-119830000D03*
X226410000Y-120930000D03*
X226410000Y-122030000D03*
X226410000Y-123130000D03*
X226410000Y-124230000D03*
X226410000Y-125330000D03*
X226410000Y-126430000D03*
X226410000Y-127530000D03*
X226410000Y-128630000D03*
D25*
X227010000Y-129830000D03*
D23*
X236610000Y-114330000D03*
%TD*%
D12*
%TO.C,JP4*%
X188430000Y-116600000D03*
D13*
X188430000Y-119140000D03*
%TD*%
D15*
%TO.C,U1*%
X166945000Y-132100000D03*
D11*
X169485000Y-132100000D03*
X172025000Y-132100000D03*
X174565000Y-132100000D03*
X177105000Y-132100000D03*
X179645000Y-132100000D03*
X182185000Y-132100000D03*
X182185000Y-124480000D03*
X179645000Y-124480000D03*
X177105000Y-124480000D03*
X174565000Y-124480000D03*
X172025000Y-124480000D03*
X169485000Y-124480000D03*
X166945000Y-124480000D03*
%TD*%
D10*
%TO.C,R1*%
X199970000Y-124490000D03*
D11*
X199970000Y-132110000D03*
%TD*%
D15*
%TO.C,U6*%
X192680000Y-98740000D03*
D11*
X195220000Y-98740000D03*
X197760000Y-98740000D03*
X200300000Y-98740000D03*
X202840000Y-98740000D03*
X205380000Y-98740000D03*
X207920000Y-98740000D03*
X207920000Y-91120000D03*
X205380000Y-91120000D03*
X202840000Y-91120000D03*
X200300000Y-91120000D03*
X197760000Y-91120000D03*
X195220000Y-91120000D03*
X192680000Y-91120000D03*
%TD*%
D15*
%TO.C,U4*%
X142815000Y-116860000D03*
D11*
X145355000Y-116860000D03*
X147895000Y-116860000D03*
X150435000Y-116860000D03*
X152975000Y-116860000D03*
X155515000Y-116860000D03*
X158055000Y-116860000D03*
X158055000Y-109240000D03*
X155515000Y-109240000D03*
X152975000Y-109240000D03*
X150435000Y-109240000D03*
X147895000Y-109240000D03*
X145355000Y-109240000D03*
X142815000Y-109240000D03*
%TD*%
D10*
%TO.C,C13*%
X145210000Y-100870000D03*
X140210000Y-100870000D03*
%TD*%
%TO.C,R29*%
X229890000Y-102750000D03*
D11*
X237510000Y-102750000D03*
%TD*%
D16*
%TO.C,D3*%
X98000000Y-65620000D03*
D17*
X100540000Y-65620000D03*
%TD*%
D11*
%TO.C,R35*%
X56690000Y-75980000D03*
D10*
X56690000Y-83600000D03*
%TD*%
%TO.C,C16*%
X187632000Y-92110000D03*
X187632000Y-87110000D03*
%TD*%
D12*
%TO.C,JP19*%
X163500000Y-78040000D03*
D13*
X163500000Y-80580000D03*
X163500000Y-83120000D03*
%TD*%
D12*
%TO.C,JP2*%
X196290000Y-116630000D03*
D13*
X196290000Y-119170000D03*
%TD*%
D12*
%TO.C,JP16*%
X59900000Y-99400000D03*
D13*
X57360000Y-99400000D03*
%TD*%
D15*
%TO.C,U8*%
X192715000Y-85790000D03*
D11*
X195255000Y-85790000D03*
X197795000Y-85790000D03*
X200335000Y-85790000D03*
X202875000Y-85790000D03*
X205415000Y-85790000D03*
X207955000Y-85790000D03*
X207955000Y-78170000D03*
X205415000Y-78170000D03*
X202875000Y-78170000D03*
X200335000Y-78170000D03*
X197795000Y-78170000D03*
X195255000Y-78170000D03*
X192715000Y-78170000D03*
%TD*%
D15*
%TO.C,U2*%
X142815000Y-132100000D03*
D11*
X145355000Y-132100000D03*
X147895000Y-132100000D03*
X150435000Y-132100000D03*
X152975000Y-132100000D03*
X155515000Y-132100000D03*
X158055000Y-132100000D03*
X158055000Y-124480000D03*
X155515000Y-124480000D03*
X152975000Y-124480000D03*
X150435000Y-124480000D03*
X147895000Y-124480000D03*
X145355000Y-124480000D03*
X142815000Y-124480000D03*
%TD*%
D10*
%TO.C,R6*%
X132660000Y-124490000D03*
D11*
X132660000Y-132110000D03*
%TD*%
D10*
%TO.C,R30*%
X232570000Y-78360000D03*
D11*
X224950000Y-78360000D03*
%TD*%
D15*
%TO.C,D8*%
X219120000Y-99950000D03*
D11*
X219120000Y-92330000D03*
%TD*%
D15*
%TO.C,U10*%
X135830000Y-93700000D03*
D11*
X133290000Y-93700000D03*
X130750000Y-93700000D03*
X128210000Y-93700000D03*
X125670000Y-93700000D03*
X123130000Y-93700000D03*
X120590000Y-93700000D03*
X118050000Y-93700000D03*
X115510000Y-93700000D03*
X112970000Y-93700000D03*
X110430000Y-93700000D03*
X107890000Y-93700000D03*
X105350000Y-93700000D03*
X102810000Y-93700000D03*
X102810000Y-108940000D03*
X105350000Y-108940000D03*
X107890000Y-108940000D03*
X110430000Y-108940000D03*
X112970000Y-108940000D03*
X115510000Y-108940000D03*
X118050000Y-108940000D03*
X120590000Y-108940000D03*
X123130000Y-108940000D03*
X125670000Y-108940000D03*
X128210000Y-108940000D03*
X130750000Y-108940000D03*
X133290000Y-108940000D03*
X135830000Y-108940000D03*
%TD*%
D10*
%TO.C,R26*%
X228320000Y-134950000D03*
D11*
X220700000Y-134950000D03*
%TD*%
D12*
%TO.C,J2*%
X155070000Y-73650000D03*
D13*
X152530000Y-73650000D03*
X155070000Y-71110000D03*
X152530000Y-71110000D03*
X155070000Y-68570000D03*
X152530000Y-68570000D03*
%TD*%
D15*
%TO.C,D1*%
X131100000Y-64370000D03*
D11*
X138720000Y-64370000D03*
%TD*%
D12*
%TO.C,JP14*%
X152020000Y-84670000D03*
D13*
X152020000Y-87210000D03*
%TD*%
D10*
%TO.C,R36*%
X59890000Y-76000000D03*
D11*
X59890000Y-83620000D03*
%TD*%
D12*
%TO.C,JP8*%
X122880000Y-117160000D03*
D13*
X122880000Y-119700000D03*
%TD*%
D10*
%TO.C,R33*%
X222158000Y-92384000D03*
D11*
X222158000Y-100004000D03*
%TD*%
D15*
%TO.C,U7*%
X167889000Y-98796000D03*
D11*
X170429000Y-98796000D03*
X172969000Y-98796000D03*
X175509000Y-98796000D03*
X178049000Y-98796000D03*
X180589000Y-98796000D03*
X183129000Y-98796000D03*
X183129000Y-91176000D03*
X180589000Y-91176000D03*
X178049000Y-91176000D03*
X175509000Y-91176000D03*
X172969000Y-91176000D03*
X170429000Y-91176000D03*
X167889000Y-91176000D03*
%TD*%
D10*
%TO.C,C6*%
X221060000Y-129230000D03*
X221060000Y-124230000D03*
%TD*%
D12*
%TO.C,JP17*%
X180570000Y-72950000D03*
D13*
X178030000Y-72950000D03*
X175490000Y-72950000D03*
%TD*%
D15*
%TO.C,D2*%
X102970000Y-69860000D03*
D11*
X102970000Y-77480000D03*
%TD*%
D10*
%TO.C,C1*%
X123040000Y-80130000D03*
X123040000Y-85130000D03*
%TD*%
D12*
%TO.C,JP6*%
X130580000Y-117200000D03*
D13*
X130580000Y-119740000D03*
%TD*%
D10*
%TO.C,R10*%
X65320000Y-114480000D03*
D11*
X55160000Y-114480000D03*
%TD*%
D10*
%TO.C,R18*%
X99980000Y-69860000D03*
D11*
X99980000Y-77480000D03*
%TD*%
D10*
%TO.C,R8*%
X125040000Y-124490000D03*
D11*
X125040000Y-132110000D03*
%TD*%
M02*
