M48
; DRILL file {KiCad 7.0.11+dfsg-1build4} date Mon 13 Oct 2025 08:30:34 PM CDT
; FORMAT={-:-/ absolute / inch / decimal}
; #@! TF.CreationDate,2025-10-13T20:30:34-05:00
; #@! TF.GenerationSoftware,Kicad,Pcbnew,7.0.11+dfsg-1build4
; #@! TF.FileFunction,Plated,1,2,PTH
FMAT,2
INCH
; #@! TA.AperFunction,Plated,PTH,ViaDrill
T1C0.0157
; #@! TA.AperFunction,Plated,PTH,ComponentDrill
T2C0.0315
; #@! TA.AperFunction,Plated,PTH,ComponentDrill
T3C0.0354
; #@! TA.AperFunction,Plated,PTH,ComponentDrill
T4C0.0394
; #@! TA.AperFunction,Plated,PTH,ComponentDrill
T5C0.0433
%
G90
G05
T1
X2.5681Y-3.4539
X3.276Y-5.0594
X3.3047Y-3.1841
X3.4173Y-5.4031
X3.6295Y-5.4685
X3.7661Y-5.311
X3.787Y-5.5689
X3.898Y-4.8075
X3.9669Y-5.3264
X4.0012Y-2.8752
X4.0075Y-2.9457
X4.0228Y-4.7772
X4.0339Y-2.5815
X4.0508Y-2.9118
X4.0657Y-2.9772
X4.0736Y-5.3299
X4.0913Y-2.5299
X4.1224Y-4.7754
X4.172Y-5.3366
X4.1996Y-4.7754
X4.2429Y-5.3488
X4.2752Y-4.7754
X4.2906Y-5.3886
X4.3756Y-4.7811
X4.4535Y-4.7063
X4.5177Y-4.7043
X4.5445Y-5.55
X4.6051Y-4.2224
X4.6102Y-4.7287
X4.6429Y-4.4768
X4.6551Y-4.7531
X4.6949Y-4.2213
X4.7732Y-4.426
X4.7976Y-4.2217
X4.8327Y-4.465
X4.889Y-4.2185
X4.9035Y-4.4689
X4.9835Y-4.4646
X5.0492Y-4.4606
X5.0949Y-4.2138
X5.1728Y-2.8685
X5.1886Y-4.2154
X5.2291Y-5.6154
X5.278Y-5.6453
X5.2882Y-5.2343
X5.3008Y-5.0689
X5.4409Y-4.4197
X5.4831Y-2.6492
X5.4831Y-4.378
X5.4937Y-3.448
X5.5335Y-5.289
X5.5453Y-4.5969
X5.5472Y-5.3654
X5.5555Y-5.2524
X5.5705Y-5.4421
X5.5744Y-2.648
X5.5835Y-5.3301
X5.5937Y-5.4835
X5.5941Y-5.8031
X5.598Y-5.4031
X5.6665Y-5.6317
X5.6799Y-5.4744
X5.7492Y-4.1976
X5.765Y-5.1217
X5.7724Y-4.9453
X5.7858Y-5.6108
X5.8421Y-4.7421
X5.8602Y-5.6108
X5.8917Y-4.2026
X5.9094Y-4.9966
X5.9492Y-5.6108
X6.0551Y-5.6161
X6.0949Y-2.5098
X6.1272Y-3.6756
X6.152Y-5.6108
X6.3669Y-4.9464
X6.3728Y-4.8437
X6.4075Y-3.5984
X6.4772Y-5.6134
X6.4933Y-3.811
X6.54Y-5.6289
X6.5665Y-4.0967
X6.6098Y-4.0079
X6.6337Y-5.66
X6.637Y-3.685
X6.7224Y-5.661
X6.7437Y-3.6976
X6.81Y-2.9469
X6.9598Y-5.628
X7.0213Y-5.1027
X7.0606Y-5.6272
X7.1264Y-5.2433
X7.1543Y-5.6307
X7.2303Y-5.628
X7.2528Y-4.8212
X7.2709Y-5.6713
X7.2827Y-5.2346
X7.3134Y-5.7606
X7.3689Y-5.6756
X7.4122Y-5.7669
X7.4925Y-4.1768
X7.5197Y-5.6358
X7.6059Y-5.6398
X7.7564Y-5.6272
X7.7764Y-5.7772
X8.0146Y-4.4307
X8.1906Y-3.8016
X8.2224Y-3.5276
X8.2964Y-3.9372
X8.3925Y-2.7429
X8.4215Y-2.9467
X8.4524Y-5.3807
X8.4764Y-5.3072
X8.5364Y-5.2772
X8.5571Y-3.5697
X8.6764Y-5.7772
X8.7866Y-4.8516
X8.8346Y-3.4748
X8.8398Y-4.7764
X8.9791Y-4.9709
X8.9988Y-3.5083
X9.0098Y-3.6933
X9.0244Y-4.8083
X9.0283Y-4.8886
X9.0811Y-3.5768
T2
X2.1464Y-2.5972
X2.1717Y-4.5071
X2.2114Y-2.8791
X2.3114Y-2.8791
X2.3575Y-3.0488
X2.3575Y-3.3488
X2.4114Y-2.8791
X2.4464Y-2.5972
X2.5228Y-4.6412
X2.5228Y-5.2412
X2.5472Y-2.6031
X2.5496Y-3.5618
X2.5717Y-4.5071
X2.6228Y-4.6412
X2.6228Y-5.2412
X2.7228Y-4.6412
X2.7228Y-5.2412
X2.7465Y-3.5618
X2.7484Y-3.8382
X2.7484Y-4.1382
X2.8228Y-4.6412
X2.8228Y-5.2412
X2.8472Y-2.6031
X2.8972Y-3.9051
X2.8972Y-4.2051
X2.9228Y-4.6412
X2.9228Y-5.2412
X3.0228Y-4.6412
X3.0228Y-5.2412
X3.1228Y-4.6412
X3.1228Y-5.2412
X3.1413Y-3.6961
X3.2228Y-4.6412
X3.2228Y-5.2412
X3.3228Y-4.6412
X3.3228Y-5.2412
X3.3508Y-3.3268
X3.3508Y-3.4268
X3.3508Y-3.5268
X3.4228Y-4.6412
X3.4228Y-5.2412
X3.4413Y-3.6961
X3.4622Y-2.6114
X3.5228Y-4.6412
X3.5228Y-5.2412
X3.6228Y-4.6412
X3.6228Y-5.2412
X3.7228Y-4.6412
X3.7228Y-5.2412
X3.7622Y-2.6114
X3.8228Y-4.6412
X3.8228Y-5.2412
X3.9228Y-4.6412
X3.9228Y-5.2412
X3.9362Y-2.7504
X3.9362Y-3.0504
X4.0165Y-4.5094
X4.0228Y-4.6412
X4.0228Y-5.2412
X4.0476Y-3.689
X4.0476Y-4.289
X4.0539Y-2.7504
X4.0539Y-3.0504
X4.1228Y-4.6412
X4.1228Y-5.2412
X4.1476Y-3.689
X4.1476Y-4.289
X4.2134Y-4.5094
X4.2228Y-4.6412
X4.2228Y-5.2412
X4.2476Y-3.689
X4.2476Y-4.289
X4.2709Y-2.561
X4.2709Y-2.7449
X4.2709Y-3.0449
X4.3228Y-4.6412
X4.3228Y-5.2412
X4.3476Y-3.689
X4.3476Y-4.289
X4.3709Y-2.7449
X4.3709Y-3.0449
X4.4228Y-4.6412
X4.4228Y-5.2412
X4.4476Y-3.689
X4.4476Y-4.289
X4.4677Y-2.561
X4.4709Y-2.7449
X4.4709Y-3.0449
X4.5476Y-3.689
X4.5476Y-4.289
X4.5709Y-2.7449
X4.5709Y-3.0449
X4.6476Y-3.689
X4.6476Y-4.289
X4.6709Y-2.7449
X4.6709Y-3.0449
X4.7122Y-3.2091
X4.7122Y-3.5091
X4.7476Y-3.689
X4.7476Y-4.289
X4.7709Y-2.7449
X4.7709Y-3.0449
X4.8441Y-3.1547
X4.8441Y-3.3516
X4.8476Y-3.689
X4.8476Y-4.289
X4.8709Y-2.7449
X4.8709Y-3.0449
X4.9228Y-4.9012
X4.9228Y-5.2012
X4.9476Y-3.689
X4.9476Y-4.289
X4.9709Y-2.7449
X4.9709Y-3.0449
X5.0394Y-3.3803
X5.0394Y-3.5772
X5.0476Y-3.689
X5.0476Y-4.289
X5.0512Y-3.2217
X5.0709Y-2.7449
X5.0709Y-3.0449
X5.0728Y-4.9012
X5.0728Y-5.2012
X5.1476Y-3.689
X5.1476Y-4.289
X5.1614Y-2.5343
X5.1709Y-2.7449
X5.1709Y-3.0449
X5.2228Y-4.9012
X5.2228Y-5.2012
X5.2433Y-3.2217
X5.2476Y-3.689
X5.2476Y-4.289
X5.2575Y-3.3803
X5.2575Y-3.5772
X5.2709Y-2.7449
X5.2709Y-3.0449
X5.3476Y-3.689
X5.3476Y-4.289
X5.3709Y-2.7449
X5.3709Y-3.0449
X5.3728Y-4.9012
X5.3728Y-5.2012
X5.4614Y-2.5343
X5.4709Y-2.7449
X5.4709Y-3.0449
X5.4802Y-4.7764
X5.5201Y-3.9713
X5.5709Y-2.7449
X5.5709Y-3.0449
X5.6226Y-4.3008
X5.6226Y-4.6008
X5.6226Y-4.9008
X5.6226Y-5.2008
X5.6771Y-4.7764
X5.7169Y-3.9713
X5.7226Y-4.3008
X5.7226Y-4.6008
X5.7226Y-4.9008
X5.7226Y-5.2008
X5.8226Y-4.3008
X5.8226Y-4.6008
X5.8226Y-4.9008
X5.8226Y-5.2008
X5.8772Y-3.6
X5.8772Y-3.9
X5.9226Y-4.3008
X5.9226Y-4.6008
X5.9226Y-4.9008
X5.9226Y-5.2008
X6.0189Y-3.598
X6.0189Y-3.898
X6.0226Y-4.3008
X6.0226Y-4.6008
X6.0226Y-4.9008
X6.0226Y-5.2008
X6.1226Y-4.3008
X6.1226Y-4.6008
X6.1226Y-4.9008
X6.1226Y-5.2008
X6.1571Y-3.6024
X6.1571Y-3.9024
X6.2226Y-4.3008
X6.2226Y-4.6008
X6.2226Y-4.9008
X6.2226Y-5.2008
X6.2913Y-3.6043
X6.2913Y-3.9043
X6.4394Y-3.4795
X6.4394Y-3.6764
X6.5502Y-4.7564
X6.5726Y-4.9008
X6.5726Y-5.2008
X6.5728Y-4.3262
X6.5728Y-4.6262
X6.6098Y-3.5896
X6.6098Y-3.8896
X6.61Y-3.07
X6.61Y-3.37
X6.6726Y-4.9008
X6.6726Y-5.2008
X6.6728Y-4.3262
X6.6728Y-4.6262
X6.7098Y-3.5896
X6.7098Y-3.8896
X6.71Y-3.07
X6.71Y-3.37
X6.7471Y-4.7564
X6.7726Y-4.9008
X6.7726Y-5.2008
X6.7728Y-4.3262
X6.7728Y-4.6262
X6.8098Y-3.5896
X6.8098Y-3.8896
X6.81Y-3.07
X6.81Y-3.37
X6.8726Y-4.9008
X6.8726Y-5.2008
X6.8728Y-4.3262
X6.8728Y-4.6262
X6.9098Y-3.5896
X6.9098Y-3.8896
X6.91Y-3.07
X6.91Y-3.37
X6.9726Y-4.9008
X6.9726Y-5.2008
X6.9728Y-4.3262
X6.9728Y-4.6262
X7.0098Y-3.5896
X7.0098Y-3.8896
X7.01Y-3.07
X7.01Y-3.37
X7.0726Y-4.9008
X7.0726Y-5.2008
X7.0728Y-4.3262
X7.0728Y-4.6262
X7.1098Y-3.5896
X7.1098Y-3.8896
X7.11Y-3.07
X7.11Y-3.37
X7.1726Y-4.9008
X7.1726Y-5.2008
X7.1728Y-4.3262
X7.1728Y-4.6262
X7.2098Y-3.5896
X7.2098Y-3.8896
X7.21Y-3.07
X7.21Y-3.37
X7.3871Y-3.4295
X7.3871Y-3.6264
X7.4228Y-4.9012
X7.4228Y-5.2012
X7.5728Y-4.9012
X7.5728Y-5.2012
X7.5858Y-3.5874
X7.5858Y-3.8874
X7.5872Y-3.0776
X7.5872Y-3.3776
X7.6858Y-3.5874
X7.6858Y-3.8874
X7.6872Y-3.0776
X7.6872Y-3.3776
X7.7228Y-4.9012
X7.7228Y-5.2012
X7.7858Y-3.5874
X7.7858Y-3.8874
X7.7872Y-3.0776
X7.7872Y-3.3776
X7.8728Y-4.9012
X7.8728Y-5.2012
X7.8858Y-3.5874
X7.8858Y-3.8874
X7.8872Y-3.0776
X7.8872Y-3.3776
X7.9858Y-3.5874
X7.9858Y-3.8874
X7.9872Y-3.0776
X7.9872Y-3.3776
X8.0858Y-3.5874
X8.0858Y-3.8874
X8.0872Y-3.0776
X8.0872Y-3.3776
X8.1858Y-3.5874
X8.1858Y-3.8874
X8.1872Y-3.0776
X8.1872Y-3.3776
X8.3921Y-3.589
X8.3921Y-3.889
X8.4971Y-4.1864
X8.5758Y-4.1864
X8.5898Y-4.8504
X8.5898Y-5.1504
X8.5917Y-4.4547
X8.5917Y-4.7547
X8.6164Y-2.5972
X8.6164Y-2.8972
X8.6268Y-3.635
X8.6268Y-3.935
X8.6364Y-3.1874
X8.6364Y-3.4874
X8.6594Y-4.0461
X8.689Y-5.313
X8.7031Y-4.8909
X8.7031Y-5.0878
X8.7055Y-4.4988
X8.7055Y-4.7988
X8.7464Y-3.6372
X8.7464Y-3.9372
X8.7564Y-2.5972
X8.7564Y-2.8972
X8.7564Y-3.3287
X8.7564Y-3.5256
X8.8366Y-4.3839
X8.8563Y-3.085
X8.9064Y-2.5872
X8.9064Y-2.8872
X8.9594Y-4.0461
X8.989Y-5.313
X9.0364Y-2.5843
X9.0364Y-2.8843
X9.0508Y-4.0453
X9.0839Y-5.3169
X9.1366Y-4.3839
X9.1563Y-3.085
X9.3508Y-4.0453
X9.3839Y-5.3169
T3
X3.8583Y-2.5835
X3.9583Y-2.5835
X9.2787Y-4.2484
X9.2787Y-4.3484
X9.2949Y-2.9567
X9.2949Y-3.0567
T4
X2.2543Y-3.4661
X2.2579Y-3.7677
X2.2583Y-3.6161
X2.2583Y-3.9134
X2.3543Y-3.4661
X2.3579Y-3.7677
X2.3583Y-3.6161
X2.3583Y-3.9134
X2.663Y-2.8035
X2.663Y-2.9035
X2.663Y-3.0035
X2.663Y-3.1035
X2.663Y-3.2035
X2.763Y-2.8035
X2.763Y-2.9035
X2.763Y-3.0035
X2.763Y-3.1035
X2.763Y-3.2035
X2.937Y-5.648
X3.037Y-5.648
X3.137Y-5.648
X3.1744Y-2.7106
X3.1744Y-2.8106
X3.1744Y-2.9106
X3.1744Y-3.0106
X3.1744Y-3.1106
X3.237Y-5.648
X3.2744Y-2.7106
X3.2744Y-2.8106
X3.2744Y-2.9106
X3.2744Y-3.0106
X3.2744Y-3.1106
X3.337Y-5.648
X3.437Y-5.648
X3.537Y-5.648
X3.637Y-5.648
X3.737Y-5.648
X3.837Y-5.648
X3.937Y-5.648
X4.037Y-5.648
X4.137Y-5.648
X4.237Y-5.648
X4.337Y-5.648
X4.437Y-5.648
X4.8378Y-4.6126
X4.8378Y-4.7126
X4.9437Y-2.5323
X4.9902Y-4.6126
X4.9902Y-4.7126
X5.0437Y-2.5323
X5.1409Y-4.6142
X5.1409Y-4.7142
X5.2976Y-4.6126
X5.2976Y-4.7126
X5.6827Y-3.5177
X5.6827Y-3.6177
X5.6827Y-3.7177
X5.8354Y-3.328
X5.8354Y-3.428
X5.8858Y-3.115
X5.985Y-3.3335
X5.985Y-3.4335
X5.9858Y-3.115
X6.0051Y-2.6996
X6.0051Y-2.7996
X6.0051Y-2.8996
X6.1051Y-2.6996
X6.1051Y-2.7996
X6.1051Y-2.8996
X6.1402Y-3.335
X6.1402Y-3.435
X6.2898Y-3.3335
X6.2898Y-3.4335
X6.437Y-3.0724
X6.437Y-3.1724
X6.437Y-3.2724
X6.9091Y-2.872
X7.0091Y-2.872
X7.1091Y-2.872
X7.4185Y-4.5906
X7.4185Y-4.6906
X7.5736Y-4.5921
X7.5736Y-4.6921
X7.728Y-4.5917
X7.728Y-4.6917
X7.8819Y-4.5909
X7.8819Y-4.6909
X8.3705Y-3.2756
X8.3705Y-3.3756
T5
X2.863Y-3.3835
X2.863Y-3.5606
X3.1189Y-3.3835
X3.1189Y-3.5606
M30
