%TF.GenerationSoftware,KiCad,Pcbnew,7.0.11+dfsg-1build4*%
%TF.CreationDate,2025-10-21T20:11:31-05:00*%
%TF.ProjectId,ISACard,49534143-6172-4642-9e6b-696361645f70,rev?*%
%TF.SameCoordinates,Original*%
%TF.FileFunction,Drillmap*%
%TF.FilePolarity,Positive*%
%FSLAX45Y45*%
G04 Gerber Fmt 4.5, Leading zero omitted, Abs format (unit mm)*
G04 Created by KiCad (PCBNEW 7.0.11+dfsg-1build4) date 2025-10-21 20:11:31*
%MOMM*%
%LPD*%
G01*
G04 APERTURE LIST*
%ADD10C,0.100000*%
%ADD11C,0.200000*%
%ADD12C,0.370000*%
G04 APERTURE END LIST*
D10*
X22243000Y-14801000D02*
X24070000Y-14801000D01*
X14115000Y-14799000D02*
X14115000Y-15751500D01*
X14115000Y-15751500D02*
X22243000Y-15751500D01*
X24070000Y-14801000D02*
X24070000Y-6165000D01*
X5098000Y-6163000D02*
X5098000Y-14799000D01*
X22243000Y-15751500D02*
X22243000Y-14801000D01*
X5098000Y-14799000D02*
X14115000Y-14799000D01*
X24070000Y-6165000D02*
X5098000Y-6163000D01*
D11*
D10*
X23641000Y-11853000D02*
X23741000Y-11953000D01*
X23741000Y-11853000D02*
X23641000Y-11953000D01*
X23641000Y-12653000D02*
X23741000Y-12753000D01*
X23741000Y-12653000D02*
X23641000Y-12753000D01*
X23654000Y-8567000D02*
X23754000Y-8667000D01*
X23754000Y-8567000D02*
X23654000Y-8667000D01*
X23654000Y-9367000D02*
X23754000Y-9467000D01*
X23754000Y-9367000D02*
X23654000Y-9467000D01*
D12*
X23785000Y-6600000D02*
G75*
G03*
X23415000Y-6600000I-185000J0D01*
G01*
X23415000Y-6600000D02*
G75*
G03*
X23785000Y-6600000I185000J0D01*
G01*
X23785000Y-14293000D02*
G75*
G03*
X23415000Y-14293000I-185000J0D01*
G01*
X23415000Y-14293000D02*
G75*
G03*
X23785000Y-14293000I185000J0D01*
G01*
D11*
X5353777Y-16067984D02*
X5353777Y-15867984D01*
X5353777Y-15867984D02*
X5401396Y-15867984D01*
X5401396Y-15867984D02*
X5429967Y-15877508D01*
X5429967Y-15877508D02*
X5449015Y-15896555D01*
X5449015Y-15896555D02*
X5458539Y-15915603D01*
X5458539Y-15915603D02*
X5468063Y-15953698D01*
X5468063Y-15953698D02*
X5468063Y-15982269D01*
X5468063Y-15982269D02*
X5458539Y-16020365D01*
X5458539Y-16020365D02*
X5449015Y-16039412D01*
X5449015Y-16039412D02*
X5429967Y-16058460D01*
X5429967Y-16058460D02*
X5401396Y-16067984D01*
X5401396Y-16067984D02*
X5353777Y-16067984D01*
X5553777Y-16067984D02*
X5553777Y-15934650D01*
X5553777Y-15972746D02*
X5563301Y-15953698D01*
X5563301Y-15953698D02*
X5572824Y-15944174D01*
X5572824Y-15944174D02*
X5591872Y-15934650D01*
X5591872Y-15934650D02*
X5610920Y-15934650D01*
X5677586Y-16067984D02*
X5677586Y-15934650D01*
X5677586Y-15867984D02*
X5668062Y-15877508D01*
X5668062Y-15877508D02*
X5677586Y-15887031D01*
X5677586Y-15887031D02*
X5687110Y-15877508D01*
X5687110Y-15877508D02*
X5677586Y-15867984D01*
X5677586Y-15867984D02*
X5677586Y-15887031D01*
X5801396Y-16067984D02*
X5782348Y-16058460D01*
X5782348Y-16058460D02*
X5772824Y-16039412D01*
X5772824Y-16039412D02*
X5772824Y-15867984D01*
X5906158Y-16067984D02*
X5887110Y-16058460D01*
X5887110Y-16058460D02*
X5877586Y-16039412D01*
X5877586Y-16039412D02*
X5877586Y-15867984D01*
X6134729Y-16067984D02*
X6134729Y-15867984D01*
X6134729Y-15867984D02*
X6201396Y-16010841D01*
X6201396Y-16010841D02*
X6268062Y-15867984D01*
X6268062Y-15867984D02*
X6268062Y-16067984D01*
X6449015Y-16067984D02*
X6449015Y-15963222D01*
X6449015Y-15963222D02*
X6439491Y-15944174D01*
X6439491Y-15944174D02*
X6420443Y-15934650D01*
X6420443Y-15934650D02*
X6382348Y-15934650D01*
X6382348Y-15934650D02*
X6363301Y-15944174D01*
X6449015Y-16058460D02*
X6429967Y-16067984D01*
X6429967Y-16067984D02*
X6382348Y-16067984D01*
X6382348Y-16067984D02*
X6363301Y-16058460D01*
X6363301Y-16058460D02*
X6353777Y-16039412D01*
X6353777Y-16039412D02*
X6353777Y-16020365D01*
X6353777Y-16020365D02*
X6363301Y-16001317D01*
X6363301Y-16001317D02*
X6382348Y-15991793D01*
X6382348Y-15991793D02*
X6429967Y-15991793D01*
X6429967Y-15991793D02*
X6449015Y-15982269D01*
X6544253Y-15934650D02*
X6544253Y-16134650D01*
X6544253Y-15944174D02*
X6563301Y-15934650D01*
X6563301Y-15934650D02*
X6601396Y-15934650D01*
X6601396Y-15934650D02*
X6620443Y-15944174D01*
X6620443Y-15944174D02*
X6629967Y-15953698D01*
X6629967Y-15953698D02*
X6639491Y-15972746D01*
X6639491Y-15972746D02*
X6639491Y-16029888D01*
X6639491Y-16029888D02*
X6629967Y-16048936D01*
X6629967Y-16048936D02*
X6620443Y-16058460D01*
X6620443Y-16058460D02*
X6601396Y-16067984D01*
X6601396Y-16067984D02*
X6563301Y-16067984D01*
X6563301Y-16067984D02*
X6544253Y-16058460D01*
X6725205Y-16048936D02*
X6734729Y-16058460D01*
X6734729Y-16058460D02*
X6725205Y-16067984D01*
X6725205Y-16067984D02*
X6715682Y-16058460D01*
X6715682Y-16058460D02*
X6725205Y-16048936D01*
X6725205Y-16048936D02*
X6725205Y-16067984D01*
X6725205Y-15944174D02*
X6734729Y-15953698D01*
X6734729Y-15953698D02*
X6725205Y-15963222D01*
X6725205Y-15963222D02*
X6715682Y-15953698D01*
X6715682Y-15953698D02*
X6725205Y-15944174D01*
X6725205Y-15944174D02*
X6725205Y-15963222D01*
D10*
X4993000Y-16346500D02*
X5093000Y-16446500D01*
X5093000Y-16346500D02*
X4993000Y-16446500D01*
D11*
X5458539Y-16487984D02*
X5344253Y-16487984D01*
X5401396Y-16487984D02*
X5401396Y-16287984D01*
X5401396Y-16287984D02*
X5382348Y-16316555D01*
X5382348Y-16316555D02*
X5363301Y-16335603D01*
X5363301Y-16335603D02*
X5344253Y-16345127D01*
X5544253Y-16468936D02*
X5553777Y-16478460D01*
X5553777Y-16478460D02*
X5544253Y-16487984D01*
X5544253Y-16487984D02*
X5534729Y-16478460D01*
X5534729Y-16478460D02*
X5544253Y-16468936D01*
X5544253Y-16468936D02*
X5544253Y-16487984D01*
X5677586Y-16287984D02*
X5696634Y-16287984D01*
X5696634Y-16287984D02*
X5715682Y-16297508D01*
X5715682Y-16297508D02*
X5725205Y-16307031D01*
X5725205Y-16307031D02*
X5734729Y-16326079D01*
X5734729Y-16326079D02*
X5744253Y-16364174D01*
X5744253Y-16364174D02*
X5744253Y-16411793D01*
X5744253Y-16411793D02*
X5734729Y-16449888D01*
X5734729Y-16449888D02*
X5725205Y-16468936D01*
X5725205Y-16468936D02*
X5715682Y-16478460D01*
X5715682Y-16478460D02*
X5696634Y-16487984D01*
X5696634Y-16487984D02*
X5677586Y-16487984D01*
X5677586Y-16487984D02*
X5658539Y-16478460D01*
X5658539Y-16478460D02*
X5649015Y-16468936D01*
X5649015Y-16468936D02*
X5639491Y-16449888D01*
X5639491Y-16449888D02*
X5629967Y-16411793D01*
X5629967Y-16411793D02*
X5629967Y-16364174D01*
X5629967Y-16364174D02*
X5639491Y-16326079D01*
X5639491Y-16326079D02*
X5649015Y-16307031D01*
X5649015Y-16307031D02*
X5658539Y-16297508D01*
X5658539Y-16297508D02*
X5677586Y-16287984D01*
X5868062Y-16287984D02*
X5887110Y-16287984D01*
X5887110Y-16287984D02*
X5906158Y-16297508D01*
X5906158Y-16297508D02*
X5915682Y-16307031D01*
X5915682Y-16307031D02*
X5925205Y-16326079D01*
X5925205Y-16326079D02*
X5934729Y-16364174D01*
X5934729Y-16364174D02*
X5934729Y-16411793D01*
X5934729Y-16411793D02*
X5925205Y-16449888D01*
X5925205Y-16449888D02*
X5915682Y-16468936D01*
X5915682Y-16468936D02*
X5906158Y-16478460D01*
X5906158Y-16478460D02*
X5887110Y-16487984D01*
X5887110Y-16487984D02*
X5868062Y-16487984D01*
X5868062Y-16487984D02*
X5849015Y-16478460D01*
X5849015Y-16478460D02*
X5839491Y-16468936D01*
X5839491Y-16468936D02*
X5829967Y-16449888D01*
X5829967Y-16449888D02*
X5820443Y-16411793D01*
X5820443Y-16411793D02*
X5820443Y-16364174D01*
X5820443Y-16364174D02*
X5829967Y-16326079D01*
X5829967Y-16326079D02*
X5839491Y-16307031D01*
X5839491Y-16307031D02*
X5849015Y-16297508D01*
X5849015Y-16297508D02*
X5868062Y-16287984D01*
X6058539Y-16287984D02*
X6077586Y-16287984D01*
X6077586Y-16287984D02*
X6096634Y-16297508D01*
X6096634Y-16297508D02*
X6106158Y-16307031D01*
X6106158Y-16307031D02*
X6115682Y-16326079D01*
X6115682Y-16326079D02*
X6125205Y-16364174D01*
X6125205Y-16364174D02*
X6125205Y-16411793D01*
X6125205Y-16411793D02*
X6115682Y-16449888D01*
X6115682Y-16449888D02*
X6106158Y-16468936D01*
X6106158Y-16468936D02*
X6096634Y-16478460D01*
X6096634Y-16478460D02*
X6077586Y-16487984D01*
X6077586Y-16487984D02*
X6058539Y-16487984D01*
X6058539Y-16487984D02*
X6039491Y-16478460D01*
X6039491Y-16478460D02*
X6029967Y-16468936D01*
X6029967Y-16468936D02*
X6020443Y-16449888D01*
X6020443Y-16449888D02*
X6010920Y-16411793D01*
X6010920Y-16411793D02*
X6010920Y-16364174D01*
X6010920Y-16364174D02*
X6020443Y-16326079D01*
X6020443Y-16326079D02*
X6029967Y-16307031D01*
X6029967Y-16307031D02*
X6039491Y-16297508D01*
X6039491Y-16297508D02*
X6058539Y-16287984D01*
X6210920Y-16487984D02*
X6210920Y-16354650D01*
X6210920Y-16373698D02*
X6220443Y-16364174D01*
X6220443Y-16364174D02*
X6239491Y-16354650D01*
X6239491Y-16354650D02*
X6268063Y-16354650D01*
X6268063Y-16354650D02*
X6287110Y-16364174D01*
X6287110Y-16364174D02*
X6296634Y-16383222D01*
X6296634Y-16383222D02*
X6296634Y-16487984D01*
X6296634Y-16383222D02*
X6306158Y-16364174D01*
X6306158Y-16364174D02*
X6325205Y-16354650D01*
X6325205Y-16354650D02*
X6353777Y-16354650D01*
X6353777Y-16354650D02*
X6372824Y-16364174D01*
X6372824Y-16364174D02*
X6382348Y-16383222D01*
X6382348Y-16383222D02*
X6382348Y-16487984D01*
X6477586Y-16487984D02*
X6477586Y-16354650D01*
X6477586Y-16373698D02*
X6487110Y-16364174D01*
X6487110Y-16364174D02*
X6506158Y-16354650D01*
X6506158Y-16354650D02*
X6534729Y-16354650D01*
X6534729Y-16354650D02*
X6553777Y-16364174D01*
X6553777Y-16364174D02*
X6563301Y-16383222D01*
X6563301Y-16383222D02*
X6563301Y-16487984D01*
X6563301Y-16383222D02*
X6572824Y-16364174D01*
X6572824Y-16364174D02*
X6591872Y-16354650D01*
X6591872Y-16354650D02*
X6620443Y-16354650D01*
X6620443Y-16354650D02*
X6639491Y-16364174D01*
X6639491Y-16364174D02*
X6649015Y-16383222D01*
X6649015Y-16383222D02*
X6649015Y-16487984D01*
X7039491Y-16278460D02*
X6868063Y-16535603D01*
X7296634Y-16287984D02*
X7315682Y-16287984D01*
X7315682Y-16287984D02*
X7334729Y-16297508D01*
X7334729Y-16297508D02*
X7344253Y-16307031D01*
X7344253Y-16307031D02*
X7353777Y-16326079D01*
X7353777Y-16326079D02*
X7363301Y-16364174D01*
X7363301Y-16364174D02*
X7363301Y-16411793D01*
X7363301Y-16411793D02*
X7353777Y-16449888D01*
X7353777Y-16449888D02*
X7344253Y-16468936D01*
X7344253Y-16468936D02*
X7334729Y-16478460D01*
X7334729Y-16478460D02*
X7315682Y-16487984D01*
X7315682Y-16487984D02*
X7296634Y-16487984D01*
X7296634Y-16487984D02*
X7277586Y-16478460D01*
X7277586Y-16478460D02*
X7268063Y-16468936D01*
X7268063Y-16468936D02*
X7258539Y-16449888D01*
X7258539Y-16449888D02*
X7249015Y-16411793D01*
X7249015Y-16411793D02*
X7249015Y-16364174D01*
X7249015Y-16364174D02*
X7258539Y-16326079D01*
X7258539Y-16326079D02*
X7268063Y-16307031D01*
X7268063Y-16307031D02*
X7277586Y-16297508D01*
X7277586Y-16297508D02*
X7296634Y-16287984D01*
X7449015Y-16468936D02*
X7458539Y-16478460D01*
X7458539Y-16478460D02*
X7449015Y-16487984D01*
X7449015Y-16487984D02*
X7439491Y-16478460D01*
X7439491Y-16478460D02*
X7449015Y-16468936D01*
X7449015Y-16468936D02*
X7449015Y-16487984D01*
X7582348Y-16287984D02*
X7601396Y-16287984D01*
X7601396Y-16287984D02*
X7620444Y-16297508D01*
X7620444Y-16297508D02*
X7629967Y-16307031D01*
X7629967Y-16307031D02*
X7639491Y-16326079D01*
X7639491Y-16326079D02*
X7649015Y-16364174D01*
X7649015Y-16364174D02*
X7649015Y-16411793D01*
X7649015Y-16411793D02*
X7639491Y-16449888D01*
X7639491Y-16449888D02*
X7629967Y-16468936D01*
X7629967Y-16468936D02*
X7620444Y-16478460D01*
X7620444Y-16478460D02*
X7601396Y-16487984D01*
X7601396Y-16487984D02*
X7582348Y-16487984D01*
X7582348Y-16487984D02*
X7563301Y-16478460D01*
X7563301Y-16478460D02*
X7553777Y-16468936D01*
X7553777Y-16468936D02*
X7544253Y-16449888D01*
X7544253Y-16449888D02*
X7534729Y-16411793D01*
X7534729Y-16411793D02*
X7534729Y-16364174D01*
X7534729Y-16364174D02*
X7544253Y-16326079D01*
X7544253Y-16326079D02*
X7553777Y-16307031D01*
X7553777Y-16307031D02*
X7563301Y-16297508D01*
X7563301Y-16297508D02*
X7582348Y-16287984D01*
X7715682Y-16287984D02*
X7839491Y-16287984D01*
X7839491Y-16287984D02*
X7772825Y-16364174D01*
X7772825Y-16364174D02*
X7801396Y-16364174D01*
X7801396Y-16364174D02*
X7820444Y-16373698D01*
X7820444Y-16373698D02*
X7829967Y-16383222D01*
X7829967Y-16383222D02*
X7839491Y-16402269D01*
X7839491Y-16402269D02*
X7839491Y-16449888D01*
X7839491Y-16449888D02*
X7829967Y-16468936D01*
X7829967Y-16468936D02*
X7820444Y-16478460D01*
X7820444Y-16478460D02*
X7801396Y-16487984D01*
X7801396Y-16487984D02*
X7744253Y-16487984D01*
X7744253Y-16487984D02*
X7725206Y-16478460D01*
X7725206Y-16478460D02*
X7715682Y-16468936D01*
X7934729Y-16487984D02*
X7972825Y-16487984D01*
X7972825Y-16487984D02*
X7991872Y-16478460D01*
X7991872Y-16478460D02*
X8001396Y-16468936D01*
X8001396Y-16468936D02*
X8020444Y-16440365D01*
X8020444Y-16440365D02*
X8029967Y-16402269D01*
X8029967Y-16402269D02*
X8029967Y-16326079D01*
X8029967Y-16326079D02*
X8020444Y-16307031D01*
X8020444Y-16307031D02*
X8010920Y-16297508D01*
X8010920Y-16297508D02*
X7991872Y-16287984D01*
X7991872Y-16287984D02*
X7953777Y-16287984D01*
X7953777Y-16287984D02*
X7934729Y-16297508D01*
X7934729Y-16297508D02*
X7925206Y-16307031D01*
X7925206Y-16307031D02*
X7915682Y-16326079D01*
X7915682Y-16326079D02*
X7915682Y-16373698D01*
X7915682Y-16373698D02*
X7925206Y-16392746D01*
X7925206Y-16392746D02*
X7934729Y-16402269D01*
X7934729Y-16402269D02*
X7953777Y-16411793D01*
X7953777Y-16411793D02*
X7991872Y-16411793D01*
X7991872Y-16411793D02*
X8010920Y-16402269D01*
X8010920Y-16402269D02*
X8020444Y-16392746D01*
X8020444Y-16392746D02*
X8029967Y-16373698D01*
X8201396Y-16354650D02*
X8201396Y-16487984D01*
X8153777Y-16278460D02*
X8106158Y-16421317D01*
X8106158Y-16421317D02*
X8229967Y-16421317D01*
X8296634Y-16287984D02*
X8296634Y-16326079D01*
X8372825Y-16287984D02*
X8372825Y-16326079D01*
X8668063Y-16564174D02*
X8658539Y-16554650D01*
X8658539Y-16554650D02*
X8639491Y-16526079D01*
X8639491Y-16526079D02*
X8629968Y-16507031D01*
X8629968Y-16507031D02*
X8620444Y-16478460D01*
X8620444Y-16478460D02*
X8610920Y-16430841D01*
X8610920Y-16430841D02*
X8610920Y-16392746D01*
X8610920Y-16392746D02*
X8620444Y-16345127D01*
X8620444Y-16345127D02*
X8629968Y-16316555D01*
X8629968Y-16316555D02*
X8639491Y-16297508D01*
X8639491Y-16297508D02*
X8658539Y-16268936D01*
X8658539Y-16268936D02*
X8668063Y-16259412D01*
X8829968Y-16354650D02*
X8829968Y-16487984D01*
X8782349Y-16278460D02*
X8734730Y-16421317D01*
X8734730Y-16421317D02*
X8858539Y-16421317D01*
X9087111Y-16487984D02*
X9087111Y-16287984D01*
X9172825Y-16487984D02*
X9172825Y-16383222D01*
X9172825Y-16383222D02*
X9163301Y-16364174D01*
X9163301Y-16364174D02*
X9144253Y-16354650D01*
X9144253Y-16354650D02*
X9115682Y-16354650D01*
X9115682Y-16354650D02*
X9096634Y-16364174D01*
X9096634Y-16364174D02*
X9087111Y-16373698D01*
X9296634Y-16487984D02*
X9277587Y-16478460D01*
X9277587Y-16478460D02*
X9268063Y-16468936D01*
X9268063Y-16468936D02*
X9258539Y-16449888D01*
X9258539Y-16449888D02*
X9258539Y-16392746D01*
X9258539Y-16392746D02*
X9268063Y-16373698D01*
X9268063Y-16373698D02*
X9277587Y-16364174D01*
X9277587Y-16364174D02*
X9296634Y-16354650D01*
X9296634Y-16354650D02*
X9325206Y-16354650D01*
X9325206Y-16354650D02*
X9344253Y-16364174D01*
X9344253Y-16364174D02*
X9353777Y-16373698D01*
X9353777Y-16373698D02*
X9363301Y-16392746D01*
X9363301Y-16392746D02*
X9363301Y-16449888D01*
X9363301Y-16449888D02*
X9353777Y-16468936D01*
X9353777Y-16468936D02*
X9344253Y-16478460D01*
X9344253Y-16478460D02*
X9325206Y-16487984D01*
X9325206Y-16487984D02*
X9296634Y-16487984D01*
X9477587Y-16487984D02*
X9458539Y-16478460D01*
X9458539Y-16478460D02*
X9449015Y-16459412D01*
X9449015Y-16459412D02*
X9449015Y-16287984D01*
X9629968Y-16478460D02*
X9610920Y-16487984D01*
X9610920Y-16487984D02*
X9572825Y-16487984D01*
X9572825Y-16487984D02*
X9553777Y-16478460D01*
X9553777Y-16478460D02*
X9544253Y-16459412D01*
X9544253Y-16459412D02*
X9544253Y-16383222D01*
X9544253Y-16383222D02*
X9553777Y-16364174D01*
X9553777Y-16364174D02*
X9572825Y-16354650D01*
X9572825Y-16354650D02*
X9610920Y-16354650D01*
X9610920Y-16354650D02*
X9629968Y-16364174D01*
X9629968Y-16364174D02*
X9639492Y-16383222D01*
X9639492Y-16383222D02*
X9639492Y-16402269D01*
X9639492Y-16402269D02*
X9544253Y-16421317D01*
X9715682Y-16478460D02*
X9734730Y-16487984D01*
X9734730Y-16487984D02*
X9772825Y-16487984D01*
X9772825Y-16487984D02*
X9791873Y-16478460D01*
X9791873Y-16478460D02*
X9801396Y-16459412D01*
X9801396Y-16459412D02*
X9801396Y-16449888D01*
X9801396Y-16449888D02*
X9791873Y-16430841D01*
X9791873Y-16430841D02*
X9772825Y-16421317D01*
X9772825Y-16421317D02*
X9744253Y-16421317D01*
X9744253Y-16421317D02*
X9725206Y-16411793D01*
X9725206Y-16411793D02*
X9715682Y-16392746D01*
X9715682Y-16392746D02*
X9715682Y-16383222D01*
X9715682Y-16383222D02*
X9725206Y-16364174D01*
X9725206Y-16364174D02*
X9744253Y-16354650D01*
X9744253Y-16354650D02*
X9772825Y-16354650D01*
X9772825Y-16354650D02*
X9791873Y-16364174D01*
X9868063Y-16564174D02*
X9877587Y-16554650D01*
X9877587Y-16554650D02*
X9896634Y-16526079D01*
X9896634Y-16526079D02*
X9906158Y-16507031D01*
X9906158Y-16507031D02*
X9915682Y-16478460D01*
X9915682Y-16478460D02*
X9925206Y-16430841D01*
X9925206Y-16430841D02*
X9925206Y-16392746D01*
X9925206Y-16392746D02*
X9915682Y-16345127D01*
X9915682Y-16345127D02*
X9906158Y-16316555D01*
X9906158Y-16316555D02*
X9896634Y-16297508D01*
X9896634Y-16297508D02*
X9877587Y-16268936D01*
X9877587Y-16268936D02*
X9868063Y-16259412D01*
X10229968Y-16564174D02*
X10220444Y-16554650D01*
X10220444Y-16554650D02*
X10201396Y-16526079D01*
X10201396Y-16526079D02*
X10191873Y-16507031D01*
X10191873Y-16507031D02*
X10182349Y-16478460D01*
X10182349Y-16478460D02*
X10172825Y-16430841D01*
X10172825Y-16430841D02*
X10172825Y-16392746D01*
X10172825Y-16392746D02*
X10182349Y-16345127D01*
X10182349Y-16345127D02*
X10191873Y-16316555D01*
X10191873Y-16316555D02*
X10201396Y-16297508D01*
X10201396Y-16297508D02*
X10220444Y-16268936D01*
X10220444Y-16268936D02*
X10229968Y-16259412D01*
X10306158Y-16354650D02*
X10306158Y-16487984D01*
X10306158Y-16373698D02*
X10315682Y-16364174D01*
X10315682Y-16364174D02*
X10334730Y-16354650D01*
X10334730Y-16354650D02*
X10363301Y-16354650D01*
X10363301Y-16354650D02*
X10382349Y-16364174D01*
X10382349Y-16364174D02*
X10391873Y-16383222D01*
X10391873Y-16383222D02*
X10391873Y-16487984D01*
X10515682Y-16487984D02*
X10496634Y-16478460D01*
X10496634Y-16478460D02*
X10487111Y-16468936D01*
X10487111Y-16468936D02*
X10477587Y-16449888D01*
X10477587Y-16449888D02*
X10477587Y-16392746D01*
X10477587Y-16392746D02*
X10487111Y-16373698D01*
X10487111Y-16373698D02*
X10496634Y-16364174D01*
X10496634Y-16364174D02*
X10515682Y-16354650D01*
X10515682Y-16354650D02*
X10544254Y-16354650D01*
X10544254Y-16354650D02*
X10563301Y-16364174D01*
X10563301Y-16364174D02*
X10572825Y-16373698D01*
X10572825Y-16373698D02*
X10582349Y-16392746D01*
X10582349Y-16392746D02*
X10582349Y-16449888D01*
X10582349Y-16449888D02*
X10572825Y-16468936D01*
X10572825Y-16468936D02*
X10563301Y-16478460D01*
X10563301Y-16478460D02*
X10544254Y-16487984D01*
X10544254Y-16487984D02*
X10515682Y-16487984D01*
X10639492Y-16354650D02*
X10715682Y-16354650D01*
X10668063Y-16287984D02*
X10668063Y-16459412D01*
X10668063Y-16459412D02*
X10677587Y-16478460D01*
X10677587Y-16478460D02*
X10696634Y-16487984D01*
X10696634Y-16487984D02*
X10715682Y-16487984D01*
X10934730Y-16354650D02*
X10934730Y-16554650D01*
X10934730Y-16364174D02*
X10953777Y-16354650D01*
X10953777Y-16354650D02*
X10991873Y-16354650D01*
X10991873Y-16354650D02*
X11010920Y-16364174D01*
X11010920Y-16364174D02*
X11020444Y-16373698D01*
X11020444Y-16373698D02*
X11029968Y-16392746D01*
X11029968Y-16392746D02*
X11029968Y-16449888D01*
X11029968Y-16449888D02*
X11020444Y-16468936D01*
X11020444Y-16468936D02*
X11010920Y-16478460D01*
X11010920Y-16478460D02*
X10991873Y-16487984D01*
X10991873Y-16487984D02*
X10953777Y-16487984D01*
X10953777Y-16487984D02*
X10934730Y-16478460D01*
X11144254Y-16487984D02*
X11125206Y-16478460D01*
X11125206Y-16478460D02*
X11115682Y-16459412D01*
X11115682Y-16459412D02*
X11115682Y-16287984D01*
X11306158Y-16487984D02*
X11306158Y-16383222D01*
X11306158Y-16383222D02*
X11296634Y-16364174D01*
X11296634Y-16364174D02*
X11277587Y-16354650D01*
X11277587Y-16354650D02*
X11239492Y-16354650D01*
X11239492Y-16354650D02*
X11220444Y-16364174D01*
X11306158Y-16478460D02*
X11287111Y-16487984D01*
X11287111Y-16487984D02*
X11239492Y-16487984D01*
X11239492Y-16487984D02*
X11220444Y-16478460D01*
X11220444Y-16478460D02*
X11210920Y-16459412D01*
X11210920Y-16459412D02*
X11210920Y-16440365D01*
X11210920Y-16440365D02*
X11220444Y-16421317D01*
X11220444Y-16421317D02*
X11239492Y-16411793D01*
X11239492Y-16411793D02*
X11287111Y-16411793D01*
X11287111Y-16411793D02*
X11306158Y-16402269D01*
X11372825Y-16354650D02*
X11449015Y-16354650D01*
X11401396Y-16287984D02*
X11401396Y-16459412D01*
X11401396Y-16459412D02*
X11410920Y-16478460D01*
X11410920Y-16478460D02*
X11429968Y-16487984D01*
X11429968Y-16487984D02*
X11449015Y-16487984D01*
X11591873Y-16478460D02*
X11572825Y-16487984D01*
X11572825Y-16487984D02*
X11534730Y-16487984D01*
X11534730Y-16487984D02*
X11515682Y-16478460D01*
X11515682Y-16478460D02*
X11506158Y-16459412D01*
X11506158Y-16459412D02*
X11506158Y-16383222D01*
X11506158Y-16383222D02*
X11515682Y-16364174D01*
X11515682Y-16364174D02*
X11534730Y-16354650D01*
X11534730Y-16354650D02*
X11572825Y-16354650D01*
X11572825Y-16354650D02*
X11591873Y-16364174D01*
X11591873Y-16364174D02*
X11601396Y-16383222D01*
X11601396Y-16383222D02*
X11601396Y-16402269D01*
X11601396Y-16402269D02*
X11506158Y-16421317D01*
X11772825Y-16487984D02*
X11772825Y-16287984D01*
X11772825Y-16478460D02*
X11753777Y-16487984D01*
X11753777Y-16487984D02*
X11715682Y-16487984D01*
X11715682Y-16487984D02*
X11696634Y-16478460D01*
X11696634Y-16478460D02*
X11687111Y-16468936D01*
X11687111Y-16468936D02*
X11677587Y-16449888D01*
X11677587Y-16449888D02*
X11677587Y-16392746D01*
X11677587Y-16392746D02*
X11687111Y-16373698D01*
X11687111Y-16373698D02*
X11696634Y-16364174D01*
X11696634Y-16364174D02*
X11715682Y-16354650D01*
X11715682Y-16354650D02*
X11753777Y-16354650D01*
X11753777Y-16354650D02*
X11772825Y-16364174D01*
X11849015Y-16564174D02*
X11858539Y-16554650D01*
X11858539Y-16554650D02*
X11877587Y-16526079D01*
X11877587Y-16526079D02*
X11887111Y-16507031D01*
X11887111Y-16507031D02*
X11896634Y-16478460D01*
X11896634Y-16478460D02*
X11906158Y-16430841D01*
X11906158Y-16430841D02*
X11906158Y-16392746D01*
X11906158Y-16392746D02*
X11896634Y-16345127D01*
X11896634Y-16345127D02*
X11887111Y-16316555D01*
X11887111Y-16316555D02*
X11877587Y-16297508D01*
X11877587Y-16297508D02*
X11858539Y-16268936D01*
X11858539Y-16268936D02*
X11849015Y-16259412D01*
X5093000Y-16660500D02*
G75*
G03*
X4893000Y-16660500I-100000J0D01*
G01*
X4893000Y-16660500D02*
G75*
G03*
X5093000Y-16660500I100000J0D01*
G01*
X5334729Y-16551984D02*
X5458539Y-16551984D01*
X5458539Y-16551984D02*
X5391872Y-16628174D01*
X5391872Y-16628174D02*
X5420444Y-16628174D01*
X5420444Y-16628174D02*
X5439491Y-16637698D01*
X5439491Y-16637698D02*
X5449015Y-16647222D01*
X5449015Y-16647222D02*
X5458539Y-16666269D01*
X5458539Y-16666269D02*
X5458539Y-16713888D01*
X5458539Y-16713888D02*
X5449015Y-16732936D01*
X5449015Y-16732936D02*
X5439491Y-16742460D01*
X5439491Y-16742460D02*
X5420444Y-16751984D01*
X5420444Y-16751984D02*
X5363301Y-16751984D01*
X5363301Y-16751984D02*
X5344253Y-16742460D01*
X5344253Y-16742460D02*
X5334729Y-16732936D01*
X5544253Y-16732936D02*
X5553777Y-16742460D01*
X5553777Y-16742460D02*
X5544253Y-16751984D01*
X5544253Y-16751984D02*
X5534729Y-16742460D01*
X5534729Y-16742460D02*
X5544253Y-16732936D01*
X5544253Y-16732936D02*
X5544253Y-16751984D01*
X5620443Y-16551984D02*
X5753777Y-16551984D01*
X5753777Y-16551984D02*
X5668062Y-16751984D01*
X5868062Y-16551984D02*
X5887110Y-16551984D01*
X5887110Y-16551984D02*
X5906158Y-16561508D01*
X5906158Y-16561508D02*
X5915682Y-16571031D01*
X5915682Y-16571031D02*
X5925205Y-16590079D01*
X5925205Y-16590079D02*
X5934729Y-16628174D01*
X5934729Y-16628174D02*
X5934729Y-16675793D01*
X5934729Y-16675793D02*
X5925205Y-16713888D01*
X5925205Y-16713888D02*
X5915682Y-16732936D01*
X5915682Y-16732936D02*
X5906158Y-16742460D01*
X5906158Y-16742460D02*
X5887110Y-16751984D01*
X5887110Y-16751984D02*
X5868062Y-16751984D01*
X5868062Y-16751984D02*
X5849015Y-16742460D01*
X5849015Y-16742460D02*
X5839491Y-16732936D01*
X5839491Y-16732936D02*
X5829967Y-16713888D01*
X5829967Y-16713888D02*
X5820443Y-16675793D01*
X5820443Y-16675793D02*
X5820443Y-16628174D01*
X5820443Y-16628174D02*
X5829967Y-16590079D01*
X5829967Y-16590079D02*
X5839491Y-16571031D01*
X5839491Y-16571031D02*
X5849015Y-16561508D01*
X5849015Y-16561508D02*
X5868062Y-16551984D01*
X6058539Y-16551984D02*
X6077586Y-16551984D01*
X6077586Y-16551984D02*
X6096634Y-16561508D01*
X6096634Y-16561508D02*
X6106158Y-16571031D01*
X6106158Y-16571031D02*
X6115682Y-16590079D01*
X6115682Y-16590079D02*
X6125205Y-16628174D01*
X6125205Y-16628174D02*
X6125205Y-16675793D01*
X6125205Y-16675793D02*
X6115682Y-16713888D01*
X6115682Y-16713888D02*
X6106158Y-16732936D01*
X6106158Y-16732936D02*
X6096634Y-16742460D01*
X6096634Y-16742460D02*
X6077586Y-16751984D01*
X6077586Y-16751984D02*
X6058539Y-16751984D01*
X6058539Y-16751984D02*
X6039491Y-16742460D01*
X6039491Y-16742460D02*
X6029967Y-16732936D01*
X6029967Y-16732936D02*
X6020443Y-16713888D01*
X6020443Y-16713888D02*
X6010920Y-16675793D01*
X6010920Y-16675793D02*
X6010920Y-16628174D01*
X6010920Y-16628174D02*
X6020443Y-16590079D01*
X6020443Y-16590079D02*
X6029967Y-16571031D01*
X6029967Y-16571031D02*
X6039491Y-16561508D01*
X6039491Y-16561508D02*
X6058539Y-16551984D01*
X6210920Y-16751984D02*
X6210920Y-16618650D01*
X6210920Y-16637698D02*
X6220443Y-16628174D01*
X6220443Y-16628174D02*
X6239491Y-16618650D01*
X6239491Y-16618650D02*
X6268063Y-16618650D01*
X6268063Y-16618650D02*
X6287110Y-16628174D01*
X6287110Y-16628174D02*
X6296634Y-16647222D01*
X6296634Y-16647222D02*
X6296634Y-16751984D01*
X6296634Y-16647222D02*
X6306158Y-16628174D01*
X6306158Y-16628174D02*
X6325205Y-16618650D01*
X6325205Y-16618650D02*
X6353777Y-16618650D01*
X6353777Y-16618650D02*
X6372824Y-16628174D01*
X6372824Y-16628174D02*
X6382348Y-16647222D01*
X6382348Y-16647222D02*
X6382348Y-16751984D01*
X6477586Y-16751984D02*
X6477586Y-16618650D01*
X6477586Y-16637698D02*
X6487110Y-16628174D01*
X6487110Y-16628174D02*
X6506158Y-16618650D01*
X6506158Y-16618650D02*
X6534729Y-16618650D01*
X6534729Y-16618650D02*
X6553777Y-16628174D01*
X6553777Y-16628174D02*
X6563301Y-16647222D01*
X6563301Y-16647222D02*
X6563301Y-16751984D01*
X6563301Y-16647222D02*
X6572824Y-16628174D01*
X6572824Y-16628174D02*
X6591872Y-16618650D01*
X6591872Y-16618650D02*
X6620443Y-16618650D01*
X6620443Y-16618650D02*
X6639491Y-16628174D01*
X6639491Y-16628174D02*
X6649015Y-16647222D01*
X6649015Y-16647222D02*
X6649015Y-16751984D01*
X7039491Y-16542460D02*
X6868063Y-16799603D01*
X7296634Y-16551984D02*
X7315682Y-16551984D01*
X7315682Y-16551984D02*
X7334729Y-16561508D01*
X7334729Y-16561508D02*
X7344253Y-16571031D01*
X7344253Y-16571031D02*
X7353777Y-16590079D01*
X7353777Y-16590079D02*
X7363301Y-16628174D01*
X7363301Y-16628174D02*
X7363301Y-16675793D01*
X7363301Y-16675793D02*
X7353777Y-16713888D01*
X7353777Y-16713888D02*
X7344253Y-16732936D01*
X7344253Y-16732936D02*
X7334729Y-16742460D01*
X7334729Y-16742460D02*
X7315682Y-16751984D01*
X7315682Y-16751984D02*
X7296634Y-16751984D01*
X7296634Y-16751984D02*
X7277586Y-16742460D01*
X7277586Y-16742460D02*
X7268063Y-16732936D01*
X7268063Y-16732936D02*
X7258539Y-16713888D01*
X7258539Y-16713888D02*
X7249015Y-16675793D01*
X7249015Y-16675793D02*
X7249015Y-16628174D01*
X7249015Y-16628174D02*
X7258539Y-16590079D01*
X7258539Y-16590079D02*
X7268063Y-16571031D01*
X7268063Y-16571031D02*
X7277586Y-16561508D01*
X7277586Y-16561508D02*
X7296634Y-16551984D01*
X7449015Y-16732936D02*
X7458539Y-16742460D01*
X7458539Y-16742460D02*
X7449015Y-16751984D01*
X7449015Y-16751984D02*
X7439491Y-16742460D01*
X7439491Y-16742460D02*
X7449015Y-16732936D01*
X7449015Y-16732936D02*
X7449015Y-16751984D01*
X7649015Y-16751984D02*
X7534729Y-16751984D01*
X7591872Y-16751984D02*
X7591872Y-16551984D01*
X7591872Y-16551984D02*
X7572825Y-16580555D01*
X7572825Y-16580555D02*
X7553777Y-16599603D01*
X7553777Y-16599603D02*
X7534729Y-16609127D01*
X7820444Y-16618650D02*
X7820444Y-16751984D01*
X7772825Y-16542460D02*
X7725206Y-16685317D01*
X7725206Y-16685317D02*
X7849015Y-16685317D01*
X8020444Y-16551984D02*
X7925206Y-16551984D01*
X7925206Y-16551984D02*
X7915682Y-16647222D01*
X7915682Y-16647222D02*
X7925206Y-16637698D01*
X7925206Y-16637698D02*
X7944253Y-16628174D01*
X7944253Y-16628174D02*
X7991872Y-16628174D01*
X7991872Y-16628174D02*
X8010920Y-16637698D01*
X8010920Y-16637698D02*
X8020444Y-16647222D01*
X8020444Y-16647222D02*
X8029967Y-16666269D01*
X8029967Y-16666269D02*
X8029967Y-16713888D01*
X8029967Y-16713888D02*
X8020444Y-16732936D01*
X8020444Y-16732936D02*
X8010920Y-16742460D01*
X8010920Y-16742460D02*
X7991872Y-16751984D01*
X7991872Y-16751984D02*
X7944253Y-16751984D01*
X7944253Y-16751984D02*
X7925206Y-16742460D01*
X7925206Y-16742460D02*
X7915682Y-16732936D01*
X8096634Y-16551984D02*
X8229967Y-16551984D01*
X8229967Y-16551984D02*
X8144253Y-16751984D01*
X8296634Y-16551984D02*
X8296634Y-16590079D01*
X8372825Y-16551984D02*
X8372825Y-16590079D01*
X8668063Y-16828174D02*
X8658539Y-16818650D01*
X8658539Y-16818650D02*
X8639491Y-16790079D01*
X8639491Y-16790079D02*
X8629968Y-16771031D01*
X8629968Y-16771031D02*
X8620444Y-16742460D01*
X8620444Y-16742460D02*
X8610920Y-16694841D01*
X8610920Y-16694841D02*
X8610920Y-16656746D01*
X8610920Y-16656746D02*
X8620444Y-16609127D01*
X8620444Y-16609127D02*
X8629968Y-16580555D01*
X8629968Y-16580555D02*
X8639491Y-16561508D01*
X8639491Y-16561508D02*
X8658539Y-16532936D01*
X8658539Y-16532936D02*
X8668063Y-16523412D01*
X8734730Y-16571031D02*
X8744253Y-16561508D01*
X8744253Y-16561508D02*
X8763301Y-16551984D01*
X8763301Y-16551984D02*
X8810920Y-16551984D01*
X8810920Y-16551984D02*
X8829968Y-16561508D01*
X8829968Y-16561508D02*
X8839491Y-16571031D01*
X8839491Y-16571031D02*
X8849015Y-16590079D01*
X8849015Y-16590079D02*
X8849015Y-16609127D01*
X8849015Y-16609127D02*
X8839491Y-16637698D01*
X8839491Y-16637698D02*
X8725206Y-16751984D01*
X8725206Y-16751984D02*
X8849015Y-16751984D01*
X9087111Y-16751984D02*
X9087111Y-16551984D01*
X9172825Y-16751984D02*
X9172825Y-16647222D01*
X9172825Y-16647222D02*
X9163301Y-16628174D01*
X9163301Y-16628174D02*
X9144253Y-16618650D01*
X9144253Y-16618650D02*
X9115682Y-16618650D01*
X9115682Y-16618650D02*
X9096634Y-16628174D01*
X9096634Y-16628174D02*
X9087111Y-16637698D01*
X9296634Y-16751984D02*
X9277587Y-16742460D01*
X9277587Y-16742460D02*
X9268063Y-16732936D01*
X9268063Y-16732936D02*
X9258539Y-16713888D01*
X9258539Y-16713888D02*
X9258539Y-16656746D01*
X9258539Y-16656746D02*
X9268063Y-16637698D01*
X9268063Y-16637698D02*
X9277587Y-16628174D01*
X9277587Y-16628174D02*
X9296634Y-16618650D01*
X9296634Y-16618650D02*
X9325206Y-16618650D01*
X9325206Y-16618650D02*
X9344253Y-16628174D01*
X9344253Y-16628174D02*
X9353777Y-16637698D01*
X9353777Y-16637698D02*
X9363301Y-16656746D01*
X9363301Y-16656746D02*
X9363301Y-16713888D01*
X9363301Y-16713888D02*
X9353777Y-16732936D01*
X9353777Y-16732936D02*
X9344253Y-16742460D01*
X9344253Y-16742460D02*
X9325206Y-16751984D01*
X9325206Y-16751984D02*
X9296634Y-16751984D01*
X9477587Y-16751984D02*
X9458539Y-16742460D01*
X9458539Y-16742460D02*
X9449015Y-16723412D01*
X9449015Y-16723412D02*
X9449015Y-16551984D01*
X9629968Y-16742460D02*
X9610920Y-16751984D01*
X9610920Y-16751984D02*
X9572825Y-16751984D01*
X9572825Y-16751984D02*
X9553777Y-16742460D01*
X9553777Y-16742460D02*
X9544253Y-16723412D01*
X9544253Y-16723412D02*
X9544253Y-16647222D01*
X9544253Y-16647222D02*
X9553777Y-16628174D01*
X9553777Y-16628174D02*
X9572825Y-16618650D01*
X9572825Y-16618650D02*
X9610920Y-16618650D01*
X9610920Y-16618650D02*
X9629968Y-16628174D01*
X9629968Y-16628174D02*
X9639492Y-16647222D01*
X9639492Y-16647222D02*
X9639492Y-16666269D01*
X9639492Y-16666269D02*
X9544253Y-16685317D01*
X9715682Y-16742460D02*
X9734730Y-16751984D01*
X9734730Y-16751984D02*
X9772825Y-16751984D01*
X9772825Y-16751984D02*
X9791873Y-16742460D01*
X9791873Y-16742460D02*
X9801396Y-16723412D01*
X9801396Y-16723412D02*
X9801396Y-16713888D01*
X9801396Y-16713888D02*
X9791873Y-16694841D01*
X9791873Y-16694841D02*
X9772825Y-16685317D01*
X9772825Y-16685317D02*
X9744253Y-16685317D01*
X9744253Y-16685317D02*
X9725206Y-16675793D01*
X9725206Y-16675793D02*
X9715682Y-16656746D01*
X9715682Y-16656746D02*
X9715682Y-16647222D01*
X9715682Y-16647222D02*
X9725206Y-16628174D01*
X9725206Y-16628174D02*
X9744253Y-16618650D01*
X9744253Y-16618650D02*
X9772825Y-16618650D01*
X9772825Y-16618650D02*
X9791873Y-16628174D01*
X9868063Y-16828174D02*
X9877587Y-16818650D01*
X9877587Y-16818650D02*
X9896634Y-16790079D01*
X9896634Y-16790079D02*
X9906158Y-16771031D01*
X9906158Y-16771031D02*
X9915682Y-16742460D01*
X9915682Y-16742460D02*
X9925206Y-16694841D01*
X9925206Y-16694841D02*
X9925206Y-16656746D01*
X9925206Y-16656746D02*
X9915682Y-16609127D01*
X9915682Y-16609127D02*
X9906158Y-16580555D01*
X9906158Y-16580555D02*
X9896634Y-16561508D01*
X9896634Y-16561508D02*
X9877587Y-16532936D01*
X9877587Y-16532936D02*
X9868063Y-16523412D01*
X10229968Y-16828174D02*
X10220444Y-16818650D01*
X10220444Y-16818650D02*
X10201396Y-16790079D01*
X10201396Y-16790079D02*
X10191873Y-16771031D01*
X10191873Y-16771031D02*
X10182349Y-16742460D01*
X10182349Y-16742460D02*
X10172825Y-16694841D01*
X10172825Y-16694841D02*
X10172825Y-16656746D01*
X10172825Y-16656746D02*
X10182349Y-16609127D01*
X10182349Y-16609127D02*
X10191873Y-16580555D01*
X10191873Y-16580555D02*
X10201396Y-16561508D01*
X10201396Y-16561508D02*
X10220444Y-16532936D01*
X10220444Y-16532936D02*
X10229968Y-16523412D01*
X10306158Y-16618650D02*
X10306158Y-16751984D01*
X10306158Y-16637698D02*
X10315682Y-16628174D01*
X10315682Y-16628174D02*
X10334730Y-16618650D01*
X10334730Y-16618650D02*
X10363301Y-16618650D01*
X10363301Y-16618650D02*
X10382349Y-16628174D01*
X10382349Y-16628174D02*
X10391873Y-16647222D01*
X10391873Y-16647222D02*
X10391873Y-16751984D01*
X10515682Y-16751984D02*
X10496634Y-16742460D01*
X10496634Y-16742460D02*
X10487111Y-16732936D01*
X10487111Y-16732936D02*
X10477587Y-16713888D01*
X10477587Y-16713888D02*
X10477587Y-16656746D01*
X10477587Y-16656746D02*
X10487111Y-16637698D01*
X10487111Y-16637698D02*
X10496634Y-16628174D01*
X10496634Y-16628174D02*
X10515682Y-16618650D01*
X10515682Y-16618650D02*
X10544254Y-16618650D01*
X10544254Y-16618650D02*
X10563301Y-16628174D01*
X10563301Y-16628174D02*
X10572825Y-16637698D01*
X10572825Y-16637698D02*
X10582349Y-16656746D01*
X10582349Y-16656746D02*
X10582349Y-16713888D01*
X10582349Y-16713888D02*
X10572825Y-16732936D01*
X10572825Y-16732936D02*
X10563301Y-16742460D01*
X10563301Y-16742460D02*
X10544254Y-16751984D01*
X10544254Y-16751984D02*
X10515682Y-16751984D01*
X10639492Y-16618650D02*
X10715682Y-16618650D01*
X10668063Y-16551984D02*
X10668063Y-16723412D01*
X10668063Y-16723412D02*
X10677587Y-16742460D01*
X10677587Y-16742460D02*
X10696634Y-16751984D01*
X10696634Y-16751984D02*
X10715682Y-16751984D01*
X10934730Y-16618650D02*
X10934730Y-16818650D01*
X10934730Y-16628174D02*
X10953777Y-16618650D01*
X10953777Y-16618650D02*
X10991873Y-16618650D01*
X10991873Y-16618650D02*
X11010920Y-16628174D01*
X11010920Y-16628174D02*
X11020444Y-16637698D01*
X11020444Y-16637698D02*
X11029968Y-16656746D01*
X11029968Y-16656746D02*
X11029968Y-16713888D01*
X11029968Y-16713888D02*
X11020444Y-16732936D01*
X11020444Y-16732936D02*
X11010920Y-16742460D01*
X11010920Y-16742460D02*
X10991873Y-16751984D01*
X10991873Y-16751984D02*
X10953777Y-16751984D01*
X10953777Y-16751984D02*
X10934730Y-16742460D01*
X11144254Y-16751984D02*
X11125206Y-16742460D01*
X11125206Y-16742460D02*
X11115682Y-16723412D01*
X11115682Y-16723412D02*
X11115682Y-16551984D01*
X11306158Y-16751984D02*
X11306158Y-16647222D01*
X11306158Y-16647222D02*
X11296634Y-16628174D01*
X11296634Y-16628174D02*
X11277587Y-16618650D01*
X11277587Y-16618650D02*
X11239492Y-16618650D01*
X11239492Y-16618650D02*
X11220444Y-16628174D01*
X11306158Y-16742460D02*
X11287111Y-16751984D01*
X11287111Y-16751984D02*
X11239492Y-16751984D01*
X11239492Y-16751984D02*
X11220444Y-16742460D01*
X11220444Y-16742460D02*
X11210920Y-16723412D01*
X11210920Y-16723412D02*
X11210920Y-16704365D01*
X11210920Y-16704365D02*
X11220444Y-16685317D01*
X11220444Y-16685317D02*
X11239492Y-16675793D01*
X11239492Y-16675793D02*
X11287111Y-16675793D01*
X11287111Y-16675793D02*
X11306158Y-16666269D01*
X11372825Y-16618650D02*
X11449015Y-16618650D01*
X11401396Y-16551984D02*
X11401396Y-16723412D01*
X11401396Y-16723412D02*
X11410920Y-16742460D01*
X11410920Y-16742460D02*
X11429968Y-16751984D01*
X11429968Y-16751984D02*
X11449015Y-16751984D01*
X11591873Y-16742460D02*
X11572825Y-16751984D01*
X11572825Y-16751984D02*
X11534730Y-16751984D01*
X11534730Y-16751984D02*
X11515682Y-16742460D01*
X11515682Y-16742460D02*
X11506158Y-16723412D01*
X11506158Y-16723412D02*
X11506158Y-16647222D01*
X11506158Y-16647222D02*
X11515682Y-16628174D01*
X11515682Y-16628174D02*
X11534730Y-16618650D01*
X11534730Y-16618650D02*
X11572825Y-16618650D01*
X11572825Y-16618650D02*
X11591873Y-16628174D01*
X11591873Y-16628174D02*
X11601396Y-16647222D01*
X11601396Y-16647222D02*
X11601396Y-16666269D01*
X11601396Y-16666269D02*
X11506158Y-16685317D01*
X11772825Y-16751984D02*
X11772825Y-16551984D01*
X11772825Y-16742460D02*
X11753777Y-16751984D01*
X11753777Y-16751984D02*
X11715682Y-16751984D01*
X11715682Y-16751984D02*
X11696634Y-16742460D01*
X11696634Y-16742460D02*
X11687111Y-16732936D01*
X11687111Y-16732936D02*
X11677587Y-16713888D01*
X11677587Y-16713888D02*
X11677587Y-16656746D01*
X11677587Y-16656746D02*
X11687111Y-16637698D01*
X11687111Y-16637698D02*
X11696634Y-16628174D01*
X11696634Y-16628174D02*
X11715682Y-16618650D01*
X11715682Y-16618650D02*
X11753777Y-16618650D01*
X11753777Y-16618650D02*
X11772825Y-16628174D01*
X11849015Y-16828174D02*
X11858539Y-16818650D01*
X11858539Y-16818650D02*
X11877587Y-16790079D01*
X11877587Y-16790079D02*
X11887111Y-16771031D01*
X11887111Y-16771031D02*
X11896634Y-16742460D01*
X11896634Y-16742460D02*
X11906158Y-16694841D01*
X11906158Y-16694841D02*
X11906158Y-16656746D01*
X11906158Y-16656746D02*
X11896634Y-16609127D01*
X11896634Y-16609127D02*
X11887111Y-16580555D01*
X11887111Y-16580555D02*
X11877587Y-16561508D01*
X11877587Y-16561508D02*
X11858539Y-16532936D01*
X11858539Y-16532936D02*
X11849015Y-16523412D01*
M02*
