%TF.GenerationSoftware,KiCad,Pcbnew,7.0.11+dfsg-1build4*%
%TF.CreationDate,2025-10-21T14:51:21-05:00*%
%TF.ProjectId,ISACard,49534143-6172-4642-9e6b-696361645f70,rev?*%
%TF.SameCoordinates,Original*%
%TF.FileFunction,Drillmap*%
%TF.FilePolarity,Positive*%
%FSLAX45Y45*%
G04 Gerber Fmt 4.5, Leading zero omitted, Abs format (unit mm)*
G04 Created by KiCad (PCBNEW 7.0.11+dfsg-1build4) date 2025-10-21 14:51:21*
%MOMM*%
%LPD*%
G01*
G04 APERTURE LIST*
%ADD10C,0.100000*%
%ADD11C,0.200000*%
%ADD12C,0.110000*%
G04 APERTURE END LIST*
D10*
X22243000Y-14801000D02*
X24070000Y-14801000D01*
X14115000Y-14799000D02*
X14115000Y-15751500D01*
X14115000Y-15751500D02*
X22243000Y-15751500D01*
X24070000Y-14801000D02*
X24070000Y-6165000D01*
X5098000Y-6163000D02*
X5098000Y-14799000D01*
X22243000Y-15751500D02*
X22243000Y-14801000D01*
X5098000Y-14799000D02*
X14115000Y-14799000D01*
X24070000Y-6165000D02*
X5098000Y-6163000D01*
D11*
D10*
X8301000Y-12831000D02*
X8341000Y-12871000D01*
X8341000Y-12831000D02*
X8301000Y-12871000D01*
X8374000Y-8067500D02*
X8414000Y-8107500D01*
X8414000Y-8067500D02*
X8374000Y-8107500D01*
X8660000Y-13704000D02*
X8700000Y-13744000D01*
X8700000Y-13704000D02*
X8660000Y-13744000D01*
X9199000Y-13870000D02*
X9239000Y-13910000D01*
X9239000Y-13870000D02*
X9199000Y-13910000D01*
X9546000Y-13470000D02*
X9586000Y-13510000D01*
X9586000Y-13470000D02*
X9546000Y-13510000D01*
X9599000Y-14125000D02*
X9639000Y-14165000D01*
X9639000Y-14125000D02*
X9599000Y-14165000D01*
X9881000Y-12191000D02*
X9921000Y-12231000D01*
X9921000Y-12191000D02*
X9881000Y-12231000D01*
X10056000Y-13509000D02*
X10096000Y-13549000D01*
X10096000Y-13509000D02*
X10056000Y-13549000D01*
X10143000Y-7283000D02*
X10183000Y-7323000D01*
X10183000Y-7283000D02*
X10143000Y-7323000D01*
X10159000Y-7462000D02*
X10199000Y-7502000D01*
X10199000Y-7462000D02*
X10159000Y-7502000D01*
X10198000Y-12114000D02*
X10238000Y-12154000D01*
X10238000Y-12114000D02*
X10198000Y-12154000D01*
X10226000Y-6537000D02*
X10266000Y-6577000D01*
X10266000Y-6537000D02*
X10226000Y-6577000D01*
X10269000Y-7376000D02*
X10309000Y-7416000D01*
X10309000Y-7376000D02*
X10269000Y-7416000D01*
X10307000Y-7542000D02*
X10347000Y-7582000D01*
X10347000Y-7542000D02*
X10307000Y-7582000D01*
X10327000Y-13518000D02*
X10367000Y-13558000D01*
X10367000Y-13518000D02*
X10327000Y-13558000D01*
X10372000Y-6406000D02*
X10412000Y-6446000D01*
X10412000Y-6406000D02*
X10372000Y-6446000D01*
X10451000Y-12109450D02*
X10491000Y-12149450D01*
X10491000Y-12109450D02*
X10451000Y-12149450D01*
X10577000Y-13535000D02*
X10617000Y-13575000D01*
X10617000Y-13535000D02*
X10577000Y-13575000D01*
X10647000Y-12109450D02*
X10687000Y-12149450D01*
X10687000Y-12109450D02*
X10647000Y-12149450D01*
X10757000Y-13566000D02*
X10797000Y-13606000D01*
X10797000Y-13566000D02*
X10757000Y-13606000D01*
X10839000Y-12109450D02*
X10879000Y-12149450D01*
X10879000Y-12109450D02*
X10839000Y-12149450D01*
X10878000Y-13667000D02*
X10918000Y-13707000D01*
X10918000Y-13667000D02*
X10878000Y-13707000D01*
X11094000Y-12124000D02*
X11134000Y-12164000D01*
X11134000Y-12124000D02*
X11094000Y-12164000D01*
X11292000Y-11934000D02*
X11332000Y-11974000D01*
X11332000Y-11934000D02*
X11292000Y-11974000D01*
X11455000Y-11929000D02*
X11495000Y-11969000D01*
X11495000Y-11929000D02*
X11455000Y-11969000D01*
X11523000Y-14077000D02*
X11563000Y-14117000D01*
X11563000Y-14077000D02*
X11523000Y-14117000D01*
X11677000Y-10705000D02*
X11717000Y-10745000D01*
X11717000Y-10705000D02*
X11677000Y-10745000D01*
X11690000Y-11991000D02*
X11730000Y-12031000D01*
X11730000Y-11991000D02*
X11690000Y-12031000D01*
X11773000Y-11351000D02*
X11813000Y-11391000D01*
X11813000Y-11351000D02*
X11773000Y-11391000D01*
X11804000Y-12053000D02*
X11844000Y-12093000D01*
X11844000Y-12053000D02*
X11804000Y-12093000D01*
X11905000Y-10702000D02*
X11945000Y-10742000D01*
X11945000Y-10702000D02*
X11905000Y-10742000D01*
X12104000Y-11222000D02*
X12144000Y-11262000D01*
X12144000Y-11222000D02*
X12104000Y-11262000D01*
X12166000Y-10703000D02*
X12206000Y-10743000D01*
X12206000Y-10703000D02*
X12166000Y-10743000D01*
X12255000Y-11321000D02*
X12295000Y-11361000D01*
X12295000Y-11321000D02*
X12255000Y-11361000D01*
X12398000Y-10695000D02*
X12438000Y-10735000D01*
X12438000Y-10695000D02*
X12398000Y-10735000D01*
X12435000Y-11331000D02*
X12475000Y-11371000D01*
X12475000Y-11331000D02*
X12435000Y-11371000D01*
X12638000Y-11320000D02*
X12678000Y-11360000D01*
X12678000Y-11320000D02*
X12638000Y-11360000D01*
X12805000Y-11310000D02*
X12845000Y-11350000D01*
X12845000Y-11310000D02*
X12805000Y-11350000D01*
X12921000Y-10683000D02*
X12961000Y-10723000D01*
X12961000Y-10683000D02*
X12921000Y-10723000D01*
X13119000Y-7266000D02*
X13159000Y-7306000D01*
X13159000Y-7266000D02*
X13119000Y-7306000D01*
X13159000Y-10687000D02*
X13199000Y-10727000D01*
X13199000Y-10687000D02*
X13159000Y-10727000D01*
X13262000Y-14243000D02*
X13302000Y-14283000D01*
X13302000Y-14243000D02*
X13262000Y-14283000D01*
X13386000Y-14319000D02*
X13426000Y-14359000D01*
X13426000Y-14319000D02*
X13386000Y-14359000D01*
X13412000Y-13275000D02*
X13452000Y-13315000D01*
X13452000Y-13275000D02*
X13412000Y-13315000D01*
X13444000Y-12855000D02*
X13484000Y-12895000D01*
X13484000Y-12855000D02*
X13444000Y-12895000D01*
X13800000Y-11206000D02*
X13840000Y-11246000D01*
X13840000Y-11206000D02*
X13800000Y-11246000D01*
X13907000Y-6709000D02*
X13947000Y-6749000D01*
X13947000Y-6709000D02*
X13907000Y-6749000D01*
X13907000Y-11100000D02*
X13947000Y-11140000D01*
X13947000Y-11100000D02*
X13907000Y-11140000D01*
X13934000Y-8738000D02*
X13974000Y-8778000D01*
X13974000Y-8738000D02*
X13934000Y-8778000D01*
X14035000Y-13414000D02*
X14075000Y-13454000D01*
X14075000Y-13414000D02*
X14035000Y-13454000D01*
X14065000Y-11656000D02*
X14105000Y-11696000D01*
X14105000Y-11656000D02*
X14065000Y-11696000D01*
X14070000Y-13608000D02*
X14110000Y-13648000D01*
X14110000Y-13608000D02*
X14070000Y-13648000D01*
X14091000Y-13321000D02*
X14131000Y-13361000D01*
X14131000Y-13321000D02*
X14091000Y-13361000D01*
X14129000Y-13803000D02*
X14169000Y-13843000D01*
X14169000Y-13803000D02*
X14129000Y-13843000D01*
X14139000Y-6706000D02*
X14179000Y-6746000D01*
X14179000Y-6706000D02*
X14139000Y-6746000D01*
X14162000Y-13518500D02*
X14202000Y-13558500D01*
X14202000Y-13518500D02*
X14162000Y-13558500D01*
X14188000Y-13908000D02*
X14228000Y-13948000D01*
X14228000Y-13908000D02*
X14188000Y-13948000D01*
X14189000Y-14720000D02*
X14229000Y-14760000D01*
X14229000Y-14720000D02*
X14189000Y-14760000D01*
X14199000Y-13704000D02*
X14239000Y-13744000D01*
X14239000Y-13704000D02*
X14199000Y-13744000D01*
X14373000Y-14284500D02*
X14413000Y-14324500D01*
X14413000Y-14284500D02*
X14373000Y-14324500D01*
X14407000Y-13885000D02*
X14447000Y-13925000D01*
X14447000Y-13885000D02*
X14407000Y-13925000D01*
X14583000Y-10642000D02*
X14623000Y-10682000D01*
X14623000Y-10642000D02*
X14583000Y-10682000D01*
X14623000Y-12989000D02*
X14663000Y-13029000D01*
X14663000Y-12989000D02*
X14623000Y-13029000D01*
X14642000Y-12541000D02*
X14682000Y-12581000D01*
X14682000Y-12541000D02*
X14642000Y-12581000D01*
X14676000Y-14231500D02*
X14716000Y-14271500D01*
X14716000Y-14231500D02*
X14676000Y-14271500D01*
X14819000Y-12025000D02*
X14859000Y-12065000D01*
X14859000Y-12025000D02*
X14819000Y-12065000D01*
X14865000Y-14231500D02*
X14905000Y-14271500D01*
X14905000Y-14231500D02*
X14865000Y-14271500D01*
X14945000Y-10654500D02*
X14985000Y-10694500D01*
X14985000Y-10654500D02*
X14945000Y-10694500D01*
X14990000Y-12671450D02*
X15030000Y-12711450D01*
X15030000Y-12671450D02*
X14990000Y-12711450D01*
X15091000Y-14231500D02*
X15131000Y-14271500D01*
X15131000Y-14231500D02*
X15091000Y-14271500D01*
X15360000Y-14245000D02*
X15400000Y-14285000D01*
X15400000Y-14245000D02*
X15360000Y-14285000D01*
X15461000Y-6355000D02*
X15501000Y-6395000D01*
X15501000Y-6355000D02*
X15461000Y-6395000D01*
X15543000Y-9316000D02*
X15583000Y-9356000D01*
X15583000Y-9316000D02*
X15543000Y-9356000D01*
X15606000Y-14231500D02*
X15646000Y-14271500D01*
X15646000Y-14231500D02*
X15606000Y-14271500D01*
X16152000Y-12543800D02*
X16192000Y-12583800D01*
X16192000Y-12543800D02*
X16152000Y-12583800D01*
X16167000Y-12283000D02*
X16207000Y-12323000D01*
X16207000Y-12283000D02*
X16167000Y-12323000D01*
X16255000Y-9120000D02*
X16295000Y-9160000D01*
X16295000Y-9120000D02*
X16255000Y-9160000D01*
X16432000Y-14238000D02*
X16472000Y-14278000D01*
X16472000Y-14238000D02*
X16432000Y-14278000D01*
X16473000Y-9660000D02*
X16513000Y-9700000D01*
X16513000Y-9660000D02*
X16473000Y-9700000D01*
X16591699Y-14277301D02*
X16631699Y-14317301D01*
X16631699Y-14277301D02*
X16591699Y-14317301D01*
X16659000Y-10385500D02*
X16699000Y-10425500D01*
X16699000Y-10385500D02*
X16659000Y-10425500D01*
X16768900Y-10160000D02*
X16808900Y-10200000D01*
X16808900Y-10160000D02*
X16768900Y-10200000D01*
X16829500Y-14356500D02*
X16869500Y-14396500D01*
X16869500Y-14356500D02*
X16829500Y-14396500D01*
X16838000Y-9340000D02*
X16878000Y-9380000D01*
X16878000Y-9340000D02*
X16838000Y-9380000D01*
X17055000Y-14359000D02*
X17095000Y-14399000D01*
X17095000Y-14359000D02*
X17055000Y-14399000D01*
X17109000Y-9372000D02*
X17149000Y-9412000D01*
X17149000Y-9372000D02*
X17109000Y-9412000D01*
X17277400Y-7465000D02*
X17317400Y-7505000D01*
X17317400Y-7465000D02*
X17277400Y-7505000D01*
X17658000Y-14275000D02*
X17698000Y-14315000D01*
X17698000Y-14275000D02*
X17658000Y-14315000D01*
X17814035Y-12940965D02*
X17854035Y-12980965D01*
X17854035Y-12940965D02*
X17814035Y-12980965D01*
X17914000Y-14273000D02*
X17954000Y-14313000D01*
X17954000Y-14273000D02*
X17914000Y-14313000D01*
X18081000Y-13298000D02*
X18121000Y-13338000D01*
X18121000Y-13298000D02*
X18081000Y-13338000D01*
X18152000Y-14282000D02*
X18192000Y-14322000D01*
X18192000Y-14282000D02*
X18152000Y-14322000D01*
X18345000Y-14275000D02*
X18385000Y-14315000D01*
X18385000Y-14275000D02*
X18345000Y-14315000D01*
X18402200Y-12225800D02*
X18442200Y-12265800D01*
X18442200Y-12225800D02*
X18402200Y-12265800D01*
X18448000Y-14385000D02*
X18488000Y-14425000D01*
X18488000Y-14385000D02*
X18448000Y-14425000D01*
X18478000Y-13276000D02*
X18518000Y-13316000D01*
X18518000Y-13276000D02*
X18478000Y-13316000D01*
X18556000Y-14612000D02*
X18596000Y-14652000D01*
X18596000Y-14612000D02*
X18556000Y-14652000D01*
X18697000Y-14396000D02*
X18737000Y-14436000D01*
X18737000Y-14396000D02*
X18697000Y-14436000D01*
X18807000Y-14628000D02*
X18847000Y-14668000D01*
X18847000Y-14628000D02*
X18807000Y-14668000D01*
X19011000Y-10589000D02*
X19051000Y-10629000D01*
X19051000Y-10589000D02*
X19011000Y-10629000D01*
X19080000Y-14295000D02*
X19120000Y-14335000D01*
X19120000Y-14295000D02*
X19080000Y-14335000D01*
X19299000Y-14305000D02*
X19339000Y-14345000D01*
X19339000Y-14305000D02*
X19299000Y-14345000D01*
X19681200Y-14273000D02*
X19721200Y-14313000D01*
X19721200Y-14273000D02*
X19681200Y-14313000D01*
X19732000Y-14654000D02*
X19772000Y-14694000D01*
X19772000Y-14654000D02*
X19732000Y-14694000D01*
X20337000Y-11234000D02*
X20377000Y-11274000D01*
X20377000Y-11234000D02*
X20337000Y-11274000D01*
X20784000Y-9636000D02*
X20824000Y-9676000D01*
X20824000Y-9636000D02*
X20784000Y-9676000D01*
X20865000Y-8940000D02*
X20905000Y-8980000D01*
X20905000Y-8940000D02*
X20865000Y-8980000D01*
X21052800Y-9980400D02*
X21092800Y-10020400D01*
X21092800Y-9980400D02*
X21052800Y-10020400D01*
X21297000Y-6947000D02*
X21337000Y-6987000D01*
X21337000Y-6947000D02*
X21297000Y-6987000D01*
X21370500Y-7464500D02*
X21410500Y-7504500D01*
X21410500Y-7464500D02*
X21370500Y-7504500D01*
X21449000Y-13647000D02*
X21489000Y-13687000D01*
X21489000Y-13647000D02*
X21449000Y-13687000D01*
X21510000Y-13460200D02*
X21550000Y-13500200D01*
X21550000Y-13460200D02*
X21510000Y-13500200D01*
X21662400Y-13384000D02*
X21702400Y-13424000D01*
X21702400Y-13384000D02*
X21662400Y-13424000D01*
X21715000Y-9047000D02*
X21755000Y-9087000D01*
X21755000Y-9047000D02*
X21715000Y-9087000D01*
X22018000Y-14654000D02*
X22058000Y-14694000D01*
X22058000Y-14654000D02*
X22018000Y-14694000D01*
X22298000Y-12303000D02*
X22338000Y-12343000D01*
X22338000Y-12303000D02*
X22298000Y-12343000D01*
X22420000Y-8806000D02*
X22460000Y-8846000D01*
X22460000Y-8806000D02*
X22420000Y-8846000D01*
X22433000Y-12112000D02*
X22473000Y-12152000D01*
X22473000Y-12112000D02*
X22433000Y-12152000D01*
X22787000Y-12606000D02*
X22827000Y-12646000D01*
X22827000Y-12606000D02*
X22787000Y-12646000D01*
X22837000Y-8891000D02*
X22877000Y-8931000D01*
X22877000Y-8891000D02*
X22837000Y-8931000D01*
X22865000Y-9361000D02*
X22905000Y-9401000D01*
X22905000Y-9361000D02*
X22865000Y-9401000D01*
X22902000Y-12193000D02*
X22942000Y-12233000D01*
X22942000Y-12193000D02*
X22902000Y-12233000D01*
X22912000Y-12397000D02*
X22952000Y-12437000D01*
X22952000Y-12397000D02*
X22912000Y-12437000D01*
X23046000Y-9065000D02*
X23086000Y-9105000D01*
X23086000Y-9065000D02*
X23046000Y-9105000D01*
X5556000Y-11448000D02*
G75*
G03*
X5476000Y-11448000I-40000J0D01*
G01*
X5476000Y-11448000D02*
G75*
G03*
X5556000Y-11448000I40000J0D01*
G01*
X5709000Y-7598000D02*
G75*
G03*
X5629000Y-7598000I-40000J0D01*
G01*
X5629000Y-7598000D02*
G75*
G03*
X5709000Y-7598000I40000J0D01*
G01*
X5709000Y-8360000D02*
G75*
G03*
X5629000Y-8360000I-40000J0D01*
G01*
X5629000Y-8360000D02*
G75*
G03*
X5709000Y-8360000I40000J0D01*
G01*
X6029000Y-7600000D02*
G75*
G03*
X5949000Y-7600000I-40000J0D01*
G01*
X5949000Y-7600000D02*
G75*
G03*
X6029000Y-7600000I40000J0D01*
G01*
X6029000Y-8362000D02*
G75*
G03*
X5949000Y-8362000I-40000J0D01*
G01*
X5949000Y-8362000D02*
G75*
G03*
X6029000Y-8362000I40000J0D01*
G01*
X6348000Y-7597000D02*
G75*
G03*
X6268000Y-7597000I-40000J0D01*
G01*
X6268000Y-7597000D02*
G75*
G03*
X6348000Y-7597000I40000J0D01*
G01*
X6348000Y-8359000D02*
G75*
G03*
X6268000Y-8359000I-40000J0D01*
G01*
X6268000Y-8359000D02*
G75*
G03*
X6348000Y-8359000I40000J0D01*
G01*
X6448000Y-11788600D02*
G75*
G03*
X6368000Y-11788600I-40000J0D01*
G01*
X6368000Y-11788600D02*
G75*
G03*
X6448000Y-11788600I40000J0D01*
G01*
X6448000Y-13312600D02*
G75*
G03*
X6368000Y-13312600I-40000J0D01*
G01*
X6368000Y-13312600D02*
G75*
G03*
X6448000Y-13312600I40000J0D01*
G01*
X6572000Y-11448000D02*
G75*
G03*
X6492000Y-11448000I-40000J0D01*
G01*
X6492000Y-11448000D02*
G75*
G03*
X6572000Y-11448000I40000J0D01*
G01*
X6702000Y-11788600D02*
G75*
G03*
X6622000Y-11788600I-40000J0D01*
G01*
X6622000Y-11788600D02*
G75*
G03*
X6702000Y-11788600I40000J0D01*
G01*
X6702000Y-13312600D02*
G75*
G03*
X6622000Y-13312600I-40000J0D01*
G01*
X6622000Y-13312600D02*
G75*
G03*
X6702000Y-13312600I40000J0D01*
G01*
X6772000Y-7632000D02*
G75*
G03*
X6692000Y-7632000I-40000J0D01*
G01*
X6692000Y-7632000D02*
G75*
G03*
X6772000Y-7632000I40000J0D01*
G01*
X6956000Y-11788600D02*
G75*
G03*
X6876000Y-11788600I-40000J0D01*
G01*
X6876000Y-11788600D02*
G75*
G03*
X6956000Y-11788600I40000J0D01*
G01*
X6956000Y-13312600D02*
G75*
G03*
X6876000Y-13312600I-40000J0D01*
G01*
X6876000Y-13312600D02*
G75*
G03*
X6956000Y-13312600I40000J0D01*
G01*
X7210000Y-11788600D02*
G75*
G03*
X7130000Y-11788600I-40000J0D01*
G01*
X7130000Y-11788600D02*
G75*
G03*
X7210000Y-11788600I40000J0D01*
G01*
X7210000Y-13312600D02*
G75*
G03*
X7130000Y-13312600I-40000J0D01*
G01*
X7130000Y-13312600D02*
G75*
G03*
X7210000Y-13312600I40000J0D01*
G01*
X7464000Y-11788600D02*
G75*
G03*
X7384000Y-11788600I-40000J0D01*
G01*
X7384000Y-11788600D02*
G75*
G03*
X7464000Y-11788600I40000J0D01*
G01*
X7464000Y-13312600D02*
G75*
G03*
X7384000Y-13312600I-40000J0D01*
G01*
X7384000Y-13312600D02*
G75*
G03*
X7464000Y-13312600I40000J0D01*
G01*
X7534000Y-7632000D02*
G75*
G03*
X7454000Y-7632000I-40000J0D01*
G01*
X7454000Y-7632000D02*
G75*
G03*
X7534000Y-7632000I40000J0D01*
G01*
X7718000Y-11788600D02*
G75*
G03*
X7638000Y-11788600I-40000J0D01*
G01*
X7638000Y-11788600D02*
G75*
G03*
X7718000Y-11788600I40000J0D01*
G01*
X7718000Y-13312600D02*
G75*
G03*
X7638000Y-13312600I-40000J0D01*
G01*
X7638000Y-13312600D02*
G75*
G03*
X7718000Y-13312600I40000J0D01*
G01*
X7972000Y-11788600D02*
G75*
G03*
X7892000Y-11788600I-40000J0D01*
G01*
X7892000Y-11788600D02*
G75*
G03*
X7972000Y-11788600I40000J0D01*
G01*
X7972000Y-13312600D02*
G75*
G03*
X7892000Y-13312600I-40000J0D01*
G01*
X7892000Y-13312600D02*
G75*
G03*
X7972000Y-13312600I40000J0D01*
G01*
X8019000Y-9388000D02*
G75*
G03*
X7939000Y-9388000I-40000J0D01*
G01*
X7939000Y-9388000D02*
G75*
G03*
X8019000Y-9388000I40000J0D01*
G01*
X8226000Y-11788600D02*
G75*
G03*
X8146000Y-11788600I-40000J0D01*
G01*
X8146000Y-11788600D02*
G75*
G03*
X8226000Y-11788600I40000J0D01*
G01*
X8226000Y-13312600D02*
G75*
G03*
X8146000Y-13312600I-40000J0D01*
G01*
X8146000Y-13312600D02*
G75*
G03*
X8226000Y-13312600I40000J0D01*
G01*
X8480000Y-11788600D02*
G75*
G03*
X8400000Y-11788600I-40000J0D01*
G01*
X8400000Y-11788600D02*
G75*
G03*
X8480000Y-11788600I40000J0D01*
G01*
X8480000Y-13312600D02*
G75*
G03*
X8400000Y-13312600I-40000J0D01*
G01*
X8400000Y-13312600D02*
G75*
G03*
X8480000Y-13312600I40000J0D01*
G01*
X8551000Y-8450000D02*
G75*
G03*
X8471000Y-8450000I-40000J0D01*
G01*
X8471000Y-8450000D02*
G75*
G03*
X8551000Y-8450000I40000J0D01*
G01*
X8551000Y-8704000D02*
G75*
G03*
X8471000Y-8704000I-40000J0D01*
G01*
X8471000Y-8704000D02*
G75*
G03*
X8551000Y-8704000I40000J0D01*
G01*
X8551000Y-8958000D02*
G75*
G03*
X8471000Y-8958000I-40000J0D01*
G01*
X8471000Y-8958000D02*
G75*
G03*
X8551000Y-8958000I40000J0D01*
G01*
X8734000Y-11788600D02*
G75*
G03*
X8654000Y-11788600I-40000J0D01*
G01*
X8654000Y-11788600D02*
G75*
G03*
X8734000Y-11788600I40000J0D01*
G01*
X8734000Y-13312600D02*
G75*
G03*
X8654000Y-13312600I-40000J0D01*
G01*
X8654000Y-13312600D02*
G75*
G03*
X8734000Y-13312600I40000J0D01*
G01*
X8781000Y-9388000D02*
G75*
G03*
X8701000Y-9388000I-40000J0D01*
G01*
X8701000Y-9388000D02*
G75*
G03*
X8781000Y-9388000I40000J0D01*
G01*
X8834000Y-6633000D02*
G75*
G03*
X8754000Y-6633000I-40000J0D01*
G01*
X8754000Y-6633000D02*
G75*
G03*
X8834000Y-6633000I40000J0D01*
G01*
X8988000Y-11788600D02*
G75*
G03*
X8908000Y-11788600I-40000J0D01*
G01*
X8908000Y-11788600D02*
G75*
G03*
X8988000Y-11788600I40000J0D01*
G01*
X8988000Y-13312600D02*
G75*
G03*
X8908000Y-13312600I-40000J0D01*
G01*
X8908000Y-13312600D02*
G75*
G03*
X8988000Y-13312600I40000J0D01*
G01*
X9242000Y-11788600D02*
G75*
G03*
X9162000Y-11788600I-40000J0D01*
G01*
X9162000Y-11788600D02*
G75*
G03*
X9242000Y-11788600I40000J0D01*
G01*
X9242000Y-13312600D02*
G75*
G03*
X9162000Y-13312600I-40000J0D01*
G01*
X9162000Y-13312600D02*
G75*
G03*
X9242000Y-13312600I40000J0D01*
G01*
X9496000Y-11788600D02*
G75*
G03*
X9416000Y-11788600I-40000J0D01*
G01*
X9416000Y-11788600D02*
G75*
G03*
X9496000Y-11788600I40000J0D01*
G01*
X9496000Y-13312600D02*
G75*
G03*
X9416000Y-13312600I-40000J0D01*
G01*
X9416000Y-13312600D02*
G75*
G03*
X9496000Y-13312600I40000J0D01*
G01*
X9596000Y-6633000D02*
G75*
G03*
X9516000Y-6633000I-40000J0D01*
G01*
X9516000Y-6633000D02*
G75*
G03*
X9596000Y-6633000I40000J0D01*
G01*
X9750000Y-11788600D02*
G75*
G03*
X9670000Y-11788600I-40000J0D01*
G01*
X9670000Y-11788600D02*
G75*
G03*
X9750000Y-11788600I40000J0D01*
G01*
X9750000Y-13312600D02*
G75*
G03*
X9670000Y-13312600I-40000J0D01*
G01*
X9670000Y-13312600D02*
G75*
G03*
X9750000Y-13312600I40000J0D01*
G01*
X10004000Y-11788600D02*
G75*
G03*
X9924000Y-11788600I-40000J0D01*
G01*
X9924000Y-11788600D02*
G75*
G03*
X10004000Y-11788600I40000J0D01*
G01*
X10004000Y-13312600D02*
G75*
G03*
X9924000Y-13312600I-40000J0D01*
G01*
X9924000Y-13312600D02*
G75*
G03*
X10004000Y-13312600I40000J0D01*
G01*
X10038000Y-6986000D02*
G75*
G03*
X9958000Y-6986000I-40000J0D01*
G01*
X9958000Y-6986000D02*
G75*
G03*
X10038000Y-6986000I40000J0D01*
G01*
X10038000Y-7748000D02*
G75*
G03*
X9958000Y-7748000I-40000J0D01*
G01*
X9958000Y-7748000D02*
G75*
G03*
X10038000Y-7748000I40000J0D01*
G01*
X10242000Y-11454000D02*
G75*
G03*
X10162000Y-11454000I-40000J0D01*
G01*
X10162000Y-11454000D02*
G75*
G03*
X10242000Y-11454000I40000J0D01*
G01*
X10258000Y-11788600D02*
G75*
G03*
X10178000Y-11788600I-40000J0D01*
G01*
X10178000Y-11788600D02*
G75*
G03*
X10258000Y-11788600I40000J0D01*
G01*
X10258000Y-13312600D02*
G75*
G03*
X10178000Y-13312600I-40000J0D01*
G01*
X10178000Y-13312600D02*
G75*
G03*
X10258000Y-13312600I40000J0D01*
G01*
X10321000Y-9370000D02*
G75*
G03*
X10241000Y-9370000I-40000J0D01*
G01*
X10241000Y-9370000D02*
G75*
G03*
X10321000Y-9370000I40000J0D01*
G01*
X10321000Y-10894000D02*
G75*
G03*
X10241000Y-10894000I-40000J0D01*
G01*
X10241000Y-10894000D02*
G75*
G03*
X10321000Y-10894000I40000J0D01*
G01*
X10337000Y-6986000D02*
G75*
G03*
X10257000Y-6986000I-40000J0D01*
G01*
X10257000Y-6986000D02*
G75*
G03*
X10337000Y-6986000I40000J0D01*
G01*
X10337000Y-7748000D02*
G75*
G03*
X10257000Y-7748000I-40000J0D01*
G01*
X10257000Y-7748000D02*
G75*
G03*
X10337000Y-7748000I40000J0D01*
G01*
X10512000Y-11788600D02*
G75*
G03*
X10432000Y-11788600I-40000J0D01*
G01*
X10432000Y-11788600D02*
G75*
G03*
X10512000Y-11788600I40000J0D01*
G01*
X10512000Y-13312600D02*
G75*
G03*
X10432000Y-13312600I-40000J0D01*
G01*
X10432000Y-13312600D02*
G75*
G03*
X10512000Y-13312600I40000J0D01*
G01*
X10575000Y-9370000D02*
G75*
G03*
X10495000Y-9370000I-40000J0D01*
G01*
X10495000Y-9370000D02*
G75*
G03*
X10575000Y-9370000I40000J0D01*
G01*
X10575000Y-10894000D02*
G75*
G03*
X10495000Y-10894000I-40000J0D01*
G01*
X10495000Y-10894000D02*
G75*
G03*
X10575000Y-10894000I40000J0D01*
G01*
X10742000Y-11454000D02*
G75*
G03*
X10662000Y-11454000I-40000J0D01*
G01*
X10662000Y-11454000D02*
G75*
G03*
X10742000Y-11454000I40000J0D01*
G01*
X10766000Y-11788600D02*
G75*
G03*
X10686000Y-11788600I-40000J0D01*
G01*
X10686000Y-11788600D02*
G75*
G03*
X10766000Y-11788600I40000J0D01*
G01*
X10766000Y-13312600D02*
G75*
G03*
X10686000Y-13312600I-40000J0D01*
G01*
X10686000Y-13312600D02*
G75*
G03*
X10766000Y-13312600I40000J0D01*
G01*
X10829000Y-9370000D02*
G75*
G03*
X10749000Y-9370000I-40000J0D01*
G01*
X10749000Y-9370000D02*
G75*
G03*
X10829000Y-9370000I40000J0D01*
G01*
X10829000Y-10894000D02*
G75*
G03*
X10749000Y-10894000I-40000J0D01*
G01*
X10749000Y-10894000D02*
G75*
G03*
X10829000Y-10894000I40000J0D01*
G01*
X10888000Y-6505000D02*
G75*
G03*
X10808000Y-6505000I-40000J0D01*
G01*
X10808000Y-6505000D02*
G75*
G03*
X10888000Y-6505000I40000J0D01*
G01*
X10888000Y-6972000D02*
G75*
G03*
X10808000Y-6972000I-40000J0D01*
G01*
X10808000Y-6972000D02*
G75*
G03*
X10888000Y-6972000I40000J0D01*
G01*
X10888000Y-7734000D02*
G75*
G03*
X10808000Y-7734000I-40000J0D01*
G01*
X10808000Y-7734000D02*
G75*
G03*
X10888000Y-7734000I40000J0D01*
G01*
X11020000Y-11788600D02*
G75*
G03*
X10940000Y-11788600I-40000J0D01*
G01*
X10940000Y-11788600D02*
G75*
G03*
X11020000Y-11788600I40000J0D01*
G01*
X11020000Y-13312600D02*
G75*
G03*
X10940000Y-13312600I-40000J0D01*
G01*
X10940000Y-13312600D02*
G75*
G03*
X11020000Y-13312600I40000J0D01*
G01*
X11083000Y-9370000D02*
G75*
G03*
X11003000Y-9370000I-40000J0D01*
G01*
X11003000Y-9370000D02*
G75*
G03*
X11083000Y-9370000I40000J0D01*
G01*
X11083000Y-10894000D02*
G75*
G03*
X11003000Y-10894000I-40000J0D01*
G01*
X11003000Y-10894000D02*
G75*
G03*
X11083000Y-10894000I40000J0D01*
G01*
X11142000Y-6972000D02*
G75*
G03*
X11062000Y-6972000I-40000J0D01*
G01*
X11062000Y-6972000D02*
G75*
G03*
X11142000Y-6972000I40000J0D01*
G01*
X11142000Y-7734000D02*
G75*
G03*
X11062000Y-7734000I-40000J0D01*
G01*
X11062000Y-7734000D02*
G75*
G03*
X11142000Y-7734000I40000J0D01*
G01*
X11274000Y-11788600D02*
G75*
G03*
X11194000Y-11788600I-40000J0D01*
G01*
X11194000Y-11788600D02*
G75*
G03*
X11274000Y-11788600I40000J0D01*
G01*
X11274000Y-13312600D02*
G75*
G03*
X11194000Y-13312600I-40000J0D01*
G01*
X11194000Y-13312600D02*
G75*
G03*
X11274000Y-13312600I40000J0D01*
G01*
X11337000Y-9370000D02*
G75*
G03*
X11257000Y-9370000I-40000J0D01*
G01*
X11257000Y-9370000D02*
G75*
G03*
X11337000Y-9370000I40000J0D01*
G01*
X11337000Y-10894000D02*
G75*
G03*
X11257000Y-10894000I-40000J0D01*
G01*
X11257000Y-10894000D02*
G75*
G03*
X11337000Y-10894000I40000J0D01*
G01*
X11388000Y-6505000D02*
G75*
G03*
X11308000Y-6505000I-40000J0D01*
G01*
X11308000Y-6505000D02*
G75*
G03*
X11388000Y-6505000I40000J0D01*
G01*
X11396000Y-6972000D02*
G75*
G03*
X11316000Y-6972000I-40000J0D01*
G01*
X11316000Y-6972000D02*
G75*
G03*
X11396000Y-6972000I40000J0D01*
G01*
X11396000Y-7734000D02*
G75*
G03*
X11316000Y-7734000I-40000J0D01*
G01*
X11316000Y-7734000D02*
G75*
G03*
X11396000Y-7734000I40000J0D01*
G01*
X11591000Y-9370000D02*
G75*
G03*
X11511000Y-9370000I-40000J0D01*
G01*
X11511000Y-9370000D02*
G75*
G03*
X11591000Y-9370000I40000J0D01*
G01*
X11591000Y-10894000D02*
G75*
G03*
X11511000Y-10894000I-40000J0D01*
G01*
X11511000Y-10894000D02*
G75*
G03*
X11591000Y-10894000I40000J0D01*
G01*
X11650000Y-6972000D02*
G75*
G03*
X11570000Y-6972000I-40000J0D01*
G01*
X11570000Y-6972000D02*
G75*
G03*
X11650000Y-6972000I40000J0D01*
G01*
X11650000Y-7734000D02*
G75*
G03*
X11570000Y-7734000I-40000J0D01*
G01*
X11570000Y-7734000D02*
G75*
G03*
X11650000Y-7734000I40000J0D01*
G01*
X11845000Y-9370000D02*
G75*
G03*
X11765000Y-9370000I-40000J0D01*
G01*
X11765000Y-9370000D02*
G75*
G03*
X11845000Y-9370000I40000J0D01*
G01*
X11845000Y-10894000D02*
G75*
G03*
X11765000Y-10894000I-40000J0D01*
G01*
X11765000Y-10894000D02*
G75*
G03*
X11845000Y-10894000I40000J0D01*
G01*
X11904000Y-6972000D02*
G75*
G03*
X11824000Y-6972000I-40000J0D01*
G01*
X11824000Y-6972000D02*
G75*
G03*
X11904000Y-6972000I40000J0D01*
G01*
X11904000Y-7734000D02*
G75*
G03*
X11824000Y-7734000I-40000J0D01*
G01*
X11824000Y-7734000D02*
G75*
G03*
X11904000Y-7734000I40000J0D01*
G01*
X12009000Y-8151000D02*
G75*
G03*
X11929000Y-8151000I-40000J0D01*
G01*
X11929000Y-8151000D02*
G75*
G03*
X12009000Y-8151000I40000J0D01*
G01*
X12009000Y-8913000D02*
G75*
G03*
X11929000Y-8913000I-40000J0D01*
G01*
X11929000Y-8913000D02*
G75*
G03*
X12009000Y-8913000I40000J0D01*
G01*
X12099000Y-9370000D02*
G75*
G03*
X12019000Y-9370000I-40000J0D01*
G01*
X12019000Y-9370000D02*
G75*
G03*
X12099000Y-9370000I40000J0D01*
G01*
X12099000Y-10894000D02*
G75*
G03*
X12019000Y-10894000I-40000J0D01*
G01*
X12019000Y-10894000D02*
G75*
G03*
X12099000Y-10894000I40000J0D01*
G01*
X12158000Y-6972000D02*
G75*
G03*
X12078000Y-6972000I-40000J0D01*
G01*
X12078000Y-6972000D02*
G75*
G03*
X12158000Y-6972000I40000J0D01*
G01*
X12158000Y-7734000D02*
G75*
G03*
X12078000Y-7734000I-40000J0D01*
G01*
X12078000Y-7734000D02*
G75*
G03*
X12158000Y-7734000I40000J0D01*
G01*
X12344000Y-8013000D02*
G75*
G03*
X12264000Y-8013000I-40000J0D01*
G01*
X12264000Y-8013000D02*
G75*
G03*
X12344000Y-8013000I40000J0D01*
G01*
X12344000Y-8513000D02*
G75*
G03*
X12264000Y-8513000I-40000J0D01*
G01*
X12264000Y-8513000D02*
G75*
G03*
X12344000Y-8513000I40000J0D01*
G01*
X12353000Y-9370000D02*
G75*
G03*
X12273000Y-9370000I-40000J0D01*
G01*
X12273000Y-9370000D02*
G75*
G03*
X12353000Y-9370000I40000J0D01*
G01*
X12353000Y-10894000D02*
G75*
G03*
X12273000Y-10894000I-40000J0D01*
G01*
X12273000Y-10894000D02*
G75*
G03*
X12353000Y-10894000I40000J0D01*
G01*
X12412000Y-6972000D02*
G75*
G03*
X12332000Y-6972000I-40000J0D01*
G01*
X12332000Y-6972000D02*
G75*
G03*
X12412000Y-6972000I40000J0D01*
G01*
X12412000Y-7734000D02*
G75*
G03*
X12332000Y-7734000I-40000J0D01*
G01*
X12332000Y-7734000D02*
G75*
G03*
X12412000Y-7734000I40000J0D01*
G01*
X12544000Y-12449000D02*
G75*
G03*
X12464000Y-12449000I-40000J0D01*
G01*
X12464000Y-12449000D02*
G75*
G03*
X12544000Y-12449000I40000J0D01*
G01*
X12544000Y-13211000D02*
G75*
G03*
X12464000Y-13211000I-40000J0D01*
G01*
X12464000Y-13211000D02*
G75*
G03*
X12544000Y-13211000I40000J0D01*
G01*
X12607000Y-9370000D02*
G75*
G03*
X12527000Y-9370000I-40000J0D01*
G01*
X12527000Y-9370000D02*
G75*
G03*
X12607000Y-9370000I40000J0D01*
G01*
X12607000Y-10894000D02*
G75*
G03*
X12527000Y-10894000I-40000J0D01*
G01*
X12527000Y-10894000D02*
G75*
G03*
X12607000Y-10894000I40000J0D01*
G01*
X12666000Y-6972000D02*
G75*
G03*
X12586000Y-6972000I-40000J0D01*
G01*
X12586000Y-6972000D02*
G75*
G03*
X12666000Y-6972000I40000J0D01*
G01*
X12666000Y-7734000D02*
G75*
G03*
X12586000Y-7734000I-40000J0D01*
G01*
X12586000Y-7734000D02*
G75*
G03*
X12666000Y-7734000I40000J0D01*
G01*
X12840000Y-8586000D02*
G75*
G03*
X12760000Y-8586000I-40000J0D01*
G01*
X12760000Y-8586000D02*
G75*
G03*
X12840000Y-8586000I40000J0D01*
G01*
X12840000Y-9086000D02*
G75*
G03*
X12760000Y-9086000I-40000J0D01*
G01*
X12760000Y-9086000D02*
G75*
G03*
X12840000Y-9086000I40000J0D01*
G01*
X12861000Y-9370000D02*
G75*
G03*
X12781000Y-9370000I-40000J0D01*
G01*
X12781000Y-9370000D02*
G75*
G03*
X12861000Y-9370000I40000J0D01*
G01*
X12861000Y-10894000D02*
G75*
G03*
X12781000Y-10894000I-40000J0D01*
G01*
X12781000Y-10894000D02*
G75*
G03*
X12861000Y-10894000I40000J0D01*
G01*
X12870000Y-8183000D02*
G75*
G03*
X12790000Y-8183000I-40000J0D01*
G01*
X12790000Y-8183000D02*
G75*
G03*
X12870000Y-8183000I40000J0D01*
G01*
X12920000Y-6972000D02*
G75*
G03*
X12840000Y-6972000I-40000J0D01*
G01*
X12840000Y-6972000D02*
G75*
G03*
X12920000Y-6972000I40000J0D01*
G01*
X12920000Y-7734000D02*
G75*
G03*
X12840000Y-7734000I-40000J0D01*
G01*
X12840000Y-7734000D02*
G75*
G03*
X12920000Y-7734000I40000J0D01*
G01*
X12925000Y-12449000D02*
G75*
G03*
X12845000Y-12449000I-40000J0D01*
G01*
X12845000Y-12449000D02*
G75*
G03*
X12925000Y-12449000I40000J0D01*
G01*
X12925000Y-13211000D02*
G75*
G03*
X12845000Y-13211000I-40000J0D01*
G01*
X12845000Y-13211000D02*
G75*
G03*
X12925000Y-13211000I40000J0D01*
G01*
X13115000Y-9370000D02*
G75*
G03*
X13035000Y-9370000I-40000J0D01*
G01*
X13035000Y-9370000D02*
G75*
G03*
X13115000Y-9370000I40000J0D01*
G01*
X13115000Y-10894000D02*
G75*
G03*
X13035000Y-10894000I-40000J0D01*
G01*
X13035000Y-10894000D02*
G75*
G03*
X13115000Y-10894000I40000J0D01*
G01*
X13150000Y-6437000D02*
G75*
G03*
X13070000Y-6437000I-40000J0D01*
G01*
X13070000Y-6437000D02*
G75*
G03*
X13150000Y-6437000I40000J0D01*
G01*
X13174000Y-6972000D02*
G75*
G03*
X13094000Y-6972000I-40000J0D01*
G01*
X13094000Y-6972000D02*
G75*
G03*
X13174000Y-6972000I40000J0D01*
G01*
X13174000Y-7734000D02*
G75*
G03*
X13094000Y-7734000I-40000J0D01*
G01*
X13094000Y-7734000D02*
G75*
G03*
X13174000Y-7734000I40000J0D01*
G01*
X13306000Y-12449000D02*
G75*
G03*
X13226000Y-12449000I-40000J0D01*
G01*
X13226000Y-12449000D02*
G75*
G03*
X13306000Y-12449000I40000J0D01*
G01*
X13306000Y-13211000D02*
G75*
G03*
X13226000Y-13211000I-40000J0D01*
G01*
X13226000Y-13211000D02*
G75*
G03*
X13306000Y-13211000I40000J0D01*
G01*
X13358000Y-8183000D02*
G75*
G03*
X13278000Y-8183000I-40000J0D01*
G01*
X13278000Y-8183000D02*
G75*
G03*
X13358000Y-8183000I40000J0D01*
G01*
X13369000Y-9370000D02*
G75*
G03*
X13289000Y-9370000I-40000J0D01*
G01*
X13289000Y-9370000D02*
G75*
G03*
X13369000Y-9370000I40000J0D01*
G01*
X13369000Y-10894000D02*
G75*
G03*
X13289000Y-10894000I-40000J0D01*
G01*
X13289000Y-10894000D02*
G75*
G03*
X13369000Y-10894000I40000J0D01*
G01*
X13394000Y-8586000D02*
G75*
G03*
X13314000Y-8586000I-40000J0D01*
G01*
X13314000Y-8586000D02*
G75*
G03*
X13394000Y-8586000I40000J0D01*
G01*
X13394000Y-9086000D02*
G75*
G03*
X13314000Y-9086000I-40000J0D01*
G01*
X13314000Y-9086000D02*
G75*
G03*
X13394000Y-9086000I40000J0D01*
G01*
X13428000Y-6972000D02*
G75*
G03*
X13348000Y-6972000I-40000J0D01*
G01*
X13348000Y-6972000D02*
G75*
G03*
X13428000Y-6972000I40000J0D01*
G01*
X13428000Y-7734000D02*
G75*
G03*
X13348000Y-7734000I-40000J0D01*
G01*
X13348000Y-7734000D02*
G75*
G03*
X13428000Y-7734000I40000J0D01*
G01*
X13623000Y-9370000D02*
G75*
G03*
X13543000Y-9370000I-40000J0D01*
G01*
X13543000Y-9370000D02*
G75*
G03*
X13623000Y-9370000I40000J0D01*
G01*
X13623000Y-10894000D02*
G75*
G03*
X13543000Y-10894000I-40000J0D01*
G01*
X13543000Y-10894000D02*
G75*
G03*
X13623000Y-10894000I40000J0D01*
G01*
X13682000Y-6972000D02*
G75*
G03*
X13602000Y-6972000I-40000J0D01*
G01*
X13602000Y-6972000D02*
G75*
G03*
X13682000Y-6972000I40000J0D01*
G01*
X13682000Y-7734000D02*
G75*
G03*
X13602000Y-7734000I-40000J0D01*
G01*
X13602000Y-7734000D02*
G75*
G03*
X13682000Y-7734000I40000J0D01*
G01*
X13687000Y-12449000D02*
G75*
G03*
X13607000Y-12449000I-40000J0D01*
G01*
X13607000Y-12449000D02*
G75*
G03*
X13687000Y-12449000I40000J0D01*
G01*
X13687000Y-13211000D02*
G75*
G03*
X13607000Y-13211000I-40000J0D01*
G01*
X13607000Y-13211000D02*
G75*
G03*
X13687000Y-13211000I40000J0D01*
G01*
X13912000Y-6437000D02*
G75*
G03*
X13832000Y-6437000I-40000J0D01*
G01*
X13832000Y-6437000D02*
G75*
G03*
X13912000Y-6437000I40000J0D01*
G01*
X13936000Y-6972000D02*
G75*
G03*
X13856000Y-6972000I-40000J0D01*
G01*
X13856000Y-6972000D02*
G75*
G03*
X13936000Y-6972000I40000J0D01*
G01*
X13936000Y-7734000D02*
G75*
G03*
X13856000Y-7734000I-40000J0D01*
G01*
X13856000Y-7734000D02*
G75*
G03*
X13936000Y-7734000I40000J0D01*
G01*
X13959800Y-12132000D02*
G75*
G03*
X13879800Y-12132000I-40000J0D01*
G01*
X13879800Y-12132000D02*
G75*
G03*
X13959800Y-12132000I40000J0D01*
G01*
X14061000Y-10087000D02*
G75*
G03*
X13981000Y-10087000I-40000J0D01*
G01*
X13981000Y-10087000D02*
G75*
G03*
X14061000Y-10087000I40000J0D01*
G01*
X14190000Y-6972000D02*
G75*
G03*
X14110000Y-6972000I-40000J0D01*
G01*
X14110000Y-6972000D02*
G75*
G03*
X14190000Y-6972000I40000J0D01*
G01*
X14190000Y-7734000D02*
G75*
G03*
X14110000Y-7734000I-40000J0D01*
G01*
X14110000Y-7734000D02*
G75*
G03*
X14190000Y-7734000I40000J0D01*
G01*
X14321500Y-10924000D02*
G75*
G03*
X14241500Y-10924000I-40000J0D01*
G01*
X14241500Y-10924000D02*
G75*
G03*
X14321500Y-10924000I40000J0D01*
G01*
X14321500Y-11686000D02*
G75*
G03*
X14241500Y-11686000I-40000J0D01*
G01*
X14241500Y-11686000D02*
G75*
G03*
X14321500Y-11686000I40000J0D01*
G01*
X14321500Y-12448000D02*
G75*
G03*
X14241500Y-12448000I-40000J0D01*
G01*
X14241500Y-12448000D02*
G75*
G03*
X14321500Y-12448000I40000J0D01*
G01*
X14321500Y-13210000D02*
G75*
G03*
X14241500Y-13210000I-40000J0D01*
G01*
X14241500Y-13210000D02*
G75*
G03*
X14321500Y-13210000I40000J0D01*
G01*
X14459800Y-12132000D02*
G75*
G03*
X14379800Y-12132000I-40000J0D01*
G01*
X14379800Y-12132000D02*
G75*
G03*
X14459800Y-12132000I40000J0D01*
G01*
X14561000Y-10087000D02*
G75*
G03*
X14481000Y-10087000I-40000J0D01*
G01*
X14481000Y-10087000D02*
G75*
G03*
X14561000Y-10087000I40000J0D01*
G01*
X14575500Y-10924000D02*
G75*
G03*
X14495500Y-10924000I-40000J0D01*
G01*
X14495500Y-10924000D02*
G75*
G03*
X14575500Y-10924000I40000J0D01*
G01*
X14575500Y-11686000D02*
G75*
G03*
X14495500Y-11686000I-40000J0D01*
G01*
X14495500Y-11686000D02*
G75*
G03*
X14575500Y-11686000I40000J0D01*
G01*
X14575500Y-12448000D02*
G75*
G03*
X14495500Y-12448000I-40000J0D01*
G01*
X14495500Y-12448000D02*
G75*
G03*
X14575500Y-12448000I40000J0D01*
G01*
X14575500Y-13210000D02*
G75*
G03*
X14495500Y-13210000I-40000J0D01*
G01*
X14495500Y-13210000D02*
G75*
G03*
X14575500Y-13210000I40000J0D01*
G01*
X14829500Y-10924000D02*
G75*
G03*
X14749500Y-10924000I-40000J0D01*
G01*
X14749500Y-10924000D02*
G75*
G03*
X14829500Y-10924000I40000J0D01*
G01*
X14829500Y-11686000D02*
G75*
G03*
X14749500Y-11686000I-40000J0D01*
G01*
X14749500Y-11686000D02*
G75*
G03*
X14829500Y-11686000I40000J0D01*
G01*
X14829500Y-12448000D02*
G75*
G03*
X14749500Y-12448000I-40000J0D01*
G01*
X14749500Y-12448000D02*
G75*
G03*
X14829500Y-12448000I40000J0D01*
G01*
X14829500Y-13210000D02*
G75*
G03*
X14749500Y-13210000I-40000J0D01*
G01*
X14749500Y-13210000D02*
G75*
G03*
X14829500Y-13210000I40000J0D01*
G01*
X14968000Y-9144000D02*
G75*
G03*
X14888000Y-9144000I-40000J0D01*
G01*
X14888000Y-9144000D02*
G75*
G03*
X14968000Y-9144000I40000J0D01*
G01*
X14968000Y-9906000D02*
G75*
G03*
X14888000Y-9906000I-40000J0D01*
G01*
X14888000Y-9906000D02*
G75*
G03*
X14968000Y-9906000I40000J0D01*
G01*
X15083500Y-10924000D02*
G75*
G03*
X15003500Y-10924000I-40000J0D01*
G01*
X15003500Y-10924000D02*
G75*
G03*
X15083500Y-10924000I40000J0D01*
G01*
X15083500Y-11686000D02*
G75*
G03*
X15003500Y-11686000I-40000J0D01*
G01*
X15003500Y-11686000D02*
G75*
G03*
X15083500Y-11686000I40000J0D01*
G01*
X15083500Y-12448000D02*
G75*
G03*
X15003500Y-12448000I-40000J0D01*
G01*
X15003500Y-12448000D02*
G75*
G03*
X15083500Y-12448000I40000J0D01*
G01*
X15083500Y-13210000D02*
G75*
G03*
X15003500Y-13210000I-40000J0D01*
G01*
X15003500Y-13210000D02*
G75*
G03*
X15083500Y-13210000I40000J0D01*
G01*
X15328000Y-9139000D02*
G75*
G03*
X15248000Y-9139000I-40000J0D01*
G01*
X15248000Y-9139000D02*
G75*
G03*
X15328000Y-9139000I40000J0D01*
G01*
X15328000Y-9901000D02*
G75*
G03*
X15248000Y-9901000I-40000J0D01*
G01*
X15248000Y-9901000D02*
G75*
G03*
X15328000Y-9901000I40000J0D01*
G01*
X15337500Y-10924000D02*
G75*
G03*
X15257500Y-10924000I-40000J0D01*
G01*
X15257500Y-10924000D02*
G75*
G03*
X15337500Y-10924000I40000J0D01*
G01*
X15337500Y-11686000D02*
G75*
G03*
X15257500Y-11686000I-40000J0D01*
G01*
X15257500Y-11686000D02*
G75*
G03*
X15337500Y-11686000I40000J0D01*
G01*
X15337500Y-12448000D02*
G75*
G03*
X15257500Y-12448000I-40000J0D01*
G01*
X15257500Y-12448000D02*
G75*
G03*
X15337500Y-12448000I40000J0D01*
G01*
X15337500Y-13210000D02*
G75*
G03*
X15257500Y-13210000I-40000J0D01*
G01*
X15257500Y-13210000D02*
G75*
G03*
X15337500Y-13210000I40000J0D01*
G01*
X15591500Y-10924000D02*
G75*
G03*
X15511500Y-10924000I-40000J0D01*
G01*
X15511500Y-10924000D02*
G75*
G03*
X15591500Y-10924000I40000J0D01*
G01*
X15591500Y-11686000D02*
G75*
G03*
X15511500Y-11686000I-40000J0D01*
G01*
X15511500Y-11686000D02*
G75*
G03*
X15591500Y-11686000I40000J0D01*
G01*
X15591500Y-12448000D02*
G75*
G03*
X15511500Y-12448000I-40000J0D01*
G01*
X15511500Y-12448000D02*
G75*
G03*
X15591500Y-12448000I40000J0D01*
G01*
X15591500Y-13210000D02*
G75*
G03*
X15511500Y-13210000I-40000J0D01*
G01*
X15511500Y-13210000D02*
G75*
G03*
X15591500Y-13210000I40000J0D01*
G01*
X15679000Y-9150000D02*
G75*
G03*
X15599000Y-9150000I-40000J0D01*
G01*
X15599000Y-9150000D02*
G75*
G03*
X15679000Y-9150000I40000J0D01*
G01*
X15679000Y-9912000D02*
G75*
G03*
X15599000Y-9912000I-40000J0D01*
G01*
X15599000Y-9912000D02*
G75*
G03*
X15679000Y-9912000I40000J0D01*
G01*
X15845500Y-10924000D02*
G75*
G03*
X15765500Y-10924000I-40000J0D01*
G01*
X15765500Y-10924000D02*
G75*
G03*
X15845500Y-10924000I40000J0D01*
G01*
X15845500Y-11686000D02*
G75*
G03*
X15765500Y-11686000I-40000J0D01*
G01*
X15765500Y-11686000D02*
G75*
G03*
X15845500Y-11686000I40000J0D01*
G01*
X15845500Y-12448000D02*
G75*
G03*
X15765500Y-12448000I-40000J0D01*
G01*
X15765500Y-12448000D02*
G75*
G03*
X15845500Y-12448000I40000J0D01*
G01*
X15845500Y-13210000D02*
G75*
G03*
X15765500Y-13210000I-40000J0D01*
G01*
X15765500Y-13210000D02*
G75*
G03*
X15845500Y-13210000I40000J0D01*
G01*
X16020000Y-9155000D02*
G75*
G03*
X15940000Y-9155000I-40000J0D01*
G01*
X15940000Y-9155000D02*
G75*
G03*
X16020000Y-9155000I40000J0D01*
G01*
X16020000Y-9917000D02*
G75*
G03*
X15940000Y-9917000I-40000J0D01*
G01*
X15940000Y-9917000D02*
G75*
G03*
X16020000Y-9917000I40000J0D01*
G01*
X16396000Y-8838000D02*
G75*
G03*
X16316000Y-8838000I-40000J0D01*
G01*
X16316000Y-8838000D02*
G75*
G03*
X16396000Y-8838000I40000J0D01*
G01*
X16396000Y-9338000D02*
G75*
G03*
X16316000Y-9338000I-40000J0D01*
G01*
X16316000Y-9338000D02*
G75*
G03*
X16396000Y-9338000I40000J0D01*
G01*
X16677600Y-12081200D02*
G75*
G03*
X16597600Y-12081200I-40000J0D01*
G01*
X16597600Y-12081200D02*
G75*
G03*
X16677600Y-12081200I40000J0D01*
G01*
X16734500Y-12448000D02*
G75*
G03*
X16654500Y-12448000I-40000J0D01*
G01*
X16654500Y-12448000D02*
G75*
G03*
X16734500Y-12448000I40000J0D01*
G01*
X16734500Y-13210000D02*
G75*
G03*
X16654500Y-13210000I-40000J0D01*
G01*
X16654500Y-13210000D02*
G75*
G03*
X16734500Y-13210000I40000J0D01*
G01*
X16735000Y-10988500D02*
G75*
G03*
X16655000Y-10988500I-40000J0D01*
G01*
X16655000Y-10988500D02*
G75*
G03*
X16735000Y-10988500I40000J0D01*
G01*
X16735000Y-11750500D02*
G75*
G03*
X16655000Y-11750500I-40000J0D01*
G01*
X16655000Y-11750500D02*
G75*
G03*
X16735000Y-11750500I40000J0D01*
G01*
X16828900Y-9117600D02*
G75*
G03*
X16748900Y-9117600I-40000J0D01*
G01*
X16748900Y-9117600D02*
G75*
G03*
X16828900Y-9117600I40000J0D01*
G01*
X16828900Y-9879600D02*
G75*
G03*
X16748900Y-9879600I-40000J0D01*
G01*
X16748900Y-9879600D02*
G75*
G03*
X16828900Y-9879600I40000J0D01*
G01*
X16829400Y-7797800D02*
G75*
G03*
X16749400Y-7797800I-40000J0D01*
G01*
X16749400Y-7797800D02*
G75*
G03*
X16829400Y-7797800I40000J0D01*
G01*
X16829400Y-8559800D02*
G75*
G03*
X16749400Y-8559800I-40000J0D01*
G01*
X16749400Y-8559800D02*
G75*
G03*
X16829400Y-8559800I40000J0D01*
G01*
X16988500Y-12448000D02*
G75*
G03*
X16908500Y-12448000I-40000J0D01*
G01*
X16908500Y-12448000D02*
G75*
G03*
X16988500Y-12448000I40000J0D01*
G01*
X16988500Y-13210000D02*
G75*
G03*
X16908500Y-13210000I-40000J0D01*
G01*
X16908500Y-13210000D02*
G75*
G03*
X16988500Y-13210000I40000J0D01*
G01*
X16989000Y-10988500D02*
G75*
G03*
X16909000Y-10988500I-40000J0D01*
G01*
X16909000Y-10988500D02*
G75*
G03*
X16989000Y-10988500I40000J0D01*
G01*
X16989000Y-11750500D02*
G75*
G03*
X16909000Y-11750500I-40000J0D01*
G01*
X16909000Y-11750500D02*
G75*
G03*
X16989000Y-11750500I40000J0D01*
G01*
X17082900Y-9117600D02*
G75*
G03*
X17002900Y-9117600I-40000J0D01*
G01*
X17002900Y-9117600D02*
G75*
G03*
X17082900Y-9117600I40000J0D01*
G01*
X17082900Y-9879600D02*
G75*
G03*
X17002900Y-9879600I-40000J0D01*
G01*
X17002900Y-9879600D02*
G75*
G03*
X17082900Y-9879600I40000J0D01*
G01*
X17083400Y-7797800D02*
G75*
G03*
X17003400Y-7797800I-40000J0D01*
G01*
X17003400Y-7797800D02*
G75*
G03*
X17083400Y-7797800I40000J0D01*
G01*
X17083400Y-8559800D02*
G75*
G03*
X17003400Y-8559800I-40000J0D01*
G01*
X17003400Y-8559800D02*
G75*
G03*
X17083400Y-8559800I40000J0D01*
G01*
X17177600Y-12081200D02*
G75*
G03*
X17097600Y-12081200I-40000J0D01*
G01*
X17097600Y-12081200D02*
G75*
G03*
X17177600Y-12081200I40000J0D01*
G01*
X17242500Y-12448000D02*
G75*
G03*
X17162500Y-12448000I-40000J0D01*
G01*
X17162500Y-12448000D02*
G75*
G03*
X17242500Y-12448000I40000J0D01*
G01*
X17242500Y-13210000D02*
G75*
G03*
X17162500Y-13210000I-40000J0D01*
G01*
X17162500Y-13210000D02*
G75*
G03*
X17242500Y-13210000I40000J0D01*
G01*
X17243000Y-10988500D02*
G75*
G03*
X17163000Y-10988500I-40000J0D01*
G01*
X17163000Y-10988500D02*
G75*
G03*
X17243000Y-10988500I40000J0D01*
G01*
X17243000Y-11750500D02*
G75*
G03*
X17163000Y-11750500I-40000J0D01*
G01*
X17163000Y-11750500D02*
G75*
G03*
X17243000Y-11750500I40000J0D01*
G01*
X17336900Y-9117600D02*
G75*
G03*
X17256900Y-9117600I-40000J0D01*
G01*
X17256900Y-9117600D02*
G75*
G03*
X17336900Y-9117600I40000J0D01*
G01*
X17336900Y-9879600D02*
G75*
G03*
X17256900Y-9879600I-40000J0D01*
G01*
X17256900Y-9879600D02*
G75*
G03*
X17336900Y-9879600I40000J0D01*
G01*
X17337400Y-7797800D02*
G75*
G03*
X17257400Y-7797800I-40000J0D01*
G01*
X17257400Y-7797800D02*
G75*
G03*
X17337400Y-7797800I40000J0D01*
G01*
X17337400Y-8559800D02*
G75*
G03*
X17257400Y-8559800I-40000J0D01*
G01*
X17257400Y-8559800D02*
G75*
G03*
X17337400Y-8559800I40000J0D01*
G01*
X17496500Y-12448000D02*
G75*
G03*
X17416500Y-12448000I-40000J0D01*
G01*
X17416500Y-12448000D02*
G75*
G03*
X17496500Y-12448000I40000J0D01*
G01*
X17496500Y-13210000D02*
G75*
G03*
X17416500Y-13210000I-40000J0D01*
G01*
X17416500Y-13210000D02*
G75*
G03*
X17496500Y-13210000I40000J0D01*
G01*
X17497000Y-10988500D02*
G75*
G03*
X17417000Y-10988500I-40000J0D01*
G01*
X17417000Y-10988500D02*
G75*
G03*
X17497000Y-10988500I40000J0D01*
G01*
X17497000Y-11750500D02*
G75*
G03*
X17417000Y-11750500I-40000J0D01*
G01*
X17417000Y-11750500D02*
G75*
G03*
X17497000Y-11750500I40000J0D01*
G01*
X17590900Y-9117600D02*
G75*
G03*
X17510900Y-9117600I-40000J0D01*
G01*
X17510900Y-9117600D02*
G75*
G03*
X17590900Y-9117600I40000J0D01*
G01*
X17590900Y-9879600D02*
G75*
G03*
X17510900Y-9879600I-40000J0D01*
G01*
X17510900Y-9879600D02*
G75*
G03*
X17590900Y-9879600I40000J0D01*
G01*
X17591400Y-7797800D02*
G75*
G03*
X17511400Y-7797800I-40000J0D01*
G01*
X17511400Y-7797800D02*
G75*
G03*
X17591400Y-7797800I40000J0D01*
G01*
X17591400Y-8559800D02*
G75*
G03*
X17511400Y-8559800I-40000J0D01*
G01*
X17511400Y-8559800D02*
G75*
G03*
X17591400Y-8559800I40000J0D01*
G01*
X17750500Y-12448000D02*
G75*
G03*
X17670500Y-12448000I-40000J0D01*
G01*
X17670500Y-12448000D02*
G75*
G03*
X17750500Y-12448000I40000J0D01*
G01*
X17750500Y-13210000D02*
G75*
G03*
X17670500Y-13210000I-40000J0D01*
G01*
X17670500Y-13210000D02*
G75*
G03*
X17750500Y-13210000I40000J0D01*
G01*
X17751000Y-10988500D02*
G75*
G03*
X17671000Y-10988500I-40000J0D01*
G01*
X17671000Y-10988500D02*
G75*
G03*
X17751000Y-10988500I40000J0D01*
G01*
X17751000Y-11750500D02*
G75*
G03*
X17671000Y-11750500I-40000J0D01*
G01*
X17671000Y-11750500D02*
G75*
G03*
X17751000Y-11750500I40000J0D01*
G01*
X17844900Y-9117600D02*
G75*
G03*
X17764900Y-9117600I-40000J0D01*
G01*
X17764900Y-9117600D02*
G75*
G03*
X17844900Y-9117600I40000J0D01*
G01*
X17844900Y-9879600D02*
G75*
G03*
X17764900Y-9879600I-40000J0D01*
G01*
X17764900Y-9879600D02*
G75*
G03*
X17844900Y-9879600I40000J0D01*
G01*
X17845400Y-7797800D02*
G75*
G03*
X17765400Y-7797800I-40000J0D01*
G01*
X17765400Y-7797800D02*
G75*
G03*
X17845400Y-7797800I40000J0D01*
G01*
X17845400Y-8559800D02*
G75*
G03*
X17765400Y-8559800I-40000J0D01*
G01*
X17765400Y-8559800D02*
G75*
G03*
X17845400Y-8559800I40000J0D01*
G01*
X18004500Y-12448000D02*
G75*
G03*
X17924500Y-12448000I-40000J0D01*
G01*
X17924500Y-12448000D02*
G75*
G03*
X18004500Y-12448000I40000J0D01*
G01*
X18004500Y-13210000D02*
G75*
G03*
X17924500Y-13210000I-40000J0D01*
G01*
X17924500Y-13210000D02*
G75*
G03*
X18004500Y-13210000I40000J0D01*
G01*
X18005000Y-10988500D02*
G75*
G03*
X17925000Y-10988500I-40000J0D01*
G01*
X17925000Y-10988500D02*
G75*
G03*
X18005000Y-10988500I40000J0D01*
G01*
X18005000Y-11750500D02*
G75*
G03*
X17925000Y-11750500I-40000J0D01*
G01*
X17925000Y-11750500D02*
G75*
G03*
X18005000Y-11750500I40000J0D01*
G01*
X18098900Y-9117600D02*
G75*
G03*
X18018900Y-9117600I-40000J0D01*
G01*
X18018900Y-9117600D02*
G75*
G03*
X18098900Y-9117600I40000J0D01*
G01*
X18098900Y-9879600D02*
G75*
G03*
X18018900Y-9879600I-40000J0D01*
G01*
X18018900Y-9879600D02*
G75*
G03*
X18098900Y-9879600I40000J0D01*
G01*
X18099400Y-7797800D02*
G75*
G03*
X18019400Y-7797800I-40000J0D01*
G01*
X18019400Y-7797800D02*
G75*
G03*
X18099400Y-7797800I40000J0D01*
G01*
X18099400Y-8559800D02*
G75*
G03*
X18019400Y-8559800I-40000J0D01*
G01*
X18019400Y-8559800D02*
G75*
G03*
X18099400Y-8559800I40000J0D01*
G01*
X18258500Y-12448000D02*
G75*
G03*
X18178500Y-12448000I-40000J0D01*
G01*
X18178500Y-12448000D02*
G75*
G03*
X18258500Y-12448000I40000J0D01*
G01*
X18258500Y-13210000D02*
G75*
G03*
X18178500Y-13210000I-40000J0D01*
G01*
X18178500Y-13210000D02*
G75*
G03*
X18258500Y-13210000I40000J0D01*
G01*
X18259000Y-10988500D02*
G75*
G03*
X18179000Y-10988500I-40000J0D01*
G01*
X18179000Y-10988500D02*
G75*
G03*
X18259000Y-10988500I40000J0D01*
G01*
X18259000Y-11750500D02*
G75*
G03*
X18179000Y-11750500I-40000J0D01*
G01*
X18179000Y-11750500D02*
G75*
G03*
X18259000Y-11750500I40000J0D01*
G01*
X18352900Y-9117600D02*
G75*
G03*
X18272900Y-9117600I-40000J0D01*
G01*
X18272900Y-9117600D02*
G75*
G03*
X18352900Y-9117600I40000J0D01*
G01*
X18352900Y-9879600D02*
G75*
G03*
X18272900Y-9879600I-40000J0D01*
G01*
X18272900Y-9879600D02*
G75*
G03*
X18352900Y-9879600I40000J0D01*
G01*
X18353400Y-7797800D02*
G75*
G03*
X18273400Y-7797800I-40000J0D01*
G01*
X18273400Y-7797800D02*
G75*
G03*
X18353400Y-7797800I40000J0D01*
G01*
X18353400Y-8559800D02*
G75*
G03*
X18273400Y-8559800I-40000J0D01*
G01*
X18273400Y-8559800D02*
G75*
G03*
X18353400Y-8559800I40000J0D01*
G01*
X18803200Y-8711000D02*
G75*
G03*
X18723200Y-8711000I-40000J0D01*
G01*
X18723200Y-8711000D02*
G75*
G03*
X18803200Y-8711000I40000J0D01*
G01*
X18803200Y-9211000D02*
G75*
G03*
X18723200Y-9211000I-40000J0D01*
G01*
X18723200Y-9211000D02*
G75*
G03*
X18803200Y-9211000I40000J0D01*
G01*
X18894000Y-12449000D02*
G75*
G03*
X18814000Y-12449000I-40000J0D01*
G01*
X18814000Y-12449000D02*
G75*
G03*
X18894000Y-12449000I40000J0D01*
G01*
X18894000Y-13211000D02*
G75*
G03*
X18814000Y-13211000I-40000J0D01*
G01*
X18814000Y-13211000D02*
G75*
G03*
X18894000Y-13211000I40000J0D01*
G01*
X19275000Y-12449000D02*
G75*
G03*
X19195000Y-12449000I-40000J0D01*
G01*
X19195000Y-12449000D02*
G75*
G03*
X19275000Y-12449000I40000J0D01*
G01*
X19275000Y-13211000D02*
G75*
G03*
X19195000Y-13211000I-40000J0D01*
G01*
X19195000Y-13211000D02*
G75*
G03*
X19275000Y-13211000I40000J0D01*
G01*
X19308000Y-9112000D02*
G75*
G03*
X19228000Y-9112000I-40000J0D01*
G01*
X19228000Y-9112000D02*
G75*
G03*
X19308000Y-9112000I40000J0D01*
G01*
X19308000Y-9874000D02*
G75*
G03*
X19228000Y-9874000I-40000J0D01*
G01*
X19228000Y-9874000D02*
G75*
G03*
X19308000Y-9874000I40000J0D01*
G01*
X19311500Y-7817000D02*
G75*
G03*
X19231500Y-7817000I-40000J0D01*
G01*
X19231500Y-7817000D02*
G75*
G03*
X19311500Y-7817000I40000J0D01*
G01*
X19311500Y-8579000D02*
G75*
G03*
X19231500Y-8579000I-40000J0D01*
G01*
X19231500Y-8579000D02*
G75*
G03*
X19311500Y-8579000I40000J0D01*
G01*
X19562000Y-9112000D02*
G75*
G03*
X19482000Y-9112000I-40000J0D01*
G01*
X19482000Y-9112000D02*
G75*
G03*
X19562000Y-9112000I40000J0D01*
G01*
X19562000Y-9874000D02*
G75*
G03*
X19482000Y-9874000I-40000J0D01*
G01*
X19482000Y-9874000D02*
G75*
G03*
X19562000Y-9874000I40000J0D01*
G01*
X19565500Y-7817000D02*
G75*
G03*
X19485500Y-7817000I-40000J0D01*
G01*
X19485500Y-7817000D02*
G75*
G03*
X19565500Y-7817000I40000J0D01*
G01*
X19565500Y-8579000D02*
G75*
G03*
X19485500Y-8579000I-40000J0D01*
G01*
X19485500Y-8579000D02*
G75*
G03*
X19565500Y-8579000I40000J0D01*
G01*
X19656000Y-12449000D02*
G75*
G03*
X19576000Y-12449000I-40000J0D01*
G01*
X19576000Y-12449000D02*
G75*
G03*
X19656000Y-12449000I40000J0D01*
G01*
X19656000Y-13211000D02*
G75*
G03*
X19576000Y-13211000I-40000J0D01*
G01*
X19576000Y-13211000D02*
G75*
G03*
X19656000Y-13211000I40000J0D01*
G01*
X19816000Y-9112000D02*
G75*
G03*
X19736000Y-9112000I-40000J0D01*
G01*
X19736000Y-9112000D02*
G75*
G03*
X19816000Y-9112000I40000J0D01*
G01*
X19816000Y-9874000D02*
G75*
G03*
X19736000Y-9874000I-40000J0D01*
G01*
X19736000Y-9874000D02*
G75*
G03*
X19816000Y-9874000I40000J0D01*
G01*
X19819500Y-7817000D02*
G75*
G03*
X19739500Y-7817000I-40000J0D01*
G01*
X19739500Y-7817000D02*
G75*
G03*
X19819500Y-7817000I40000J0D01*
G01*
X19819500Y-8579000D02*
G75*
G03*
X19739500Y-8579000I-40000J0D01*
G01*
X19739500Y-8579000D02*
G75*
G03*
X19819500Y-8579000I40000J0D01*
G01*
X20037000Y-12449000D02*
G75*
G03*
X19957000Y-12449000I-40000J0D01*
G01*
X19957000Y-12449000D02*
G75*
G03*
X20037000Y-12449000I40000J0D01*
G01*
X20037000Y-13211000D02*
G75*
G03*
X19957000Y-13211000I-40000J0D01*
G01*
X19957000Y-13211000D02*
G75*
G03*
X20037000Y-13211000I40000J0D01*
G01*
X20070000Y-9112000D02*
G75*
G03*
X19990000Y-9112000I-40000J0D01*
G01*
X19990000Y-9112000D02*
G75*
G03*
X20070000Y-9112000I40000J0D01*
G01*
X20070000Y-9874000D02*
G75*
G03*
X19990000Y-9874000I-40000J0D01*
G01*
X19990000Y-9874000D02*
G75*
G03*
X20070000Y-9874000I40000J0D01*
G01*
X20073500Y-7817000D02*
G75*
G03*
X19993500Y-7817000I-40000J0D01*
G01*
X19993500Y-7817000D02*
G75*
G03*
X20073500Y-7817000I40000J0D01*
G01*
X20073500Y-8579000D02*
G75*
G03*
X19993500Y-8579000I-40000J0D01*
G01*
X19993500Y-8579000D02*
G75*
G03*
X20073500Y-8579000I40000J0D01*
G01*
X20324000Y-9112000D02*
G75*
G03*
X20244000Y-9112000I-40000J0D01*
G01*
X20244000Y-9112000D02*
G75*
G03*
X20324000Y-9112000I40000J0D01*
G01*
X20324000Y-9874000D02*
G75*
G03*
X20244000Y-9874000I-40000J0D01*
G01*
X20244000Y-9874000D02*
G75*
G03*
X20324000Y-9874000I40000J0D01*
G01*
X20327500Y-7817000D02*
G75*
G03*
X20247500Y-7817000I-40000J0D01*
G01*
X20247500Y-7817000D02*
G75*
G03*
X20327500Y-7817000I40000J0D01*
G01*
X20327500Y-8579000D02*
G75*
G03*
X20247500Y-8579000I-40000J0D01*
G01*
X20247500Y-8579000D02*
G75*
G03*
X20327500Y-8579000I40000J0D01*
G01*
X20578000Y-9112000D02*
G75*
G03*
X20498000Y-9112000I-40000J0D01*
G01*
X20498000Y-9112000D02*
G75*
G03*
X20578000Y-9112000I40000J0D01*
G01*
X20578000Y-9874000D02*
G75*
G03*
X20498000Y-9874000I-40000J0D01*
G01*
X20498000Y-9874000D02*
G75*
G03*
X20578000Y-9874000I40000J0D01*
G01*
X20581500Y-7817000D02*
G75*
G03*
X20501500Y-7817000I-40000J0D01*
G01*
X20501500Y-7817000D02*
G75*
G03*
X20581500Y-7817000I40000J0D01*
G01*
X20581500Y-8579000D02*
G75*
G03*
X20501500Y-8579000I-40000J0D01*
G01*
X20501500Y-8579000D02*
G75*
G03*
X20581500Y-8579000I40000J0D01*
G01*
X20832000Y-9112000D02*
G75*
G03*
X20752000Y-9112000I-40000J0D01*
G01*
X20752000Y-9112000D02*
G75*
G03*
X20832000Y-9112000I40000J0D01*
G01*
X20832000Y-9874000D02*
G75*
G03*
X20752000Y-9874000I-40000J0D01*
G01*
X20752000Y-9874000D02*
G75*
G03*
X20832000Y-9874000I40000J0D01*
G01*
X20835500Y-7817000D02*
G75*
G03*
X20755500Y-7817000I-40000J0D01*
G01*
X20755500Y-7817000D02*
G75*
G03*
X20835500Y-7817000I40000J0D01*
G01*
X20835500Y-8579000D02*
G75*
G03*
X20755500Y-8579000I-40000J0D01*
G01*
X20755500Y-8579000D02*
G75*
G03*
X20835500Y-8579000I40000J0D01*
G01*
X21356000Y-9116000D02*
G75*
G03*
X21276000Y-9116000I-40000J0D01*
G01*
X21276000Y-9116000D02*
G75*
G03*
X21356000Y-9116000I40000J0D01*
G01*
X21356000Y-9878000D02*
G75*
G03*
X21276000Y-9878000I-40000J0D01*
G01*
X21276000Y-9878000D02*
G75*
G03*
X21356000Y-9878000I40000J0D01*
G01*
X21622600Y-10633400D02*
G75*
G03*
X21542600Y-10633400I-40000J0D01*
G01*
X21542600Y-10633400D02*
G75*
G03*
X21622600Y-10633400I40000J0D01*
G01*
X21822600Y-10633400D02*
G75*
G03*
X21742600Y-10633400I-40000J0D01*
G01*
X21742600Y-10633400D02*
G75*
G03*
X21822600Y-10633400I40000J0D01*
G01*
X21858000Y-12320000D02*
G75*
G03*
X21778000Y-12320000I-40000J0D01*
G01*
X21778000Y-12320000D02*
G75*
G03*
X21858000Y-12320000I40000J0D01*
G01*
X21858000Y-13082000D02*
G75*
G03*
X21778000Y-13082000I-40000J0D01*
G01*
X21778000Y-13082000D02*
G75*
G03*
X21858000Y-13082000I40000J0D01*
G01*
X21863000Y-11315000D02*
G75*
G03*
X21783000Y-11315000I-40000J0D01*
G01*
X21783000Y-11315000D02*
G75*
G03*
X21863000Y-11315000I40000J0D01*
G01*
X21863000Y-12077000D02*
G75*
G03*
X21783000Y-12077000I-40000J0D01*
G01*
X21783000Y-12077000D02*
G75*
G03*
X21863000Y-12077000I40000J0D01*
G01*
X21925600Y-6596800D02*
G75*
G03*
X21845600Y-6596800I-40000J0D01*
G01*
X21845600Y-6596800D02*
G75*
G03*
X21925600Y-6596800I40000J0D01*
G01*
X21925600Y-7358800D02*
G75*
G03*
X21845600Y-7358800I-40000J0D01*
G01*
X21845600Y-7358800D02*
G75*
G03*
X21925600Y-7358800I40000J0D01*
G01*
X21952000Y-9233000D02*
G75*
G03*
X21872000Y-9233000I-40000J0D01*
G01*
X21872000Y-9233000D02*
G75*
G03*
X21952000Y-9233000I40000J0D01*
G01*
X21952000Y-9995000D02*
G75*
G03*
X21872000Y-9995000I-40000J0D01*
G01*
X21872000Y-9995000D02*
G75*
G03*
X21952000Y-9995000I40000J0D01*
G01*
X21976400Y-8096000D02*
G75*
G03*
X21896400Y-8096000I-40000J0D01*
G01*
X21896400Y-8096000D02*
G75*
G03*
X21976400Y-8096000I40000J0D01*
G01*
X21976400Y-8858000D02*
G75*
G03*
X21896400Y-8858000I-40000J0D01*
G01*
X21896400Y-8858000D02*
G75*
G03*
X21976400Y-8858000I40000J0D01*
G01*
X22035000Y-10277000D02*
G75*
G03*
X21955000Y-10277000I-40000J0D01*
G01*
X21955000Y-10277000D02*
G75*
G03*
X22035000Y-10277000I40000J0D01*
G01*
X22110000Y-13495000D02*
G75*
G03*
X22030000Y-13495000I-40000J0D01*
G01*
X22030000Y-13495000D02*
G75*
G03*
X22110000Y-13495000I40000J0D01*
G01*
X22146000Y-12423000D02*
G75*
G03*
X22066000Y-12423000I-40000J0D01*
G01*
X22066000Y-12423000D02*
G75*
G03*
X22146000Y-12423000I40000J0D01*
G01*
X22146000Y-12923000D02*
G75*
G03*
X22066000Y-12923000I-40000J0D01*
G01*
X22066000Y-12923000D02*
G75*
G03*
X22146000Y-12923000I40000J0D01*
G01*
X22152000Y-11427000D02*
G75*
G03*
X22072000Y-11427000I-40000J0D01*
G01*
X22072000Y-11427000D02*
G75*
G03*
X22152000Y-11427000I40000J0D01*
G01*
X22152000Y-12189000D02*
G75*
G03*
X22072000Y-12189000I-40000J0D01*
G01*
X22072000Y-12189000D02*
G75*
G03*
X22152000Y-12189000I40000J0D01*
G01*
X22255800Y-9238400D02*
G75*
G03*
X22175800Y-9238400I-40000J0D01*
G01*
X22175800Y-9238400D02*
G75*
G03*
X22255800Y-9238400I40000J0D01*
G01*
X22255800Y-10000400D02*
G75*
G03*
X22175800Y-10000400I-40000J0D01*
G01*
X22175800Y-10000400D02*
G75*
G03*
X22255800Y-10000400I40000J0D01*
G01*
X22281200Y-6596800D02*
G75*
G03*
X22201200Y-6596800I-40000J0D01*
G01*
X22201200Y-6596800D02*
G75*
G03*
X22281200Y-6596800I40000J0D01*
G01*
X22281200Y-7358800D02*
G75*
G03*
X22201200Y-7358800I-40000J0D01*
G01*
X22201200Y-7358800D02*
G75*
G03*
X22281200Y-7358800I40000J0D01*
G01*
X22281200Y-8455000D02*
G75*
G03*
X22201200Y-8455000I-40000J0D01*
G01*
X22201200Y-8455000D02*
G75*
G03*
X22281200Y-8455000I40000J0D01*
G01*
X22281200Y-8955000D02*
G75*
G03*
X22201200Y-8955000I-40000J0D01*
G01*
X22201200Y-8955000D02*
G75*
G03*
X22281200Y-8955000I40000J0D01*
G01*
X22485000Y-11135000D02*
G75*
G03*
X22405000Y-11135000I-40000J0D01*
G01*
X22405000Y-11135000D02*
G75*
G03*
X22485000Y-11135000I40000J0D01*
G01*
X22535000Y-7836000D02*
G75*
G03*
X22455000Y-7836000I-40000J0D01*
G01*
X22455000Y-7836000D02*
G75*
G03*
X22535000Y-7836000I40000J0D01*
G01*
X22662200Y-6571400D02*
G75*
G03*
X22582200Y-6571400I-40000J0D01*
G01*
X22582200Y-6571400D02*
G75*
G03*
X22662200Y-6571400I40000J0D01*
G01*
X22662200Y-7333400D02*
G75*
G03*
X22582200Y-7333400I-40000J0D01*
G01*
X22582200Y-7333400D02*
G75*
G03*
X22662200Y-7333400I40000J0D01*
G01*
X22797000Y-10277000D02*
G75*
G03*
X22717000Y-10277000I-40000J0D01*
G01*
X22717000Y-10277000D02*
G75*
G03*
X22797000Y-10277000I40000J0D01*
G01*
X22872000Y-13495000D02*
G75*
G03*
X22792000Y-13495000I-40000J0D01*
G01*
X22792000Y-13495000D02*
G75*
G03*
X22872000Y-13495000I40000J0D01*
G01*
X22992400Y-6564000D02*
G75*
G03*
X22912400Y-6564000I-40000J0D01*
G01*
X22912400Y-6564000D02*
G75*
G03*
X22992400Y-6564000I40000J0D01*
G01*
X22992400Y-7326000D02*
G75*
G03*
X22912400Y-7326000I-40000J0D01*
G01*
X22912400Y-7326000D02*
G75*
G03*
X22992400Y-7326000I40000J0D01*
G01*
X23029000Y-10275000D02*
G75*
G03*
X22949000Y-10275000I-40000J0D01*
G01*
X22949000Y-10275000D02*
G75*
G03*
X23029000Y-10275000I40000J0D01*
G01*
X23113000Y-13505000D02*
G75*
G03*
X23033000Y-13505000I-40000J0D01*
G01*
X23033000Y-13505000D02*
G75*
G03*
X23113000Y-13505000I40000J0D01*
G01*
X23247000Y-11135000D02*
G75*
G03*
X23167000Y-11135000I-40000J0D01*
G01*
X23167000Y-11135000D02*
G75*
G03*
X23247000Y-11135000I40000J0D01*
G01*
X23297000Y-7836000D02*
G75*
G03*
X23217000Y-7836000I-40000J0D01*
G01*
X23217000Y-7836000D02*
G75*
G03*
X23297000Y-7836000I40000J0D01*
G01*
X23791000Y-10275000D02*
G75*
G03*
X23711000Y-10275000I-40000J0D01*
G01*
X23711000Y-10275000D02*
G75*
G03*
X23791000Y-10275000I40000J0D01*
G01*
X23875000Y-13505000D02*
G75*
G03*
X23795000Y-13505000I-40000J0D01*
G01*
X23795000Y-13505000D02*
G75*
G03*
X23875000Y-13505000I40000J0D01*
G01*
X9800000Y-6517000D02*
X9800000Y-6607000D01*
X9755000Y-6562000D02*
X9845000Y-6562000D01*
X10054000Y-6517000D02*
X10054000Y-6607000D01*
X10009000Y-6562000D02*
X10099000Y-6562000D01*
X23568000Y-10746000D02*
X23568000Y-10836000D01*
X23523000Y-10791000D02*
X23613000Y-10791000D01*
X23568000Y-11000000D02*
X23568000Y-11090000D01*
X23523000Y-11045000D02*
X23613000Y-11045000D01*
X23609000Y-7465000D02*
X23609000Y-7555000D01*
X23564000Y-7510000D02*
X23654000Y-7510000D01*
X23609000Y-7719000D02*
X23609000Y-7809000D01*
X23564000Y-7764000D02*
X23654000Y-7764000D01*
X5761356Y-8839356D02*
X5761356Y-8768644D01*
X5690644Y-8768644D01*
X5690644Y-8839356D01*
X5761356Y-8839356D01*
X5770356Y-9605356D02*
X5770356Y-9534644D01*
X5699644Y-9534644D01*
X5699644Y-9605356D01*
X5770356Y-9605356D01*
X5771356Y-9220356D02*
X5771356Y-9149644D01*
X5700644Y-9149644D01*
X5700644Y-9220356D01*
X5771356Y-9220356D01*
X5771356Y-9975356D02*
X5771356Y-9904644D01*
X5700644Y-9904644D01*
X5700644Y-9975356D01*
X5771356Y-9975356D01*
X6015356Y-8839356D02*
X6015356Y-8768644D01*
X5944644Y-8768644D01*
X5944644Y-8839356D01*
X6015356Y-8839356D01*
X6024356Y-9605356D02*
X6024356Y-9534644D01*
X5953644Y-9534644D01*
X5953644Y-9605356D01*
X6024356Y-9605356D01*
X6025356Y-9220356D02*
X6025356Y-9149644D01*
X5954644Y-9149644D01*
X5954644Y-9220356D01*
X6025356Y-9220356D01*
X6025356Y-9975356D02*
X6025356Y-9904644D01*
X5954644Y-9904644D01*
X5954644Y-9975356D01*
X6025356Y-9975356D01*
X6302356Y-6941356D02*
X6302356Y-6870644D01*
X6231644Y-6870644D01*
X6231644Y-6941356D01*
X6302356Y-6941356D01*
X6556356Y-6941356D02*
X6556356Y-6870644D01*
X6485644Y-6870644D01*
X6485644Y-6941356D01*
X6556356Y-6941356D01*
X6810356Y-6941356D02*
X6810356Y-6870644D01*
X6739644Y-6870644D01*
X6739644Y-6941356D01*
X6810356Y-6941356D01*
X7064356Y-6941356D02*
X7064356Y-6870644D01*
X6993644Y-6870644D01*
X6993644Y-6941356D01*
X7064356Y-6941356D01*
X7495356Y-14381356D02*
X7495356Y-14310644D01*
X7424644Y-14310644D01*
X7424644Y-14381356D01*
X7495356Y-14381356D01*
X7749356Y-14381356D02*
X7749356Y-14310644D01*
X7678644Y-14310644D01*
X7678644Y-14381356D01*
X7749356Y-14381356D01*
X8003356Y-14381356D02*
X8003356Y-14310644D01*
X7932644Y-14310644D01*
X7932644Y-14381356D01*
X8003356Y-14381356D01*
X8098356Y-6920356D02*
X8098356Y-6849644D01*
X8027644Y-6849644D01*
X8027644Y-6920356D01*
X8098356Y-6920356D01*
X8098356Y-7174356D02*
X8098356Y-7103644D01*
X8027644Y-7103644D01*
X8027644Y-7174356D01*
X8098356Y-7174356D01*
X8098356Y-7428356D02*
X8098356Y-7357644D01*
X8027644Y-7357644D01*
X8027644Y-7428356D01*
X8098356Y-7428356D01*
X8098356Y-7682356D02*
X8098356Y-7611644D01*
X8027644Y-7611644D01*
X8027644Y-7682356D01*
X8098356Y-7682356D01*
X8098356Y-7936356D02*
X8098356Y-7865644D01*
X8027644Y-7865644D01*
X8027644Y-7936356D01*
X8098356Y-7936356D01*
X8257356Y-14381356D02*
X8257356Y-14310644D01*
X8186644Y-14310644D01*
X8186644Y-14381356D01*
X8257356Y-14381356D01*
X8352356Y-6920356D02*
X8352356Y-6849644D01*
X8281644Y-6849644D01*
X8281644Y-6920356D01*
X8352356Y-6920356D01*
X8352356Y-7174356D02*
X8352356Y-7103644D01*
X8281644Y-7103644D01*
X8281644Y-7174356D01*
X8352356Y-7174356D01*
X8352356Y-7428356D02*
X8352356Y-7357644D01*
X8281644Y-7357644D01*
X8281644Y-7428356D01*
X8352356Y-7428356D01*
X8352356Y-7682356D02*
X8352356Y-7611644D01*
X8281644Y-7611644D01*
X8281644Y-7682356D01*
X8352356Y-7682356D01*
X8352356Y-7936356D02*
X8352356Y-7865644D01*
X8281644Y-7865644D01*
X8281644Y-7936356D01*
X8352356Y-7936356D01*
X8511356Y-14381356D02*
X8511356Y-14310644D01*
X8440644Y-14310644D01*
X8440644Y-14381356D01*
X8511356Y-14381356D01*
X8765356Y-14381356D02*
X8765356Y-14310644D01*
X8694644Y-14310644D01*
X8694644Y-14381356D01*
X8765356Y-14381356D01*
X9019356Y-14381356D02*
X9019356Y-14310644D01*
X8948644Y-14310644D01*
X8948644Y-14381356D01*
X9019356Y-14381356D01*
X9273356Y-14381356D02*
X9273356Y-14310644D01*
X9202644Y-14310644D01*
X9202644Y-14381356D01*
X9273356Y-14381356D01*
X9527356Y-14381356D02*
X9527356Y-14310644D01*
X9456644Y-14310644D01*
X9456644Y-14381356D01*
X9527356Y-14381356D01*
X9781356Y-14381356D02*
X9781356Y-14310644D01*
X9710644Y-14310644D01*
X9710644Y-14381356D01*
X9781356Y-14381356D01*
X10035356Y-14381356D02*
X10035356Y-14310644D01*
X9964644Y-14310644D01*
X9964644Y-14381356D01*
X10035356Y-14381356D01*
X10289356Y-14381356D02*
X10289356Y-14310644D01*
X10218644Y-14310644D01*
X10218644Y-14381356D01*
X10289356Y-14381356D01*
X10543356Y-14381356D02*
X10543356Y-14310644D01*
X10472644Y-14310644D01*
X10472644Y-14381356D01*
X10543356Y-14381356D01*
X10797356Y-14381356D02*
X10797356Y-14310644D01*
X10726644Y-14310644D01*
X10726644Y-14381356D01*
X10797356Y-14381356D01*
X11051356Y-14381356D02*
X11051356Y-14310644D01*
X10980644Y-14310644D01*
X10980644Y-14381356D01*
X11051356Y-14381356D01*
X11305356Y-14381356D02*
X11305356Y-14310644D01*
X11234644Y-14310644D01*
X11234644Y-14381356D01*
X11305356Y-14381356D01*
X12323356Y-11751356D02*
X12323356Y-11680644D01*
X12252644Y-11680644D01*
X12252644Y-11751356D01*
X12323356Y-11751356D01*
X12323356Y-12005356D02*
X12323356Y-11934644D01*
X12252644Y-11934644D01*
X12252644Y-12005356D01*
X12323356Y-12005356D01*
X12592356Y-6467356D02*
X12592356Y-6396644D01*
X12521644Y-6396644D01*
X12521644Y-6467356D01*
X12592356Y-6467356D01*
X12710356Y-11751356D02*
X12710356Y-11680644D01*
X12639644Y-11680644D01*
X12639644Y-11751356D01*
X12710356Y-11751356D01*
X12710356Y-12005356D02*
X12710356Y-11934644D01*
X12639644Y-11934644D01*
X12639644Y-12005356D01*
X12710356Y-12005356D01*
X12846356Y-6467356D02*
X12846356Y-6396644D01*
X12775644Y-6396644D01*
X12775644Y-6467356D01*
X12846356Y-6467356D01*
X13093356Y-11755356D02*
X13093356Y-11684644D01*
X13022644Y-11684644D01*
X13022644Y-11755356D01*
X13093356Y-11755356D01*
X13093356Y-12009356D02*
X13093356Y-11938644D01*
X13022644Y-11938644D01*
X13022644Y-12009356D01*
X13093356Y-12009356D01*
X13491356Y-11751356D02*
X13491356Y-11680644D01*
X13420644Y-11680644D01*
X13420644Y-11751356D01*
X13491356Y-11751356D01*
X13491356Y-12005356D02*
X13491356Y-11934644D01*
X13420644Y-11934644D01*
X13420644Y-12005356D01*
X13491356Y-12005356D01*
X14469356Y-8970356D02*
X14469356Y-8899644D01*
X14398644Y-8899644D01*
X14398644Y-8970356D01*
X14469356Y-8970356D01*
X14469356Y-9224356D02*
X14469356Y-9153644D01*
X14398644Y-9153644D01*
X14398644Y-9224356D01*
X14469356Y-9224356D01*
X14469356Y-9478356D02*
X14469356Y-9407644D01*
X14398644Y-9407644D01*
X14398644Y-9478356D01*
X14469356Y-9478356D01*
X14857356Y-8488356D02*
X14857356Y-8417644D01*
X14786644Y-8417644D01*
X14786644Y-8488356D01*
X14857356Y-8488356D01*
X14857356Y-8742356D02*
X14857356Y-8671644D01*
X14786644Y-8671644D01*
X14786644Y-8742356D01*
X14857356Y-8742356D01*
X14985356Y-7947356D02*
X14985356Y-7876644D01*
X14914644Y-7876644D01*
X14914644Y-7947356D01*
X14985356Y-7947356D01*
X15237356Y-8502356D02*
X15237356Y-8431644D01*
X15166644Y-8431644D01*
X15166644Y-8502356D01*
X15237356Y-8502356D01*
X15237356Y-8756356D02*
X15237356Y-8685644D01*
X15166644Y-8685644D01*
X15166644Y-8756356D01*
X15237356Y-8756356D01*
X15239356Y-7947356D02*
X15239356Y-7876644D01*
X15168644Y-7876644D01*
X15168644Y-7947356D01*
X15239356Y-7947356D01*
X15288356Y-6892356D02*
X15288356Y-6821644D01*
X15217644Y-6821644D01*
X15217644Y-6892356D01*
X15288356Y-6892356D01*
X15288356Y-7146356D02*
X15288356Y-7075644D01*
X15217644Y-7075644D01*
X15217644Y-7146356D01*
X15288356Y-7146356D01*
X15288356Y-7400356D02*
X15288356Y-7329644D01*
X15217644Y-7329644D01*
X15217644Y-7400356D01*
X15288356Y-7400356D01*
X15542356Y-6892356D02*
X15542356Y-6821644D01*
X15471644Y-6821644D01*
X15471644Y-6892356D01*
X15542356Y-6892356D01*
X15542356Y-7146356D02*
X15542356Y-7075644D01*
X15471644Y-7075644D01*
X15471644Y-7146356D01*
X15542356Y-7146356D01*
X15542356Y-7400356D02*
X15542356Y-7329644D01*
X15471644Y-7329644D01*
X15471644Y-7400356D01*
X15542356Y-7400356D01*
X15631356Y-8506356D02*
X15631356Y-8435644D01*
X15560644Y-8435644D01*
X15560644Y-8506356D01*
X15631356Y-8506356D01*
X15631356Y-8760356D02*
X15631356Y-8689644D01*
X15560644Y-8689644D01*
X15560644Y-8760356D01*
X15631356Y-8760356D01*
X16011356Y-8502356D02*
X16011356Y-8431644D01*
X15940644Y-8431644D01*
X15940644Y-8502356D01*
X16011356Y-8502356D01*
X16011356Y-8756356D02*
X16011356Y-8685644D01*
X15940644Y-8685644D01*
X15940644Y-8756356D01*
X16011356Y-8756356D01*
X16385356Y-7839356D02*
X16385356Y-7768644D01*
X16314644Y-7768644D01*
X16314644Y-7839356D01*
X16385356Y-7839356D01*
X16385356Y-8093356D02*
X16385356Y-8022644D01*
X16314644Y-8022644D01*
X16314644Y-8093356D01*
X16385356Y-8093356D01*
X16385356Y-8347356D02*
X16385356Y-8276644D01*
X16314644Y-8276644D01*
X16314644Y-8347356D01*
X16385356Y-8347356D01*
X17584356Y-7330356D02*
X17584356Y-7259644D01*
X17513644Y-7259644D01*
X17513644Y-7330356D01*
X17584356Y-7330356D01*
X17838356Y-7330356D02*
X17838356Y-7259644D01*
X17767644Y-7259644D01*
X17767644Y-7330356D01*
X17838356Y-7330356D01*
X18092356Y-7330356D02*
X18092356Y-7259644D01*
X18021644Y-7259644D01*
X18021644Y-7330356D01*
X18092356Y-7330356D01*
X18878356Y-11695356D02*
X18878356Y-11624644D01*
X18807644Y-11624644D01*
X18807644Y-11695356D01*
X18878356Y-11695356D01*
X18878356Y-11949356D02*
X18878356Y-11878644D01*
X18807644Y-11878644D01*
X18807644Y-11949356D01*
X18878356Y-11949356D01*
X19272356Y-11699356D02*
X19272356Y-11628644D01*
X19201644Y-11628644D01*
X19201644Y-11699356D01*
X19272356Y-11699356D01*
X19272356Y-11953356D02*
X19272356Y-11882644D01*
X19201644Y-11882644D01*
X19201644Y-11953356D01*
X19272356Y-11953356D01*
X19664356Y-11698356D02*
X19664356Y-11627644D01*
X19593644Y-11627644D01*
X19593644Y-11698356D01*
X19664356Y-11698356D01*
X19664356Y-11952356D02*
X19664356Y-11881644D01*
X19593644Y-11881644D01*
X19593644Y-11952356D01*
X19664356Y-11952356D01*
X20055356Y-11696356D02*
X20055356Y-11625644D01*
X19984644Y-11625644D01*
X19984644Y-11696356D01*
X20055356Y-11696356D01*
X20055356Y-11950356D02*
X20055356Y-11879644D01*
X19984644Y-11879644D01*
X19984644Y-11950356D01*
X20055356Y-11950356D01*
X21296356Y-8355356D02*
X21296356Y-8284644D01*
X21225644Y-8284644D01*
X21225644Y-8355356D01*
X21296356Y-8355356D01*
X21296356Y-8609356D02*
X21296356Y-8538644D01*
X21225644Y-8538644D01*
X21225644Y-8609356D01*
X21296356Y-8609356D01*
D12*
X7272000Y-8649000D02*
X7327000Y-8594000D01*
X7272000Y-8539000D01*
X7217000Y-8594000D01*
X7272000Y-8649000D01*
X7272000Y-9099000D02*
X7327000Y-9044000D01*
X7272000Y-8989000D01*
X7217000Y-9044000D01*
X7272000Y-9099000D01*
X7922000Y-8649000D02*
X7977000Y-8594000D01*
X7922000Y-8539000D01*
X7867000Y-8594000D01*
X7922000Y-8649000D01*
X7922000Y-9099000D02*
X7977000Y-9044000D01*
X7922000Y-8989000D01*
X7867000Y-9044000D01*
X7922000Y-9099000D01*
D11*
X5353777Y-16067984D02*
X5353777Y-15867984D01*
X5353777Y-15867984D02*
X5401396Y-15867984D01*
X5401396Y-15867984D02*
X5429967Y-15877508D01*
X5429967Y-15877508D02*
X5449015Y-15896555D01*
X5449015Y-15896555D02*
X5458539Y-15915603D01*
X5458539Y-15915603D02*
X5468063Y-15953698D01*
X5468063Y-15953698D02*
X5468063Y-15982269D01*
X5468063Y-15982269D02*
X5458539Y-16020365D01*
X5458539Y-16020365D02*
X5449015Y-16039412D01*
X5449015Y-16039412D02*
X5429967Y-16058460D01*
X5429967Y-16058460D02*
X5401396Y-16067984D01*
X5401396Y-16067984D02*
X5353777Y-16067984D01*
X5553777Y-16067984D02*
X5553777Y-15934650D01*
X5553777Y-15972746D02*
X5563301Y-15953698D01*
X5563301Y-15953698D02*
X5572824Y-15944174D01*
X5572824Y-15944174D02*
X5591872Y-15934650D01*
X5591872Y-15934650D02*
X5610920Y-15934650D01*
X5677586Y-16067984D02*
X5677586Y-15934650D01*
X5677586Y-15867984D02*
X5668062Y-15877508D01*
X5668062Y-15877508D02*
X5677586Y-15887031D01*
X5677586Y-15887031D02*
X5687110Y-15877508D01*
X5687110Y-15877508D02*
X5677586Y-15867984D01*
X5677586Y-15867984D02*
X5677586Y-15887031D01*
X5801396Y-16067984D02*
X5782348Y-16058460D01*
X5782348Y-16058460D02*
X5772824Y-16039412D01*
X5772824Y-16039412D02*
X5772824Y-15867984D01*
X5906158Y-16067984D02*
X5887110Y-16058460D01*
X5887110Y-16058460D02*
X5877586Y-16039412D01*
X5877586Y-16039412D02*
X5877586Y-15867984D01*
X6134729Y-16067984D02*
X6134729Y-15867984D01*
X6134729Y-15867984D02*
X6201396Y-16010841D01*
X6201396Y-16010841D02*
X6268062Y-15867984D01*
X6268062Y-15867984D02*
X6268062Y-16067984D01*
X6449015Y-16067984D02*
X6449015Y-15963222D01*
X6449015Y-15963222D02*
X6439491Y-15944174D01*
X6439491Y-15944174D02*
X6420443Y-15934650D01*
X6420443Y-15934650D02*
X6382348Y-15934650D01*
X6382348Y-15934650D02*
X6363301Y-15944174D01*
X6449015Y-16058460D02*
X6429967Y-16067984D01*
X6429967Y-16067984D02*
X6382348Y-16067984D01*
X6382348Y-16067984D02*
X6363301Y-16058460D01*
X6363301Y-16058460D02*
X6353777Y-16039412D01*
X6353777Y-16039412D02*
X6353777Y-16020365D01*
X6353777Y-16020365D02*
X6363301Y-16001317D01*
X6363301Y-16001317D02*
X6382348Y-15991793D01*
X6382348Y-15991793D02*
X6429967Y-15991793D01*
X6429967Y-15991793D02*
X6449015Y-15982269D01*
X6544253Y-15934650D02*
X6544253Y-16134650D01*
X6544253Y-15944174D02*
X6563301Y-15934650D01*
X6563301Y-15934650D02*
X6601396Y-15934650D01*
X6601396Y-15934650D02*
X6620443Y-15944174D01*
X6620443Y-15944174D02*
X6629967Y-15953698D01*
X6629967Y-15953698D02*
X6639491Y-15972746D01*
X6639491Y-15972746D02*
X6639491Y-16029888D01*
X6639491Y-16029888D02*
X6629967Y-16048936D01*
X6629967Y-16048936D02*
X6620443Y-16058460D01*
X6620443Y-16058460D02*
X6601396Y-16067984D01*
X6601396Y-16067984D02*
X6563301Y-16067984D01*
X6563301Y-16067984D02*
X6544253Y-16058460D01*
X6725205Y-16048936D02*
X6734729Y-16058460D01*
X6734729Y-16058460D02*
X6725205Y-16067984D01*
X6725205Y-16067984D02*
X6715682Y-16058460D01*
X6715682Y-16058460D02*
X6725205Y-16048936D01*
X6725205Y-16048936D02*
X6725205Y-16067984D01*
X6725205Y-15944174D02*
X6734729Y-15953698D01*
X6734729Y-15953698D02*
X6725205Y-15963222D01*
X6725205Y-15963222D02*
X6715682Y-15953698D01*
X6715682Y-15953698D02*
X6725205Y-15944174D01*
X6725205Y-15944174D02*
X6725205Y-15963222D01*
D10*
X5053000Y-16376500D02*
X5093000Y-16416500D01*
X5093000Y-16376500D02*
X5053000Y-16416500D01*
D11*
X5391872Y-16287984D02*
X5410920Y-16287984D01*
X5410920Y-16287984D02*
X5429967Y-16297508D01*
X5429967Y-16297508D02*
X5439491Y-16307031D01*
X5439491Y-16307031D02*
X5449015Y-16326079D01*
X5449015Y-16326079D02*
X5458539Y-16364174D01*
X5458539Y-16364174D02*
X5458539Y-16411793D01*
X5458539Y-16411793D02*
X5449015Y-16449888D01*
X5449015Y-16449888D02*
X5439491Y-16468936D01*
X5439491Y-16468936D02*
X5429967Y-16478460D01*
X5429967Y-16478460D02*
X5410920Y-16487984D01*
X5410920Y-16487984D02*
X5391872Y-16487984D01*
X5391872Y-16487984D02*
X5372824Y-16478460D01*
X5372824Y-16478460D02*
X5363301Y-16468936D01*
X5363301Y-16468936D02*
X5353777Y-16449888D01*
X5353777Y-16449888D02*
X5344253Y-16411793D01*
X5344253Y-16411793D02*
X5344253Y-16364174D01*
X5344253Y-16364174D02*
X5353777Y-16326079D01*
X5353777Y-16326079D02*
X5363301Y-16307031D01*
X5363301Y-16307031D02*
X5372824Y-16297508D01*
X5372824Y-16297508D02*
X5391872Y-16287984D01*
X5544253Y-16468936D02*
X5553777Y-16478460D01*
X5553777Y-16478460D02*
X5544253Y-16487984D01*
X5544253Y-16487984D02*
X5534729Y-16478460D01*
X5534729Y-16478460D02*
X5544253Y-16468936D01*
X5544253Y-16468936D02*
X5544253Y-16487984D01*
X5725205Y-16354650D02*
X5725205Y-16487984D01*
X5677586Y-16278460D02*
X5629967Y-16421317D01*
X5629967Y-16421317D02*
X5753777Y-16421317D01*
X5868062Y-16287984D02*
X5887110Y-16287984D01*
X5887110Y-16287984D02*
X5906158Y-16297508D01*
X5906158Y-16297508D02*
X5915682Y-16307031D01*
X5915682Y-16307031D02*
X5925205Y-16326079D01*
X5925205Y-16326079D02*
X5934729Y-16364174D01*
X5934729Y-16364174D02*
X5934729Y-16411793D01*
X5934729Y-16411793D02*
X5925205Y-16449888D01*
X5925205Y-16449888D02*
X5915682Y-16468936D01*
X5915682Y-16468936D02*
X5906158Y-16478460D01*
X5906158Y-16478460D02*
X5887110Y-16487984D01*
X5887110Y-16487984D02*
X5868062Y-16487984D01*
X5868062Y-16487984D02*
X5849015Y-16478460D01*
X5849015Y-16478460D02*
X5839491Y-16468936D01*
X5839491Y-16468936D02*
X5829967Y-16449888D01*
X5829967Y-16449888D02*
X5820443Y-16411793D01*
X5820443Y-16411793D02*
X5820443Y-16364174D01*
X5820443Y-16364174D02*
X5829967Y-16326079D01*
X5829967Y-16326079D02*
X5839491Y-16307031D01*
X5839491Y-16307031D02*
X5849015Y-16297508D01*
X5849015Y-16297508D02*
X5868062Y-16287984D01*
X6058539Y-16287984D02*
X6077586Y-16287984D01*
X6077586Y-16287984D02*
X6096634Y-16297508D01*
X6096634Y-16297508D02*
X6106158Y-16307031D01*
X6106158Y-16307031D02*
X6115682Y-16326079D01*
X6115682Y-16326079D02*
X6125205Y-16364174D01*
X6125205Y-16364174D02*
X6125205Y-16411793D01*
X6125205Y-16411793D02*
X6115682Y-16449888D01*
X6115682Y-16449888D02*
X6106158Y-16468936D01*
X6106158Y-16468936D02*
X6096634Y-16478460D01*
X6096634Y-16478460D02*
X6077586Y-16487984D01*
X6077586Y-16487984D02*
X6058539Y-16487984D01*
X6058539Y-16487984D02*
X6039491Y-16478460D01*
X6039491Y-16478460D02*
X6029967Y-16468936D01*
X6029967Y-16468936D02*
X6020443Y-16449888D01*
X6020443Y-16449888D02*
X6010920Y-16411793D01*
X6010920Y-16411793D02*
X6010920Y-16364174D01*
X6010920Y-16364174D02*
X6020443Y-16326079D01*
X6020443Y-16326079D02*
X6029967Y-16307031D01*
X6029967Y-16307031D02*
X6039491Y-16297508D01*
X6039491Y-16297508D02*
X6058539Y-16287984D01*
X6210920Y-16487984D02*
X6210920Y-16354650D01*
X6210920Y-16373698D02*
X6220443Y-16364174D01*
X6220443Y-16364174D02*
X6239491Y-16354650D01*
X6239491Y-16354650D02*
X6268063Y-16354650D01*
X6268063Y-16354650D02*
X6287110Y-16364174D01*
X6287110Y-16364174D02*
X6296634Y-16383222D01*
X6296634Y-16383222D02*
X6296634Y-16487984D01*
X6296634Y-16383222D02*
X6306158Y-16364174D01*
X6306158Y-16364174D02*
X6325205Y-16354650D01*
X6325205Y-16354650D02*
X6353777Y-16354650D01*
X6353777Y-16354650D02*
X6372824Y-16364174D01*
X6372824Y-16364174D02*
X6382348Y-16383222D01*
X6382348Y-16383222D02*
X6382348Y-16487984D01*
X6477586Y-16487984D02*
X6477586Y-16354650D01*
X6477586Y-16373698D02*
X6487110Y-16364174D01*
X6487110Y-16364174D02*
X6506158Y-16354650D01*
X6506158Y-16354650D02*
X6534729Y-16354650D01*
X6534729Y-16354650D02*
X6553777Y-16364174D01*
X6553777Y-16364174D02*
X6563301Y-16383222D01*
X6563301Y-16383222D02*
X6563301Y-16487984D01*
X6563301Y-16383222D02*
X6572824Y-16364174D01*
X6572824Y-16364174D02*
X6591872Y-16354650D01*
X6591872Y-16354650D02*
X6620443Y-16354650D01*
X6620443Y-16354650D02*
X6639491Y-16364174D01*
X6639491Y-16364174D02*
X6649015Y-16383222D01*
X6649015Y-16383222D02*
X6649015Y-16487984D01*
X7039491Y-16278460D02*
X6868063Y-16535603D01*
X7296634Y-16287984D02*
X7315682Y-16287984D01*
X7315682Y-16287984D02*
X7334729Y-16297508D01*
X7334729Y-16297508D02*
X7344253Y-16307031D01*
X7344253Y-16307031D02*
X7353777Y-16326079D01*
X7353777Y-16326079D02*
X7363301Y-16364174D01*
X7363301Y-16364174D02*
X7363301Y-16411793D01*
X7363301Y-16411793D02*
X7353777Y-16449888D01*
X7353777Y-16449888D02*
X7344253Y-16468936D01*
X7344253Y-16468936D02*
X7334729Y-16478460D01*
X7334729Y-16478460D02*
X7315682Y-16487984D01*
X7315682Y-16487984D02*
X7296634Y-16487984D01*
X7296634Y-16487984D02*
X7277586Y-16478460D01*
X7277586Y-16478460D02*
X7268063Y-16468936D01*
X7268063Y-16468936D02*
X7258539Y-16449888D01*
X7258539Y-16449888D02*
X7249015Y-16411793D01*
X7249015Y-16411793D02*
X7249015Y-16364174D01*
X7249015Y-16364174D02*
X7258539Y-16326079D01*
X7258539Y-16326079D02*
X7268063Y-16307031D01*
X7268063Y-16307031D02*
X7277586Y-16297508D01*
X7277586Y-16297508D02*
X7296634Y-16287984D01*
X7449015Y-16468936D02*
X7458539Y-16478460D01*
X7458539Y-16478460D02*
X7449015Y-16487984D01*
X7449015Y-16487984D02*
X7439491Y-16478460D01*
X7439491Y-16478460D02*
X7449015Y-16468936D01*
X7449015Y-16468936D02*
X7449015Y-16487984D01*
X7582348Y-16287984D02*
X7601396Y-16287984D01*
X7601396Y-16287984D02*
X7620444Y-16297508D01*
X7620444Y-16297508D02*
X7629967Y-16307031D01*
X7629967Y-16307031D02*
X7639491Y-16326079D01*
X7639491Y-16326079D02*
X7649015Y-16364174D01*
X7649015Y-16364174D02*
X7649015Y-16411793D01*
X7649015Y-16411793D02*
X7639491Y-16449888D01*
X7639491Y-16449888D02*
X7629967Y-16468936D01*
X7629967Y-16468936D02*
X7620444Y-16478460D01*
X7620444Y-16478460D02*
X7601396Y-16487984D01*
X7601396Y-16487984D02*
X7582348Y-16487984D01*
X7582348Y-16487984D02*
X7563301Y-16478460D01*
X7563301Y-16478460D02*
X7553777Y-16468936D01*
X7553777Y-16468936D02*
X7544253Y-16449888D01*
X7544253Y-16449888D02*
X7534729Y-16411793D01*
X7534729Y-16411793D02*
X7534729Y-16364174D01*
X7534729Y-16364174D02*
X7544253Y-16326079D01*
X7544253Y-16326079D02*
X7553777Y-16307031D01*
X7553777Y-16307031D02*
X7563301Y-16297508D01*
X7563301Y-16297508D02*
X7582348Y-16287984D01*
X7839491Y-16487984D02*
X7725206Y-16487984D01*
X7782348Y-16487984D02*
X7782348Y-16287984D01*
X7782348Y-16287984D02*
X7763301Y-16316555D01*
X7763301Y-16316555D02*
X7744253Y-16335603D01*
X7744253Y-16335603D02*
X7725206Y-16345127D01*
X8020444Y-16287984D02*
X7925206Y-16287984D01*
X7925206Y-16287984D02*
X7915682Y-16383222D01*
X7915682Y-16383222D02*
X7925206Y-16373698D01*
X7925206Y-16373698D02*
X7944253Y-16364174D01*
X7944253Y-16364174D02*
X7991872Y-16364174D01*
X7991872Y-16364174D02*
X8010920Y-16373698D01*
X8010920Y-16373698D02*
X8020444Y-16383222D01*
X8020444Y-16383222D02*
X8029967Y-16402269D01*
X8029967Y-16402269D02*
X8029967Y-16449888D01*
X8029967Y-16449888D02*
X8020444Y-16468936D01*
X8020444Y-16468936D02*
X8010920Y-16478460D01*
X8010920Y-16478460D02*
X7991872Y-16487984D01*
X7991872Y-16487984D02*
X7944253Y-16487984D01*
X7944253Y-16487984D02*
X7925206Y-16478460D01*
X7925206Y-16478460D02*
X7915682Y-16468936D01*
X8096634Y-16287984D02*
X8229967Y-16287984D01*
X8229967Y-16287984D02*
X8144253Y-16487984D01*
X8296634Y-16287984D02*
X8296634Y-16326079D01*
X8372825Y-16287984D02*
X8372825Y-16326079D01*
X8668063Y-16564174D02*
X8658539Y-16554650D01*
X8658539Y-16554650D02*
X8639491Y-16526079D01*
X8639491Y-16526079D02*
X8629968Y-16507031D01*
X8629968Y-16507031D02*
X8620444Y-16478460D01*
X8620444Y-16478460D02*
X8610920Y-16430841D01*
X8610920Y-16430841D02*
X8610920Y-16392746D01*
X8610920Y-16392746D02*
X8620444Y-16345127D01*
X8620444Y-16345127D02*
X8629968Y-16316555D01*
X8629968Y-16316555D02*
X8639491Y-16297508D01*
X8639491Y-16297508D02*
X8658539Y-16268936D01*
X8658539Y-16268936D02*
X8668063Y-16259412D01*
X8849015Y-16487984D02*
X8734730Y-16487984D01*
X8791872Y-16487984D02*
X8791872Y-16287984D01*
X8791872Y-16287984D02*
X8772825Y-16316555D01*
X8772825Y-16316555D02*
X8753777Y-16335603D01*
X8753777Y-16335603D02*
X8734730Y-16345127D01*
X8925206Y-16307031D02*
X8934730Y-16297508D01*
X8934730Y-16297508D02*
X8953777Y-16287984D01*
X8953777Y-16287984D02*
X9001396Y-16287984D01*
X9001396Y-16287984D02*
X9020444Y-16297508D01*
X9020444Y-16297508D02*
X9029968Y-16307031D01*
X9029968Y-16307031D02*
X9039491Y-16326079D01*
X9039491Y-16326079D02*
X9039491Y-16345127D01*
X9039491Y-16345127D02*
X9029968Y-16373698D01*
X9029968Y-16373698D02*
X8915682Y-16487984D01*
X8915682Y-16487984D02*
X9039491Y-16487984D01*
X9210920Y-16354650D02*
X9210920Y-16487984D01*
X9163301Y-16278460D02*
X9115682Y-16421317D01*
X9115682Y-16421317D02*
X9239491Y-16421317D01*
X9468063Y-16487984D02*
X9468063Y-16287984D01*
X9553777Y-16487984D02*
X9553777Y-16383222D01*
X9553777Y-16383222D02*
X9544253Y-16364174D01*
X9544253Y-16364174D02*
X9525206Y-16354650D01*
X9525206Y-16354650D02*
X9496634Y-16354650D01*
X9496634Y-16354650D02*
X9477587Y-16364174D01*
X9477587Y-16364174D02*
X9468063Y-16373698D01*
X9677587Y-16487984D02*
X9658539Y-16478460D01*
X9658539Y-16478460D02*
X9649015Y-16468936D01*
X9649015Y-16468936D02*
X9639492Y-16449888D01*
X9639492Y-16449888D02*
X9639492Y-16392746D01*
X9639492Y-16392746D02*
X9649015Y-16373698D01*
X9649015Y-16373698D02*
X9658539Y-16364174D01*
X9658539Y-16364174D02*
X9677587Y-16354650D01*
X9677587Y-16354650D02*
X9706158Y-16354650D01*
X9706158Y-16354650D02*
X9725206Y-16364174D01*
X9725206Y-16364174D02*
X9734730Y-16373698D01*
X9734730Y-16373698D02*
X9744253Y-16392746D01*
X9744253Y-16392746D02*
X9744253Y-16449888D01*
X9744253Y-16449888D02*
X9734730Y-16468936D01*
X9734730Y-16468936D02*
X9725206Y-16478460D01*
X9725206Y-16478460D02*
X9706158Y-16487984D01*
X9706158Y-16487984D02*
X9677587Y-16487984D01*
X9858539Y-16487984D02*
X9839492Y-16478460D01*
X9839492Y-16478460D02*
X9829968Y-16459412D01*
X9829968Y-16459412D02*
X9829968Y-16287984D01*
X10010920Y-16478460D02*
X9991873Y-16487984D01*
X9991873Y-16487984D02*
X9953777Y-16487984D01*
X9953777Y-16487984D02*
X9934730Y-16478460D01*
X9934730Y-16478460D02*
X9925206Y-16459412D01*
X9925206Y-16459412D02*
X9925206Y-16383222D01*
X9925206Y-16383222D02*
X9934730Y-16364174D01*
X9934730Y-16364174D02*
X9953777Y-16354650D01*
X9953777Y-16354650D02*
X9991873Y-16354650D01*
X9991873Y-16354650D02*
X10010920Y-16364174D01*
X10010920Y-16364174D02*
X10020444Y-16383222D01*
X10020444Y-16383222D02*
X10020444Y-16402269D01*
X10020444Y-16402269D02*
X9925206Y-16421317D01*
X10096634Y-16478460D02*
X10115682Y-16487984D01*
X10115682Y-16487984D02*
X10153777Y-16487984D01*
X10153777Y-16487984D02*
X10172825Y-16478460D01*
X10172825Y-16478460D02*
X10182349Y-16459412D01*
X10182349Y-16459412D02*
X10182349Y-16449888D01*
X10182349Y-16449888D02*
X10172825Y-16430841D01*
X10172825Y-16430841D02*
X10153777Y-16421317D01*
X10153777Y-16421317D02*
X10125206Y-16421317D01*
X10125206Y-16421317D02*
X10106158Y-16411793D01*
X10106158Y-16411793D02*
X10096634Y-16392746D01*
X10096634Y-16392746D02*
X10096634Y-16383222D01*
X10096634Y-16383222D02*
X10106158Y-16364174D01*
X10106158Y-16364174D02*
X10125206Y-16354650D01*
X10125206Y-16354650D02*
X10153777Y-16354650D01*
X10153777Y-16354650D02*
X10172825Y-16364174D01*
X10249015Y-16564174D02*
X10258539Y-16554650D01*
X10258539Y-16554650D02*
X10277587Y-16526079D01*
X10277587Y-16526079D02*
X10287111Y-16507031D01*
X10287111Y-16507031D02*
X10296634Y-16478460D01*
X10296634Y-16478460D02*
X10306158Y-16430841D01*
X10306158Y-16430841D02*
X10306158Y-16392746D01*
X10306158Y-16392746D02*
X10296634Y-16345127D01*
X10296634Y-16345127D02*
X10287111Y-16316555D01*
X10287111Y-16316555D02*
X10277587Y-16297508D01*
X10277587Y-16297508D02*
X10258539Y-16268936D01*
X10258539Y-16268936D02*
X10249015Y-16259412D01*
D10*
X5093000Y-16660500D02*
G75*
G03*
X5013000Y-16660500I-40000J0D01*
G01*
X5013000Y-16660500D02*
G75*
G03*
X5093000Y-16660500I40000J0D01*
G01*
D11*
X5391872Y-16551984D02*
X5410920Y-16551984D01*
X5410920Y-16551984D02*
X5429967Y-16561508D01*
X5429967Y-16561508D02*
X5439491Y-16571031D01*
X5439491Y-16571031D02*
X5449015Y-16590079D01*
X5449015Y-16590079D02*
X5458539Y-16628174D01*
X5458539Y-16628174D02*
X5458539Y-16675793D01*
X5458539Y-16675793D02*
X5449015Y-16713888D01*
X5449015Y-16713888D02*
X5439491Y-16732936D01*
X5439491Y-16732936D02*
X5429967Y-16742460D01*
X5429967Y-16742460D02*
X5410920Y-16751984D01*
X5410920Y-16751984D02*
X5391872Y-16751984D01*
X5391872Y-16751984D02*
X5372824Y-16742460D01*
X5372824Y-16742460D02*
X5363301Y-16732936D01*
X5363301Y-16732936D02*
X5353777Y-16713888D01*
X5353777Y-16713888D02*
X5344253Y-16675793D01*
X5344253Y-16675793D02*
X5344253Y-16628174D01*
X5344253Y-16628174D02*
X5353777Y-16590079D01*
X5353777Y-16590079D02*
X5363301Y-16571031D01*
X5363301Y-16571031D02*
X5372824Y-16561508D01*
X5372824Y-16561508D02*
X5391872Y-16551984D01*
X5544253Y-16732936D02*
X5553777Y-16742460D01*
X5553777Y-16742460D02*
X5544253Y-16751984D01*
X5544253Y-16751984D02*
X5534729Y-16742460D01*
X5534729Y-16742460D02*
X5544253Y-16732936D01*
X5544253Y-16732936D02*
X5544253Y-16751984D01*
X5668062Y-16637698D02*
X5649015Y-16628174D01*
X5649015Y-16628174D02*
X5639491Y-16618650D01*
X5639491Y-16618650D02*
X5629967Y-16599603D01*
X5629967Y-16599603D02*
X5629967Y-16590079D01*
X5629967Y-16590079D02*
X5639491Y-16571031D01*
X5639491Y-16571031D02*
X5649015Y-16561508D01*
X5649015Y-16561508D02*
X5668062Y-16551984D01*
X5668062Y-16551984D02*
X5706158Y-16551984D01*
X5706158Y-16551984D02*
X5725205Y-16561508D01*
X5725205Y-16561508D02*
X5734729Y-16571031D01*
X5734729Y-16571031D02*
X5744253Y-16590079D01*
X5744253Y-16590079D02*
X5744253Y-16599603D01*
X5744253Y-16599603D02*
X5734729Y-16618650D01*
X5734729Y-16618650D02*
X5725205Y-16628174D01*
X5725205Y-16628174D02*
X5706158Y-16637698D01*
X5706158Y-16637698D02*
X5668062Y-16637698D01*
X5668062Y-16637698D02*
X5649015Y-16647222D01*
X5649015Y-16647222D02*
X5639491Y-16656746D01*
X5639491Y-16656746D02*
X5629967Y-16675793D01*
X5629967Y-16675793D02*
X5629967Y-16713888D01*
X5629967Y-16713888D02*
X5639491Y-16732936D01*
X5639491Y-16732936D02*
X5649015Y-16742460D01*
X5649015Y-16742460D02*
X5668062Y-16751984D01*
X5668062Y-16751984D02*
X5706158Y-16751984D01*
X5706158Y-16751984D02*
X5725205Y-16742460D01*
X5725205Y-16742460D02*
X5734729Y-16732936D01*
X5734729Y-16732936D02*
X5744253Y-16713888D01*
X5744253Y-16713888D02*
X5744253Y-16675793D01*
X5744253Y-16675793D02*
X5734729Y-16656746D01*
X5734729Y-16656746D02*
X5725205Y-16647222D01*
X5725205Y-16647222D02*
X5706158Y-16637698D01*
X5868062Y-16551984D02*
X5887110Y-16551984D01*
X5887110Y-16551984D02*
X5906158Y-16561508D01*
X5906158Y-16561508D02*
X5915682Y-16571031D01*
X5915682Y-16571031D02*
X5925205Y-16590079D01*
X5925205Y-16590079D02*
X5934729Y-16628174D01*
X5934729Y-16628174D02*
X5934729Y-16675793D01*
X5934729Y-16675793D02*
X5925205Y-16713888D01*
X5925205Y-16713888D02*
X5915682Y-16732936D01*
X5915682Y-16732936D02*
X5906158Y-16742460D01*
X5906158Y-16742460D02*
X5887110Y-16751984D01*
X5887110Y-16751984D02*
X5868062Y-16751984D01*
X5868062Y-16751984D02*
X5849015Y-16742460D01*
X5849015Y-16742460D02*
X5839491Y-16732936D01*
X5839491Y-16732936D02*
X5829967Y-16713888D01*
X5829967Y-16713888D02*
X5820443Y-16675793D01*
X5820443Y-16675793D02*
X5820443Y-16628174D01*
X5820443Y-16628174D02*
X5829967Y-16590079D01*
X5829967Y-16590079D02*
X5839491Y-16571031D01*
X5839491Y-16571031D02*
X5849015Y-16561508D01*
X5849015Y-16561508D02*
X5868062Y-16551984D01*
X6058539Y-16551984D02*
X6077586Y-16551984D01*
X6077586Y-16551984D02*
X6096634Y-16561508D01*
X6096634Y-16561508D02*
X6106158Y-16571031D01*
X6106158Y-16571031D02*
X6115682Y-16590079D01*
X6115682Y-16590079D02*
X6125205Y-16628174D01*
X6125205Y-16628174D02*
X6125205Y-16675793D01*
X6125205Y-16675793D02*
X6115682Y-16713888D01*
X6115682Y-16713888D02*
X6106158Y-16732936D01*
X6106158Y-16732936D02*
X6096634Y-16742460D01*
X6096634Y-16742460D02*
X6077586Y-16751984D01*
X6077586Y-16751984D02*
X6058539Y-16751984D01*
X6058539Y-16751984D02*
X6039491Y-16742460D01*
X6039491Y-16742460D02*
X6029967Y-16732936D01*
X6029967Y-16732936D02*
X6020443Y-16713888D01*
X6020443Y-16713888D02*
X6010920Y-16675793D01*
X6010920Y-16675793D02*
X6010920Y-16628174D01*
X6010920Y-16628174D02*
X6020443Y-16590079D01*
X6020443Y-16590079D02*
X6029967Y-16571031D01*
X6029967Y-16571031D02*
X6039491Y-16561508D01*
X6039491Y-16561508D02*
X6058539Y-16551984D01*
X6210920Y-16751984D02*
X6210920Y-16618650D01*
X6210920Y-16637698D02*
X6220443Y-16628174D01*
X6220443Y-16628174D02*
X6239491Y-16618650D01*
X6239491Y-16618650D02*
X6268063Y-16618650D01*
X6268063Y-16618650D02*
X6287110Y-16628174D01*
X6287110Y-16628174D02*
X6296634Y-16647222D01*
X6296634Y-16647222D02*
X6296634Y-16751984D01*
X6296634Y-16647222D02*
X6306158Y-16628174D01*
X6306158Y-16628174D02*
X6325205Y-16618650D01*
X6325205Y-16618650D02*
X6353777Y-16618650D01*
X6353777Y-16618650D02*
X6372824Y-16628174D01*
X6372824Y-16628174D02*
X6382348Y-16647222D01*
X6382348Y-16647222D02*
X6382348Y-16751984D01*
X6477586Y-16751984D02*
X6477586Y-16618650D01*
X6477586Y-16637698D02*
X6487110Y-16628174D01*
X6487110Y-16628174D02*
X6506158Y-16618650D01*
X6506158Y-16618650D02*
X6534729Y-16618650D01*
X6534729Y-16618650D02*
X6553777Y-16628174D01*
X6553777Y-16628174D02*
X6563301Y-16647222D01*
X6563301Y-16647222D02*
X6563301Y-16751984D01*
X6563301Y-16647222D02*
X6572824Y-16628174D01*
X6572824Y-16628174D02*
X6591872Y-16618650D01*
X6591872Y-16618650D02*
X6620443Y-16618650D01*
X6620443Y-16618650D02*
X6639491Y-16628174D01*
X6639491Y-16628174D02*
X6649015Y-16647222D01*
X6649015Y-16647222D02*
X6649015Y-16751984D01*
X7039491Y-16542460D02*
X6868063Y-16799603D01*
X7296634Y-16551984D02*
X7315682Y-16551984D01*
X7315682Y-16551984D02*
X7334729Y-16561508D01*
X7334729Y-16561508D02*
X7344253Y-16571031D01*
X7344253Y-16571031D02*
X7353777Y-16590079D01*
X7353777Y-16590079D02*
X7363301Y-16628174D01*
X7363301Y-16628174D02*
X7363301Y-16675793D01*
X7363301Y-16675793D02*
X7353777Y-16713888D01*
X7353777Y-16713888D02*
X7344253Y-16732936D01*
X7344253Y-16732936D02*
X7334729Y-16742460D01*
X7334729Y-16742460D02*
X7315682Y-16751984D01*
X7315682Y-16751984D02*
X7296634Y-16751984D01*
X7296634Y-16751984D02*
X7277586Y-16742460D01*
X7277586Y-16742460D02*
X7268063Y-16732936D01*
X7268063Y-16732936D02*
X7258539Y-16713888D01*
X7258539Y-16713888D02*
X7249015Y-16675793D01*
X7249015Y-16675793D02*
X7249015Y-16628174D01*
X7249015Y-16628174D02*
X7258539Y-16590079D01*
X7258539Y-16590079D02*
X7268063Y-16571031D01*
X7268063Y-16571031D02*
X7277586Y-16561508D01*
X7277586Y-16561508D02*
X7296634Y-16551984D01*
X7449015Y-16732936D02*
X7458539Y-16742460D01*
X7458539Y-16742460D02*
X7449015Y-16751984D01*
X7449015Y-16751984D02*
X7439491Y-16742460D01*
X7439491Y-16742460D02*
X7449015Y-16732936D01*
X7449015Y-16732936D02*
X7449015Y-16751984D01*
X7582348Y-16551984D02*
X7601396Y-16551984D01*
X7601396Y-16551984D02*
X7620444Y-16561508D01*
X7620444Y-16561508D02*
X7629967Y-16571031D01*
X7629967Y-16571031D02*
X7639491Y-16590079D01*
X7639491Y-16590079D02*
X7649015Y-16628174D01*
X7649015Y-16628174D02*
X7649015Y-16675793D01*
X7649015Y-16675793D02*
X7639491Y-16713888D01*
X7639491Y-16713888D02*
X7629967Y-16732936D01*
X7629967Y-16732936D02*
X7620444Y-16742460D01*
X7620444Y-16742460D02*
X7601396Y-16751984D01*
X7601396Y-16751984D02*
X7582348Y-16751984D01*
X7582348Y-16751984D02*
X7563301Y-16742460D01*
X7563301Y-16742460D02*
X7553777Y-16732936D01*
X7553777Y-16732936D02*
X7544253Y-16713888D01*
X7544253Y-16713888D02*
X7534729Y-16675793D01*
X7534729Y-16675793D02*
X7534729Y-16628174D01*
X7534729Y-16628174D02*
X7544253Y-16590079D01*
X7544253Y-16590079D02*
X7553777Y-16571031D01*
X7553777Y-16571031D02*
X7563301Y-16561508D01*
X7563301Y-16561508D02*
X7582348Y-16551984D01*
X7715682Y-16551984D02*
X7839491Y-16551984D01*
X7839491Y-16551984D02*
X7772825Y-16628174D01*
X7772825Y-16628174D02*
X7801396Y-16628174D01*
X7801396Y-16628174D02*
X7820444Y-16637698D01*
X7820444Y-16637698D02*
X7829967Y-16647222D01*
X7829967Y-16647222D02*
X7839491Y-16666269D01*
X7839491Y-16666269D02*
X7839491Y-16713888D01*
X7839491Y-16713888D02*
X7829967Y-16732936D01*
X7829967Y-16732936D02*
X7820444Y-16742460D01*
X7820444Y-16742460D02*
X7801396Y-16751984D01*
X7801396Y-16751984D02*
X7744253Y-16751984D01*
X7744253Y-16751984D02*
X7725206Y-16742460D01*
X7725206Y-16742460D02*
X7715682Y-16732936D01*
X8029967Y-16751984D02*
X7915682Y-16751984D01*
X7972825Y-16751984D02*
X7972825Y-16551984D01*
X7972825Y-16551984D02*
X7953777Y-16580555D01*
X7953777Y-16580555D02*
X7934729Y-16599603D01*
X7934729Y-16599603D02*
X7915682Y-16609127D01*
X8210920Y-16551984D02*
X8115682Y-16551984D01*
X8115682Y-16551984D02*
X8106158Y-16647222D01*
X8106158Y-16647222D02*
X8115682Y-16637698D01*
X8115682Y-16637698D02*
X8134729Y-16628174D01*
X8134729Y-16628174D02*
X8182348Y-16628174D01*
X8182348Y-16628174D02*
X8201396Y-16637698D01*
X8201396Y-16637698D02*
X8210920Y-16647222D01*
X8210920Y-16647222D02*
X8220444Y-16666269D01*
X8220444Y-16666269D02*
X8220444Y-16713888D01*
X8220444Y-16713888D02*
X8210920Y-16732936D01*
X8210920Y-16732936D02*
X8201396Y-16742460D01*
X8201396Y-16742460D02*
X8182348Y-16751984D01*
X8182348Y-16751984D02*
X8134729Y-16751984D01*
X8134729Y-16751984D02*
X8115682Y-16742460D01*
X8115682Y-16742460D02*
X8106158Y-16732936D01*
X8296634Y-16551984D02*
X8296634Y-16590079D01*
X8372825Y-16551984D02*
X8372825Y-16590079D01*
X8668063Y-16828174D02*
X8658539Y-16818650D01*
X8658539Y-16818650D02*
X8639491Y-16790079D01*
X8639491Y-16790079D02*
X8629968Y-16771031D01*
X8629968Y-16771031D02*
X8620444Y-16742460D01*
X8620444Y-16742460D02*
X8610920Y-16694841D01*
X8610920Y-16694841D02*
X8610920Y-16656746D01*
X8610920Y-16656746D02*
X8620444Y-16609127D01*
X8620444Y-16609127D02*
X8629968Y-16580555D01*
X8629968Y-16580555D02*
X8639491Y-16561508D01*
X8639491Y-16561508D02*
X8658539Y-16532936D01*
X8658539Y-16532936D02*
X8668063Y-16523412D01*
X8725206Y-16551984D02*
X8849015Y-16551984D01*
X8849015Y-16551984D02*
X8782349Y-16628174D01*
X8782349Y-16628174D02*
X8810920Y-16628174D01*
X8810920Y-16628174D02*
X8829968Y-16637698D01*
X8829968Y-16637698D02*
X8839491Y-16647222D01*
X8839491Y-16647222D02*
X8849015Y-16666269D01*
X8849015Y-16666269D02*
X8849015Y-16713888D01*
X8849015Y-16713888D02*
X8839491Y-16732936D01*
X8839491Y-16732936D02*
X8829968Y-16742460D01*
X8829968Y-16742460D02*
X8810920Y-16751984D01*
X8810920Y-16751984D02*
X8753777Y-16751984D01*
X8753777Y-16751984D02*
X8734730Y-16742460D01*
X8734730Y-16742460D02*
X8725206Y-16732936D01*
X9039491Y-16751984D02*
X8925206Y-16751984D01*
X8982349Y-16751984D02*
X8982349Y-16551984D01*
X8982349Y-16551984D02*
X8963301Y-16580555D01*
X8963301Y-16580555D02*
X8944253Y-16599603D01*
X8944253Y-16599603D02*
X8925206Y-16609127D01*
X9134730Y-16751984D02*
X9172825Y-16751984D01*
X9172825Y-16751984D02*
X9191872Y-16742460D01*
X9191872Y-16742460D02*
X9201396Y-16732936D01*
X9201396Y-16732936D02*
X9220444Y-16704365D01*
X9220444Y-16704365D02*
X9229968Y-16666269D01*
X9229968Y-16666269D02*
X9229968Y-16590079D01*
X9229968Y-16590079D02*
X9220444Y-16571031D01*
X9220444Y-16571031D02*
X9210920Y-16561508D01*
X9210920Y-16561508D02*
X9191872Y-16551984D01*
X9191872Y-16551984D02*
X9153777Y-16551984D01*
X9153777Y-16551984D02*
X9134730Y-16561508D01*
X9134730Y-16561508D02*
X9125206Y-16571031D01*
X9125206Y-16571031D02*
X9115682Y-16590079D01*
X9115682Y-16590079D02*
X9115682Y-16637698D01*
X9115682Y-16637698D02*
X9125206Y-16656746D01*
X9125206Y-16656746D02*
X9134730Y-16666269D01*
X9134730Y-16666269D02*
X9153777Y-16675793D01*
X9153777Y-16675793D02*
X9191872Y-16675793D01*
X9191872Y-16675793D02*
X9210920Y-16666269D01*
X9210920Y-16666269D02*
X9220444Y-16656746D01*
X9220444Y-16656746D02*
X9229968Y-16637698D01*
X9468063Y-16751984D02*
X9468063Y-16551984D01*
X9553777Y-16751984D02*
X9553777Y-16647222D01*
X9553777Y-16647222D02*
X9544253Y-16628174D01*
X9544253Y-16628174D02*
X9525206Y-16618650D01*
X9525206Y-16618650D02*
X9496634Y-16618650D01*
X9496634Y-16618650D02*
X9477587Y-16628174D01*
X9477587Y-16628174D02*
X9468063Y-16637698D01*
X9677587Y-16751984D02*
X9658539Y-16742460D01*
X9658539Y-16742460D02*
X9649015Y-16732936D01*
X9649015Y-16732936D02*
X9639492Y-16713888D01*
X9639492Y-16713888D02*
X9639492Y-16656746D01*
X9639492Y-16656746D02*
X9649015Y-16637698D01*
X9649015Y-16637698D02*
X9658539Y-16628174D01*
X9658539Y-16628174D02*
X9677587Y-16618650D01*
X9677587Y-16618650D02*
X9706158Y-16618650D01*
X9706158Y-16618650D02*
X9725206Y-16628174D01*
X9725206Y-16628174D02*
X9734730Y-16637698D01*
X9734730Y-16637698D02*
X9744253Y-16656746D01*
X9744253Y-16656746D02*
X9744253Y-16713888D01*
X9744253Y-16713888D02*
X9734730Y-16732936D01*
X9734730Y-16732936D02*
X9725206Y-16742460D01*
X9725206Y-16742460D02*
X9706158Y-16751984D01*
X9706158Y-16751984D02*
X9677587Y-16751984D01*
X9858539Y-16751984D02*
X9839492Y-16742460D01*
X9839492Y-16742460D02*
X9829968Y-16723412D01*
X9829968Y-16723412D02*
X9829968Y-16551984D01*
X10010920Y-16742460D02*
X9991873Y-16751984D01*
X9991873Y-16751984D02*
X9953777Y-16751984D01*
X9953777Y-16751984D02*
X9934730Y-16742460D01*
X9934730Y-16742460D02*
X9925206Y-16723412D01*
X9925206Y-16723412D02*
X9925206Y-16647222D01*
X9925206Y-16647222D02*
X9934730Y-16628174D01*
X9934730Y-16628174D02*
X9953777Y-16618650D01*
X9953777Y-16618650D02*
X9991873Y-16618650D01*
X9991873Y-16618650D02*
X10010920Y-16628174D01*
X10010920Y-16628174D02*
X10020444Y-16647222D01*
X10020444Y-16647222D02*
X10020444Y-16666269D01*
X10020444Y-16666269D02*
X9925206Y-16685317D01*
X10096634Y-16742460D02*
X10115682Y-16751984D01*
X10115682Y-16751984D02*
X10153777Y-16751984D01*
X10153777Y-16751984D02*
X10172825Y-16742460D01*
X10172825Y-16742460D02*
X10182349Y-16723412D01*
X10182349Y-16723412D02*
X10182349Y-16713888D01*
X10182349Y-16713888D02*
X10172825Y-16694841D01*
X10172825Y-16694841D02*
X10153777Y-16685317D01*
X10153777Y-16685317D02*
X10125206Y-16685317D01*
X10125206Y-16685317D02*
X10106158Y-16675793D01*
X10106158Y-16675793D02*
X10096634Y-16656746D01*
X10096634Y-16656746D02*
X10096634Y-16647222D01*
X10096634Y-16647222D02*
X10106158Y-16628174D01*
X10106158Y-16628174D02*
X10125206Y-16618650D01*
X10125206Y-16618650D02*
X10153777Y-16618650D01*
X10153777Y-16618650D02*
X10172825Y-16628174D01*
X10249015Y-16828174D02*
X10258539Y-16818650D01*
X10258539Y-16818650D02*
X10277587Y-16790079D01*
X10277587Y-16790079D02*
X10287111Y-16771031D01*
X10287111Y-16771031D02*
X10296634Y-16742460D01*
X10296634Y-16742460D02*
X10306158Y-16694841D01*
X10306158Y-16694841D02*
X10306158Y-16656746D01*
X10306158Y-16656746D02*
X10296634Y-16609127D01*
X10296634Y-16609127D02*
X10287111Y-16580555D01*
X10287111Y-16580555D02*
X10277587Y-16561508D01*
X10277587Y-16561508D02*
X10258539Y-16532936D01*
X10258539Y-16532936D02*
X10249015Y-16523412D01*
D10*
X5048000Y-16879500D02*
X5048000Y-16969500D01*
X5003000Y-16924500D02*
X5093000Y-16924500D01*
D11*
X5391872Y-16815984D02*
X5410920Y-16815984D01*
X5410920Y-16815984D02*
X5429967Y-16825508D01*
X5429967Y-16825508D02*
X5439491Y-16835031D01*
X5439491Y-16835031D02*
X5449015Y-16854079D01*
X5449015Y-16854079D02*
X5458539Y-16892174D01*
X5458539Y-16892174D02*
X5458539Y-16939793D01*
X5458539Y-16939793D02*
X5449015Y-16977889D01*
X5449015Y-16977889D02*
X5439491Y-16996936D01*
X5439491Y-16996936D02*
X5429967Y-17006460D01*
X5429967Y-17006460D02*
X5410920Y-17015984D01*
X5410920Y-17015984D02*
X5391872Y-17015984D01*
X5391872Y-17015984D02*
X5372824Y-17006460D01*
X5372824Y-17006460D02*
X5363301Y-16996936D01*
X5363301Y-16996936D02*
X5353777Y-16977889D01*
X5353777Y-16977889D02*
X5344253Y-16939793D01*
X5344253Y-16939793D02*
X5344253Y-16892174D01*
X5344253Y-16892174D02*
X5353777Y-16854079D01*
X5353777Y-16854079D02*
X5363301Y-16835031D01*
X5363301Y-16835031D02*
X5372824Y-16825508D01*
X5372824Y-16825508D02*
X5391872Y-16815984D01*
X5544253Y-16996936D02*
X5553777Y-17006460D01*
X5553777Y-17006460D02*
X5544253Y-17015984D01*
X5544253Y-17015984D02*
X5534729Y-17006460D01*
X5534729Y-17006460D02*
X5544253Y-16996936D01*
X5544253Y-16996936D02*
X5544253Y-17015984D01*
X5649015Y-17015984D02*
X5687110Y-17015984D01*
X5687110Y-17015984D02*
X5706158Y-17006460D01*
X5706158Y-17006460D02*
X5715682Y-16996936D01*
X5715682Y-16996936D02*
X5734729Y-16968365D01*
X5734729Y-16968365D02*
X5744253Y-16930270D01*
X5744253Y-16930270D02*
X5744253Y-16854079D01*
X5744253Y-16854079D02*
X5734729Y-16835031D01*
X5734729Y-16835031D02*
X5725205Y-16825508D01*
X5725205Y-16825508D02*
X5706158Y-16815984D01*
X5706158Y-16815984D02*
X5668062Y-16815984D01*
X5668062Y-16815984D02*
X5649015Y-16825508D01*
X5649015Y-16825508D02*
X5639491Y-16835031D01*
X5639491Y-16835031D02*
X5629967Y-16854079D01*
X5629967Y-16854079D02*
X5629967Y-16901698D01*
X5629967Y-16901698D02*
X5639491Y-16920746D01*
X5639491Y-16920746D02*
X5649015Y-16930270D01*
X5649015Y-16930270D02*
X5668062Y-16939793D01*
X5668062Y-16939793D02*
X5706158Y-16939793D01*
X5706158Y-16939793D02*
X5725205Y-16930270D01*
X5725205Y-16930270D02*
X5734729Y-16920746D01*
X5734729Y-16920746D02*
X5744253Y-16901698D01*
X5868062Y-16815984D02*
X5887110Y-16815984D01*
X5887110Y-16815984D02*
X5906158Y-16825508D01*
X5906158Y-16825508D02*
X5915682Y-16835031D01*
X5915682Y-16835031D02*
X5925205Y-16854079D01*
X5925205Y-16854079D02*
X5934729Y-16892174D01*
X5934729Y-16892174D02*
X5934729Y-16939793D01*
X5934729Y-16939793D02*
X5925205Y-16977889D01*
X5925205Y-16977889D02*
X5915682Y-16996936D01*
X5915682Y-16996936D02*
X5906158Y-17006460D01*
X5906158Y-17006460D02*
X5887110Y-17015984D01*
X5887110Y-17015984D02*
X5868062Y-17015984D01*
X5868062Y-17015984D02*
X5849015Y-17006460D01*
X5849015Y-17006460D02*
X5839491Y-16996936D01*
X5839491Y-16996936D02*
X5829967Y-16977889D01*
X5829967Y-16977889D02*
X5820443Y-16939793D01*
X5820443Y-16939793D02*
X5820443Y-16892174D01*
X5820443Y-16892174D02*
X5829967Y-16854079D01*
X5829967Y-16854079D02*
X5839491Y-16835031D01*
X5839491Y-16835031D02*
X5849015Y-16825508D01*
X5849015Y-16825508D02*
X5868062Y-16815984D01*
X6058539Y-16815984D02*
X6077586Y-16815984D01*
X6077586Y-16815984D02*
X6096634Y-16825508D01*
X6096634Y-16825508D02*
X6106158Y-16835031D01*
X6106158Y-16835031D02*
X6115682Y-16854079D01*
X6115682Y-16854079D02*
X6125205Y-16892174D01*
X6125205Y-16892174D02*
X6125205Y-16939793D01*
X6125205Y-16939793D02*
X6115682Y-16977889D01*
X6115682Y-16977889D02*
X6106158Y-16996936D01*
X6106158Y-16996936D02*
X6096634Y-17006460D01*
X6096634Y-17006460D02*
X6077586Y-17015984D01*
X6077586Y-17015984D02*
X6058539Y-17015984D01*
X6058539Y-17015984D02*
X6039491Y-17006460D01*
X6039491Y-17006460D02*
X6029967Y-16996936D01*
X6029967Y-16996936D02*
X6020443Y-16977889D01*
X6020443Y-16977889D02*
X6010920Y-16939793D01*
X6010920Y-16939793D02*
X6010920Y-16892174D01*
X6010920Y-16892174D02*
X6020443Y-16854079D01*
X6020443Y-16854079D02*
X6029967Y-16835031D01*
X6029967Y-16835031D02*
X6039491Y-16825508D01*
X6039491Y-16825508D02*
X6058539Y-16815984D01*
X6210920Y-17015984D02*
X6210920Y-16882650D01*
X6210920Y-16901698D02*
X6220443Y-16892174D01*
X6220443Y-16892174D02*
X6239491Y-16882650D01*
X6239491Y-16882650D02*
X6268063Y-16882650D01*
X6268063Y-16882650D02*
X6287110Y-16892174D01*
X6287110Y-16892174D02*
X6296634Y-16911222D01*
X6296634Y-16911222D02*
X6296634Y-17015984D01*
X6296634Y-16911222D02*
X6306158Y-16892174D01*
X6306158Y-16892174D02*
X6325205Y-16882650D01*
X6325205Y-16882650D02*
X6353777Y-16882650D01*
X6353777Y-16882650D02*
X6372824Y-16892174D01*
X6372824Y-16892174D02*
X6382348Y-16911222D01*
X6382348Y-16911222D02*
X6382348Y-17015984D01*
X6477586Y-17015984D02*
X6477586Y-16882650D01*
X6477586Y-16901698D02*
X6487110Y-16892174D01*
X6487110Y-16892174D02*
X6506158Y-16882650D01*
X6506158Y-16882650D02*
X6534729Y-16882650D01*
X6534729Y-16882650D02*
X6553777Y-16892174D01*
X6553777Y-16892174D02*
X6563301Y-16911222D01*
X6563301Y-16911222D02*
X6563301Y-17015984D01*
X6563301Y-16911222D02*
X6572824Y-16892174D01*
X6572824Y-16892174D02*
X6591872Y-16882650D01*
X6591872Y-16882650D02*
X6620443Y-16882650D01*
X6620443Y-16882650D02*
X6639491Y-16892174D01*
X6639491Y-16892174D02*
X6649015Y-16911222D01*
X6649015Y-16911222D02*
X6649015Y-17015984D01*
X7039491Y-16806460D02*
X6868063Y-17063603D01*
X7296634Y-16815984D02*
X7315682Y-16815984D01*
X7315682Y-16815984D02*
X7334729Y-16825508D01*
X7334729Y-16825508D02*
X7344253Y-16835031D01*
X7344253Y-16835031D02*
X7353777Y-16854079D01*
X7353777Y-16854079D02*
X7363301Y-16892174D01*
X7363301Y-16892174D02*
X7363301Y-16939793D01*
X7363301Y-16939793D02*
X7353777Y-16977889D01*
X7353777Y-16977889D02*
X7344253Y-16996936D01*
X7344253Y-16996936D02*
X7334729Y-17006460D01*
X7334729Y-17006460D02*
X7315682Y-17015984D01*
X7315682Y-17015984D02*
X7296634Y-17015984D01*
X7296634Y-17015984D02*
X7277586Y-17006460D01*
X7277586Y-17006460D02*
X7268063Y-16996936D01*
X7268063Y-16996936D02*
X7258539Y-16977889D01*
X7258539Y-16977889D02*
X7249015Y-16939793D01*
X7249015Y-16939793D02*
X7249015Y-16892174D01*
X7249015Y-16892174D02*
X7258539Y-16854079D01*
X7258539Y-16854079D02*
X7268063Y-16835031D01*
X7268063Y-16835031D02*
X7277586Y-16825508D01*
X7277586Y-16825508D02*
X7296634Y-16815984D01*
X7449015Y-16996936D02*
X7458539Y-17006460D01*
X7458539Y-17006460D02*
X7449015Y-17015984D01*
X7449015Y-17015984D02*
X7439491Y-17006460D01*
X7439491Y-17006460D02*
X7449015Y-16996936D01*
X7449015Y-16996936D02*
X7449015Y-17015984D01*
X7582348Y-16815984D02*
X7601396Y-16815984D01*
X7601396Y-16815984D02*
X7620444Y-16825508D01*
X7620444Y-16825508D02*
X7629967Y-16835031D01*
X7629967Y-16835031D02*
X7639491Y-16854079D01*
X7639491Y-16854079D02*
X7649015Y-16892174D01*
X7649015Y-16892174D02*
X7649015Y-16939793D01*
X7649015Y-16939793D02*
X7639491Y-16977889D01*
X7639491Y-16977889D02*
X7629967Y-16996936D01*
X7629967Y-16996936D02*
X7620444Y-17006460D01*
X7620444Y-17006460D02*
X7601396Y-17015984D01*
X7601396Y-17015984D02*
X7582348Y-17015984D01*
X7582348Y-17015984D02*
X7563301Y-17006460D01*
X7563301Y-17006460D02*
X7553777Y-16996936D01*
X7553777Y-16996936D02*
X7544253Y-16977889D01*
X7544253Y-16977889D02*
X7534729Y-16939793D01*
X7534729Y-16939793D02*
X7534729Y-16892174D01*
X7534729Y-16892174D02*
X7544253Y-16854079D01*
X7544253Y-16854079D02*
X7553777Y-16835031D01*
X7553777Y-16835031D02*
X7563301Y-16825508D01*
X7563301Y-16825508D02*
X7582348Y-16815984D01*
X7715682Y-16815984D02*
X7839491Y-16815984D01*
X7839491Y-16815984D02*
X7772825Y-16892174D01*
X7772825Y-16892174D02*
X7801396Y-16892174D01*
X7801396Y-16892174D02*
X7820444Y-16901698D01*
X7820444Y-16901698D02*
X7829967Y-16911222D01*
X7829967Y-16911222D02*
X7839491Y-16930270D01*
X7839491Y-16930270D02*
X7839491Y-16977889D01*
X7839491Y-16977889D02*
X7829967Y-16996936D01*
X7829967Y-16996936D02*
X7820444Y-17006460D01*
X7820444Y-17006460D02*
X7801396Y-17015984D01*
X7801396Y-17015984D02*
X7744253Y-17015984D01*
X7744253Y-17015984D02*
X7725206Y-17006460D01*
X7725206Y-17006460D02*
X7715682Y-16996936D01*
X8020444Y-16815984D02*
X7925206Y-16815984D01*
X7925206Y-16815984D02*
X7915682Y-16911222D01*
X7915682Y-16911222D02*
X7925206Y-16901698D01*
X7925206Y-16901698D02*
X7944253Y-16892174D01*
X7944253Y-16892174D02*
X7991872Y-16892174D01*
X7991872Y-16892174D02*
X8010920Y-16901698D01*
X8010920Y-16901698D02*
X8020444Y-16911222D01*
X8020444Y-16911222D02*
X8029967Y-16930270D01*
X8029967Y-16930270D02*
X8029967Y-16977889D01*
X8029967Y-16977889D02*
X8020444Y-16996936D01*
X8020444Y-16996936D02*
X8010920Y-17006460D01*
X8010920Y-17006460D02*
X7991872Y-17015984D01*
X7991872Y-17015984D02*
X7944253Y-17015984D01*
X7944253Y-17015984D02*
X7925206Y-17006460D01*
X7925206Y-17006460D02*
X7915682Y-16996936D01*
X8201396Y-16882650D02*
X8201396Y-17015984D01*
X8153777Y-16806460D02*
X8106158Y-16949317D01*
X8106158Y-16949317D02*
X8229967Y-16949317D01*
X8296634Y-16815984D02*
X8296634Y-16854079D01*
X8372825Y-16815984D02*
X8372825Y-16854079D01*
X8668063Y-17092174D02*
X8658539Y-17082650D01*
X8658539Y-17082650D02*
X8639491Y-17054079D01*
X8639491Y-17054079D02*
X8629968Y-17035031D01*
X8629968Y-17035031D02*
X8620444Y-17006460D01*
X8620444Y-17006460D02*
X8610920Y-16958841D01*
X8610920Y-16958841D02*
X8610920Y-16920746D01*
X8610920Y-16920746D02*
X8620444Y-16873127D01*
X8620444Y-16873127D02*
X8629968Y-16844555D01*
X8629968Y-16844555D02*
X8639491Y-16825508D01*
X8639491Y-16825508D02*
X8658539Y-16796936D01*
X8658539Y-16796936D02*
X8668063Y-16787412D01*
X8829968Y-16815984D02*
X8791872Y-16815984D01*
X8791872Y-16815984D02*
X8772825Y-16825508D01*
X8772825Y-16825508D02*
X8763301Y-16835031D01*
X8763301Y-16835031D02*
X8744253Y-16863603D01*
X8744253Y-16863603D02*
X8734730Y-16901698D01*
X8734730Y-16901698D02*
X8734730Y-16977889D01*
X8734730Y-16977889D02*
X8744253Y-16996936D01*
X8744253Y-16996936D02*
X8753777Y-17006460D01*
X8753777Y-17006460D02*
X8772825Y-17015984D01*
X8772825Y-17015984D02*
X8810920Y-17015984D01*
X8810920Y-17015984D02*
X8829968Y-17006460D01*
X8829968Y-17006460D02*
X8839491Y-16996936D01*
X8839491Y-16996936D02*
X8849015Y-16977889D01*
X8849015Y-16977889D02*
X8849015Y-16930270D01*
X8849015Y-16930270D02*
X8839491Y-16911222D01*
X8839491Y-16911222D02*
X8829968Y-16901698D01*
X8829968Y-16901698D02*
X8810920Y-16892174D01*
X8810920Y-16892174D02*
X8772825Y-16892174D01*
X8772825Y-16892174D02*
X8753777Y-16901698D01*
X8753777Y-16901698D02*
X8744253Y-16911222D01*
X8744253Y-16911222D02*
X8734730Y-16930270D01*
X9087111Y-17015984D02*
X9087111Y-16815984D01*
X9172825Y-17015984D02*
X9172825Y-16911222D01*
X9172825Y-16911222D02*
X9163301Y-16892174D01*
X9163301Y-16892174D02*
X9144253Y-16882650D01*
X9144253Y-16882650D02*
X9115682Y-16882650D01*
X9115682Y-16882650D02*
X9096634Y-16892174D01*
X9096634Y-16892174D02*
X9087111Y-16901698D01*
X9296634Y-17015984D02*
X9277587Y-17006460D01*
X9277587Y-17006460D02*
X9268063Y-16996936D01*
X9268063Y-16996936D02*
X9258539Y-16977889D01*
X9258539Y-16977889D02*
X9258539Y-16920746D01*
X9258539Y-16920746D02*
X9268063Y-16901698D01*
X9268063Y-16901698D02*
X9277587Y-16892174D01*
X9277587Y-16892174D02*
X9296634Y-16882650D01*
X9296634Y-16882650D02*
X9325206Y-16882650D01*
X9325206Y-16882650D02*
X9344253Y-16892174D01*
X9344253Y-16892174D02*
X9353777Y-16901698D01*
X9353777Y-16901698D02*
X9363301Y-16920746D01*
X9363301Y-16920746D02*
X9363301Y-16977889D01*
X9363301Y-16977889D02*
X9353777Y-16996936D01*
X9353777Y-16996936D02*
X9344253Y-17006460D01*
X9344253Y-17006460D02*
X9325206Y-17015984D01*
X9325206Y-17015984D02*
X9296634Y-17015984D01*
X9477587Y-17015984D02*
X9458539Y-17006460D01*
X9458539Y-17006460D02*
X9449015Y-16987412D01*
X9449015Y-16987412D02*
X9449015Y-16815984D01*
X9629968Y-17006460D02*
X9610920Y-17015984D01*
X9610920Y-17015984D02*
X9572825Y-17015984D01*
X9572825Y-17015984D02*
X9553777Y-17006460D01*
X9553777Y-17006460D02*
X9544253Y-16987412D01*
X9544253Y-16987412D02*
X9544253Y-16911222D01*
X9544253Y-16911222D02*
X9553777Y-16892174D01*
X9553777Y-16892174D02*
X9572825Y-16882650D01*
X9572825Y-16882650D02*
X9610920Y-16882650D01*
X9610920Y-16882650D02*
X9629968Y-16892174D01*
X9629968Y-16892174D02*
X9639492Y-16911222D01*
X9639492Y-16911222D02*
X9639492Y-16930270D01*
X9639492Y-16930270D02*
X9544253Y-16949317D01*
X9715682Y-17006460D02*
X9734730Y-17015984D01*
X9734730Y-17015984D02*
X9772825Y-17015984D01*
X9772825Y-17015984D02*
X9791873Y-17006460D01*
X9791873Y-17006460D02*
X9801396Y-16987412D01*
X9801396Y-16987412D02*
X9801396Y-16977889D01*
X9801396Y-16977889D02*
X9791873Y-16958841D01*
X9791873Y-16958841D02*
X9772825Y-16949317D01*
X9772825Y-16949317D02*
X9744253Y-16949317D01*
X9744253Y-16949317D02*
X9725206Y-16939793D01*
X9725206Y-16939793D02*
X9715682Y-16920746D01*
X9715682Y-16920746D02*
X9715682Y-16911222D01*
X9715682Y-16911222D02*
X9725206Y-16892174D01*
X9725206Y-16892174D02*
X9744253Y-16882650D01*
X9744253Y-16882650D02*
X9772825Y-16882650D01*
X9772825Y-16882650D02*
X9791873Y-16892174D01*
X9868063Y-17092174D02*
X9877587Y-17082650D01*
X9877587Y-17082650D02*
X9896634Y-17054079D01*
X9896634Y-17054079D02*
X9906158Y-17035031D01*
X9906158Y-17035031D02*
X9915682Y-17006460D01*
X9915682Y-17006460D02*
X9925206Y-16958841D01*
X9925206Y-16958841D02*
X9925206Y-16920746D01*
X9925206Y-16920746D02*
X9915682Y-16873127D01*
X9915682Y-16873127D02*
X9906158Y-16844555D01*
X9906158Y-16844555D02*
X9896634Y-16825508D01*
X9896634Y-16825508D02*
X9877587Y-16796936D01*
X9877587Y-16796936D02*
X9868063Y-16787412D01*
D10*
X5078356Y-17223856D02*
X5078356Y-17153144D01*
X5007644Y-17153144D01*
X5007644Y-17223856D01*
X5078356Y-17223856D01*
D11*
X5458539Y-17279984D02*
X5344253Y-17279984D01*
X5401396Y-17279984D02*
X5401396Y-17079984D01*
X5401396Y-17079984D02*
X5382348Y-17108555D01*
X5382348Y-17108555D02*
X5363301Y-17127603D01*
X5363301Y-17127603D02*
X5344253Y-17137127D01*
X5544253Y-17260936D02*
X5553777Y-17270460D01*
X5553777Y-17270460D02*
X5544253Y-17279984D01*
X5544253Y-17279984D02*
X5534729Y-17270460D01*
X5534729Y-17270460D02*
X5544253Y-17260936D01*
X5544253Y-17260936D02*
X5544253Y-17279984D01*
X5677586Y-17079984D02*
X5696634Y-17079984D01*
X5696634Y-17079984D02*
X5715682Y-17089508D01*
X5715682Y-17089508D02*
X5725205Y-17099031D01*
X5725205Y-17099031D02*
X5734729Y-17118079D01*
X5734729Y-17118079D02*
X5744253Y-17156174D01*
X5744253Y-17156174D02*
X5744253Y-17203793D01*
X5744253Y-17203793D02*
X5734729Y-17241889D01*
X5734729Y-17241889D02*
X5725205Y-17260936D01*
X5725205Y-17260936D02*
X5715682Y-17270460D01*
X5715682Y-17270460D02*
X5696634Y-17279984D01*
X5696634Y-17279984D02*
X5677586Y-17279984D01*
X5677586Y-17279984D02*
X5658539Y-17270460D01*
X5658539Y-17270460D02*
X5649015Y-17260936D01*
X5649015Y-17260936D02*
X5639491Y-17241889D01*
X5639491Y-17241889D02*
X5629967Y-17203793D01*
X5629967Y-17203793D02*
X5629967Y-17156174D01*
X5629967Y-17156174D02*
X5639491Y-17118079D01*
X5639491Y-17118079D02*
X5649015Y-17099031D01*
X5649015Y-17099031D02*
X5658539Y-17089508D01*
X5658539Y-17089508D02*
X5677586Y-17079984D01*
X5868062Y-17079984D02*
X5887110Y-17079984D01*
X5887110Y-17079984D02*
X5906158Y-17089508D01*
X5906158Y-17089508D02*
X5915682Y-17099031D01*
X5915682Y-17099031D02*
X5925205Y-17118079D01*
X5925205Y-17118079D02*
X5934729Y-17156174D01*
X5934729Y-17156174D02*
X5934729Y-17203793D01*
X5934729Y-17203793D02*
X5925205Y-17241889D01*
X5925205Y-17241889D02*
X5915682Y-17260936D01*
X5915682Y-17260936D02*
X5906158Y-17270460D01*
X5906158Y-17270460D02*
X5887110Y-17279984D01*
X5887110Y-17279984D02*
X5868062Y-17279984D01*
X5868062Y-17279984D02*
X5849015Y-17270460D01*
X5849015Y-17270460D02*
X5839491Y-17260936D01*
X5839491Y-17260936D02*
X5829967Y-17241889D01*
X5829967Y-17241889D02*
X5820443Y-17203793D01*
X5820443Y-17203793D02*
X5820443Y-17156174D01*
X5820443Y-17156174D02*
X5829967Y-17118079D01*
X5829967Y-17118079D02*
X5839491Y-17099031D01*
X5839491Y-17099031D02*
X5849015Y-17089508D01*
X5849015Y-17089508D02*
X5868062Y-17079984D01*
X6058539Y-17079984D02*
X6077586Y-17079984D01*
X6077586Y-17079984D02*
X6096634Y-17089508D01*
X6096634Y-17089508D02*
X6106158Y-17099031D01*
X6106158Y-17099031D02*
X6115682Y-17118079D01*
X6115682Y-17118079D02*
X6125205Y-17156174D01*
X6125205Y-17156174D02*
X6125205Y-17203793D01*
X6125205Y-17203793D02*
X6115682Y-17241889D01*
X6115682Y-17241889D02*
X6106158Y-17260936D01*
X6106158Y-17260936D02*
X6096634Y-17270460D01*
X6096634Y-17270460D02*
X6077586Y-17279984D01*
X6077586Y-17279984D02*
X6058539Y-17279984D01*
X6058539Y-17279984D02*
X6039491Y-17270460D01*
X6039491Y-17270460D02*
X6029967Y-17260936D01*
X6029967Y-17260936D02*
X6020443Y-17241889D01*
X6020443Y-17241889D02*
X6010920Y-17203793D01*
X6010920Y-17203793D02*
X6010920Y-17156174D01*
X6010920Y-17156174D02*
X6020443Y-17118079D01*
X6020443Y-17118079D02*
X6029967Y-17099031D01*
X6029967Y-17099031D02*
X6039491Y-17089508D01*
X6039491Y-17089508D02*
X6058539Y-17079984D01*
X6210920Y-17279984D02*
X6210920Y-17146650D01*
X6210920Y-17165698D02*
X6220443Y-17156174D01*
X6220443Y-17156174D02*
X6239491Y-17146650D01*
X6239491Y-17146650D02*
X6268063Y-17146650D01*
X6268063Y-17146650D02*
X6287110Y-17156174D01*
X6287110Y-17156174D02*
X6296634Y-17175222D01*
X6296634Y-17175222D02*
X6296634Y-17279984D01*
X6296634Y-17175222D02*
X6306158Y-17156174D01*
X6306158Y-17156174D02*
X6325205Y-17146650D01*
X6325205Y-17146650D02*
X6353777Y-17146650D01*
X6353777Y-17146650D02*
X6372824Y-17156174D01*
X6372824Y-17156174D02*
X6382348Y-17175222D01*
X6382348Y-17175222D02*
X6382348Y-17279984D01*
X6477586Y-17279984D02*
X6477586Y-17146650D01*
X6477586Y-17165698D02*
X6487110Y-17156174D01*
X6487110Y-17156174D02*
X6506158Y-17146650D01*
X6506158Y-17146650D02*
X6534729Y-17146650D01*
X6534729Y-17146650D02*
X6553777Y-17156174D01*
X6553777Y-17156174D02*
X6563301Y-17175222D01*
X6563301Y-17175222D02*
X6563301Y-17279984D01*
X6563301Y-17175222D02*
X6572824Y-17156174D01*
X6572824Y-17156174D02*
X6591872Y-17146650D01*
X6591872Y-17146650D02*
X6620443Y-17146650D01*
X6620443Y-17146650D02*
X6639491Y-17156174D01*
X6639491Y-17156174D02*
X6649015Y-17175222D01*
X6649015Y-17175222D02*
X6649015Y-17279984D01*
X7039491Y-17070460D02*
X6868063Y-17327603D01*
X7296634Y-17079984D02*
X7315682Y-17079984D01*
X7315682Y-17079984D02*
X7334729Y-17089508D01*
X7334729Y-17089508D02*
X7344253Y-17099031D01*
X7344253Y-17099031D02*
X7353777Y-17118079D01*
X7353777Y-17118079D02*
X7363301Y-17156174D01*
X7363301Y-17156174D02*
X7363301Y-17203793D01*
X7363301Y-17203793D02*
X7353777Y-17241889D01*
X7353777Y-17241889D02*
X7344253Y-17260936D01*
X7344253Y-17260936D02*
X7334729Y-17270460D01*
X7334729Y-17270460D02*
X7315682Y-17279984D01*
X7315682Y-17279984D02*
X7296634Y-17279984D01*
X7296634Y-17279984D02*
X7277586Y-17270460D01*
X7277586Y-17270460D02*
X7268063Y-17260936D01*
X7268063Y-17260936D02*
X7258539Y-17241889D01*
X7258539Y-17241889D02*
X7249015Y-17203793D01*
X7249015Y-17203793D02*
X7249015Y-17156174D01*
X7249015Y-17156174D02*
X7258539Y-17118079D01*
X7258539Y-17118079D02*
X7268063Y-17099031D01*
X7268063Y-17099031D02*
X7277586Y-17089508D01*
X7277586Y-17089508D02*
X7296634Y-17079984D01*
X7449015Y-17260936D02*
X7458539Y-17270460D01*
X7458539Y-17270460D02*
X7449015Y-17279984D01*
X7449015Y-17279984D02*
X7439491Y-17270460D01*
X7439491Y-17270460D02*
X7449015Y-17260936D01*
X7449015Y-17260936D02*
X7449015Y-17279984D01*
X7582348Y-17079984D02*
X7601396Y-17079984D01*
X7601396Y-17079984D02*
X7620444Y-17089508D01*
X7620444Y-17089508D02*
X7629967Y-17099031D01*
X7629967Y-17099031D02*
X7639491Y-17118079D01*
X7639491Y-17118079D02*
X7649015Y-17156174D01*
X7649015Y-17156174D02*
X7649015Y-17203793D01*
X7649015Y-17203793D02*
X7639491Y-17241889D01*
X7639491Y-17241889D02*
X7629967Y-17260936D01*
X7629967Y-17260936D02*
X7620444Y-17270460D01*
X7620444Y-17270460D02*
X7601396Y-17279984D01*
X7601396Y-17279984D02*
X7582348Y-17279984D01*
X7582348Y-17279984D02*
X7563301Y-17270460D01*
X7563301Y-17270460D02*
X7553777Y-17260936D01*
X7553777Y-17260936D02*
X7544253Y-17241889D01*
X7544253Y-17241889D02*
X7534729Y-17203793D01*
X7534729Y-17203793D02*
X7534729Y-17156174D01*
X7534729Y-17156174D02*
X7544253Y-17118079D01*
X7544253Y-17118079D02*
X7553777Y-17099031D01*
X7553777Y-17099031D02*
X7563301Y-17089508D01*
X7563301Y-17089508D02*
X7582348Y-17079984D01*
X7715682Y-17079984D02*
X7839491Y-17079984D01*
X7839491Y-17079984D02*
X7772825Y-17156174D01*
X7772825Y-17156174D02*
X7801396Y-17156174D01*
X7801396Y-17156174D02*
X7820444Y-17165698D01*
X7820444Y-17165698D02*
X7829967Y-17175222D01*
X7829967Y-17175222D02*
X7839491Y-17194270D01*
X7839491Y-17194270D02*
X7839491Y-17241889D01*
X7839491Y-17241889D02*
X7829967Y-17260936D01*
X7829967Y-17260936D02*
X7820444Y-17270460D01*
X7820444Y-17270460D02*
X7801396Y-17279984D01*
X7801396Y-17279984D02*
X7744253Y-17279984D01*
X7744253Y-17279984D02*
X7725206Y-17270460D01*
X7725206Y-17270460D02*
X7715682Y-17260936D01*
X7934729Y-17279984D02*
X7972825Y-17279984D01*
X7972825Y-17279984D02*
X7991872Y-17270460D01*
X7991872Y-17270460D02*
X8001396Y-17260936D01*
X8001396Y-17260936D02*
X8020444Y-17232365D01*
X8020444Y-17232365D02*
X8029967Y-17194270D01*
X8029967Y-17194270D02*
X8029967Y-17118079D01*
X8029967Y-17118079D02*
X8020444Y-17099031D01*
X8020444Y-17099031D02*
X8010920Y-17089508D01*
X8010920Y-17089508D02*
X7991872Y-17079984D01*
X7991872Y-17079984D02*
X7953777Y-17079984D01*
X7953777Y-17079984D02*
X7934729Y-17089508D01*
X7934729Y-17089508D02*
X7925206Y-17099031D01*
X7925206Y-17099031D02*
X7915682Y-17118079D01*
X7915682Y-17118079D02*
X7915682Y-17165698D01*
X7915682Y-17165698D02*
X7925206Y-17184746D01*
X7925206Y-17184746D02*
X7934729Y-17194270D01*
X7934729Y-17194270D02*
X7953777Y-17203793D01*
X7953777Y-17203793D02*
X7991872Y-17203793D01*
X7991872Y-17203793D02*
X8010920Y-17194270D01*
X8010920Y-17194270D02*
X8020444Y-17184746D01*
X8020444Y-17184746D02*
X8029967Y-17165698D01*
X8201396Y-17146650D02*
X8201396Y-17279984D01*
X8153777Y-17070460D02*
X8106158Y-17213317D01*
X8106158Y-17213317D02*
X8229967Y-17213317D01*
X8296634Y-17079984D02*
X8296634Y-17118079D01*
X8372825Y-17079984D02*
X8372825Y-17118079D01*
X8668063Y-17356174D02*
X8658539Y-17346650D01*
X8658539Y-17346650D02*
X8639491Y-17318079D01*
X8639491Y-17318079D02*
X8629968Y-17299031D01*
X8629968Y-17299031D02*
X8620444Y-17270460D01*
X8620444Y-17270460D02*
X8610920Y-17222841D01*
X8610920Y-17222841D02*
X8610920Y-17184746D01*
X8610920Y-17184746D02*
X8620444Y-17137127D01*
X8620444Y-17137127D02*
X8629968Y-17108555D01*
X8629968Y-17108555D02*
X8639491Y-17089508D01*
X8639491Y-17089508D02*
X8658539Y-17060936D01*
X8658539Y-17060936D02*
X8668063Y-17051412D01*
X8772825Y-17165698D02*
X8753777Y-17156174D01*
X8753777Y-17156174D02*
X8744253Y-17146650D01*
X8744253Y-17146650D02*
X8734730Y-17127603D01*
X8734730Y-17127603D02*
X8734730Y-17118079D01*
X8734730Y-17118079D02*
X8744253Y-17099031D01*
X8744253Y-17099031D02*
X8753777Y-17089508D01*
X8753777Y-17089508D02*
X8772825Y-17079984D01*
X8772825Y-17079984D02*
X8810920Y-17079984D01*
X8810920Y-17079984D02*
X8829968Y-17089508D01*
X8829968Y-17089508D02*
X8839491Y-17099031D01*
X8839491Y-17099031D02*
X8849015Y-17118079D01*
X8849015Y-17118079D02*
X8849015Y-17127603D01*
X8849015Y-17127603D02*
X8839491Y-17146650D01*
X8839491Y-17146650D02*
X8829968Y-17156174D01*
X8829968Y-17156174D02*
X8810920Y-17165698D01*
X8810920Y-17165698D02*
X8772825Y-17165698D01*
X8772825Y-17165698D02*
X8753777Y-17175222D01*
X8753777Y-17175222D02*
X8744253Y-17184746D01*
X8744253Y-17184746D02*
X8734730Y-17203793D01*
X8734730Y-17203793D02*
X8734730Y-17241889D01*
X8734730Y-17241889D02*
X8744253Y-17260936D01*
X8744253Y-17260936D02*
X8753777Y-17270460D01*
X8753777Y-17270460D02*
X8772825Y-17279984D01*
X8772825Y-17279984D02*
X8810920Y-17279984D01*
X8810920Y-17279984D02*
X8829968Y-17270460D01*
X8829968Y-17270460D02*
X8839491Y-17260936D01*
X8839491Y-17260936D02*
X8849015Y-17241889D01*
X8849015Y-17241889D02*
X8849015Y-17203793D01*
X8849015Y-17203793D02*
X8839491Y-17184746D01*
X8839491Y-17184746D02*
X8829968Y-17175222D01*
X8829968Y-17175222D02*
X8810920Y-17165698D01*
X8915682Y-17079984D02*
X9039491Y-17079984D01*
X9039491Y-17079984D02*
X8972825Y-17156174D01*
X8972825Y-17156174D02*
X9001396Y-17156174D01*
X9001396Y-17156174D02*
X9020444Y-17165698D01*
X9020444Y-17165698D02*
X9029968Y-17175222D01*
X9029968Y-17175222D02*
X9039491Y-17194270D01*
X9039491Y-17194270D02*
X9039491Y-17241889D01*
X9039491Y-17241889D02*
X9029968Y-17260936D01*
X9029968Y-17260936D02*
X9020444Y-17270460D01*
X9020444Y-17270460D02*
X9001396Y-17279984D01*
X9001396Y-17279984D02*
X8944253Y-17279984D01*
X8944253Y-17279984D02*
X8925206Y-17270460D01*
X8925206Y-17270460D02*
X8915682Y-17260936D01*
X9277587Y-17279984D02*
X9277587Y-17079984D01*
X9363301Y-17279984D02*
X9363301Y-17175222D01*
X9363301Y-17175222D02*
X9353777Y-17156174D01*
X9353777Y-17156174D02*
X9334730Y-17146650D01*
X9334730Y-17146650D02*
X9306158Y-17146650D01*
X9306158Y-17146650D02*
X9287111Y-17156174D01*
X9287111Y-17156174D02*
X9277587Y-17165698D01*
X9487111Y-17279984D02*
X9468063Y-17270460D01*
X9468063Y-17270460D02*
X9458539Y-17260936D01*
X9458539Y-17260936D02*
X9449015Y-17241889D01*
X9449015Y-17241889D02*
X9449015Y-17184746D01*
X9449015Y-17184746D02*
X9458539Y-17165698D01*
X9458539Y-17165698D02*
X9468063Y-17156174D01*
X9468063Y-17156174D02*
X9487111Y-17146650D01*
X9487111Y-17146650D02*
X9515682Y-17146650D01*
X9515682Y-17146650D02*
X9534730Y-17156174D01*
X9534730Y-17156174D02*
X9544253Y-17165698D01*
X9544253Y-17165698D02*
X9553777Y-17184746D01*
X9553777Y-17184746D02*
X9553777Y-17241889D01*
X9553777Y-17241889D02*
X9544253Y-17260936D01*
X9544253Y-17260936D02*
X9534730Y-17270460D01*
X9534730Y-17270460D02*
X9515682Y-17279984D01*
X9515682Y-17279984D02*
X9487111Y-17279984D01*
X9668063Y-17279984D02*
X9649015Y-17270460D01*
X9649015Y-17270460D02*
X9639492Y-17251412D01*
X9639492Y-17251412D02*
X9639492Y-17079984D01*
X9820444Y-17270460D02*
X9801396Y-17279984D01*
X9801396Y-17279984D02*
X9763301Y-17279984D01*
X9763301Y-17279984D02*
X9744253Y-17270460D01*
X9744253Y-17270460D02*
X9734730Y-17251412D01*
X9734730Y-17251412D02*
X9734730Y-17175222D01*
X9734730Y-17175222D02*
X9744253Y-17156174D01*
X9744253Y-17156174D02*
X9763301Y-17146650D01*
X9763301Y-17146650D02*
X9801396Y-17146650D01*
X9801396Y-17146650D02*
X9820444Y-17156174D01*
X9820444Y-17156174D02*
X9829968Y-17175222D01*
X9829968Y-17175222D02*
X9829968Y-17194270D01*
X9829968Y-17194270D02*
X9734730Y-17213317D01*
X9906158Y-17270460D02*
X9925206Y-17279984D01*
X9925206Y-17279984D02*
X9963301Y-17279984D01*
X9963301Y-17279984D02*
X9982349Y-17270460D01*
X9982349Y-17270460D02*
X9991873Y-17251412D01*
X9991873Y-17251412D02*
X9991873Y-17241889D01*
X9991873Y-17241889D02*
X9982349Y-17222841D01*
X9982349Y-17222841D02*
X9963301Y-17213317D01*
X9963301Y-17213317D02*
X9934730Y-17213317D01*
X9934730Y-17213317D02*
X9915682Y-17203793D01*
X9915682Y-17203793D02*
X9906158Y-17184746D01*
X9906158Y-17184746D02*
X9906158Y-17175222D01*
X9906158Y-17175222D02*
X9915682Y-17156174D01*
X9915682Y-17156174D02*
X9934730Y-17146650D01*
X9934730Y-17146650D02*
X9963301Y-17146650D01*
X9963301Y-17146650D02*
X9982349Y-17156174D01*
X10058539Y-17356174D02*
X10068063Y-17346650D01*
X10068063Y-17346650D02*
X10087111Y-17318079D01*
X10087111Y-17318079D02*
X10096634Y-17299031D01*
X10096634Y-17299031D02*
X10106158Y-17270460D01*
X10106158Y-17270460D02*
X10115682Y-17222841D01*
X10115682Y-17222841D02*
X10115682Y-17184746D01*
X10115682Y-17184746D02*
X10106158Y-17137127D01*
X10106158Y-17137127D02*
X10096634Y-17108555D01*
X10096634Y-17108555D02*
X10087111Y-17089508D01*
X10087111Y-17089508D02*
X10068063Y-17060936D01*
X10068063Y-17060936D02*
X10058539Y-17051412D01*
D12*
X5038000Y-17507500D02*
X5093000Y-17452500D01*
X5038000Y-17397500D01*
X4983000Y-17452500D01*
X5038000Y-17507500D01*
D11*
X5458539Y-17543984D02*
X5344253Y-17543984D01*
X5401396Y-17543984D02*
X5401396Y-17343984D01*
X5401396Y-17343984D02*
X5382348Y-17372555D01*
X5382348Y-17372555D02*
X5363301Y-17391603D01*
X5363301Y-17391603D02*
X5344253Y-17401127D01*
X5544253Y-17524936D02*
X5553777Y-17534460D01*
X5553777Y-17534460D02*
X5544253Y-17543984D01*
X5544253Y-17543984D02*
X5534729Y-17534460D01*
X5534729Y-17534460D02*
X5544253Y-17524936D01*
X5544253Y-17524936D02*
X5544253Y-17543984D01*
X5744253Y-17543984D02*
X5629967Y-17543984D01*
X5687110Y-17543984D02*
X5687110Y-17343984D01*
X5687110Y-17343984D02*
X5668062Y-17372555D01*
X5668062Y-17372555D02*
X5649015Y-17391603D01*
X5649015Y-17391603D02*
X5629967Y-17401127D01*
X5868062Y-17343984D02*
X5887110Y-17343984D01*
X5887110Y-17343984D02*
X5906158Y-17353508D01*
X5906158Y-17353508D02*
X5915682Y-17363031D01*
X5915682Y-17363031D02*
X5925205Y-17382079D01*
X5925205Y-17382079D02*
X5934729Y-17420174D01*
X5934729Y-17420174D02*
X5934729Y-17467793D01*
X5934729Y-17467793D02*
X5925205Y-17505889D01*
X5925205Y-17505889D02*
X5915682Y-17524936D01*
X5915682Y-17524936D02*
X5906158Y-17534460D01*
X5906158Y-17534460D02*
X5887110Y-17543984D01*
X5887110Y-17543984D02*
X5868062Y-17543984D01*
X5868062Y-17543984D02*
X5849015Y-17534460D01*
X5849015Y-17534460D02*
X5839491Y-17524936D01*
X5839491Y-17524936D02*
X5829967Y-17505889D01*
X5829967Y-17505889D02*
X5820443Y-17467793D01*
X5820443Y-17467793D02*
X5820443Y-17420174D01*
X5820443Y-17420174D02*
X5829967Y-17382079D01*
X5829967Y-17382079D02*
X5839491Y-17363031D01*
X5839491Y-17363031D02*
X5849015Y-17353508D01*
X5849015Y-17353508D02*
X5868062Y-17343984D01*
X6058539Y-17343984D02*
X6077586Y-17343984D01*
X6077586Y-17343984D02*
X6096634Y-17353508D01*
X6096634Y-17353508D02*
X6106158Y-17363031D01*
X6106158Y-17363031D02*
X6115682Y-17382079D01*
X6115682Y-17382079D02*
X6125205Y-17420174D01*
X6125205Y-17420174D02*
X6125205Y-17467793D01*
X6125205Y-17467793D02*
X6115682Y-17505889D01*
X6115682Y-17505889D02*
X6106158Y-17524936D01*
X6106158Y-17524936D02*
X6096634Y-17534460D01*
X6096634Y-17534460D02*
X6077586Y-17543984D01*
X6077586Y-17543984D02*
X6058539Y-17543984D01*
X6058539Y-17543984D02*
X6039491Y-17534460D01*
X6039491Y-17534460D02*
X6029967Y-17524936D01*
X6029967Y-17524936D02*
X6020443Y-17505889D01*
X6020443Y-17505889D02*
X6010920Y-17467793D01*
X6010920Y-17467793D02*
X6010920Y-17420174D01*
X6010920Y-17420174D02*
X6020443Y-17382079D01*
X6020443Y-17382079D02*
X6029967Y-17363031D01*
X6029967Y-17363031D02*
X6039491Y-17353508D01*
X6039491Y-17353508D02*
X6058539Y-17343984D01*
X6210920Y-17543984D02*
X6210920Y-17410650D01*
X6210920Y-17429698D02*
X6220443Y-17420174D01*
X6220443Y-17420174D02*
X6239491Y-17410650D01*
X6239491Y-17410650D02*
X6268063Y-17410650D01*
X6268063Y-17410650D02*
X6287110Y-17420174D01*
X6287110Y-17420174D02*
X6296634Y-17439222D01*
X6296634Y-17439222D02*
X6296634Y-17543984D01*
X6296634Y-17439222D02*
X6306158Y-17420174D01*
X6306158Y-17420174D02*
X6325205Y-17410650D01*
X6325205Y-17410650D02*
X6353777Y-17410650D01*
X6353777Y-17410650D02*
X6372824Y-17420174D01*
X6372824Y-17420174D02*
X6382348Y-17439222D01*
X6382348Y-17439222D02*
X6382348Y-17543984D01*
X6477586Y-17543984D02*
X6477586Y-17410650D01*
X6477586Y-17429698D02*
X6487110Y-17420174D01*
X6487110Y-17420174D02*
X6506158Y-17410650D01*
X6506158Y-17410650D02*
X6534729Y-17410650D01*
X6534729Y-17410650D02*
X6553777Y-17420174D01*
X6553777Y-17420174D02*
X6563301Y-17439222D01*
X6563301Y-17439222D02*
X6563301Y-17543984D01*
X6563301Y-17439222D02*
X6572824Y-17420174D01*
X6572824Y-17420174D02*
X6591872Y-17410650D01*
X6591872Y-17410650D02*
X6620443Y-17410650D01*
X6620443Y-17410650D02*
X6639491Y-17420174D01*
X6639491Y-17420174D02*
X6649015Y-17439222D01*
X6649015Y-17439222D02*
X6649015Y-17543984D01*
X7039491Y-17334460D02*
X6868063Y-17591603D01*
X7296634Y-17343984D02*
X7315682Y-17343984D01*
X7315682Y-17343984D02*
X7334729Y-17353508D01*
X7334729Y-17353508D02*
X7344253Y-17363031D01*
X7344253Y-17363031D02*
X7353777Y-17382079D01*
X7353777Y-17382079D02*
X7363301Y-17420174D01*
X7363301Y-17420174D02*
X7363301Y-17467793D01*
X7363301Y-17467793D02*
X7353777Y-17505889D01*
X7353777Y-17505889D02*
X7344253Y-17524936D01*
X7344253Y-17524936D02*
X7334729Y-17534460D01*
X7334729Y-17534460D02*
X7315682Y-17543984D01*
X7315682Y-17543984D02*
X7296634Y-17543984D01*
X7296634Y-17543984D02*
X7277586Y-17534460D01*
X7277586Y-17534460D02*
X7268063Y-17524936D01*
X7268063Y-17524936D02*
X7258539Y-17505889D01*
X7258539Y-17505889D02*
X7249015Y-17467793D01*
X7249015Y-17467793D02*
X7249015Y-17420174D01*
X7249015Y-17420174D02*
X7258539Y-17382079D01*
X7258539Y-17382079D02*
X7268063Y-17363031D01*
X7268063Y-17363031D02*
X7277586Y-17353508D01*
X7277586Y-17353508D02*
X7296634Y-17343984D01*
X7449015Y-17524936D02*
X7458539Y-17534460D01*
X7458539Y-17534460D02*
X7449015Y-17543984D01*
X7449015Y-17543984D02*
X7439491Y-17534460D01*
X7439491Y-17534460D02*
X7449015Y-17524936D01*
X7449015Y-17524936D02*
X7449015Y-17543984D01*
X7582348Y-17343984D02*
X7601396Y-17343984D01*
X7601396Y-17343984D02*
X7620444Y-17353508D01*
X7620444Y-17353508D02*
X7629967Y-17363031D01*
X7629967Y-17363031D02*
X7639491Y-17382079D01*
X7639491Y-17382079D02*
X7649015Y-17420174D01*
X7649015Y-17420174D02*
X7649015Y-17467793D01*
X7649015Y-17467793D02*
X7639491Y-17505889D01*
X7639491Y-17505889D02*
X7629967Y-17524936D01*
X7629967Y-17524936D02*
X7620444Y-17534460D01*
X7620444Y-17534460D02*
X7601396Y-17543984D01*
X7601396Y-17543984D02*
X7582348Y-17543984D01*
X7582348Y-17543984D02*
X7563301Y-17534460D01*
X7563301Y-17534460D02*
X7553777Y-17524936D01*
X7553777Y-17524936D02*
X7544253Y-17505889D01*
X7544253Y-17505889D02*
X7534729Y-17467793D01*
X7534729Y-17467793D02*
X7534729Y-17420174D01*
X7534729Y-17420174D02*
X7544253Y-17382079D01*
X7544253Y-17382079D02*
X7553777Y-17363031D01*
X7553777Y-17363031D02*
X7563301Y-17353508D01*
X7563301Y-17353508D02*
X7582348Y-17343984D01*
X7820444Y-17410650D02*
X7820444Y-17543984D01*
X7772825Y-17334460D02*
X7725206Y-17477317D01*
X7725206Y-17477317D02*
X7849015Y-17477317D01*
X7906158Y-17343984D02*
X8029967Y-17343984D01*
X8029967Y-17343984D02*
X7963301Y-17420174D01*
X7963301Y-17420174D02*
X7991872Y-17420174D01*
X7991872Y-17420174D02*
X8010920Y-17429698D01*
X8010920Y-17429698D02*
X8020444Y-17439222D01*
X8020444Y-17439222D02*
X8029967Y-17458270D01*
X8029967Y-17458270D02*
X8029967Y-17505889D01*
X8029967Y-17505889D02*
X8020444Y-17524936D01*
X8020444Y-17524936D02*
X8010920Y-17534460D01*
X8010920Y-17534460D02*
X7991872Y-17543984D01*
X7991872Y-17543984D02*
X7934729Y-17543984D01*
X7934729Y-17543984D02*
X7915682Y-17534460D01*
X7915682Y-17534460D02*
X7906158Y-17524936D01*
X8096634Y-17343984D02*
X8220444Y-17343984D01*
X8220444Y-17343984D02*
X8153777Y-17420174D01*
X8153777Y-17420174D02*
X8182348Y-17420174D01*
X8182348Y-17420174D02*
X8201396Y-17429698D01*
X8201396Y-17429698D02*
X8210920Y-17439222D01*
X8210920Y-17439222D02*
X8220444Y-17458270D01*
X8220444Y-17458270D02*
X8220444Y-17505889D01*
X8220444Y-17505889D02*
X8210920Y-17524936D01*
X8210920Y-17524936D02*
X8201396Y-17534460D01*
X8201396Y-17534460D02*
X8182348Y-17543984D01*
X8182348Y-17543984D02*
X8125206Y-17543984D01*
X8125206Y-17543984D02*
X8106158Y-17534460D01*
X8106158Y-17534460D02*
X8096634Y-17524936D01*
X8296634Y-17343984D02*
X8296634Y-17382079D01*
X8372825Y-17343984D02*
X8372825Y-17382079D01*
X8668063Y-17620174D02*
X8658539Y-17610650D01*
X8658539Y-17610650D02*
X8639491Y-17582079D01*
X8639491Y-17582079D02*
X8629968Y-17563031D01*
X8629968Y-17563031D02*
X8620444Y-17534460D01*
X8620444Y-17534460D02*
X8610920Y-17486841D01*
X8610920Y-17486841D02*
X8610920Y-17448746D01*
X8610920Y-17448746D02*
X8620444Y-17401127D01*
X8620444Y-17401127D02*
X8629968Y-17372555D01*
X8629968Y-17372555D02*
X8639491Y-17353508D01*
X8639491Y-17353508D02*
X8658539Y-17324936D01*
X8658539Y-17324936D02*
X8668063Y-17315412D01*
X8829968Y-17410650D02*
X8829968Y-17543984D01*
X8782349Y-17334460D02*
X8734730Y-17477317D01*
X8734730Y-17477317D02*
X8858539Y-17477317D01*
X9087111Y-17543984D02*
X9087111Y-17343984D01*
X9172825Y-17543984D02*
X9172825Y-17439222D01*
X9172825Y-17439222D02*
X9163301Y-17420174D01*
X9163301Y-17420174D02*
X9144253Y-17410650D01*
X9144253Y-17410650D02*
X9115682Y-17410650D01*
X9115682Y-17410650D02*
X9096634Y-17420174D01*
X9096634Y-17420174D02*
X9087111Y-17429698D01*
X9296634Y-17543984D02*
X9277587Y-17534460D01*
X9277587Y-17534460D02*
X9268063Y-17524936D01*
X9268063Y-17524936D02*
X9258539Y-17505889D01*
X9258539Y-17505889D02*
X9258539Y-17448746D01*
X9258539Y-17448746D02*
X9268063Y-17429698D01*
X9268063Y-17429698D02*
X9277587Y-17420174D01*
X9277587Y-17420174D02*
X9296634Y-17410650D01*
X9296634Y-17410650D02*
X9325206Y-17410650D01*
X9325206Y-17410650D02*
X9344253Y-17420174D01*
X9344253Y-17420174D02*
X9353777Y-17429698D01*
X9353777Y-17429698D02*
X9363301Y-17448746D01*
X9363301Y-17448746D02*
X9363301Y-17505889D01*
X9363301Y-17505889D02*
X9353777Y-17524936D01*
X9353777Y-17524936D02*
X9344253Y-17534460D01*
X9344253Y-17534460D02*
X9325206Y-17543984D01*
X9325206Y-17543984D02*
X9296634Y-17543984D01*
X9477587Y-17543984D02*
X9458539Y-17534460D01*
X9458539Y-17534460D02*
X9449015Y-17515412D01*
X9449015Y-17515412D02*
X9449015Y-17343984D01*
X9629968Y-17534460D02*
X9610920Y-17543984D01*
X9610920Y-17543984D02*
X9572825Y-17543984D01*
X9572825Y-17543984D02*
X9553777Y-17534460D01*
X9553777Y-17534460D02*
X9544253Y-17515412D01*
X9544253Y-17515412D02*
X9544253Y-17439222D01*
X9544253Y-17439222D02*
X9553777Y-17420174D01*
X9553777Y-17420174D02*
X9572825Y-17410650D01*
X9572825Y-17410650D02*
X9610920Y-17410650D01*
X9610920Y-17410650D02*
X9629968Y-17420174D01*
X9629968Y-17420174D02*
X9639492Y-17439222D01*
X9639492Y-17439222D02*
X9639492Y-17458270D01*
X9639492Y-17458270D02*
X9544253Y-17477317D01*
X9715682Y-17534460D02*
X9734730Y-17543984D01*
X9734730Y-17543984D02*
X9772825Y-17543984D01*
X9772825Y-17543984D02*
X9791873Y-17534460D01*
X9791873Y-17534460D02*
X9801396Y-17515412D01*
X9801396Y-17515412D02*
X9801396Y-17505889D01*
X9801396Y-17505889D02*
X9791873Y-17486841D01*
X9791873Y-17486841D02*
X9772825Y-17477317D01*
X9772825Y-17477317D02*
X9744253Y-17477317D01*
X9744253Y-17477317D02*
X9725206Y-17467793D01*
X9725206Y-17467793D02*
X9715682Y-17448746D01*
X9715682Y-17448746D02*
X9715682Y-17439222D01*
X9715682Y-17439222D02*
X9725206Y-17420174D01*
X9725206Y-17420174D02*
X9744253Y-17410650D01*
X9744253Y-17410650D02*
X9772825Y-17410650D01*
X9772825Y-17410650D02*
X9791873Y-17420174D01*
X9868063Y-17620174D02*
X9877587Y-17610650D01*
X9877587Y-17610650D02*
X9896634Y-17582079D01*
X9896634Y-17582079D02*
X9906158Y-17563031D01*
X9906158Y-17563031D02*
X9915682Y-17534460D01*
X9915682Y-17534460D02*
X9925206Y-17486841D01*
X9925206Y-17486841D02*
X9925206Y-17448746D01*
X9925206Y-17448746D02*
X9915682Y-17401127D01*
X9915682Y-17401127D02*
X9906158Y-17372555D01*
X9906158Y-17372555D02*
X9896634Y-17353508D01*
X9896634Y-17353508D02*
X9877587Y-17324936D01*
X9877587Y-17324936D02*
X9868063Y-17315412D01*
M02*
