%TF.GenerationSoftware,KiCad,Pcbnew,7.0.11+dfsg-1build4*%
%TF.CreationDate,2025-09-23T23:57:58-05:00*%
%TF.ProjectId,ISACard,49534143-6172-4642-9e6b-696361645f70,rev?*%
%TF.SameCoordinates,Original*%
%TF.FileFunction,Copper,L2,Bot*%
%TF.FilePolarity,Positive*%
%FSLAX46Y46*%
G04 Gerber Fmt 4.6, Leading zero omitted, Abs format (unit mm)*
G04 Created by KiCad (PCBNEW 7.0.11+dfsg-1build4) date 2025-09-23 23:57:58*
%MOMM*%
%LPD*%
G01*
G04 APERTURE LIST*
%TA.AperFunction,ComponentPad*%
%ADD10R,1.600000X1.600000*%
%TD*%
%TA.AperFunction,ComponentPad*%
%ADD11O,1.600000X1.600000*%
%TD*%
%TA.AperFunction,ComponentPad*%
%ADD12C,1.600000*%
%TD*%
%TA.AperFunction,ComponentPad*%
%ADD13R,1.700000X1.700000*%
%TD*%
%TA.AperFunction,ComponentPad*%
%ADD14O,1.700000X1.700000*%
%TD*%
%TA.AperFunction,ConnectorPad*%
%ADD15R,1.780000X7.620000*%
%TD*%
%TA.AperFunction,ComponentPad*%
%ADD16R,1.800000X1.800000*%
%TD*%
%TA.AperFunction,ComponentPad*%
%ADD17C,1.800000*%
%TD*%
%TA.AperFunction,ComponentPad*%
%ADD18R,1.500000X1.500000*%
%TD*%
%TA.AperFunction,ComponentPad*%
%ADD19C,1.500000*%
%TD*%
%TA.AperFunction,ComponentPad*%
%ADD20C,2.000000*%
%TD*%
%TA.AperFunction,ViaPad*%
%ADD21C,0.800000*%
%TD*%
%TA.AperFunction,Conductor*%
%ADD22C,0.350000*%
%TD*%
G04 APERTURE END LIST*
D10*
%TO.P,U9,1*%
%TO.N,Net-(JP19-C)*%
X167894000Y-85598000D03*
D11*
%TO.P,U9,2*%
%TO.N,Net-(U7-Pad11)*%
X170434000Y-85598000D03*
%TO.P,U9,3*%
%TO.N,Net-(JP17-B)*%
X172974000Y-85598000D03*
%TO.P,U9,4*%
%TO.N,Net-(U7-Pad6)*%
X175514000Y-85598000D03*
%TO.P,U9,5*%
%TO.N,Net-(U7-Pad8)*%
X178054000Y-85598000D03*
%TO.P,U9,6*%
%TO.N,Net-(U9-Pad6)*%
X180594000Y-85598000D03*
%TO.P,U9,7,GND*%
%TO.N,GND*%
X183134000Y-85598000D03*
%TO.P,U9,8*%
%TO.N,Net-(U9-Pad13)*%
X183134000Y-77978000D03*
%TO.P,U9,9*%
%TO.N,Net-(U9-Pad6)*%
X180594000Y-77978000D03*
%TO.P,U9,10*%
%TO.N,Net-(JP17-C)*%
X178054000Y-77978000D03*
%TO.P,U9,11*%
%TO.N,SELROM*%
X175514000Y-77978000D03*
%TO.P,U9,12*%
%TO.N,Net-(U8-Pad11)*%
X172974000Y-77978000D03*
%TO.P,U9,13*%
%TO.N,Net-(U9-Pad13)*%
X170434000Y-77978000D03*
%TO.P,U9,14,VCC*%
%TO.N,+5V*%
X167894000Y-77978000D03*
%TD*%
D10*
%TO.P,U8,1*%
%TO.N,Net-(U6-Pad3)*%
X192715000Y-85790000D03*
D11*
%TO.P,U8,2*%
%TO.N,Net-(U6-Pad11)*%
X195255000Y-85790000D03*
%TO.P,U8,3*%
%TO.N,Net-(U8-Pad13)*%
X197795000Y-85790000D03*
%TO.P,U8,4*%
%TO.N,Net-(U6-Pad6)*%
X200335000Y-85790000D03*
%TO.P,U8,5*%
%TO.N,Net-(U6-Pad8)*%
X202875000Y-85790000D03*
%TO.P,U8,6*%
%TO.N,Net-(U8-Pad12)*%
X205415000Y-85790000D03*
%TO.P,U8,7,GND*%
%TO.N,GND*%
X207955000Y-85790000D03*
%TO.P,U8,8*%
%TO.N,unconnected-(U8-Pad8)*%
X207955000Y-78170000D03*
%TO.P,U8,9*%
%TO.N,GND*%
X205415000Y-78170000D03*
%TO.P,U8,10*%
X202875000Y-78170000D03*
%TO.P,U8,11*%
%TO.N,Net-(U8-Pad11)*%
X200335000Y-78170000D03*
%TO.P,U8,12*%
%TO.N,Net-(U8-Pad12)*%
X197795000Y-78170000D03*
%TO.P,U8,13*%
%TO.N,Net-(U8-Pad13)*%
X195255000Y-78170000D03*
%TO.P,U8,14,VCC*%
%TO.N,+5V*%
X192715000Y-78170000D03*
%TD*%
D12*
%TO.P,R9,1*%
%TO.N,Net-(D1-K)*%
X67280000Y-79670000D03*
D11*
%TO.P,R9,2*%
%TO.N,GND*%
X67280000Y-72050000D03*
%TD*%
D12*
%TO.P,R4,1*%
%TO.N,+5V*%
X188540000Y-124490000D03*
D11*
%TO.P,R4,2*%
%TO.N,Net-(JP4-B)*%
X188540000Y-132110000D03*
%TD*%
D13*
%TO.P,JP7,1,A*%
%TO.N,GND*%
X126750000Y-117160000D03*
D14*
%TO.P,JP7,2,B*%
%TO.N,Net-(JP7-B)*%
X126750000Y-119700000D03*
%TD*%
D12*
%TO.P,R17,1*%
%TO.N,Net-(Q1-B)*%
X53520000Y-85740000D03*
D11*
%TO.P,R17,2*%
%TO.N,GND*%
X53520000Y-78120000D03*
%TD*%
D12*
%TO.P,C15,1*%
%TO.N,GND*%
X163560000Y-93380000D03*
%TO.P,C15,2*%
%TO.N,+5V*%
X163560000Y-88380000D03*
%TD*%
D15*
%TO.P,J1,1,GND*%
%TO.N,GND*%
X219890000Y-153070000D03*
%TO.P,J1,2,RESET*%
%TO.N,RESET*%
X217350000Y-153070000D03*
%TO.P,J1,3,VCC*%
%TO.N,+5V*%
X214810000Y-153070000D03*
%TO.P,J1,4,IRQ2*%
%TO.N,unconnected-(J1-IRQ2-Pad4)*%
X212270000Y-153070000D03*
%TO.P,J1,5,-5V*%
%TO.N,unconnected-(J1--5V-Pad5)*%
X209730000Y-153070000D03*
%TO.P,J1,6,DRQ2*%
%TO.N,unconnected-(J1-DRQ2-Pad6)*%
X207190000Y-153070000D03*
%TO.P,J1,7,-12V*%
%TO.N,unconnected-(J1--12V-Pad7)*%
X204650000Y-153070000D03*
%TO.P,J1,8,UNUSED*%
%TO.N,unconnected-(J1-UNUSED-Pad8)*%
X202110000Y-153070000D03*
%TO.P,J1,9,+12V*%
%TO.N,unconnected-(J1-+12V-Pad9)*%
X199570000Y-153070000D03*
%TO.P,J1,10,GND*%
%TO.N,GND*%
X197030000Y-153070000D03*
%TO.P,J1,11,~{SMEMW}*%
%TO.N,MEMW*%
X194490000Y-153070000D03*
%TO.P,J1,12,~{SMEMR}*%
%TO.N,MEMR*%
X191950000Y-153070000D03*
%TO.P,J1,13,~{IOW}*%
%TO.N,IOW*%
X189410000Y-153070000D03*
%TO.P,J1,14,~{IOR}*%
%TO.N,IOR*%
X186870000Y-153070000D03*
%TO.P,J1,15,~{DACK3}*%
%TO.N,unconnected-(J1-~{DACK3}-Pad15)*%
X184330000Y-153070000D03*
%TO.P,J1,16,DRQ3*%
%TO.N,unconnected-(J1-DRQ3-Pad16)*%
X181790000Y-153070000D03*
%TO.P,J1,17,~{DACK1}*%
%TO.N,unconnected-(J1-~{DACK1}-Pad17)*%
X179250000Y-153070000D03*
%TO.P,J1,18,DRQ1*%
%TO.N,unconnected-(J1-DRQ1-Pad18)*%
X176710000Y-153070000D03*
%TO.P,J1,19,~{DACK0}*%
%TO.N,unconnected-(J1-~{DACK0}-Pad19)*%
X174170000Y-153070000D03*
%TO.P,J1,20,CLK*%
%TO.N,unconnected-(J1-CLK-Pad20)*%
X171630000Y-153070000D03*
%TO.P,J1,21,IRQ7*%
%TO.N,unconnected-(J1-IRQ7-Pad21)*%
X169090000Y-153070000D03*
%TO.P,J1,22,IRQ6*%
%TO.N,unconnected-(J1-IRQ6-Pad22)*%
X166550000Y-153070000D03*
%TO.P,J1,23,IRQ5*%
%TO.N,unconnected-(J1-IRQ5-Pad23)*%
X164010000Y-153070000D03*
%TO.P,J1,24,IRQ4*%
%TO.N,unconnected-(J1-IRQ4-Pad24)*%
X161470000Y-153070000D03*
%TO.P,J1,25,IRQ3*%
%TO.N,unconnected-(J1-IRQ3-Pad25)*%
X158930000Y-153070000D03*
%TO.P,J1,26,~{DACK2}*%
%TO.N,unconnected-(J1-~{DACK2}-Pad26)*%
X156390000Y-153070000D03*
%TO.P,J1,27,TC*%
%TO.N,unconnected-(J1-TC-Pad27)*%
X153850000Y-153070000D03*
%TO.P,J1,28,ALE*%
%TO.N,unconnected-(J1-ALE-Pad28)*%
X151310000Y-153070000D03*
%TO.P,J1,29,VCC*%
%TO.N,unconnected-(J1-VCC-Pad29)*%
X148770000Y-153070000D03*
%TO.P,J1,30,OSC*%
%TO.N,unconnected-(J1-OSC-Pad30)*%
X146230000Y-153070000D03*
%TO.P,J1,31,GND*%
%TO.N,GND*%
X143690000Y-153070000D03*
%TD*%
D13*
%TO.P,JP12,1,A*%
%TO.N,GND*%
X159760000Y-84670000D03*
D14*
%TO.P,JP12,2,B*%
%TO.N,Net-(JP12-B)*%
X159760000Y-87210000D03*
%TD*%
D10*
%TO.P,D6,1,K*%
%TO.N,Net-(D4-A)*%
X175186000Y-64932000D03*
D11*
%TO.P,D6,2,A*%
%TO.N,+5V*%
X167566000Y-64932000D03*
%TD*%
D12*
%TO.P,C11,1*%
%TO.N,GND*%
X171376000Y-120812000D03*
%TO.P,C11,2*%
%TO.N,+5V*%
X166376000Y-120812000D03*
%TD*%
%TO.P,C3,1*%
%TO.N,Net-(U11-XTAL1{slash}PB6)*%
X75830000Y-108860000D03*
%TO.P,C3,2*%
%TO.N,GND*%
X70830000Y-108860000D03*
%TD*%
D10*
%TO.P,U3,1*%
%TO.N,Net-(U1-Pad3)*%
X166950000Y-117505000D03*
D11*
%TO.P,U3,2*%
%TO.N,Net-(U1-Pad6)*%
X169490000Y-117505000D03*
%TO.P,U3,3*%
%TO.N,Net-(U3-Pad10)*%
X172030000Y-117505000D03*
%TO.P,U3,4*%
%TO.N,Net-(U1-Pad11)*%
X174570000Y-117505000D03*
%TO.P,U3,5*%
%TO.N,Net-(U1-Pad8)*%
X177110000Y-117505000D03*
%TO.P,U3,6*%
%TO.N,Net-(U3-Pad6)*%
X179650000Y-117505000D03*
%TO.P,U3,7,GND*%
%TO.N,GND*%
X182190000Y-117505000D03*
%TO.P,U3,8*%
%TO.N,Net-(U3-Pad12)*%
X182190000Y-109885000D03*
%TO.P,U3,9*%
%TO.N,Net-(U3-Pad6)*%
X179650000Y-109885000D03*
%TO.P,U3,10*%
%TO.N,Net-(U3-Pad10)*%
X177110000Y-109885000D03*
%TO.P,U3,11*%
%TO.N,Net-(U3-Pad11)*%
X174570000Y-109885000D03*
%TO.P,U3,12*%
%TO.N,Net-(U3-Pad12)*%
X172030000Y-109885000D03*
%TO.P,U3,13*%
%TO.N,Net-(U3-Pad13)*%
X169490000Y-109885000D03*
%TO.P,U3,14,VCC*%
%TO.N,+5V*%
X166950000Y-109885000D03*
%TD*%
D13*
%TO.P,JP5,1,A*%
%TO.N,GND*%
X134560000Y-117160000D03*
D14*
%TO.P,JP5,2,B*%
%TO.N,Net-(JP5-B)*%
X134560000Y-119700000D03*
%TD*%
D12*
%TO.P,R12,1*%
%TO.N,+5V*%
X159800000Y-91550000D03*
D11*
%TO.P,R12,2*%
%TO.N,Net-(JP12-B)*%
X159800000Y-99170000D03*
%TD*%
D13*
%TO.P,JP3,1,A*%
%TO.N,GND*%
X192370000Y-116640000D03*
D14*
%TO.P,JP3,2,B*%
%TO.N,Net-(JP3-B)*%
X192370000Y-119180000D03*
%TD*%
D13*
%TO.P,JP10,1,A*%
%TO.N,Net-(J2-Pin_2)*%
X96010000Y-86440000D03*
D14*
%TO.P,JP10,2,B*%
%TO.N,Net-(D1-K)*%
X96010000Y-88980000D03*
%TD*%
D12*
%TO.P,R21,1*%
%TO.N,SCK*%
X92880000Y-82620000D03*
D11*
%TO.P,R21,2*%
%TO.N,Net-(U12-SCLK)*%
X100500000Y-82620000D03*
%TD*%
D10*
%TO.P,D9,1,K*%
%TO.N,Net-(D8-A)*%
X135600000Y-73510000D03*
D11*
%TO.P,D9,2,A*%
%TO.N,+5V*%
X135600000Y-65890000D03*
%TD*%
D12*
%TO.P,R3,1*%
%TO.N,+5V*%
X192350000Y-124490000D03*
D11*
%TO.P,R3,2*%
%TO.N,Net-(JP3-B)*%
X192350000Y-132110000D03*
%TD*%
D12*
%TO.P,R5,1*%
%TO.N,+5V*%
X136470000Y-124490000D03*
D11*
%TO.P,R5,2*%
%TO.N,Net-(JP5-B)*%
X136470000Y-132110000D03*
%TD*%
D10*
%TO.P,D4,1,K*%
%TO.N,Net-(D4-K)*%
X167566000Y-67726000D03*
D11*
%TO.P,D4,2,A*%
%TO.N,Net-(D4-A)*%
X175186000Y-67726000D03*
%TD*%
D12*
%TO.P,R31,1*%
%TO.N,Net-(D4-K)*%
X177900000Y-67930000D03*
D11*
%TO.P,R31,2*%
%TO.N,GND*%
X185520000Y-67930000D03*
%TD*%
D16*
%TO.P,D5,1,K*%
%TO.N,CS2*%
X108120000Y-83075000D03*
D17*
%TO.P,D5,2,A*%
%TO.N,Net-(D5-A)*%
X108120000Y-80535000D03*
%TD*%
D12*
%TO.P,R20,1*%
%TO.N,Net-(J4-Pin_7)*%
X68410000Y-83220000D03*
D11*
%TO.P,R20,2*%
%TO.N,PA1*%
X68410000Y-90840000D03*
%TD*%
D10*
%TO.P,U11,1,~{RESET}/PC6*%
%TO.N,ARESET*%
X61170000Y-101500000D03*
D11*
%TO.P,U11,2,PD0*%
%TO.N,PA0*%
X63710000Y-101500000D03*
%TO.P,U11,3,PD1*%
%TO.N,PA1*%
X66250000Y-101500000D03*
%TO.P,U11,4,PD2*%
%TO.N,PA2*%
X68790000Y-101500000D03*
%TO.P,U11,5,PD3*%
%TO.N,PA3*%
X71330000Y-101500000D03*
%TO.P,U11,6,PD4*%
%TO.N,PA4*%
X73870000Y-101500000D03*
%TO.P,U11,7,VCC*%
%TO.N,Net-(D1-K)*%
X76410000Y-101500000D03*
%TO.P,U11,8,GND*%
%TO.N,GND*%
X78950000Y-101500000D03*
%TO.P,U11,9,XTAL1/PB6*%
%TO.N,Net-(U11-XTAL1{slash}PB6)*%
X81490000Y-101500000D03*
%TO.P,U11,10,XTAL2/PB7*%
%TO.N,Net-(U11-XTAL2{slash}PB7)*%
X84030000Y-101500000D03*
%TO.P,U11,11,PD5*%
%TO.N,PA5*%
X86570000Y-101500000D03*
%TO.P,U11,12,PD6*%
%TO.N,PA6*%
X89110000Y-101500000D03*
%TO.P,U11,13,PD7*%
%TO.N,PA7*%
X91650000Y-101500000D03*
%TO.P,U11,14,PB0*%
%TO.N,CS3*%
X94190000Y-101500000D03*
%TO.P,U11,15,PB1*%
%TO.N,CS2*%
X94190000Y-93880000D03*
%TO.P,U11,16,PB2*%
%TO.N,CS*%
X91650000Y-93880000D03*
%TO.P,U11,17,PB3*%
%TO.N,MOSI*%
X89110000Y-93880000D03*
%TO.P,U11,18,PB4*%
%TO.N,MISO*%
X86570000Y-93880000D03*
%TO.P,U11,19,PB5*%
%TO.N,SCK*%
X84030000Y-93880000D03*
%TO.P,U11,20,AVCC*%
%TO.N,Net-(D1-K)*%
X81490000Y-93880000D03*
%TO.P,U11,21,AREF*%
%TO.N,Net-(U11-AREF)*%
X78950000Y-93880000D03*
%TO.P,U11,22,GND*%
%TO.N,GND*%
X76410000Y-93880000D03*
%TO.P,U11,23,PC0*%
%TO.N,PC4*%
X73870000Y-93880000D03*
%TO.P,U11,24,PC1*%
%TO.N,PC5*%
X71330000Y-93880000D03*
%TO.P,U11,25,PC2*%
%TO.N,PC6*%
X68790000Y-93880000D03*
%TO.P,U11,26,PC3*%
%TO.N,PC7*%
X66250000Y-93880000D03*
%TO.P,U11,27,PC4*%
%TO.N,APC4*%
X63710000Y-93880000D03*
%TO.P,U11,28,PC5*%
%TO.N,APC5*%
X61170000Y-93880000D03*
%TD*%
D14*
%TO.P,JP18,3,B*%
%TO.N,+5V*%
X144340000Y-94430000D03*
%TO.P,JP18,2,C*%
%TO.N,Net-(JP18-C)*%
X144340000Y-91890000D03*
D13*
%TO.P,JP18,1,A*%
%TO.N,MEMW*%
X144340000Y-89350000D03*
%TD*%
%TO.P,JP15,1,A*%
%TO.N,GND*%
X148220000Y-84530000D03*
D14*
%TO.P,JP15,2,B*%
%TO.N,Net-(JP15-B)*%
X148220000Y-87070000D03*
%TD*%
D13*
%TO.P,J5,1,Pin_1*%
%TO.N,PB0*%
X112700000Y-143460000D03*
D14*
%TO.P,J5,2,Pin_2*%
%TO.N,PB1*%
X110160000Y-143460000D03*
%TO.P,J5,3,Pin_3*%
%TO.N,PB2*%
X107620000Y-143460000D03*
%TO.P,J5,4,Pin_4*%
%TO.N,PB3*%
X105080000Y-143460000D03*
%TO.P,J5,5,Pin_5*%
%TO.N,PB4*%
X102540000Y-143460000D03*
%TO.P,J5,6,Pin_6*%
%TO.N,PB5*%
X100000000Y-143460000D03*
%TO.P,J5,7,Pin_7*%
%TO.N,PB6*%
X97460000Y-143460000D03*
%TO.P,J5,8,Pin_8*%
%TO.N,PB7*%
X94920000Y-143460000D03*
%TO.P,J5,9,Pin_9*%
%TO.N,unconnected-(J5-Pin_9-Pad9)*%
X92380000Y-143460000D03*
%TO.P,J5,10,Pin_10*%
%TO.N,PC0*%
X89840000Y-143460000D03*
%TO.P,J5,11,Pin_11*%
%TO.N,PC1*%
X87300000Y-143460000D03*
%TO.P,J5,12,Pin_12*%
%TO.N,PC2*%
X84760000Y-143460000D03*
%TO.P,J5,13,Pin_13*%
%TO.N,unconnected-(J5-Pin_13-Pad13)*%
X82220000Y-143460000D03*
%TO.P,J5,14,Pin_14*%
%TO.N,unconnected-(J5-Pin_14-Pad14)*%
X79680000Y-143460000D03*
%TO.P,J5,15,Pin_15*%
%TO.N,+5V*%
X77140000Y-143460000D03*
%TO.P,J5,16,Pin_16*%
%TO.N,GND*%
X74600000Y-143460000D03*
%TD*%
D18*
%TO.P,Q1,1,E*%
%TO.N,GND*%
X56110000Y-86420000D03*
D19*
%TO.P,Q1,2,B*%
%TO.N,Net-(Q1-B)*%
X58650000Y-86420000D03*
%TO.P,Q1,3,C*%
%TO.N,ARESET*%
X61190000Y-86420000D03*
%TD*%
D10*
%TO.P,C17,1*%
%TO.N,+5V*%
X215826000Y-106334000D03*
D12*
%TO.P,C17,2*%
%TO.N,GND*%
X217826000Y-106334000D03*
%TD*%
D19*
%TO.P,Y1,1,1*%
%TO.N,Net-(U11-XTAL2{slash}PB7)*%
X85770000Y-106180000D03*
%TO.P,Y1,2,2*%
%TO.N,Net-(U11-XTAL1{slash}PB6)*%
X80890000Y-106180000D03*
%TD*%
D12*
%TO.P,R19,1*%
%TO.N,PA0*%
X65260000Y-90840000D03*
D11*
%TO.P,R19,2*%
%TO.N,Net-(J4-Pin_5)*%
X65260000Y-83220000D03*
%TD*%
D12*
%TO.P,C14,1*%
%TO.N,GND*%
X107020000Y-114540000D03*
%TO.P,C14,2*%
%TO.N,+5V*%
X102020000Y-114540000D03*
%TD*%
%TO.P,R28,1*%
%TO.N,Net-(U13-~{CS})*%
X116180000Y-79040000D03*
D11*
%TO.P,R28,2*%
%TO.N,GND*%
X116180000Y-86660000D03*
%TD*%
D13*
%TO.P,J3,1,Pin_1*%
%TO.N,+5V*%
X89220000Y-65320000D03*
D14*
%TO.P,J3,2,Pin_2*%
%TO.N,unconnected-(J3-Pin_2-Pad2)*%
X91760000Y-65320000D03*
%TO.P,J3,3,Pin_3*%
%TO.N,GND*%
X89220000Y-67860000D03*
%TO.P,J3,4,Pin_4*%
%TO.N,MISO*%
X91760000Y-67860000D03*
%TO.P,J3,5,Pin_5*%
%TO.N,unconnected-(J3-Pin_5-Pad5)*%
X89220000Y-70400000D03*
%TO.P,J3,6,Pin_6*%
%TO.N,MOSI*%
X91760000Y-70400000D03*
%TO.P,J3,7,Pin_7*%
%TO.N,Net-(J3-Pin_7)*%
X89220000Y-72940000D03*
%TO.P,J3,8,Pin_8*%
%TO.N,CS3*%
X91760000Y-72940000D03*
%TO.P,J3,9,Pin_9*%
%TO.N,Net-(J3-Pin_9)*%
X89220000Y-75480000D03*
%TO.P,J3,10,Pin_10*%
%TO.N,SCK*%
X91760000Y-75480000D03*
%TD*%
D12*
%TO.P,C4,1*%
%TO.N,GND*%
X70810000Y-112010000D03*
%TO.P,C4,2*%
%TO.N,Net-(U11-XTAL2{slash}PB7)*%
X75810000Y-112010000D03*
%TD*%
%TO.P,R25,1*%
%TO.N,Net-(U12-DI)*%
X102770000Y-73260000D03*
D11*
%TO.P,R25,2*%
%TO.N,GND*%
X102770000Y-65640000D03*
%TD*%
D12*
%TO.P,R34,1*%
%TO.N,Net-(J3-Pin_7)*%
X74620000Y-82240000D03*
D11*
%TO.P,R34,2*%
%TO.N,CS2*%
X74620000Y-89860000D03*
%TD*%
D12*
%TO.P,C2,1*%
%TO.N,Net-(U11-AREF)*%
X71570000Y-88220000D03*
%TO.P,C2,2*%
%TO.N,GND*%
X71570000Y-83220000D03*
%TD*%
D13*
%TO.P,JP11,1,A*%
%TO.N,GND*%
X217120000Y-83840000D03*
D14*
%TO.P,JP11,2,B*%
%TO.N,Net-(JP11-B)*%
X217120000Y-86380000D03*
%TD*%
D12*
%TO.P,R13,1*%
%TO.N,+5V*%
X156390000Y-91500000D03*
D11*
%TO.P,R13,2*%
%TO.N,Net-(JP13-B)*%
X156390000Y-99120000D03*
%TD*%
%TO.P,R14,2*%
%TO.N,Net-(JP14-B)*%
X152880000Y-99010000D03*
D12*
%TO.P,R14,1*%
%TO.N,+5V*%
X152880000Y-91390000D03*
%TD*%
%TO.P,C5,1*%
%TO.N,Net-(J4-Pin_3)*%
X70490000Y-77850000D03*
%TO.P,C5,2*%
%TO.N,ARESET*%
X70490000Y-72850000D03*
%TD*%
%TO.P,R7,1*%
%TO.N,+5V*%
X128850000Y-124490000D03*
D11*
%TO.P,R7,2*%
%TO.N,Net-(JP7-B)*%
X128850000Y-132110000D03*
%TD*%
D12*
%TO.P,C7,1*%
%TO.N,GND*%
X136880000Y-79070000D03*
%TO.P,C7,2*%
%TO.N,Net-(D8-K)*%
X131880000Y-79070000D03*
%TD*%
D13*
%TO.P,JP1,1,A*%
%TO.N,GND*%
X200200000Y-116610000D03*
D14*
%TO.P,JP1,2,B*%
%TO.N,Net-(JP1-B)*%
X200200000Y-119150000D03*
%TD*%
D13*
%TO.P,JP9,1,A*%
%TO.N,Net-(D1-K)*%
X67744000Y-68742000D03*
D14*
%TO.P,JP9,2,B*%
%TO.N,+5V*%
X67744000Y-66202000D03*
%TD*%
D12*
%TO.P,R15,1*%
%TO.N,+5V*%
X149280000Y-91440000D03*
D11*
%TO.P,R15,2*%
%TO.N,Net-(JP15-B)*%
X149280000Y-99060000D03*
%TD*%
D10*
%TO.P,U5,1,PA3*%
%TO.N,PA3*%
X64080000Y-133126000D03*
D11*
%TO.P,U5,2,PA2*%
%TO.N,PA2*%
X66620000Y-133126000D03*
%TO.P,U5,3,PA1*%
%TO.N,PA1*%
X69160000Y-133126000D03*
%TO.P,U5,4,PA0*%
%TO.N,PA0*%
X71700000Y-133126000D03*
%TO.P,U5,5,~{RD}*%
%TO.N,IOR*%
X74240000Y-133126000D03*
%TO.P,U5,6,~{CS}*%
%TO.N,SEL8255*%
X76780000Y-133126000D03*
%TO.P,U5,7,GND*%
%TO.N,GND*%
X79320000Y-133126000D03*
%TO.P,U5,8,A1*%
%TO.N,A1*%
X81860000Y-133126000D03*
%TO.P,U5,9,A0*%
%TO.N,A0*%
X84400000Y-133126000D03*
%TO.P,U5,10,PC7*%
%TO.N,PC7*%
X86940000Y-133126000D03*
%TO.P,U5,11,PC6*%
%TO.N,PC6*%
X89480000Y-133126000D03*
%TO.P,U5,12,PC5*%
%TO.N,PC5*%
X92020000Y-133126000D03*
%TO.P,U5,13,PC4*%
%TO.N,PC4*%
X94560000Y-133126000D03*
%TO.P,U5,14,PC0*%
%TO.N,PC0*%
X97100000Y-133126000D03*
%TO.P,U5,15,PC1*%
%TO.N,PC1*%
X99640000Y-133126000D03*
%TO.P,U5,16,PC2*%
%TO.N,PC2*%
X102180000Y-133126000D03*
%TO.P,U5,17,PC3*%
%TO.N,PC3*%
X104720000Y-133126000D03*
%TO.P,U5,18,PB0*%
%TO.N,PB0*%
X107260000Y-133126000D03*
%TO.P,U5,19,PB1*%
%TO.N,PB1*%
X109800000Y-133126000D03*
%TO.P,U5,20,PB2*%
%TO.N,PB2*%
X112340000Y-133126000D03*
%TO.P,U5,21,PB3*%
%TO.N,PB3*%
X112340000Y-117886000D03*
%TO.P,U5,22,PB4*%
%TO.N,PB4*%
X109800000Y-117886000D03*
%TO.P,U5,23,PB5*%
%TO.N,PB5*%
X107260000Y-117886000D03*
%TO.P,U5,24,PB6*%
%TO.N,PB6*%
X104720000Y-117886000D03*
%TO.P,U5,25,PB7*%
%TO.N,PB7*%
X102180000Y-117886000D03*
%TO.P,U5,26,VCC*%
%TO.N,+5V*%
X99640000Y-117886000D03*
%TO.P,U5,27,D7*%
%TO.N,D7*%
X97100000Y-117886000D03*
%TO.P,U5,28,D6*%
%TO.N,D6*%
X94560000Y-117886000D03*
%TO.P,U5,29,D5*%
%TO.N,D5*%
X92020000Y-117886000D03*
%TO.P,U5,30,D4*%
%TO.N,D4*%
X89480000Y-117886000D03*
%TO.P,U5,31,D3*%
%TO.N,D3*%
X86940000Y-117886000D03*
%TO.P,U5,32,D2*%
%TO.N,D2*%
X84400000Y-117886000D03*
%TO.P,U5,33,D1*%
%TO.N,D1*%
X81860000Y-117886000D03*
%TO.P,U5,34,D0*%
%TO.N,D0*%
X79320000Y-117886000D03*
%TO.P,U5,35,RESET*%
%TO.N,RESET*%
X76780000Y-117886000D03*
%TO.P,U5,36,~{WR}*%
%TO.N,IOW*%
X74240000Y-117886000D03*
%TO.P,U5,37,PA7*%
%TO.N,PA7*%
X71700000Y-117886000D03*
%TO.P,U5,38,PA6*%
%TO.N,PA6*%
X69160000Y-117886000D03*
%TO.P,U5,39,PA5*%
%TO.N,PA5*%
X66620000Y-117886000D03*
%TO.P,U5,40,PA4*%
%TO.N,PA4*%
X64080000Y-117886000D03*
%TD*%
D12*
%TO.P,R11,1*%
%TO.N,+5V*%
X216900000Y-91160000D03*
D11*
%TO.P,R11,2*%
%TO.N,Net-(JP11-B)*%
X216900000Y-98780000D03*
%TD*%
D20*
%TO.P,SW1,1,1*%
%TO.N,ARESET*%
X60100000Y-74250000D03*
X53600000Y-74250000D03*
%TO.P,SW1,2,2*%
%TO.N,GND*%
X60100000Y-69750000D03*
X53600000Y-69750000D03*
%TD*%
D13*
%TO.P,JP13,1,A*%
%TO.N,GND*%
X155960000Y-84710000D03*
D14*
%TO.P,JP13,2,B*%
%TO.N,Net-(JP13-B)*%
X155960000Y-87250000D03*
%TD*%
D12*
%TO.P,C12,1*%
%TO.N,GND*%
X144198000Y-121320000D03*
%TO.P,C12,2*%
%TO.N,+5V*%
X139198000Y-121320000D03*
%TD*%
%TO.P,R32,1*%
%TO.N,+5V*%
X138650000Y-65950000D03*
D11*
%TO.P,R32,2*%
%TO.N,Net-(D7-A)*%
X138650000Y-73570000D03*
%TD*%
D12*
%TO.P,R2,1*%
%TO.N,+5V*%
X196160000Y-124490000D03*
D11*
%TO.P,R2,2*%
%TO.N,Net-(JP2-B)*%
X196160000Y-132110000D03*
%TD*%
D12*
%TO.P,R22,1*%
%TO.N,Net-(U12-SCLK)*%
X105930000Y-73260000D03*
D11*
%TO.P,R22,2*%
%TO.N,GND*%
X105930000Y-65640000D03*
%TD*%
D12*
%TO.P,R23,1*%
%TO.N,Net-(D3-K)*%
X98710000Y-69140000D03*
D11*
%TO.P,R23,2*%
%TO.N,CS3*%
X98710000Y-76760000D03*
%TD*%
D12*
%TO.P,R27,1*%
%TO.N,Net-(U12-~{CS})*%
X137150000Y-90060000D03*
D11*
%TO.P,R27,2*%
%TO.N,CS*%
X129530000Y-90060000D03*
%TD*%
D12*
%TO.P,R24,1*%
%TO.N,MOSI*%
X92870000Y-79440000D03*
D11*
%TO.P,R24,2*%
%TO.N,Net-(U12-DI)*%
X100490000Y-79440000D03*
%TD*%
D16*
%TO.P,D7,1,K*%
%TO.N,CS*%
X140560000Y-81355000D03*
D17*
%TO.P,D7,2,A*%
%TO.N,Net-(D7-A)*%
X140560000Y-78815000D03*
%TD*%
D13*
%TO.P,JP4,1,A*%
%TO.N,GND*%
X188430000Y-116600000D03*
D14*
%TO.P,JP4,2,B*%
%TO.N,Net-(JP4-B)*%
X188430000Y-119140000D03*
%TD*%
D10*
%TO.P,U1,1*%
%TO.N,A6*%
X166945000Y-132100000D03*
D11*
%TO.P,U1,2*%
%TO.N,Net-(JP4-B)*%
X169485000Y-132100000D03*
%TO.P,U1,3*%
%TO.N,Net-(U1-Pad3)*%
X172025000Y-132100000D03*
%TO.P,U1,4*%
%TO.N,A7*%
X174565000Y-132100000D03*
%TO.P,U1,5*%
%TO.N,Net-(JP3-B)*%
X177105000Y-132100000D03*
%TO.P,U1,6*%
%TO.N,Net-(U1-Pad6)*%
X179645000Y-132100000D03*
%TO.P,U1,7,GND*%
%TO.N,GND*%
X182185000Y-132100000D03*
%TO.P,U1,8*%
%TO.N,Net-(U1-Pad8)*%
X182185000Y-124480000D03*
%TO.P,U1,9*%
%TO.N,A9*%
X179645000Y-124480000D03*
%TO.P,U1,10*%
%TO.N,Net-(JP1-B)*%
X177105000Y-124480000D03*
%TO.P,U1,11*%
%TO.N,Net-(U1-Pad11)*%
X174565000Y-124480000D03*
%TO.P,U1,12*%
%TO.N,Net-(JP2-B)*%
X172025000Y-124480000D03*
%TO.P,U1,13*%
%TO.N,A8*%
X169485000Y-124480000D03*
%TO.P,U1,14,VCC*%
%TO.N,+5V*%
X166945000Y-124480000D03*
%TD*%
D12*
%TO.P,R1,1*%
%TO.N,+5V*%
X199970000Y-124490000D03*
D11*
%TO.P,R1,2*%
%TO.N,Net-(JP1-B)*%
X199970000Y-132110000D03*
%TD*%
D10*
%TO.P,U6,1*%
%TO.N,A17*%
X192680000Y-98740000D03*
D11*
%TO.P,U6,2*%
%TO.N,Net-(JP11-B)*%
X195220000Y-98740000D03*
%TO.P,U6,3*%
%TO.N,Net-(U6-Pad3)*%
X197760000Y-98740000D03*
%TO.P,U6,4*%
%TO.N,AEN*%
X200300000Y-98740000D03*
%TO.P,U6,5*%
%TO.N,GND*%
X202840000Y-98740000D03*
%TO.P,U6,6*%
%TO.N,Net-(U6-Pad6)*%
X205380000Y-98740000D03*
%TO.P,U6,7,GND*%
%TO.N,GND*%
X207920000Y-98740000D03*
%TO.P,U6,8*%
%TO.N,Net-(U6-Pad8)*%
X207920000Y-91120000D03*
%TO.P,U6,9*%
%TO.N,A19*%
X205380000Y-91120000D03*
%TO.P,U6,10*%
%TO.N,+5V*%
X202840000Y-91120000D03*
%TO.P,U6,11*%
%TO.N,Net-(U6-Pad11)*%
X200300000Y-91120000D03*
%TO.P,U6,12*%
%TO.N,+5V*%
X197760000Y-91120000D03*
%TO.P,U6,13*%
%TO.N,A18*%
X195220000Y-91120000D03*
%TO.P,U6,14,VCC*%
%TO.N,+5V*%
X192680000Y-91120000D03*
%TD*%
D10*
%TO.P,U4,1*%
%TO.N,Net-(U2-Pad3)*%
X142815000Y-116860000D03*
D11*
%TO.P,U4,2*%
%TO.N,Net-(U2-Pad6)*%
X145355000Y-116860000D03*
%TO.P,U4,3*%
%TO.N,Net-(U4-Pad10)*%
X147895000Y-116860000D03*
%TO.P,U4,4*%
%TO.N,Net-(U2-Pad11)*%
X150435000Y-116860000D03*
%TO.P,U4,5*%
%TO.N,Net-(U2-Pad8)*%
X152975000Y-116860000D03*
%TO.P,U4,6*%
%TO.N,Net-(U4-Pad6)*%
X155515000Y-116860000D03*
%TO.P,U4,7,GND*%
%TO.N,GND*%
X158055000Y-116860000D03*
%TO.P,U4,8*%
%TO.N,Net-(U3-Pad13)*%
X158055000Y-109240000D03*
%TO.P,U4,9*%
%TO.N,Net-(U4-Pad6)*%
X155515000Y-109240000D03*
%TO.P,U4,10*%
%TO.N,Net-(U4-Pad10)*%
X152975000Y-109240000D03*
%TO.P,U4,11*%
%TO.N,SEL8255*%
X150435000Y-109240000D03*
%TO.P,U4,12*%
%TO.N,Net-(U3-Pad11)*%
X147895000Y-109240000D03*
%TO.P,U4,13*%
%TO.N,AEN*%
X145355000Y-109240000D03*
%TO.P,U4,14,VCC*%
%TO.N,+5V*%
X142815000Y-109240000D03*
%TD*%
D12*
%TO.P,C13,1*%
%TO.N,GND*%
X145210000Y-100870000D03*
%TO.P,C13,2*%
%TO.N,+5V*%
X140210000Y-100870000D03*
%TD*%
%TO.P,R29,1*%
%TO.N,Net-(U13-~{CS})*%
X113350000Y-86522000D03*
D11*
%TO.P,R29,2*%
%TO.N,CS2*%
X105730000Y-86522000D03*
%TD*%
D16*
%TO.P,D3,1,K*%
%TO.N,Net-(D3-K)*%
X98710000Y-66820000D03*
D17*
%TO.P,D3,2,A*%
%TO.N,+5V*%
X98710000Y-64280000D03*
%TD*%
D12*
%TO.P,R35,1*%
%TO.N,Net-(J3-Pin_9)*%
X77800000Y-82240000D03*
D11*
%TO.P,R35,2*%
%TO.N,CS*%
X77800000Y-89860000D03*
%TD*%
D12*
%TO.P,C16,1*%
%TO.N,GND*%
X187632000Y-92110000D03*
%TO.P,C16,2*%
%TO.N,+5V*%
X187632000Y-87110000D03*
%TD*%
D13*
%TO.P,JP19,1,A*%
%TO.N,GND*%
X163500000Y-78040000D03*
D14*
%TO.P,JP19,2,C*%
%TO.N,Net-(JP19-C)*%
X163500000Y-80580000D03*
%TO.P,JP19,3,B*%
%TO.N,Net-(JP19-B)*%
X163500000Y-83120000D03*
%TD*%
D13*
%TO.P,JP2,1,A*%
%TO.N,GND*%
X196290000Y-116630000D03*
D14*
%TO.P,JP2,2,B*%
%TO.N,Net-(JP2-B)*%
X196290000Y-119170000D03*
%TD*%
D10*
%TO.P,U2,1*%
%TO.N,A2*%
X142815000Y-132100000D03*
D11*
%TO.P,U2,2*%
%TO.N,Net-(JP8-B)*%
X145355000Y-132100000D03*
%TO.P,U2,3*%
%TO.N,Net-(U2-Pad3)*%
X147895000Y-132100000D03*
%TO.P,U2,4*%
%TO.N,A3*%
X150435000Y-132100000D03*
%TO.P,U2,5*%
%TO.N,Net-(JP7-B)*%
X152975000Y-132100000D03*
%TO.P,U2,6*%
%TO.N,Net-(U2-Pad6)*%
X155515000Y-132100000D03*
%TO.P,U2,7,GND*%
%TO.N,GND*%
X158055000Y-132100000D03*
%TO.P,U2,8*%
%TO.N,Net-(U2-Pad8)*%
X158055000Y-124480000D03*
%TO.P,U2,9*%
%TO.N,A5*%
X155515000Y-124480000D03*
%TO.P,U2,10*%
%TO.N,Net-(JP5-B)*%
X152975000Y-124480000D03*
%TO.P,U2,11*%
%TO.N,Net-(U2-Pad11)*%
X150435000Y-124480000D03*
%TO.P,U2,12*%
%TO.N,A4*%
X147895000Y-124480000D03*
%TO.P,U2,13*%
%TO.N,Net-(JP6-B)*%
X145355000Y-124480000D03*
%TO.P,U2,14,VCC*%
%TO.N,+5V*%
X142815000Y-124480000D03*
%TD*%
D12*
%TO.P,R6,1*%
%TO.N,+5V*%
X132660000Y-124490000D03*
D11*
%TO.P,R6,2*%
%TO.N,Net-(JP6-B)*%
X132660000Y-132110000D03*
%TD*%
D12*
%TO.P,R30,1*%
%TO.N,Net-(D5-A)*%
X108990000Y-73270000D03*
D11*
%TO.P,R30,2*%
%TO.N,+5V*%
X108990000Y-65650000D03*
%TD*%
D10*
%TO.P,D8,1,K*%
%TO.N,Net-(D8-K)*%
X132006000Y-76108000D03*
D11*
%TO.P,D8,2,A*%
%TO.N,Net-(D8-A)*%
X139626000Y-76108000D03*
%TD*%
D10*
%TO.P,U10,1,A14*%
%TO.N,A14*%
X135830000Y-93700000D03*
D11*
%TO.P,U10,2,A12*%
%TO.N,A12*%
X133290000Y-93700000D03*
%TO.P,U10,3,A7*%
%TO.N,A7*%
X130750000Y-93700000D03*
%TO.P,U10,4,A6*%
%TO.N,A6*%
X128210000Y-93700000D03*
%TO.P,U10,5,A5*%
%TO.N,A5*%
X125670000Y-93700000D03*
%TO.P,U10,6,A4*%
%TO.N,A4*%
X123130000Y-93700000D03*
%TO.P,U10,7,A3*%
%TO.N,A3*%
X120590000Y-93700000D03*
%TO.P,U10,8,A2*%
%TO.N,A2*%
X118050000Y-93700000D03*
%TO.P,U10,9,A1*%
%TO.N,A1*%
X115510000Y-93700000D03*
%TO.P,U10,10,A0*%
%TO.N,A0*%
X112970000Y-93700000D03*
%TO.P,U10,11,D0*%
%TO.N,D0*%
X110430000Y-93700000D03*
%TO.P,U10,12,D1*%
%TO.N,D1*%
X107890000Y-93700000D03*
%TO.P,U10,13,D2*%
%TO.N,D2*%
X105350000Y-93700000D03*
%TO.P,U10,14,GND*%
%TO.N,GND*%
X102810000Y-93700000D03*
%TO.P,U10,15,D3*%
%TO.N,D3*%
X102810000Y-108940000D03*
%TO.P,U10,16,D4*%
%TO.N,D4*%
X105350000Y-108940000D03*
%TO.P,U10,17,D5*%
%TO.N,D5*%
X107890000Y-108940000D03*
%TO.P,U10,18,D6*%
%TO.N,D6*%
X110430000Y-108940000D03*
%TO.P,U10,19,D7*%
%TO.N,D7*%
X112970000Y-108940000D03*
%TO.P,U10,20,~{CS}*%
%TO.N,SELROM*%
X115510000Y-108940000D03*
%TO.P,U10,21,A10*%
%TO.N,A10*%
X118050000Y-108940000D03*
%TO.P,U10,22,~{OE}*%
%TO.N,MEMR*%
X120590000Y-108940000D03*
%TO.P,U10,23,A11*%
%TO.N,A11*%
X123130000Y-108940000D03*
%TO.P,U10,24,A9*%
%TO.N,A9*%
X125670000Y-108940000D03*
%TO.P,U10,25,A8*%
%TO.N,A8*%
X128210000Y-108940000D03*
%TO.P,U10,26,A13*%
%TO.N,A13*%
X130750000Y-108940000D03*
%TO.P,U10,27,~{WE}*%
%TO.N,Net-(JP18-C)*%
X133290000Y-108940000D03*
%TO.P,U10,28,VCC*%
%TO.N,+5V*%
X135830000Y-108940000D03*
%TD*%
D12*
%TO.P,R26,1*%
%TO.N,Net-(U12-~{CS})*%
X137170000Y-86860000D03*
D11*
%TO.P,R26,2*%
%TO.N,GND*%
X129550000Y-86860000D03*
%TD*%
D13*
%TO.P,J2,1,Pin_1*%
%TO.N,MISO*%
X89490000Y-86140000D03*
D14*
%TO.P,J2,2,Pin_2*%
%TO.N,Net-(J2-Pin_2)*%
X89490000Y-88680000D03*
%TO.P,J2,3,Pin_3*%
%TO.N,SCK*%
X86950000Y-86140000D03*
%TO.P,J2,4,Pin_4*%
%TO.N,MOSI*%
X86950000Y-88680000D03*
%TO.P,J2,5,Pin_5*%
%TO.N,ARESET*%
X84410000Y-86140000D03*
%TO.P,J2,6,Pin_6*%
%TO.N,GND*%
X84410000Y-88680000D03*
%TD*%
D10*
%TO.P,D1,1,K*%
%TO.N,Net-(D1-K)*%
X64188000Y-72806000D03*
D11*
%TO.P,D1,2,A*%
%TO.N,+5V*%
X64188000Y-65186000D03*
%TD*%
D13*
%TO.P,JP14,1,A*%
%TO.N,GND*%
X152020000Y-84670000D03*
D14*
%TO.P,JP14,2,B*%
%TO.N,Net-(JP14-B)*%
X152020000Y-87210000D03*
%TD*%
D13*
%TO.P,JP8,1,A*%
%TO.N,GND*%
X122880000Y-117160000D03*
D14*
%TO.P,JP8,2,B*%
%TO.N,Net-(JP8-B)*%
X122880000Y-119700000D03*
%TD*%
D12*
%TO.P,R33,1*%
%TO.N,Net-(D8-K)*%
X132580000Y-73440000D03*
D11*
%TO.P,R33,2*%
%TO.N,GND*%
X132580000Y-65820000D03*
%TD*%
D13*
%TO.P,J4,1,Pin_1*%
%TO.N,unconnected-(J4-Pin_1-Pad1)*%
X80600000Y-75230000D03*
D14*
%TO.P,J4,2,Pin_2*%
%TO.N,+5V*%
X78060000Y-75230000D03*
%TO.P,J4,3,Pin_3*%
%TO.N,Net-(J4-Pin_3)*%
X80600000Y-72690000D03*
%TO.P,J4,4,Pin_4*%
%TO.N,unconnected-(J4-Pin_4-Pad4)*%
X78060000Y-72690000D03*
%TO.P,J4,5,Pin_5*%
%TO.N,Net-(J4-Pin_5)*%
X80600000Y-70150000D03*
%TO.P,J4,6,Pin_6*%
%TO.N,APC4*%
X78060000Y-70150000D03*
%TO.P,J4,7,Pin_7*%
%TO.N,Net-(J4-Pin_7)*%
X80600000Y-67610000D03*
%TO.P,J4,8,Pin_8*%
%TO.N,APC5*%
X78060000Y-67610000D03*
%TO.P,J4,9,Pin_9*%
%TO.N,GND*%
X80600000Y-65070000D03*
%TO.P,J4,10,Pin_10*%
X78060000Y-65070000D03*
%TD*%
D10*
%TO.P,U7,1*%
%TO.N,A13*%
X167889000Y-98796000D03*
D11*
%TO.P,U7,2*%
%TO.N,Net-(JP15-B)*%
X170429000Y-98796000D03*
%TO.P,U7,3*%
%TO.N,Net-(JP19-B)*%
X172969000Y-98796000D03*
%TO.P,U7,4*%
%TO.N,Net-(JP13-B)*%
X175509000Y-98796000D03*
%TO.P,U7,5*%
%TO.N,A15*%
X178049000Y-98796000D03*
%TO.P,U7,6*%
%TO.N,Net-(U7-Pad6)*%
X180589000Y-98796000D03*
%TO.P,U7,7,GND*%
%TO.N,GND*%
X183129000Y-98796000D03*
%TO.P,U7,8*%
%TO.N,Net-(U7-Pad8)*%
X183129000Y-91176000D03*
%TO.P,U7,9*%
%TO.N,A16*%
X180589000Y-91176000D03*
%TO.P,U7,10*%
%TO.N,Net-(JP12-B)*%
X178049000Y-91176000D03*
%TO.P,U7,11*%
%TO.N,Net-(U7-Pad11)*%
X175509000Y-91176000D03*
%TO.P,U7,12*%
%TO.N,A14*%
X172969000Y-91176000D03*
%TO.P,U7,13*%
%TO.N,Net-(JP14-B)*%
X170429000Y-91176000D03*
%TO.P,U7,14,VCC*%
%TO.N,+5V*%
X167889000Y-91176000D03*
%TD*%
D12*
%TO.P,C6,1*%
%TO.N,GND*%
X182980000Y-64780000D03*
%TO.P,C6,2*%
%TO.N,Net-(D4-K)*%
X177980000Y-64780000D03*
%TD*%
D13*
%TO.P,JP17,1,A*%
%TO.N,GND*%
X180570000Y-72950000D03*
D14*
%TO.P,JP17,2,C*%
%TO.N,Net-(JP17-C)*%
X178030000Y-72950000D03*
%TO.P,JP17,3,B*%
%TO.N,Net-(JP17-B)*%
X175490000Y-72950000D03*
%TD*%
D10*
%TO.P,D2,1,K*%
%TO.N,Net-(D1-K)*%
X64260000Y-77680000D03*
D11*
%TO.P,D2,2,A*%
%TO.N,ARESET*%
X56640000Y-77680000D03*
%TD*%
D12*
%TO.P,C1,1*%
%TO.N,Net-(D1-K)*%
X75810000Y-105770000D03*
%TO.P,C1,2*%
%TO.N,GND*%
X70810000Y-105770000D03*
%TD*%
D13*
%TO.P,JP6,1,A*%
%TO.N,GND*%
X130580000Y-117200000D03*
D14*
%TO.P,JP6,2,B*%
%TO.N,Net-(JP6-B)*%
X130580000Y-119740000D03*
%TD*%
D12*
%TO.P,R10,1*%
%TO.N,RESET*%
X64350000Y-114500000D03*
D11*
%TO.P,R10,2*%
%TO.N,Net-(Q1-B)*%
X54190000Y-114500000D03*
%TD*%
D12*
%TO.P,R18,1*%
%TO.N,Net-(D1-K)*%
X64260000Y-80590000D03*
D11*
%TO.P,R18,2*%
%TO.N,ARESET*%
X56640000Y-80590000D03*
%TD*%
D12*
%TO.P,R8,1*%
%TO.N,+5V*%
X125040000Y-124490000D03*
D11*
%TO.P,R8,2*%
%TO.N,Net-(JP8-B)*%
X125040000Y-132110000D03*
%TD*%
D21*
%TO.N,Net-(U8-Pad11)*%
X172974000Y-74850000D03*
%TO.N,GND*%
X208820000Y-101470000D03*
X200920000Y-95860000D03*
%TO.N,Net-(JP14-B)*%
X168580000Y-93600000D03*
X155630000Y-93360000D03*
X162750000Y-91400000D03*
%TO.N,A13*%
X167889000Y-101800000D03*
%TO.N,Net-(JP13-B)*%
X164930000Y-96800000D03*
%TO.N,Net-(JP12-B)*%
X171290000Y-93920000D03*
%TO.N,AEN*%
X207920000Y-97060000D03*
%TO.N,Net-(D1-K)*%
X73850000Y-85230000D03*
%TO.N,Net-(D4-K)*%
X153596000Y-72552000D03*
%TO.N,Net-(D8-K)*%
X120720000Y-78050000D03*
%TO.N,GND*%
X219890000Y-146085000D03*
X76820000Y-130640000D03*
X214792000Y-136580000D03*
X141150000Y-146085000D03*
%TO.N,RESET*%
X203570000Y-112540000D03*
X216824000Y-134040000D03*
X113120000Y-119540000D03*
%TO.N,+5V*%
X220440000Y-91640000D03*
X215300000Y-134802000D03*
X92570000Y-137140000D03*
X140850000Y-116760000D03*
X99010000Y-122110000D03*
X208850000Y-89600000D03*
X184222000Y-122458000D03*
%TO.N,A9*%
X161720000Y-125638000D03*
X169450000Y-144790000D03*
X126580000Y-113400000D03*
X178340345Y-129609655D03*
%TO.N,A8*%
X167320000Y-144810000D03*
X161870000Y-123030000D03*
X128250000Y-113300000D03*
%TO.N,A7*%
X164320000Y-144740000D03*
X131790000Y-107070000D03*
X139270000Y-111200000D03*
%TO.N,A6*%
X138200000Y-112260000D03*
X161590000Y-144760000D03*
X129410000Y-107030000D03*
%TO.N,A5*%
X124180000Y-107150000D03*
X156230000Y-146200000D03*
X124550000Y-113510000D03*
%TO.N,A4*%
X150100000Y-126914500D03*
X134320000Y-132950000D03*
X121860000Y-107230000D03*
X153800000Y-146310000D03*
%TO.N,A3*%
X151300000Y-146270000D03*
X119250000Y-107220000D03*
X146430000Y-130090000D03*
%TO.N,A2*%
X148770000Y-146200000D03*
X116970000Y-107250000D03*
%TO.N,A1*%
X146310000Y-145980000D03*
%TO.N,A0*%
X143690000Y-145960000D03*
X83210000Y-128510000D03*
%TO.N,Net-(U2-Pad3)*%
X146620000Y-125610000D03*
%TO.N,Net-(U2-Pad6)*%
X148390000Y-120450000D03*
%TO.N,IOW*%
X188270000Y-146480000D03*
X131340000Y-143360000D03*
%TO.N,IOR*%
X133050000Y-144350000D03*
X185760000Y-146320000D03*
%TO.N,D7*%
X141590000Y-133950000D03*
%TO.N,D6*%
X142390000Y-134840000D03*
%TO.N,D5*%
X143330000Y-135564500D03*
%TO.N,D4*%
X144130000Y-136550000D03*
%TO.N,D3*%
X145130000Y-137330000D03*
%TO.N,D2*%
X146140000Y-138230000D03*
%TO.N,D1*%
X147200000Y-139000000D03*
%TO.N,D0*%
X148460000Y-139850000D03*
%TO.N,SEL8255*%
X114750000Y-119490000D03*
%TO.N,MEMW*%
X139540000Y-87580000D03*
%TO.N,MEMR*%
X121240000Y-112420000D03*
%TO.N,A19*%
X193190000Y-143250000D03*
%TO.N,A18*%
X191000000Y-143150000D03*
%TO.N,A17*%
X187170000Y-144160000D03*
%TO.N,A16*%
X184680000Y-144050000D03*
%TO.N,A15*%
X183650000Y-142950000D03*
%TO.N,A14*%
X181720000Y-143020000D03*
%TO.N,A13*%
X179340000Y-142930000D03*
X166790000Y-104055000D03*
%TO.N,A12*%
X176780000Y-142950000D03*
%TO.N,A11*%
X122750000Y-113410000D03*
X118240000Y-120730000D03*
%TO.N,A10*%
X117930000Y-113710000D03*
X117100000Y-120110000D03*
%TO.N,ARESET*%
X55010000Y-101370000D03*
%TO.N,Net-(JP3-B)*%
X181010000Y-133180000D03*
%TO.N,MISO*%
X123730000Y-69160000D03*
X93540000Y-74190000D03*
X156960000Y-71070000D03*
%TO.N,Net-(JP4-B)*%
X184980000Y-132960000D03*
%TO.N,Net-(JP5-B)*%
X134640000Y-128750000D03*
%TO.N,Net-(JP11-B)*%
X210728000Y-100004000D03*
%TO.N,APC4*%
X62680000Y-84890000D03*
%TO.N,APC5*%
X60860000Y-82960000D03*
%TO.N,CS2*%
X76340000Y-97320000D03*
%TO.N,PC7*%
X86420000Y-137450000D03*
%TO.N,PC1*%
X95660000Y-134900000D03*
%TO.N,PB3*%
X108980000Y-136870000D03*
X111140000Y-121440000D03*
%TO.N,PB4*%
X108590000Y-121294500D03*
X107770000Y-135860000D03*
%TO.N,PB5*%
X106670000Y-121294500D03*
X105970000Y-135550000D03*
%TO.N,PB6*%
X104710000Y-121294500D03*
X103470000Y-135380000D03*
%TO.N,PB7*%
X102180000Y-121340000D03*
X100760000Y-135290000D03*
%TO.N,Net-(U12-SCLK)*%
X121300000Y-71500000D03*
X154350000Y-71550000D03*
%TO.N,Net-(U12-DI)*%
X118910000Y-70380000D03*
X151590000Y-70330000D03*
%TO.N,Net-(U12-~{CS})*%
X151490000Y-76560000D03*
%TO.N,Net-(U13-~{CS})*%
X118480000Y-76860000D03*
%TO.N,AEN*%
X146030000Y-106620000D03*
X197012000Y-142930000D03*
X190310000Y-106090000D03*
%TO.N,Net-(U3-Pad11)*%
X149650000Y-106745000D03*
%TD*%
D22*
%TO.N,SELROM*%
X175514000Y-77978000D02*
X175514000Y-77424000D01*
X138150000Y-91880000D02*
X118208990Y-91880000D01*
X175514000Y-77424000D02*
X173980000Y-75890000D01*
X173980000Y-75890000D02*
X156390000Y-75890000D01*
X156390000Y-75890000D02*
X150910000Y-81370000D01*
X150910000Y-81370000D02*
X146370000Y-81370000D01*
X146370000Y-81370000D02*
X140684511Y-87055489D01*
X140684511Y-87055489D02*
X140684511Y-89345489D01*
X140684511Y-89345489D02*
X138150000Y-91880000D01*
X116800000Y-93288990D02*
X116800000Y-95180000D01*
X118208990Y-91880000D02*
X116800000Y-93288990D01*
X116800000Y-95180000D02*
X115510000Y-96470000D01*
X115510000Y-96470000D02*
X115510000Y-108940000D01*
%TO.N,Net-(U8-Pad11)*%
X172974000Y-74850000D02*
X173060000Y-74764000D01*
X173060000Y-74764000D02*
X173060000Y-72240000D01*
X173060000Y-72240000D02*
X174240000Y-71060000D01*
X174240000Y-71060000D02*
X193225000Y-71060000D01*
X193225000Y-71060000D02*
X200335000Y-78170000D01*
%TO.N,Net-(JP17-B)*%
X176730000Y-80530000D02*
X176730000Y-74190000D01*
X172974000Y-85598000D02*
X172974000Y-84286000D01*
X176730000Y-74190000D02*
X175490000Y-72950000D01*
%TO.N,Net-(JP17-C)*%
X178070000Y-77962000D02*
X178054000Y-77978000D01*
X178030000Y-72950000D02*
X178070000Y-72990000D01*
%TO.N,Net-(JP17-B)*%
X172974000Y-84286000D02*
X176730000Y-80530000D01*
%TO.N,Net-(JP17-C)*%
X178070000Y-72990000D02*
X178070000Y-77962000D01*
%TO.N,GND*%
X207920000Y-100570000D02*
X208820000Y-101470000D01*
X207920000Y-98740000D02*
X207920000Y-100570000D01*
X200920000Y-96820000D02*
X200920000Y-95860000D01*
X202840000Y-98740000D02*
X200920000Y-96820000D01*
%TO.N,Net-(U8-Pad12)*%
X197795000Y-78170000D02*
X205415000Y-85790000D01*
%TO.N,Net-(U8-Pad13)*%
X195255000Y-78170000D02*
X195255000Y-81925000D01*
X195255000Y-81925000D02*
X197795000Y-84465000D01*
X197795000Y-84465000D02*
X197795000Y-85790000D01*
%TO.N,Net-(U9-Pad6)*%
X180594000Y-85598000D02*
X180594000Y-77978000D01*
%TO.N,Net-(U7-Pad8)*%
X183129000Y-91176000D02*
X183129000Y-89299000D01*
X183129000Y-89299000D02*
X181590000Y-87760000D01*
X181590000Y-87760000D02*
X179440000Y-87760000D01*
X179440000Y-87760000D02*
X178054000Y-86374000D01*
X178054000Y-86374000D02*
X178054000Y-85598000D01*
%TO.N,Net-(U7-Pad6)*%
X180589000Y-98796000D02*
X180589000Y-96929000D01*
X180589000Y-96929000D02*
X179330000Y-95670000D01*
X179330000Y-95670000D02*
X179330000Y-89940000D01*
X179330000Y-89940000D02*
X175514000Y-86124000D01*
X175514000Y-86124000D02*
X175514000Y-85598000D01*
%TO.N,Net-(JP15-B)*%
X149280000Y-99060000D02*
X151900000Y-101680000D01*
X151900000Y-101680000D02*
X162380000Y-101680000D01*
X167130000Y-96930000D02*
X169050000Y-96930000D01*
X162380000Y-101680000D02*
X167130000Y-96930000D01*
X169050000Y-96930000D02*
X170429000Y-98309000D01*
X170429000Y-98309000D02*
X170429000Y-98796000D01*
%TO.N,Net-(JP14-B)*%
X162750000Y-91400000D02*
X164560000Y-91400000D01*
X153390000Y-93000000D02*
X152880000Y-93510000D01*
X164560000Y-91400000D02*
X166760000Y-93600000D01*
X154480000Y-91910000D02*
X153390000Y-93000000D01*
X153390000Y-93000000D02*
X153750000Y-93360000D01*
X166760000Y-93600000D02*
X168580000Y-93600000D01*
X153750000Y-93360000D02*
X155630000Y-93360000D01*
%TO.N,Net-(JP19-B)*%
X163500000Y-83120000D02*
X161740000Y-84880000D01*
X161740000Y-84880000D02*
X161740000Y-88221701D01*
X164560000Y-90080000D02*
X167180000Y-92700000D01*
X161740000Y-88221701D02*
X163598299Y-90080000D01*
X163598299Y-90080000D02*
X164560000Y-90080000D01*
X167180000Y-92700000D02*
X171850000Y-92700000D01*
X171850000Y-92700000D02*
X172969000Y-93819000D01*
X172969000Y-93819000D02*
X172969000Y-98796000D01*
%TO.N,Net-(JP12-B)*%
X161460000Y-95560000D02*
X161460000Y-97510000D01*
X161460000Y-90750000D02*
X161460000Y-95560000D01*
X161460000Y-95560000D02*
X169650000Y-95560000D01*
X169650000Y-95560000D02*
X171290000Y-93920000D01*
%TO.N,A14*%
X142345000Y-86645000D02*
X142350000Y-86640000D01*
X142350000Y-86640000D02*
X145160000Y-86640000D01*
X169180000Y-100630000D02*
X171160000Y-102610000D01*
X145160000Y-86640000D02*
X147630000Y-89110000D01*
X165280000Y-102630000D02*
X167280000Y-100630000D01*
X147630000Y-89110000D02*
X147630000Y-100180000D01*
X147630000Y-100180000D02*
X150080000Y-102630000D01*
X150080000Y-102630000D02*
X165280000Y-102630000D01*
X167280000Y-100630000D02*
X169180000Y-100630000D01*
X171160000Y-102610000D02*
X178800000Y-102610000D01*
%TO.N,A12*%
X189580000Y-104100000D02*
X193690000Y-104100000D01*
X189430000Y-104250000D02*
X189580000Y-104100000D01*
X146690000Y-92020000D02*
X146690000Y-100520000D01*
X149450000Y-103280000D02*
X168270000Y-103280000D01*
X169240000Y-104250000D02*
X189430000Y-104250000D01*
X204490000Y-130030000D02*
X200378000Y-134142000D01*
X168270000Y-103280000D02*
X169240000Y-104250000D01*
X138230000Y-95260000D02*
X142850000Y-90640000D01*
X145310000Y-90640000D02*
X146690000Y-92020000D01*
X193690000Y-104100000D02*
X195000000Y-105410000D01*
X146690000Y-100520000D02*
X149450000Y-103280000D01*
X176870000Y-142950000D02*
X176780000Y-142950000D01*
X142850000Y-90640000D02*
X145310000Y-90640000D01*
X134110000Y-95260000D02*
X138230000Y-95260000D01*
X133290000Y-94440000D02*
X134110000Y-95260000D01*
X133290000Y-93700000D02*
X133290000Y-94440000D01*
X195000000Y-105410000D02*
X202360000Y-105410000D01*
X202360000Y-105410000D02*
X204490000Y-107540000D01*
X204490000Y-107540000D02*
X204490000Y-130030000D01*
X200378000Y-134142000D02*
X185678000Y-134142000D01*
X185678000Y-134142000D02*
X176870000Y-142950000D01*
%TO.N,A14*%
X142345000Y-86645000D02*
X141770000Y-87220000D01*
%TO.N,A13*%
X195550000Y-104760000D02*
X194130000Y-103340000D01*
X205300000Y-107180000D02*
X202880000Y-104760000D01*
X205300000Y-130570000D02*
X205300000Y-107180000D01*
X200966000Y-134904000D02*
X205300000Y-130570000D01*
X194130000Y-103340000D02*
X189920000Y-103340000D01*
X179340000Y-142610000D02*
X187046000Y-134904000D01*
X202880000Y-104760000D02*
X195550000Y-104760000D01*
X187046000Y-134904000D02*
X200966000Y-134904000D01*
X179340000Y-142930000D02*
X179340000Y-142610000D01*
X189920000Y-103340000D02*
X189820000Y-103440000D01*
X189820000Y-103440000D02*
X169529000Y-103440000D01*
X169529000Y-103440000D02*
X167889000Y-101800000D01*
%TO.N,A14*%
X194580000Y-102610000D02*
X178800000Y-102610000D01*
X178800000Y-102610000D02*
X177970000Y-102610000D01*
X181720000Y-143020000D02*
X181720000Y-142850000D01*
X181720000Y-142850000D02*
X188904000Y-135666000D01*
X195870000Y-103900000D02*
X194580000Y-102610000D01*
X188904000Y-135666000D02*
X201614000Y-135666000D01*
X201614000Y-135666000D02*
X206130000Y-131150000D01*
X206130000Y-131150000D02*
X206130000Y-106970000D01*
X206130000Y-106970000D02*
X203060000Y-103900000D01*
X203060000Y-103900000D02*
X195870000Y-103900000D01*
X177970000Y-102610000D02*
X176780000Y-101420000D01*
X176780000Y-101420000D02*
X176780000Y-94987000D01*
X172969000Y-91176000D02*
X176780000Y-94987000D01*
%TO.N,A13*%
X137520000Y-108530000D02*
X137520000Y-109670000D01*
X137520000Y-109670000D02*
X136250000Y-110940000D01*
X166790000Y-104055000D02*
X166775000Y-104040000D01*
X136250000Y-110940000D02*
X132750000Y-110940000D01*
X166775000Y-104040000D02*
X142010000Y-104040000D01*
X142010000Y-104040000D02*
X137520000Y-108530000D01*
X132750000Y-110940000D02*
X130750000Y-108940000D01*
%TO.N,RESET*%
X194550000Y-106230000D02*
X202110000Y-106230000D01*
X113120000Y-119320000D02*
X114410000Y-118030000D01*
X189340000Y-104870000D02*
X193190000Y-104870000D01*
X143260000Y-104940000D02*
X189270000Y-104940000D01*
X193190000Y-104870000D02*
X194550000Y-106230000D01*
X117760000Y-110610000D02*
X129230000Y-110610000D01*
X189270000Y-104940000D02*
X189340000Y-104870000D01*
X136570000Y-111630000D02*
X143260000Y-104940000D01*
X129230000Y-110610000D02*
X130250000Y-111630000D01*
X130250000Y-111630000D02*
X136570000Y-111630000D01*
X114410000Y-113960000D02*
X117760000Y-110610000D01*
X114410000Y-118030000D02*
X114410000Y-113960000D01*
X113120000Y-119540000D02*
X113120000Y-119320000D01*
X202110000Y-106230000D02*
X203680000Y-107800000D01*
X203680000Y-107800000D02*
X203680000Y-112430000D01*
X203680000Y-112430000D02*
X203570000Y-112540000D01*
%TO.N,AEN*%
X190310000Y-106090000D02*
X190120000Y-105900000D01*
X190120000Y-105900000D02*
X189090000Y-105900000D01*
X188760000Y-105570000D02*
X146780000Y-105570000D01*
X189090000Y-105900000D02*
X188760000Y-105570000D01*
X146780000Y-105570000D02*
X146030000Y-106320000D01*
X146030000Y-106320000D02*
X146030000Y-106620000D01*
%TO.N,Net-(JP13-B)*%
X164930000Y-96800000D02*
X164860000Y-96800000D01*
X164860000Y-96800000D02*
X160850000Y-100810000D01*
X160850000Y-100810000D02*
X158080000Y-100810000D01*
X158080000Y-100810000D02*
X156390000Y-99120000D01*
%TO.N,+5V*%
X165093000Y-88380000D02*
X165133000Y-88420000D01*
X169150000Y-79234000D02*
X167894000Y-77978000D01*
X165133000Y-88420000D02*
X168580000Y-88420000D01*
X168580000Y-88420000D02*
X169150000Y-87850000D01*
X169150000Y-87850000D02*
X169150000Y-79234000D01*
%TO.N,Net-(JP11-B)*%
X216940000Y-98780000D02*
X216900000Y-98780000D01*
X217120000Y-86380000D02*
X217120000Y-88050000D01*
X217120000Y-88050000D02*
X218420000Y-89350000D01*
X218420000Y-97300000D02*
X216940000Y-98780000D01*
X218420000Y-89350000D02*
X218420000Y-97300000D01*
X210728000Y-100004000D02*
X210812000Y-99920000D01*
X210812000Y-99920000D02*
X215760000Y-99920000D01*
X215760000Y-99920000D02*
X216900000Y-98780000D01*
%TO.N,+5V*%
X208850000Y-89600000D02*
X210210000Y-90960000D01*
X210210000Y-90960000D02*
X216700000Y-90960000D01*
X216700000Y-90960000D02*
X216900000Y-91160000D01*
X163560000Y-88380000D02*
X165093000Y-88380000D01*
X165093000Y-88380000D02*
X167889000Y-91176000D01*
%TO.N,A15*%
X178049000Y-98796000D02*
X179733000Y-100480000D01*
X190620000Y-101990000D02*
X194880000Y-101990000D01*
X179733000Y-100480000D02*
X189110000Y-100480000D01*
X190222000Y-136428000D02*
X183700000Y-142950000D01*
X189110000Y-100480000D02*
X190620000Y-101990000D01*
X196090000Y-103200000D02*
X203450000Y-103200000D01*
X194880000Y-101990000D02*
X196090000Y-103200000D01*
X203450000Y-103200000D02*
X206830000Y-106580000D01*
X206830000Y-106580000D02*
X206830000Y-131960000D01*
X206830000Y-131960000D02*
X202362000Y-136428000D01*
X202362000Y-136428000D02*
X190222000Y-136428000D01*
X183700000Y-142950000D02*
X183650000Y-142950000D01*
%TO.N,A16*%
X184680000Y-144050000D02*
X184750000Y-144050000D01*
X202580000Y-101240000D02*
X191850000Y-101240000D01*
X184750000Y-144050000D02*
X191610000Y-137190000D01*
X207820000Y-132380000D02*
X207820000Y-106480000D01*
X207820000Y-106480000D02*
X202580000Y-101240000D01*
X191610000Y-137190000D02*
X203010000Y-137190000D01*
X203010000Y-137190000D02*
X207820000Y-132380000D01*
X191850000Y-101240000D02*
X190370000Y-99760000D01*
X190370000Y-99760000D02*
X189173000Y-99760000D01*
X189173000Y-99760000D02*
X180589000Y-91176000D01*
%TO.N,A17*%
X192680000Y-98740000D02*
X192920000Y-98740000D01*
X192920000Y-98740000D02*
X194650000Y-100470000D01*
X194650000Y-100470000D02*
X203640000Y-100470000D01*
X203640000Y-100470000D02*
X208696000Y-105526000D01*
X208696000Y-105526000D02*
X208696000Y-133064000D01*
X193098000Y-137952000D02*
X187170000Y-143880000D01*
X208696000Y-133064000D02*
X203808000Y-137952000D01*
X203808000Y-137952000D02*
X193098000Y-137952000D01*
X187170000Y-143880000D02*
X187170000Y-144160000D01*
%TO.N,Net-(JP12-B)*%
X159760000Y-89050000D02*
X161460000Y-90750000D01*
X161460000Y-97510000D02*
X159800000Y-99170000D01*
X159760000Y-87210000D02*
X159760000Y-89050000D01*
%TO.N,Net-(JP13-B)*%
X155960000Y-87250000D02*
X158000000Y-89290000D01*
X158000000Y-89290000D02*
X158000000Y-97510000D01*
X158000000Y-97510000D02*
X156390000Y-99120000D01*
%TO.N,Net-(JP14-B)*%
X154480000Y-89670000D02*
X154480000Y-91910000D01*
X152020000Y-87210000D02*
X154480000Y-89670000D01*
X152880000Y-93510000D02*
X152880000Y-99010000D01*
%TO.N,Net-(JP15-B)*%
X150910000Y-89760000D02*
X150910000Y-92130000D01*
X148220000Y-87070000D02*
X150910000Y-89760000D01*
X150910000Y-92130000D02*
X149280000Y-93760000D01*
X149280000Y-93760000D02*
X149280000Y-99060000D01*
%TO.N,Net-(JP18-C)*%
X133290000Y-108940000D02*
X133290000Y-100200000D01*
X133290000Y-100200000D02*
X136170000Y-97320000D01*
X136170000Y-97320000D02*
X137950000Y-97320000D01*
X137950000Y-97320000D02*
X143380000Y-91890000D01*
X143380000Y-91890000D02*
X144340000Y-91890000D01*
%TO.N,+5V*%
X135830000Y-108940000D02*
X135830000Y-98910000D01*
X135830000Y-98910000D02*
X136600000Y-98140000D01*
X136600000Y-98140000D02*
X141640000Y-98140000D01*
X141640000Y-98140000D02*
X144340000Y-95440000D01*
X144340000Y-95440000D02*
X144340000Y-94430000D01*
%TO.N,A14*%
X141770000Y-87220000D02*
X141770000Y-89900000D01*
X141770000Y-89900000D02*
X137970000Y-93700000D01*
X137970000Y-93700000D02*
X135830000Y-93700000D01*
%TO.N,Net-(U6-Pad8)*%
X207920000Y-91120000D02*
X207920000Y-90950000D01*
X207920000Y-90950000D02*
X202875000Y-85905000D01*
X202875000Y-85905000D02*
X202875000Y-85790000D01*
%TO.N,Net-(U6-Pad6)*%
X205380000Y-98740000D02*
X205380000Y-96130000D01*
X200830000Y-86570000D02*
X200820000Y-86570000D01*
X205380000Y-96130000D02*
X204120000Y-94870000D01*
X204120000Y-94870000D02*
X204120000Y-89860000D01*
X204120000Y-89860000D02*
X200830000Y-86570000D01*
X200820000Y-86570000D02*
X200335000Y-86085000D01*
X200335000Y-86085000D02*
X200335000Y-85790000D01*
%TO.N,Net-(U6-Pad11)*%
X200300000Y-91120000D02*
X198400000Y-89220000D01*
X195255000Y-87655000D02*
X195255000Y-85790000D01*
X198400000Y-89220000D02*
X196820000Y-89220000D01*
X196820000Y-89220000D02*
X195255000Y-87655000D01*
%TO.N,Net-(U6-Pad3)*%
X193940000Y-90410000D02*
X192715000Y-89185000D01*
X192715000Y-89185000D02*
X192715000Y-85790000D01*
X197760000Y-98740000D02*
X193940000Y-94920000D01*
X193940000Y-94920000D02*
X193940000Y-90410000D01*
%TO.N,+5V*%
X187632000Y-87110000D02*
X191642000Y-91120000D01*
X191642000Y-91120000D02*
X192680000Y-91120000D01*
X187632000Y-83253000D02*
X192715000Y-78170000D01*
X187632000Y-87110000D02*
X187632000Y-83253000D01*
%TO.N,AEN*%
X208670000Y-97060000D02*
X207920000Y-97060000D01*
X209680000Y-101510000D02*
X209680000Y-98070000D01*
X209680000Y-101510000D02*
X211744000Y-103574000D01*
X208710000Y-97100000D02*
X208670000Y-97060000D01*
X209680000Y-98070000D02*
X208710000Y-97100000D01*
%TO.N,A19*%
X206620000Y-95380000D02*
X205380000Y-94140000D01*
%TO.N,Net-(D1-K)*%
X66250000Y-79670000D02*
X64260000Y-77680000D01*
X64240000Y-80570000D02*
X64240000Y-77700000D01*
X64188000Y-70392000D02*
X64188000Y-72806000D01*
X67280000Y-79670000D02*
X66250000Y-79670000D01*
X81490000Y-93880000D02*
X81490000Y-95770000D01*
X73850000Y-85230000D02*
X73740000Y-85340000D01*
X63410000Y-83810000D02*
X63410000Y-81440000D01*
X76410000Y-101500000D02*
X76410000Y-105170000D01*
X67744000Y-68742000D02*
X65838000Y-68742000D01*
X64260000Y-80590000D02*
X64240000Y-80570000D01*
X64940000Y-85340000D02*
X63410000Y-83810000D01*
X65838000Y-68742000D02*
X64188000Y-70392000D01*
X76410000Y-100850000D02*
X76410000Y-101500000D01*
X73740000Y-85340000D02*
X64940000Y-85340000D01*
X76410000Y-105170000D02*
X75810000Y-105770000D01*
X81490000Y-95770000D02*
X76410000Y-100850000D01*
X64240000Y-77700000D02*
X64260000Y-77680000D01*
X63410000Y-81440000D02*
X64260000Y-80590000D01*
%TO.N,Net-(U11-AREF)*%
X79840000Y-92990000D02*
X78950000Y-93880000D01*
X79840000Y-89130000D02*
X79840000Y-92990000D01*
X72250000Y-87540000D02*
X78250000Y-87540000D01*
X78250000Y-87540000D02*
X79840000Y-89130000D01*
X71570000Y-88220000D02*
X72250000Y-87540000D01*
%TO.N,Net-(U11-XTAL1{slash}PB6)*%
X79370000Y-108860000D02*
X80890000Y-107340000D01*
X80890000Y-107340000D02*
X80890000Y-106180000D01*
X81490000Y-101500000D02*
X81490000Y-105580000D01*
X81490000Y-105580000D02*
X80890000Y-106180000D01*
X75830000Y-108860000D02*
X79370000Y-108860000D01*
%TO.N,Net-(U11-XTAL2{slash}PB7)*%
X75810000Y-112010000D02*
X75810000Y-111790000D01*
X81940000Y-110580000D02*
X85770000Y-106750000D01*
X85770000Y-106750000D02*
X85770000Y-106180000D01*
X84030000Y-104440000D02*
X85770000Y-106180000D01*
X75810000Y-111790000D02*
X77020000Y-110580000D01*
X84030000Y-101500000D02*
X84030000Y-104440000D01*
X77020000Y-110580000D02*
X81940000Y-110580000D01*
%TO.N,Net-(J4-Pin_3)*%
X81470000Y-72690000D02*
X82370000Y-73590000D01*
X82370000Y-77000000D02*
X81470000Y-77900000D01*
X82370000Y-73590000D02*
X82370000Y-77000000D01*
X70540000Y-77900000D02*
X70490000Y-77850000D01*
X80600000Y-72690000D02*
X81470000Y-72690000D01*
X81470000Y-77900000D02*
X70540000Y-77900000D01*
%TO.N,Net-(D4-K)*%
X172330000Y-69380000D02*
X170676000Y-67726000D01*
X157108000Y-72552000D02*
X153596000Y-72552000D01*
X172330000Y-69380000D02*
X177780000Y-69380000D01*
X170676000Y-67726000D02*
X167566000Y-67726000D01*
X177780000Y-69380000D02*
X177900000Y-69260000D01*
X177980000Y-67850000D02*
X177900000Y-67930000D01*
X167566000Y-67726000D02*
X161934000Y-67726000D01*
X161934000Y-67726000D02*
X157108000Y-72552000D01*
X177980000Y-64780000D02*
X177980000Y-67850000D01*
X177900000Y-69260000D02*
X177900000Y-67930000D01*
%TO.N,Net-(D8-K)*%
X131880000Y-79070000D02*
X131880000Y-76234000D01*
X120720000Y-78050000D02*
X120720000Y-78100000D01*
X132006000Y-76108000D02*
X132006000Y-74014000D01*
X131540000Y-79410000D02*
X131880000Y-79070000D01*
X131880000Y-76234000D02*
X132006000Y-76108000D01*
X120720000Y-78100000D02*
X122030000Y-79410000D01*
X122030000Y-79410000D02*
X131540000Y-79410000D01*
X132006000Y-74014000D02*
X132580000Y-73440000D01*
%TO.N,Net-(D3-K)*%
X98710000Y-69140000D02*
X98710000Y-66820000D01*
%TO.N,Net-(D4-A)*%
X175186000Y-64932000D02*
X175186000Y-67726000D01*
%TO.N,Net-(D5-A)*%
X108120000Y-80535000D02*
X108120000Y-74140000D01*
X108120000Y-74140000D02*
X108990000Y-73270000D01*
%TO.N,Net-(D7-A)*%
X140250000Y-73570000D02*
X138650000Y-73570000D01*
X141640000Y-77735000D02*
X140560000Y-78815000D01*
X141640000Y-74960000D02*
X140250000Y-73570000D01*
X141640000Y-74960000D02*
X141640000Y-77735000D01*
%TO.N,Net-(D8-A)*%
X136768000Y-76108000D02*
X139626000Y-76108000D01*
X135600000Y-73510000D02*
X135600000Y-74940000D01*
X135600000Y-74940000D02*
X136768000Y-76108000D01*
%TO.N,GND*%
X214792000Y-136580000D02*
X214792000Y-139120000D01*
X76834000Y-130640000D02*
X76820000Y-130640000D01*
X197030000Y-147990000D02*
X197030000Y-153070000D01*
X143690000Y-148625000D02*
X141150000Y-146085000D01*
X143690000Y-153070000D02*
X143690000Y-148625000D01*
X200312000Y-144708000D02*
X197030000Y-147990000D01*
X209204000Y-144708000D02*
X200312000Y-144708000D01*
X214792000Y-139120000D02*
X209204000Y-144708000D01*
X79320000Y-133126000D02*
X76834000Y-130640000D01*
X219890000Y-153070000D02*
X219890000Y-146085000D01*
%TO.N,RESET*%
X216824000Y-134040000D02*
X217350000Y-134566000D01*
X217350000Y-134566000D02*
X217350000Y-153070000D01*
%TO.N,+5V*%
X170760000Y-108980000D02*
X170270000Y-108490000D01*
X187270000Y-124490000D02*
X185238000Y-122458000D01*
X92570000Y-137140000D02*
X92570000Y-137300000D01*
X119500000Y-122380000D02*
X121610000Y-124490000D01*
X160520000Y-62790000D02*
X167202000Y-62790000D01*
X215826000Y-105334000D02*
X215826000Y-106334000D01*
X142815000Y-108455000D02*
X143750000Y-107520000D01*
X220440000Y-91640000D02*
X220440000Y-100720000D01*
X140642000Y-121320000D02*
X139198000Y-121320000D01*
X140760000Y-116850000D02*
X140760000Y-121202000D01*
X135600000Y-65890000D02*
X138260000Y-65890000D01*
X142645000Y-124650000D02*
X137190000Y-124650000D01*
X142815000Y-123305000D02*
X142815000Y-124480000D01*
X166775000Y-109885000D02*
X166950000Y-109885000D01*
X121610000Y-124490000D02*
X125040000Y-124490000D01*
X135830000Y-108090000D02*
X135830000Y-108940000D01*
X89220000Y-62850000D02*
X88960000Y-62590000D01*
X88560000Y-141310000D02*
X77960000Y-141310000D01*
X108500000Y-62590000D02*
X110240000Y-62590000D01*
X77960000Y-141310000D02*
X77140000Y-142130000D01*
X168074000Y-120812000D02*
X168220000Y-120666000D01*
X168220000Y-113822000D02*
X170760000Y-111282000D01*
X138650000Y-65950000D02*
X140120000Y-67420000D01*
X142815000Y-124480000D02*
X142645000Y-124650000D01*
X99640000Y-117886000D02*
X99640000Y-121480000D01*
X140760000Y-121202000D02*
X140642000Y-121320000D01*
X168220000Y-120666000D02*
X168220000Y-113822000D01*
X192350000Y-124490000D02*
X196160000Y-124490000D01*
X133860000Y-67630000D02*
X135600000Y-65890000D01*
X185238000Y-122458000D02*
X184222000Y-122458000D01*
X138650000Y-65950000D02*
X138320000Y-65950000D01*
X167202000Y-108490000D02*
X166950000Y-108742000D01*
X100680000Y-122380000D02*
X119500000Y-122380000D01*
X140850000Y-116760000D02*
X140760000Y-116850000D01*
X155890000Y-67420000D02*
X160520000Y-62790000D01*
X77140000Y-142130000D02*
X77140000Y-143460000D01*
X216062000Y-135564000D02*
X215300000Y-134802000D01*
X67744000Y-66202000D02*
X67744000Y-62634000D01*
X92570000Y-137300000D02*
X88560000Y-141310000D01*
X140210000Y-103710000D02*
X135830000Y-108090000D01*
X65490000Y-62590000D02*
X64188000Y-63892000D01*
X140760000Y-121202000D02*
X140760000Y-121250000D01*
X215826000Y-134276000D02*
X215826000Y-106334000D01*
X67700000Y-62590000D02*
X65490000Y-62590000D01*
X78060000Y-75230000D02*
X79294511Y-73995489D01*
X98710000Y-64280000D02*
X98710000Y-62720000D01*
X140760000Y-121250000D02*
X142815000Y-123305000D01*
X88960000Y-62590000D02*
X98840000Y-62590000D01*
X220440000Y-100720000D02*
X215826000Y-105334000D01*
X142815000Y-109240000D02*
X142815000Y-108455000D01*
X64188000Y-63892000D02*
X64188000Y-65186000D01*
X79294511Y-62774511D02*
X79110000Y-62590000D01*
X166376000Y-120812000D02*
X168074000Y-120812000D01*
X170270000Y-108490000D02*
X167202000Y-108490000D01*
X170760000Y-111282000D02*
X170760000Y-108980000D01*
X168220000Y-122740000D02*
X168220000Y-120666000D01*
X110240000Y-62590000D02*
X115280000Y-67630000D01*
X166945000Y-124480000D02*
X166945000Y-124015000D01*
X137190000Y-124650000D02*
X137030000Y-124490000D01*
X98840000Y-62590000D02*
X108500000Y-62590000D01*
X167566000Y-63154000D02*
X167202000Y-62790000D01*
X166945000Y-124015000D02*
X168220000Y-122740000D01*
X216062000Y-151818000D02*
X216062000Y-135564000D01*
X214810000Y-153070000D02*
X216062000Y-151818000D01*
X138320000Y-65950000D02*
X138260000Y-65890000D01*
X188540000Y-124490000D02*
X192350000Y-124490000D01*
X188540000Y-124490000D02*
X187270000Y-124490000D01*
X143750000Y-107520000D02*
X164410000Y-107520000D01*
X99380000Y-121740000D02*
X99010000Y-122110000D01*
X88960000Y-62590000D02*
X79110000Y-62590000D01*
X79294511Y-73995489D02*
X79294511Y-62774511D01*
X199970000Y-124490000D02*
X196160000Y-124490000D01*
X137030000Y-124490000D02*
X136470000Y-124490000D01*
X99640000Y-121480000D02*
X99380000Y-121740000D01*
X140120000Y-67420000D02*
X155890000Y-67420000D01*
X115280000Y-67630000D02*
X133860000Y-67630000D01*
X67744000Y-62634000D02*
X67700000Y-62590000D01*
X166950000Y-108742000D02*
X166950000Y-109885000D01*
X108990000Y-63080000D02*
X108500000Y-62590000D01*
X167566000Y-64932000D02*
X167566000Y-63154000D01*
X100040000Y-121740000D02*
X100680000Y-122380000D01*
X100040000Y-121740000D02*
X99380000Y-121740000D01*
X216810000Y-62790000D02*
X167202000Y-62790000D01*
X220440000Y-66420000D02*
X216810000Y-62790000D01*
X89220000Y-65320000D02*
X89220000Y-62850000D01*
X215300000Y-134802000D02*
X215826000Y-134276000D01*
X108990000Y-65650000D02*
X108990000Y-63080000D01*
X98710000Y-62720000D02*
X98840000Y-62590000D01*
X164410000Y-107520000D02*
X166775000Y-109885000D01*
X220440000Y-91640000D02*
X220440000Y-66420000D01*
X140210000Y-100870000D02*
X140210000Y-103710000D01*
X67700000Y-62590000D02*
X79110000Y-62590000D01*
%TO.N,A9*%
X170160000Y-144790000D02*
X173240000Y-141710000D01*
X161720000Y-125638000D02*
X161720000Y-124460000D01*
X173240000Y-139790000D02*
X178380000Y-134650000D01*
X127700000Y-114520000D02*
X126580000Y-113400000D01*
X161720000Y-124460000D02*
X159540000Y-122280000D01*
X158450000Y-114520000D02*
X127700000Y-114520000D01*
X178380000Y-129649310D02*
X178340345Y-129609655D01*
X159540000Y-115610000D02*
X158450000Y-114520000D01*
X173240000Y-141710000D02*
X173240000Y-139790000D01*
X169450000Y-144790000D02*
X170160000Y-144790000D01*
X159540000Y-122280000D02*
X159540000Y-115610000D01*
X178380000Y-134650000D02*
X178380000Y-129649310D01*
%TO.N,A8*%
X170760000Y-141310000D02*
X170760000Y-137444000D01*
X161870000Y-123020000D02*
X160330000Y-121480000D01*
X128690000Y-113740000D02*
X128250000Y-113300000D01*
X160330000Y-115190000D02*
X158880000Y-113740000D01*
X175078000Y-134142000D02*
X175840000Y-133380000D01*
X175840000Y-131713990D02*
X173188010Y-129062000D01*
X171522000Y-129062000D02*
X169485000Y-127025000D01*
X174062000Y-134142000D02*
X175078000Y-134142000D01*
X158880000Y-113740000D02*
X128690000Y-113740000D01*
X170760000Y-137444000D02*
X174062000Y-134142000D01*
X160330000Y-121480000D02*
X160330000Y-115190000D01*
X161870000Y-123030000D02*
X161870000Y-123020000D01*
X173188010Y-129062000D02*
X171522000Y-129062000D01*
X167320000Y-144750000D02*
X170760000Y-141310000D01*
X175840000Y-133380000D02*
X175840000Y-131713990D01*
X169485000Y-127025000D02*
X169485000Y-124480000D01*
X167320000Y-144810000D02*
X167320000Y-144750000D01*
%TO.N,A7*%
X164320000Y-144740000D02*
X164610000Y-144740000D01*
X162560000Y-114300000D02*
X159710000Y-111450000D01*
X168220000Y-132100000D02*
X168200000Y-132080000D01*
X139520000Y-111450000D02*
X139270000Y-111200000D01*
X168220000Y-137940000D02*
X174060000Y-132100000D01*
X168220000Y-141130000D02*
X168220000Y-132100000D01*
X168200000Y-132080000D02*
X168200000Y-130300000D01*
X162560000Y-119840000D02*
X162560000Y-114300000D01*
X174060000Y-132100000D02*
X174565000Y-132100000D01*
X164290000Y-121570000D02*
X162560000Y-119840000D01*
X131790000Y-107070000D02*
X130750000Y-106030000D01*
X130750000Y-106030000D02*
X130750000Y-93700000D01*
X159710000Y-111450000D02*
X139520000Y-111450000D01*
X164610000Y-144740000D02*
X168220000Y-141130000D01*
X168200000Y-130300000D02*
X164290000Y-126390000D01*
X164290000Y-126390000D02*
X164290000Y-121570000D01*
%TO.N,A6*%
X161590000Y-144680000D02*
X165390000Y-140880000D01*
X163530000Y-121930000D02*
X163530000Y-128685000D01*
X159490000Y-112280000D02*
X161820000Y-114610000D01*
X129410000Y-107030000D02*
X128210000Y-105830000D01*
X138220000Y-112280000D02*
X159490000Y-112280000D01*
X128210000Y-105830000D02*
X128210000Y-93700000D01*
X138200000Y-112260000D02*
X138220000Y-112280000D01*
X163530000Y-128685000D02*
X166945000Y-132100000D01*
X165390000Y-140880000D02*
X165390000Y-133490000D01*
X166780000Y-132100000D02*
X166945000Y-132100000D01*
X165390000Y-133490000D02*
X166780000Y-132100000D01*
X161590000Y-144760000D02*
X161590000Y-144680000D01*
X161820000Y-114610000D02*
X161820000Y-120220000D01*
X161820000Y-120220000D02*
X163530000Y-121930000D01*
%TO.N,A5*%
X124060000Y-95310000D02*
X125670000Y-93700000D01*
X124180000Y-107150000D02*
X124060000Y-107030000D01*
X151700000Y-115770000D02*
X151220000Y-115290000D01*
X151220000Y-115290000D02*
X126330000Y-115290000D01*
X156790000Y-128808000D02*
X155515000Y-127533000D01*
X155515000Y-124480000D02*
X151700000Y-120665000D01*
X155515000Y-127533000D02*
X155515000Y-124480000D01*
X156230000Y-146200000D02*
X156230000Y-133940000D01*
X156230000Y-133940000D02*
X156790000Y-133380000D01*
X126330000Y-115290000D02*
X124550000Y-113510000D01*
X124060000Y-107030000D02*
X124060000Y-95310000D01*
X151700000Y-120665000D02*
X151700000Y-115770000D01*
X156790000Y-133380000D02*
X156790000Y-128808000D01*
%TO.N,A4*%
X150100000Y-126914500D02*
X150324500Y-126914500D01*
X153800000Y-146310000D02*
X153800000Y-135000000D01*
X147895000Y-126305000D02*
X147110000Y-127090000D01*
X154250000Y-134550000D02*
X154250000Y-130840000D01*
X134490000Y-132780000D02*
X134320000Y-132950000D01*
X134490000Y-131630000D02*
X139030000Y-127090000D01*
X121830000Y-95000000D02*
X123130000Y-93700000D01*
X153800000Y-135000000D02*
X154250000Y-134550000D01*
X139030000Y-127090000D02*
X147110000Y-127090000D01*
X134490000Y-131630000D02*
X134490000Y-132780000D01*
X150324500Y-126914500D02*
X154250000Y-130840000D01*
X121830000Y-107200000D02*
X121830000Y-95000000D01*
X147895000Y-124480000D02*
X147895000Y-126305000D01*
X121860000Y-107230000D02*
X121830000Y-107200000D01*
%TO.N,A3*%
X151300000Y-146270000D02*
X151110000Y-146080000D01*
X119250000Y-107220000D02*
X119450000Y-107020000D01*
X151110000Y-146080000D02*
X151110000Y-135060000D01*
X148425000Y-130090000D02*
X146430000Y-130090000D01*
X150435000Y-134385000D02*
X150435000Y-132100000D01*
X119450000Y-107020000D02*
X119450000Y-94840000D01*
X151110000Y-135060000D02*
X150435000Y-134385000D01*
X150435000Y-132100000D02*
X148425000Y-130090000D01*
X119450000Y-94840000D02*
X120590000Y-93700000D01*
%TO.N,A2*%
X148730000Y-144090000D02*
X149930000Y-142890000D01*
X118050000Y-97940000D02*
X118050000Y-93700000D01*
X116970000Y-107250000D02*
X116970000Y-99020000D01*
X143000000Y-132100000D02*
X142815000Y-132100000D01*
X149930000Y-142890000D02*
X149930000Y-139030000D01*
X149930000Y-139030000D02*
X143000000Y-132100000D01*
X148770000Y-146200000D02*
X148730000Y-146160000D01*
X148730000Y-146160000D02*
X148730000Y-144090000D01*
X116970000Y-99020000D02*
X118050000Y-97940000D01*
%TO.N,A1*%
X83860000Y-129400000D02*
X81860000Y-131400000D01*
X98920000Y-103930000D02*
X97240000Y-105610000D01*
X115510000Y-93700000D02*
X111010000Y-89200000D01*
X146220000Y-143280000D02*
X144440000Y-141500000D01*
X76440000Y-126720000D02*
X81860000Y-132140000D01*
X97240000Y-105610000D02*
X92480000Y-105610000D01*
X76440000Y-121780000D02*
X76440000Y-126720000D01*
X92480000Y-105610000D02*
X84250000Y-113840000D01*
X111010000Y-89200000D02*
X101850000Y-89200000D01*
X81860000Y-131400000D02*
X81860000Y-133126000D01*
X77840000Y-116170000D02*
X76140000Y-116170000D01*
X117520000Y-136710000D02*
X117520000Y-131100000D01*
X101850000Y-89200000D02*
X98920000Y-92130000D01*
X117520000Y-131100000D02*
X115820000Y-129400000D01*
X144440000Y-141500000D02*
X122310000Y-141500000D01*
X84250000Y-113840000D02*
X80170000Y-113840000D01*
X146310000Y-145980000D02*
X146220000Y-145890000D01*
X146220000Y-145890000D02*
X146220000Y-143280000D01*
X80170000Y-113840000D02*
X77840000Y-116170000D01*
X115820000Y-129400000D02*
X83860000Y-129400000D01*
X98920000Y-92130000D02*
X98920000Y-103930000D01*
X76140000Y-116170000D02*
X75500000Y-116810000D01*
X75500000Y-116810000D02*
X75500000Y-120840000D01*
X75500000Y-120840000D02*
X76440000Y-121780000D01*
X122310000Y-141500000D02*
X117520000Y-136710000D01*
%TO.N,A0*%
X85730000Y-130180000D02*
X84400000Y-131510000D01*
X99690000Y-92390000D02*
X102150000Y-89930000D01*
X84400000Y-131510000D02*
X84400000Y-133126000D01*
X142580000Y-142340000D02*
X121980000Y-142340000D01*
X102150000Y-89930000D02*
X109200000Y-89930000D01*
X143710000Y-143470000D02*
X142580000Y-142340000D01*
X116700000Y-131460000D02*
X115420000Y-130180000D01*
X83150000Y-128510000D02*
X80630000Y-125990000D01*
X83210000Y-128510000D02*
X83150000Y-128510000D01*
X78040000Y-117170000D02*
X80570000Y-114640000D01*
X80630000Y-125990000D02*
X80630000Y-125970000D01*
X84700000Y-114640000D02*
X92940000Y-106400000D01*
X143690000Y-145960000D02*
X143710000Y-145940000D01*
X121980000Y-142340000D02*
X116700000Y-137060000D01*
X99690000Y-105000000D02*
X99690000Y-92390000D01*
X92940000Y-106400000D02*
X98290000Y-106400000D01*
X98290000Y-106400000D02*
X99690000Y-105000000D01*
X115420000Y-130180000D02*
X85730000Y-130180000D01*
X116700000Y-137060000D02*
X116700000Y-131460000D01*
X143710000Y-145940000D02*
X143710000Y-143470000D01*
X80630000Y-125970000D02*
X78040000Y-123380000D01*
X80570000Y-114640000D02*
X84700000Y-114640000D01*
X109200000Y-89930000D02*
X112970000Y-93700000D01*
X78040000Y-123380000D02*
X78040000Y-117170000D01*
%TO.N,Net-(U1-Pad3)*%
X165020000Y-125240000D02*
X165020000Y-119435000D01*
X172025000Y-132100000D02*
X171880000Y-132100000D01*
X165020000Y-119435000D02*
X166950000Y-117505000D01*
X171880000Y-132100000D02*
X165020000Y-125240000D01*
%TO.N,Net-(U1-Pad6)*%
X179645000Y-129057000D02*
X178634000Y-128046000D01*
X179645000Y-132100000D02*
X179645000Y-129057000D01*
X172646000Y-120050000D02*
X170101000Y-117505000D01*
X178634000Y-128046000D02*
X173276000Y-128046000D01*
X170760000Y-123714000D02*
X172646000Y-121828000D01*
X170101000Y-117505000D02*
X169490000Y-117505000D01*
X170760000Y-125530000D02*
X170760000Y-123714000D01*
X173276000Y-128046000D02*
X170760000Y-125530000D01*
X172646000Y-121828000D02*
X172646000Y-120050000D01*
%TO.N,Net-(U2-Pad3)*%
X146620000Y-120694000D02*
X142815000Y-116889000D01*
X146620000Y-125610000D02*
X146620000Y-120694000D01*
X142815000Y-116889000D02*
X142815000Y-116860000D01*
%TO.N,Net-(U2-Pad6)*%
X145355000Y-117475000D02*
X145355000Y-116860000D01*
X148330000Y-120450000D02*
X145355000Y-117475000D01*
X148390000Y-120450000D02*
X148330000Y-120450000D01*
%TO.N,Net-(U2-Pad8)*%
X152975000Y-117795000D02*
X152975000Y-116860000D01*
X158055000Y-124480000D02*
X158055000Y-122875000D01*
X158055000Y-122875000D02*
X152975000Y-117795000D01*
%TO.N,Net-(U2-Pad11)*%
X150435000Y-124480000D02*
X150435000Y-116860000D01*
%TO.N,Net-(U1-Pad8)*%
X177110000Y-117505000D02*
X182190000Y-122585000D01*
X182190000Y-122585000D02*
X182190000Y-124475000D01*
X182190000Y-124475000D02*
X182185000Y-124480000D01*
%TO.N,Net-(U1-Pad11)*%
X174565000Y-117510000D02*
X174570000Y-117505000D01*
X174565000Y-124480000D02*
X174565000Y-117510000D01*
%TO.N,IOW*%
X81510000Y-135510000D02*
X80620000Y-134620000D01*
X115130000Y-130920000D02*
X86610000Y-130920000D01*
X80620000Y-132160000D02*
X75450000Y-126990000D01*
X85660000Y-131870000D02*
X85660000Y-134120000D01*
X131340000Y-143360000D02*
X131330000Y-143370000D01*
X86610000Y-130920000D02*
X85660000Y-131870000D01*
X189410000Y-147620000D02*
X188270000Y-146480000D01*
X115870000Y-137370000D02*
X115870000Y-131660000D01*
X74240000Y-121050000D02*
X74240000Y-117886000D01*
X189410000Y-153070000D02*
X189410000Y-147620000D01*
X80620000Y-134620000D02*
X80620000Y-132160000D01*
X75450000Y-122260000D02*
X74240000Y-121050000D01*
X131330000Y-143370000D02*
X121870000Y-143370000D01*
X115870000Y-131660000D02*
X115130000Y-130920000D01*
X85660000Y-134120000D02*
X84270000Y-135510000D01*
X121870000Y-143370000D02*
X115870000Y-137370000D01*
X84270000Y-135510000D02*
X81510000Y-135510000D01*
X75450000Y-126990000D02*
X75450000Y-122260000D01*
%TO.N,IOR*%
X115080000Y-132720000D02*
X114100000Y-131740000D01*
X76480000Y-136370000D02*
X74240000Y-134130000D01*
X86630000Y-136370000D02*
X76480000Y-136370000D01*
X186870000Y-147430000D02*
X186870000Y-153070000D01*
X185760000Y-146320000D02*
X186870000Y-147430000D01*
X74240000Y-134130000D02*
X74240000Y-133126000D01*
X88670000Y-131740000D02*
X88190000Y-132220000D01*
X88190000Y-132220000D02*
X88190000Y-134810000D01*
X121560000Y-144350000D02*
X115080000Y-137870000D01*
X115080000Y-137870000D02*
X115080000Y-132720000D01*
X133050000Y-144350000D02*
X121560000Y-144350000D01*
X88190000Y-134810000D02*
X86630000Y-136370000D01*
X114100000Y-131740000D02*
X88670000Y-131740000D01*
%TO.N,D7*%
X97100000Y-122050000D02*
X97100000Y-117886000D01*
X97100000Y-117886000D02*
X97100000Y-117130000D01*
X118834000Y-123110000D02*
X98160000Y-123110000D01*
X112720000Y-108940000D02*
X112970000Y-108940000D01*
X108610000Y-113050000D02*
X112720000Y-108940000D01*
X101180000Y-113050000D02*
X108610000Y-113050000D01*
X140250000Y-135290000D02*
X125680000Y-135290000D01*
X123060000Y-127336000D02*
X118834000Y-123110000D01*
X98160000Y-123110000D02*
X97100000Y-122050000D01*
X123060000Y-132670000D02*
X123060000Y-127336000D01*
X141590000Y-133950000D02*
X140250000Y-135290000D01*
X97100000Y-117130000D02*
X101180000Y-113050000D01*
X125680000Y-135290000D02*
X123060000Y-132670000D01*
%TO.N,D6*%
X96770000Y-123880000D02*
X94560000Y-121670000D01*
X122330000Y-127876000D02*
X118334000Y-123880000D01*
X94560000Y-117400000D02*
X99580000Y-112380000D01*
X125180000Y-136050000D02*
X122330000Y-133200000D01*
X106990000Y-112380000D02*
X110430000Y-108940000D01*
X99580000Y-112380000D02*
X106990000Y-112380000D01*
X142390000Y-134840000D02*
X141180000Y-136050000D01*
X141180000Y-136050000D02*
X125180000Y-136050000D01*
X122330000Y-133200000D02*
X122330000Y-127876000D01*
X118334000Y-123880000D02*
X96770000Y-123880000D01*
X94560000Y-117886000D02*
X94560000Y-117400000D01*
X94560000Y-121670000D02*
X94560000Y-117886000D01*
%TO.N,D5*%
X142124500Y-136770000D02*
X124820000Y-136770000D01*
X92020000Y-117886000D02*
X98316000Y-111590000D01*
X98316000Y-111590000D02*
X104790000Y-111590000D01*
X107440000Y-108940000D02*
X107890000Y-108940000D01*
X117881000Y-124570000D02*
X95090000Y-124570000D01*
X92020000Y-121500000D02*
X92020000Y-117886000D01*
X124820000Y-136770000D02*
X121580000Y-133530000D01*
X104790000Y-111590000D02*
X107440000Y-108940000D01*
X121580000Y-128269000D02*
X117881000Y-124570000D01*
X121580000Y-133530000D02*
X121580000Y-128269000D01*
X143330000Y-135564500D02*
X142124500Y-136770000D01*
X95090000Y-124570000D02*
X92020000Y-121500000D01*
%TO.N,D4*%
X105350000Y-109250000D02*
X105350000Y-108940000D01*
X93580000Y-125390000D02*
X89480000Y-121290000D01*
X144130000Y-136550000D02*
X143170000Y-137510000D01*
X89480000Y-117886000D02*
X96626000Y-110740000D01*
X89480000Y-121290000D02*
X89480000Y-117886000D01*
X120930000Y-128762000D02*
X117558000Y-125390000D01*
X120930000Y-134170000D02*
X120930000Y-128762000D01*
X124270000Y-137510000D02*
X120930000Y-134170000D01*
X96626000Y-110740000D02*
X103860000Y-110740000D01*
X103860000Y-110740000D02*
X105350000Y-109250000D01*
X143170000Y-137510000D02*
X124270000Y-137510000D01*
X117558000Y-125390000D02*
X93580000Y-125390000D01*
%TO.N,D3*%
X86940000Y-121130000D02*
X86940000Y-117886000D01*
X117320000Y-126270000D02*
X92080000Y-126270000D01*
X145130000Y-137330000D02*
X144250000Y-138210000D01*
X94996000Y-109830000D02*
X86940000Y-117886000D01*
X92080000Y-126270000D02*
X86940000Y-121130000D01*
X120310000Y-129260000D02*
X117320000Y-126270000D01*
X123740000Y-138210000D02*
X120310000Y-134780000D01*
X102810000Y-108940000D02*
X101920000Y-109830000D01*
X120310000Y-134780000D02*
X120310000Y-129260000D01*
X144250000Y-138210000D02*
X123740000Y-138210000D01*
X101920000Y-109830000D02*
X94996000Y-109830000D01*
%TO.N,D2*%
X146140000Y-138230000D02*
X145250000Y-139120000D01*
X85765489Y-117399501D02*
X94184990Y-108980000D01*
X99980000Y-108980000D02*
X105350000Y-103610000D01*
X119650000Y-129690000D02*
X116980000Y-127020000D01*
X145250000Y-139120000D02*
X123340000Y-139120000D01*
X90560000Y-127020000D02*
X84400000Y-120860000D01*
X84400000Y-117886000D02*
X85765489Y-117886000D01*
X85765489Y-117886000D02*
X85765489Y-117399501D01*
X119650000Y-135430000D02*
X119650000Y-129690000D01*
X84400000Y-120860000D02*
X84400000Y-117886000D01*
X94184990Y-108980000D02*
X99980000Y-108980000D01*
X116980000Y-127020000D02*
X90560000Y-127020000D01*
X105350000Y-103610000D02*
X105350000Y-93700000D01*
X123340000Y-139120000D02*
X119650000Y-135430000D01*
%TO.N,D1*%
X101300000Y-106290000D02*
X101300000Y-92910000D01*
X122910000Y-139910000D02*
X119000000Y-136000000D01*
X102640000Y-91570000D02*
X106940000Y-91570000D01*
X116690000Y-127840000D02*
X88010000Y-127840000D01*
X85770000Y-116120000D02*
X93830000Y-108060000D01*
X119000000Y-130150000D02*
X116690000Y-127840000D01*
X81860000Y-121690000D02*
X81860000Y-117886000D01*
X99530000Y-108060000D02*
X101300000Y-106290000D01*
X88010000Y-127840000D02*
X81860000Y-121690000D01*
X147200000Y-139000000D02*
X146290000Y-139910000D01*
X93830000Y-108060000D02*
X99530000Y-108060000D01*
X107890000Y-92520000D02*
X107890000Y-93700000D01*
X146290000Y-139910000D02*
X122910000Y-139910000D01*
X106940000Y-91570000D02*
X107890000Y-92520000D01*
X101300000Y-92910000D02*
X102640000Y-91570000D01*
X119000000Y-136000000D02*
X119000000Y-130150000D01*
X81860000Y-117886000D02*
X83626000Y-116120000D01*
X83626000Y-116120000D02*
X85770000Y-116120000D01*
%TO.N,D0*%
X81826000Y-115380000D02*
X85180000Y-115380000D01*
X85180000Y-115380000D02*
X93310000Y-107250000D01*
X98770000Y-107250000D02*
X100430000Y-105590000D01*
X147580000Y-140730000D02*
X122750000Y-140730000D01*
X118190000Y-130540000D02*
X116290000Y-128640000D01*
X107540000Y-90810000D02*
X110430000Y-93700000D01*
X102280000Y-90810000D02*
X107540000Y-90810000D01*
X100430000Y-92660000D02*
X102280000Y-90810000D01*
X116290000Y-128640000D02*
X86060000Y-128640000D01*
X79320000Y-121900000D02*
X79320000Y-117886000D01*
X118190000Y-136170000D02*
X118190000Y-130540000D01*
X100430000Y-105590000D02*
X100430000Y-92660000D01*
X79320000Y-117886000D02*
X81826000Y-115380000D01*
X86060000Y-128640000D02*
X79320000Y-121900000D01*
X93310000Y-107250000D02*
X98770000Y-107250000D01*
X148460000Y-139850000D02*
X147580000Y-140730000D01*
X122750000Y-140730000D02*
X118190000Y-136170000D01*
%TO.N,SEL8255*%
X118630000Y-111420000D02*
X115340000Y-114710000D01*
X129050000Y-111420000D02*
X118630000Y-111420000D01*
X150435000Y-109240000D02*
X149125000Y-110550000D01*
X115340000Y-118380000D02*
X114750000Y-118970000D01*
X140270000Y-109920000D02*
X139310000Y-109920000D01*
X129990000Y-112360000D02*
X129050000Y-111420000D01*
X115340000Y-114710000D02*
X115340000Y-118380000D01*
X114750000Y-118970000D02*
X114750000Y-119490000D01*
X139310000Y-109920000D02*
X136870000Y-112360000D01*
X149125000Y-110550000D02*
X140900000Y-110550000D01*
X136870000Y-112360000D02*
X129990000Y-112360000D01*
X140900000Y-110550000D02*
X140270000Y-109920000D01*
%TO.N,MEMW*%
X146080000Y-80460000D02*
X150530000Y-80460000D01*
X213775000Y-138105000D02*
X208188000Y-143692000D01*
X160840000Y-70150000D02*
X206480000Y-70150000D01*
X199552000Y-143692000D02*
X199510000Y-143650000D01*
X139540000Y-87580000D02*
X139720000Y-87400000D01*
X139720000Y-86820000D02*
X146080000Y-80460000D01*
X217350000Y-101254000D02*
X214302000Y-101254000D01*
X219350000Y-83020000D02*
X219350000Y-99254000D01*
X139720000Y-87400000D02*
X139720000Y-86820000D01*
X213775000Y-101781000D02*
X213775000Y-138105000D01*
X194490000Y-148670000D02*
X194490000Y-153070000D01*
X206480000Y-70150000D02*
X219350000Y-83020000D01*
X208188000Y-143692000D02*
X199552000Y-143692000D01*
X150530000Y-80460000D02*
X160840000Y-70150000D01*
X214302000Y-101254000D02*
X213775000Y-101781000D01*
X199510000Y-143650000D02*
X194490000Y-148670000D01*
X219350000Y-99254000D02*
X217350000Y-101254000D01*
%TO.N,MEMR*%
X162740000Y-122320000D02*
X161060000Y-120640000D01*
X128750000Y-112360000D02*
X121300000Y-112360000D01*
X121300000Y-112360000D02*
X121240000Y-112420000D01*
X191950000Y-153070000D02*
X191950000Y-148490000D01*
X162740000Y-126060000D02*
X162740000Y-122320000D01*
X170905489Y-145804511D02*
X160444511Y-145804511D01*
X160040000Y-145400000D02*
X160040000Y-128760000D01*
X160444511Y-145804511D02*
X160040000Y-145400000D01*
X171310000Y-145400000D02*
X170905489Y-145804511D01*
X161060000Y-120640000D02*
X161060000Y-114940000D01*
X191950000Y-148490000D02*
X188860000Y-145400000D01*
X188860000Y-145400000D02*
X171310000Y-145400000D01*
X160040000Y-128760000D02*
X162740000Y-126060000D01*
X161060000Y-114940000D02*
X159210000Y-113090000D01*
X159210000Y-113090000D02*
X129480000Y-113090000D01*
X129480000Y-113090000D02*
X128750000Y-112360000D01*
%TO.N,A19*%
X193190000Y-143250000D02*
X193190000Y-143230000D01*
X206194000Y-139476000D02*
X210720000Y-134950000D01*
X196944000Y-139476000D02*
X206194000Y-139476000D01*
X210720000Y-104640000D02*
X206620000Y-100540000D01*
X206620000Y-100540000D02*
X206620000Y-95380000D01*
X205380000Y-94140000D02*
X205380000Y-91120000D01*
X193190000Y-143230000D02*
X196944000Y-139476000D01*
X210720000Y-134950000D02*
X210720000Y-104640000D01*
%TO.N,A18*%
X195566000Y-138714000D02*
X204936000Y-138714000D01*
X201690000Y-95080000D02*
X197380000Y-95080000D01*
X209650000Y-104970000D02*
X204040000Y-99360000D01*
X204040000Y-97430000D02*
X201690000Y-95080000D01*
X191130000Y-143150000D02*
X195566000Y-138714000D01*
X191000000Y-143150000D02*
X191130000Y-143150000D01*
X209650000Y-134000000D02*
X209650000Y-104970000D01*
X197380000Y-95080000D02*
X195220000Y-92920000D01*
X204040000Y-99360000D02*
X204040000Y-97430000D01*
X195220000Y-92920000D02*
X195220000Y-91120000D01*
X204936000Y-138714000D02*
X209650000Y-134000000D01*
%TO.N,A11*%
X122030000Y-113410000D02*
X122750000Y-113410000D01*
X118770000Y-116670000D02*
X122030000Y-113410000D01*
X118240000Y-120730000D02*
X118770000Y-120200000D01*
X118770000Y-120200000D02*
X118770000Y-116670000D01*
%TO.N,A10*%
X117760000Y-119450000D02*
X117760000Y-113880000D01*
X117760000Y-113880000D02*
X117930000Y-113710000D01*
X117100000Y-120110000D02*
X117760000Y-119450000D01*
%TO.N,Net-(J3-Pin_7)*%
X85340000Y-80310000D02*
X86810000Y-78840000D01*
X86810000Y-78840000D02*
X86810000Y-74290000D01*
X88160000Y-72940000D02*
X89220000Y-72940000D01*
X74620000Y-82240000D02*
X74620000Y-81950000D01*
X86810000Y-74290000D02*
X88160000Y-72940000D01*
X74620000Y-81950000D02*
X76260000Y-80310000D01*
X76260000Y-80310000D02*
X85340000Y-80310000D01*
%TO.N,Net-(U7-Pad8)*%
X178054000Y-86101000D02*
X178054000Y-85598000D01*
%TO.N,Net-(J3-Pin_9)*%
X89220000Y-78740000D02*
X89220000Y-75480000D01*
X78300000Y-82740000D02*
X85260000Y-82740000D01*
X77800000Y-82240000D02*
X78300000Y-82740000D01*
X89240000Y-78760000D02*
X89220000Y-78740000D01*
X85260000Y-82740000D02*
X89240000Y-78760000D01*
%TO.N,Net-(J4-Pin_5)*%
X83190000Y-77230000D02*
X83190000Y-71290000D01*
X65260000Y-83220000D02*
X65260000Y-82660000D01*
X83190000Y-71290000D02*
X82050000Y-70150000D01*
X72070000Y-78610000D02*
X81810000Y-78610000D01*
X65260000Y-82660000D02*
X66430000Y-81490000D01*
X82050000Y-70150000D02*
X80600000Y-70150000D01*
X81810000Y-78610000D02*
X83190000Y-77230000D01*
X66430000Y-81490000D02*
X69190000Y-81490000D01*
X69190000Y-81490000D02*
X72070000Y-78610000D01*
%TO.N,Net-(U3-Pad10)*%
X172030000Y-117505000D02*
X172030000Y-114965000D01*
X172030000Y-114965000D02*
X177110000Y-109885000D01*
%TO.N,Net-(U3-Pad6)*%
X179650000Y-117505000D02*
X179650000Y-109885000D01*
%TO.N,Net-(U3-Pad13)*%
X169490000Y-109885000D02*
X169490000Y-110330000D01*
X168450000Y-111370000D02*
X160750000Y-111370000D01*
X160750000Y-111370000D02*
X158620000Y-109240000D01*
X169490000Y-110330000D02*
X168450000Y-111370000D01*
X158620000Y-109240000D02*
X158055000Y-109240000D01*
%TO.N,Net-(J4-Pin_7)*%
X82180000Y-79390000D02*
X83940000Y-77630000D01*
X83940000Y-77630000D02*
X83940000Y-69420000D01*
X83940000Y-69420000D02*
X82130000Y-67610000D01*
X72470000Y-79390000D02*
X82180000Y-79390000D01*
X82130000Y-67610000D02*
X80600000Y-67610000D01*
X68410000Y-83220000D02*
X68640000Y-83220000D01*
X68640000Y-83220000D02*
X72470000Y-79390000D01*
%TO.N,Net-(JP1-B)*%
X180920000Y-125252000D02*
X182190000Y-126522000D01*
X178126000Y-122966000D02*
X180412000Y-122966000D01*
X177105000Y-124480000D02*
X177105000Y-123987000D01*
X177105000Y-123987000D02*
X178126000Y-122966000D01*
X194382000Y-126522000D02*
X199970000Y-132110000D01*
X180412000Y-122966000D02*
X180920000Y-123474000D01*
X180920000Y-123474000D02*
X180920000Y-125252000D01*
X182190000Y-126522000D02*
X194382000Y-126522000D01*
%TO.N,ARESET*%
X56640000Y-81480000D02*
X61190000Y-86030000D01*
X54520000Y-100880000D02*
X54520000Y-92970000D01*
X54520000Y-92970000D02*
X61070000Y-86420000D01*
X60100000Y-74250000D02*
X56620000Y-77730000D01*
X61190000Y-86420000D02*
X61290000Y-86520000D01*
X56620000Y-77270000D02*
X53600000Y-74250000D01*
X70490000Y-72850000D02*
X68970000Y-74370000D01*
X61190000Y-86030000D02*
X61190000Y-86420000D01*
X61070000Y-86420000D02*
X61190000Y-86420000D01*
X56640000Y-80590000D02*
X56620000Y-80570000D01*
X61290000Y-86520000D02*
X84030000Y-86520000D01*
X60220000Y-74370000D02*
X60100000Y-74250000D01*
X56640000Y-80590000D02*
X56640000Y-81480000D01*
X56620000Y-80570000D02*
X56620000Y-77270000D01*
X68970000Y-74370000D02*
X60220000Y-74370000D01*
X55010000Y-101370000D02*
X54520000Y-100880000D01*
X84030000Y-86520000D02*
X84410000Y-86140000D01*
%TO.N,Net-(JP2-B)*%
X174829000Y-127284000D02*
X191334000Y-127284000D01*
X174829000Y-127284000D02*
X172025000Y-124480000D01*
X196160000Y-132110000D02*
X191334000Y-127284000D01*
%TO.N,Net-(JP3-B)*%
X191080000Y-132110000D02*
X192350000Y-132110000D01*
X181010000Y-133180000D02*
X181200000Y-133370000D01*
X181200000Y-133370000D02*
X183150000Y-133370000D01*
X189556000Y-130586000D02*
X191080000Y-132110000D01*
X183150000Y-133370000D02*
X185934000Y-130586000D01*
X185934000Y-130586000D02*
X189556000Y-130586000D01*
%TO.N,MISO*%
X91760000Y-67870000D02*
X91760000Y-67860000D01*
X93540000Y-74190000D02*
X93540000Y-75970000D01*
X105040000Y-68880000D02*
X103220000Y-70700000D01*
X95210000Y-77640000D02*
X95210000Y-82932000D01*
X156960000Y-70210000D02*
X155630000Y-68880000D01*
X123730000Y-69160000D02*
X123450000Y-68880000D01*
X93540000Y-75970000D02*
X95210000Y-77640000D01*
X95210000Y-82932000D02*
X92002000Y-86140000D01*
X156960000Y-71070000D02*
X156960000Y-70210000D01*
X103220000Y-70700000D02*
X94590000Y-70700000D01*
X155630000Y-68880000D02*
X105040000Y-68880000D01*
X92002000Y-86140000D02*
X89490000Y-86140000D01*
X94590000Y-70700000D02*
X91760000Y-67870000D01*
%TO.N,Net-(JP4-B)*%
X185830000Y-132110000D02*
X188540000Y-132110000D01*
X184980000Y-132960000D02*
X185830000Y-132110000D01*
%TO.N,SCK*%
X91760000Y-75480000D02*
X94480000Y-78200000D01*
X92880000Y-82620000D02*
X94480000Y-81020000D01*
X92800000Y-82540000D02*
X92880000Y-82620000D01*
X88580000Y-82540000D02*
X92800000Y-82540000D01*
X94480000Y-81020000D02*
X94480000Y-78200000D01*
X86950000Y-86140000D02*
X86950000Y-84170000D01*
X86950000Y-84170000D02*
X88580000Y-82540000D01*
%TO.N,MOSI*%
X90020000Y-79770000D02*
X85650000Y-84140000D01*
X90460000Y-71700000D02*
X91760000Y-70400000D01*
X92560000Y-79770000D02*
X90020000Y-79770000D01*
X85650000Y-84140000D02*
X85650000Y-87380000D01*
X92870000Y-79440000D02*
X90460000Y-77030000D01*
X90460000Y-77030000D02*
X90460000Y-71700000D01*
X85650000Y-87380000D02*
X86950000Y-88680000D01*
X86950000Y-91720000D02*
X89110000Y-93880000D01*
X86950000Y-88680000D02*
X86950000Y-91720000D01*
%TO.N,Net-(JP5-B)*%
X141050000Y-128200000D02*
X147500000Y-128200000D01*
X151315000Y-126140000D02*
X152975000Y-124480000D01*
X136470000Y-132110000D02*
X137140000Y-132110000D01*
X137140000Y-132110000D02*
X141050000Y-128200000D01*
X134560000Y-128670000D02*
X134560000Y-119700000D01*
X134640000Y-128750000D02*
X134560000Y-128670000D01*
X147500000Y-128200000D02*
X149560000Y-126140000D01*
X149560000Y-126140000D02*
X151315000Y-126140000D01*
%TO.N,Net-(JP6-B)*%
X131510000Y-130930000D02*
X131510000Y-130960000D01*
X145355000Y-124480000D02*
X145355000Y-124495000D01*
X143900000Y-125950000D02*
X138820000Y-125950000D01*
X138820000Y-125950000D02*
X132660000Y-132110000D01*
X131050000Y-130470000D02*
X131510000Y-130930000D01*
X130580000Y-122040000D02*
X131050000Y-122510000D01*
X131050000Y-122510000D02*
X131050000Y-130470000D01*
X130580000Y-119740000D02*
X130580000Y-122040000D01*
X145355000Y-124495000D02*
X143900000Y-125950000D01*
X131510000Y-130960000D02*
X132660000Y-132110000D01*
%TO.N,Net-(JP7-B)*%
X130170000Y-123120000D02*
X130170000Y-130790000D01*
X141748000Y-129062000D02*
X150694000Y-129062000D01*
X152980000Y-132095000D02*
X152975000Y-132100000D01*
X126750000Y-119700000D02*
X130170000Y-123120000D01*
X130630000Y-133890000D02*
X137890000Y-133890000D01*
X128850000Y-132110000D02*
X130630000Y-133890000D01*
X150694000Y-129062000D02*
X152980000Y-131348000D01*
X130170000Y-130790000D02*
X128850000Y-132110000D01*
X140150000Y-131630000D02*
X140150000Y-130660000D01*
X140150000Y-130660000D02*
X141748000Y-129062000D01*
X137890000Y-133890000D02*
X140150000Y-131630000D01*
X152980000Y-131348000D02*
X152980000Y-132095000D01*
%TO.N,CS3*%
X94190000Y-101500000D02*
X94190000Y-100280000D01*
X94190000Y-100280000D02*
X90350000Y-96440000D01*
X92040000Y-90820000D02*
X92040000Y-87200000D01*
X95980000Y-78420000D02*
X95980000Y-74900000D01*
X98710000Y-76760000D02*
X97640000Y-76760000D01*
X90350000Y-92510000D02*
X92040000Y-90820000D01*
X90350000Y-96440000D02*
X90350000Y-92510000D01*
X97640000Y-76760000D02*
X95980000Y-78420000D01*
X95980000Y-74900000D02*
X94020000Y-72940000D01*
X95980000Y-83260000D02*
X95980000Y-78420000D01*
X92040000Y-87200000D02*
X95980000Y-83260000D01*
X94020000Y-72940000D02*
X91760000Y-72940000D01*
%TO.N,Net-(JP8-B)*%
X145360000Y-132095000D02*
X145355000Y-132100000D01*
X122880000Y-119770000D02*
X126730000Y-123620000D01*
X126730000Y-123620000D02*
X126730000Y-127460000D01*
X145360000Y-131094000D02*
X145360000Y-132095000D01*
X126730000Y-127460000D02*
X125040000Y-129150000D01*
X125040000Y-129150000D02*
X125040000Y-132110000D01*
X144090000Y-129824000D02*
X145360000Y-131094000D01*
X139050000Y-134600000D02*
X141010000Y-132640000D01*
X125040000Y-132110000D02*
X127530000Y-134600000D01*
X141010000Y-132640000D02*
X141010000Y-131260000D01*
X122880000Y-119700000D02*
X122880000Y-119770000D01*
X127530000Y-134600000D02*
X139050000Y-134600000D01*
X141010000Y-131260000D02*
X142446000Y-129824000D01*
X142446000Y-129824000D02*
X144090000Y-129824000D01*
%TO.N,APC4*%
X62110000Y-77110000D02*
X63430000Y-75790000D01*
X62110000Y-84320000D02*
X62110000Y-77110000D01*
X76870000Y-70260000D02*
X77950000Y-70260000D01*
X71340000Y-75790000D02*
X76870000Y-70260000D01*
X63430000Y-75790000D02*
X71340000Y-75790000D01*
X62680000Y-84890000D02*
X62110000Y-84320000D01*
X77950000Y-70260000D02*
X78060000Y-70150000D01*
%TO.N,APC5*%
X70580000Y-75050000D02*
X78020000Y-67610000D01*
X61050000Y-82770000D02*
X61050000Y-76750000D01*
X62750000Y-75050000D02*
X70580000Y-75050000D01*
X61050000Y-76750000D02*
X62750000Y-75050000D01*
X78020000Y-67610000D02*
X78060000Y-67610000D01*
X60860000Y-82960000D02*
X61050000Y-82770000D01*
%TO.N,PA0*%
X67540000Y-97670000D02*
X63710000Y-101500000D01*
X70060000Y-136880000D02*
X62040000Y-136880000D01*
X67540000Y-93120000D02*
X67540000Y-97670000D01*
X71700000Y-135240000D02*
X70060000Y-136880000D01*
X59120000Y-133960000D02*
X59120000Y-106580000D01*
X62040000Y-136880000D02*
X59120000Y-133960000D01*
X63710000Y-101990000D02*
X63710000Y-101500000D01*
X71700000Y-133126000D02*
X71700000Y-135240000D01*
X65260000Y-90840000D02*
X67540000Y-93120000D01*
X59120000Y-106580000D02*
X63710000Y-101990000D01*
%TO.N,PA1*%
X62750000Y-136300000D02*
X60000000Y-133550000D01*
X68390000Y-136300000D02*
X62750000Y-136300000D01*
X70040000Y-97710000D02*
X66250000Y-101500000D01*
X65940000Y-101500000D02*
X66250000Y-101500000D01*
X60000000Y-107440000D02*
X65940000Y-101500000D01*
X68410000Y-90840000D02*
X70040000Y-92470000D01*
X60000000Y-133550000D02*
X60000000Y-107440000D01*
X69160000Y-135530000D02*
X68390000Y-136300000D01*
X70040000Y-92470000D02*
X70040000Y-97710000D01*
X69160000Y-133126000D02*
X69160000Y-135530000D01*
%TO.N,CS*%
X112702000Y-89062000D02*
X128532000Y-89062000D01*
X128532000Y-89062000D02*
X129530000Y-90060000D01*
X108265000Y-84625000D02*
X112702000Y-89062000D01*
X138235000Y-81355000D02*
X140560000Y-81355000D01*
X129530000Y-90060000D02*
X138235000Y-81355000D01*
X91650000Y-93880000D02*
X93510000Y-92020000D01*
X93510000Y-92020000D02*
X96910000Y-92020000D01*
X96910000Y-92020000D02*
X104305000Y-84625000D01*
X104305000Y-84625000D02*
X108265000Y-84625000D01*
%TO.N,Net-(JP19-C)*%
X167894000Y-82884000D02*
X165590000Y-80580000D01*
X165590000Y-80580000D02*
X163500000Y-80580000D01*
X167894000Y-85598000D02*
X167894000Y-82884000D01*
%TO.N,CS2*%
X104160000Y-88050000D02*
X105688000Y-86522000D01*
X96070000Y-93880000D02*
X101900000Y-88050000D01*
X75170000Y-96150000D02*
X76340000Y-97320000D01*
X105688000Y-86522000D02*
X105730000Y-86522000D01*
X74620000Y-92300000D02*
X75170000Y-92850000D01*
X101900000Y-88050000D02*
X104160000Y-88050000D01*
X74620000Y-89860000D02*
X74620000Y-92300000D01*
X75170000Y-92850000D02*
X75170000Y-96150000D01*
X94190000Y-93880000D02*
X96070000Y-93880000D01*
%TO.N,PA3*%
X61770000Y-130816000D02*
X61770000Y-108360000D01*
X64080000Y-133126000D02*
X61770000Y-130816000D01*
X68430000Y-104400000D02*
X71330000Y-101500000D01*
X65730000Y-104400000D02*
X68430000Y-104400000D01*
X61770000Y-108360000D02*
X65730000Y-104400000D01*
%TO.N,PA2*%
X63320000Y-135570000D02*
X60880000Y-133130000D01*
X65410000Y-103390000D02*
X66900000Y-103390000D01*
X60880000Y-107920000D02*
X65410000Y-103390000D01*
X65980000Y-135570000D02*
X63320000Y-135570000D01*
X60880000Y-133130000D02*
X60880000Y-107920000D01*
X66900000Y-103390000D02*
X68790000Y-101500000D01*
X66620000Y-134930000D02*
X65980000Y-135570000D01*
X66620000Y-133126000D02*
X66620000Y-134930000D01*
%TO.N,PC7*%
X86420000Y-137450000D02*
X86300000Y-137570000D01*
X65990000Y-93880000D02*
X66250000Y-93880000D01*
X86300000Y-137570000D02*
X61480000Y-137570000D01*
X64320000Y-92210000D02*
X65990000Y-93880000D01*
X61480000Y-137570000D02*
X58360000Y-134450000D01*
X58360000Y-94060000D02*
X60210000Y-92210000D01*
X60210000Y-92210000D02*
X64320000Y-92210000D01*
X58360000Y-134450000D02*
X58360000Y-94060000D01*
%TO.N,PC6*%
X89480000Y-136500000D02*
X87360000Y-138620000D01*
X57480000Y-93610000D02*
X61810000Y-89280000D01*
X61370000Y-138620000D02*
X57480000Y-134730000D01*
X89480000Y-133126000D02*
X89480000Y-136500000D01*
X57480000Y-134730000D02*
X57480000Y-93610000D01*
X66080000Y-89280000D02*
X66850000Y-90050000D01*
X68790000Y-93320000D02*
X68790000Y-93880000D01*
X66850000Y-91380000D02*
X68790000Y-93320000D01*
X66850000Y-90050000D02*
X66850000Y-91380000D01*
X87360000Y-138620000D02*
X61370000Y-138620000D01*
X61810000Y-89280000D02*
X66080000Y-89280000D01*
%TO.N,PC5*%
X61270000Y-139670000D02*
X56540000Y-134940000D01*
X70840000Y-90825000D02*
X70840000Y-93390000D01*
X70840000Y-93390000D02*
X71330000Y-93880000D01*
X87460000Y-139670000D02*
X61270000Y-139670000D01*
X56540000Y-93400000D02*
X61350000Y-88590000D01*
X56540000Y-134940000D02*
X56540000Y-93400000D01*
X68605000Y-88590000D02*
X70840000Y-90825000D01*
X61350000Y-88590000D02*
X68605000Y-88590000D01*
X92020000Y-135110000D02*
X87460000Y-139670000D01*
X92020000Y-133126000D02*
X92020000Y-135110000D01*
%TO.N,PC4*%
X55680000Y-93100000D02*
X61140000Y-87640000D01*
X55680000Y-100944675D02*
X55680000Y-93100000D01*
X87890000Y-140420000D02*
X60770000Y-140420000D01*
X55680000Y-135330000D02*
X55680000Y-101795325D01*
X55680000Y-101795325D02*
X55784511Y-101690814D01*
X61140000Y-87640000D02*
X68900000Y-87640000D01*
X71510000Y-91520000D02*
X73870000Y-93880000D01*
X55784511Y-101690814D02*
X55784511Y-101049186D01*
X68900000Y-87640000D02*
X71510000Y-90250000D01*
X94560000Y-133126000D02*
X94560000Y-133750000D01*
X60770000Y-140420000D02*
X55680000Y-135330000D01*
X94560000Y-133750000D02*
X87890000Y-140420000D01*
X71510000Y-90250000D02*
X71510000Y-91520000D01*
X55784511Y-101049186D02*
X55680000Y-100944675D01*
%TO.N,PC0*%
X97100000Y-135800000D02*
X89840000Y-143060000D01*
X97100000Y-133126000D02*
X97100000Y-135800000D01*
X89840000Y-143060000D02*
X89840000Y-143460000D01*
%TO.N,PC1*%
X87970000Y-143460000D02*
X87300000Y-143460000D01*
X95660000Y-134900000D02*
X95660000Y-135770000D01*
X95660000Y-135770000D02*
X87970000Y-143460000D01*
%TO.N,PC2*%
X96190000Y-144150000D02*
X96190000Y-141410000D01*
X102180000Y-135420000D02*
X102180000Y-133126000D01*
X84760000Y-143460000D02*
X86500000Y-145200000D01*
X95090000Y-145250000D02*
X96190000Y-144150000D01*
X86500000Y-145250000D02*
X95090000Y-145250000D01*
X96190000Y-141410000D02*
X102180000Y-135420000D01*
X86500000Y-145200000D02*
X86500000Y-145250000D01*
%TO.N,PB0*%
X112700000Y-139200000D02*
X112700000Y-143460000D01*
X107260000Y-133760000D02*
X112700000Y-139200000D01*
X107260000Y-133126000D02*
X107260000Y-133760000D01*
%TO.N,PB1*%
X109800000Y-133126000D02*
X109800000Y-135100000D01*
X114470000Y-139770000D02*
X114470000Y-144610000D01*
X109800000Y-135100000D02*
X114470000Y-139770000D01*
X113910000Y-145170000D02*
X110710000Y-145170000D01*
X110160000Y-144620000D02*
X110160000Y-143460000D01*
X114470000Y-144610000D02*
X113910000Y-145170000D01*
X110710000Y-145170000D02*
X110160000Y-144620000D01*
%TO.N,PB2*%
X115230000Y-139390000D02*
X115230000Y-144850000D01*
X112340000Y-133126000D02*
X112340000Y-136500000D01*
X109030000Y-145850000D02*
X107620000Y-144440000D01*
X112340000Y-136500000D02*
X115230000Y-139390000D01*
X115230000Y-144850000D02*
X114230000Y-145850000D01*
X114230000Y-145850000D02*
X109030000Y-145850000D01*
X107620000Y-144440000D02*
X107620000Y-143460000D01*
%TO.N,PB3*%
X112340000Y-118310000D02*
X112340000Y-117886000D01*
X112090000Y-118560000D02*
X112340000Y-118310000D01*
X105080000Y-140850000D02*
X105080000Y-143460000D01*
X108980000Y-136870000D02*
X108980000Y-136950000D01*
X112090000Y-120490000D02*
X112090000Y-118560000D01*
X108980000Y-136950000D02*
X105080000Y-140850000D01*
X111140000Y-121440000D02*
X112090000Y-120490000D01*
%TO.N,PB4*%
X108590000Y-121294500D02*
X109800000Y-120084500D01*
X107770000Y-135860000D02*
X107620000Y-135860000D01*
X109800000Y-120084500D02*
X109800000Y-117886000D01*
X102540000Y-140940000D02*
X102540000Y-143460000D01*
X107620000Y-135860000D02*
X102540000Y-140940000D01*
%TO.N,PB5*%
X107260000Y-117886000D02*
X107260000Y-120704500D01*
X105870000Y-135550000D02*
X100000000Y-141420000D01*
X107260000Y-120704500D02*
X106670000Y-121294500D01*
X100000000Y-141420000D02*
X100000000Y-143460000D01*
X105970000Y-135550000D02*
X105870000Y-135550000D01*
%TO.N,PB6*%
X104720000Y-121284500D02*
X104710000Y-121294500D01*
X97460000Y-141560000D02*
X97460000Y-143460000D01*
X104720000Y-117886000D02*
X104720000Y-121284500D01*
X103470000Y-135550000D02*
X97460000Y-141560000D01*
X103470000Y-135380000D02*
X103470000Y-135550000D01*
%TO.N,PB7*%
X100760000Y-135330000D02*
X94920000Y-141170000D01*
X102180000Y-117886000D02*
X102180000Y-121340000D01*
X100760000Y-135290000D02*
X100760000Y-135330000D01*
X94920000Y-141170000D02*
X94920000Y-143460000D01*
%TO.N,PA7*%
X77170000Y-115420000D02*
X79500000Y-113090000D01*
X79500000Y-113090000D02*
X83560000Y-113090000D01*
X74166000Y-115420000D02*
X77170000Y-115420000D01*
X83560000Y-113090000D02*
X91650000Y-105000000D01*
X91650000Y-105000000D02*
X91650000Y-101500000D01*
X71700000Y-117886000D02*
X74166000Y-115420000D01*
%TO.N,PA6*%
X76570000Y-114680000D02*
X78970000Y-112280000D01*
X71700000Y-114680000D02*
X76570000Y-114680000D01*
X89110000Y-106250000D02*
X89110000Y-101500000D01*
X78970000Y-112280000D02*
X83080000Y-112280000D01*
X69160000Y-117886000D02*
X69160000Y-117220000D01*
X69160000Y-117220000D02*
X71700000Y-114680000D01*
X83080000Y-112280000D02*
X89110000Y-106250000D01*
%TO.N,PA5*%
X87770000Y-102700000D02*
X86570000Y-101500000D01*
X82660000Y-111330000D02*
X87770000Y-106220000D01*
X76060000Y-114010000D02*
X78740000Y-111330000D01*
X66620000Y-117886000D02*
X70496000Y-114010000D01*
X87770000Y-106220000D02*
X87770000Y-102700000D01*
X78740000Y-111330000D02*
X82660000Y-111330000D01*
X70496000Y-114010000D02*
X76060000Y-114010000D01*
%TO.N,PA4*%
X73870000Y-105560000D02*
X73870000Y-101500000D01*
X64580000Y-107400000D02*
X72030000Y-107400000D01*
X62630000Y-109350000D02*
X64580000Y-107400000D01*
X72030000Y-107400000D02*
X73870000Y-105560000D01*
X64080000Y-117886000D02*
X62630000Y-116436000D01*
X62630000Y-116436000D02*
X62630000Y-109350000D01*
%TO.N,Net-(Q1-B)*%
X53520000Y-113830000D02*
X54190000Y-114500000D01*
X58650000Y-86420000D02*
X58650000Y-86070000D01*
X53520000Y-85740000D02*
X53520000Y-113830000D01*
X58650000Y-86070000D02*
X56960000Y-84380000D01*
X54880000Y-84380000D02*
X53520000Y-85740000D01*
X56960000Y-84380000D02*
X54880000Y-84380000D01*
%TO.N,Net-(U12-SCLK)*%
X121210000Y-71550000D02*
X121060000Y-71400000D01*
X121300000Y-71500000D02*
X121250000Y-71550000D01*
X154190000Y-71390000D02*
X154350000Y-71550000D01*
X121060000Y-71400000D02*
X107020000Y-71400000D01*
X107020000Y-71400000D02*
X105930000Y-72490000D01*
X100500000Y-81970000D02*
X103740000Y-78730000D01*
X121210000Y-71550000D02*
X121370000Y-71390000D01*
X103740000Y-78730000D02*
X103740000Y-75450000D01*
X121370000Y-71390000D02*
X154190000Y-71390000D01*
X103740000Y-75450000D02*
X105930000Y-73260000D01*
X105930000Y-72490000D02*
X105930000Y-73260000D01*
X121250000Y-71550000D02*
X121210000Y-71550000D01*
X100500000Y-82620000D02*
X100500000Y-81970000D01*
%TO.N,Net-(U12-DI)*%
X100490000Y-79440000D02*
X101250000Y-79440000D01*
X102770000Y-73180000D02*
X105620000Y-70330000D01*
X105620000Y-70330000D02*
X118640000Y-70330000D01*
X101250000Y-79440000D02*
X102770000Y-77920000D01*
X118910000Y-70380000D02*
X118860000Y-70330000D01*
X102770000Y-73260000D02*
X102770000Y-73180000D01*
X118640000Y-70330000D02*
X151590000Y-70330000D01*
X102770000Y-77920000D02*
X102770000Y-73260000D01*
%TO.N,Net-(U12-~{CS})*%
X150460000Y-77590000D02*
X147630000Y-77590000D01*
X137430000Y-89780000D02*
X137150000Y-90060000D01*
X151490000Y-76560000D02*
X150460000Y-77590000D01*
X137170000Y-86860000D02*
X137430000Y-87120000D01*
X138360000Y-86860000D02*
X137170000Y-86860000D01*
X147630000Y-77590000D02*
X138360000Y-86860000D01*
X137430000Y-87120000D02*
X137430000Y-89780000D01*
%TO.N,Net-(U13-~{CS})*%
X118480000Y-76860000D02*
X118480000Y-77880000D01*
X118480000Y-77880000D02*
X117320000Y-79040000D01*
X113350000Y-86522000D02*
X116180000Y-83692000D01*
X116180000Y-83692000D02*
X116180000Y-79040000D01*
X117320000Y-79040000D02*
X116180000Y-79040000D01*
%TO.N,Net-(U7-Pad11)*%
X175509000Y-90673000D02*
X175509000Y-91176000D01*
X170434000Y-85598000D02*
X175509000Y-90673000D01*
%TO.N,AEN*%
X197012000Y-142930000D02*
X198282000Y-141660000D01*
X198282000Y-141660000D02*
X207426000Y-141660000D01*
X211744000Y-137342000D02*
X211744000Y-103574000D01*
X207426000Y-141660000D02*
X211744000Y-137342000D01*
%TO.N,Net-(U3-Pad11)*%
X165800000Y-106470000D02*
X167080000Y-107750000D01*
X167080000Y-107750000D02*
X172435000Y-107750000D01*
X172435000Y-107750000D02*
X174570000Y-109885000D01*
X149650000Y-106745000D02*
X149925000Y-106470000D01*
X149925000Y-106470000D02*
X165800000Y-106470000D01*
%TD*%
M02*
