M48
; DRILL file {KiCad (6.0.2)} date Fri Jun 24 06:54:07 2022
; FORMAT={-:-/ absolute / inch / decimal}
; #@! TF.CreationDate,2022-06-24T06:54:07-05:00
; #@! TF.GenerationSoftware,Kicad,Pcbnew,(6.0.2)
; #@! TF.FileFunction,Plated,1,2,PTH
FMAT,2
INCH
; #@! TA.AperFunction,Plated,PTH,ViaDrill
T1C0.0157
; #@! TA.AperFunction,Plated,PTH,ComponentDrill
T2C0.0315
; #@! TA.AperFunction,Plated,PTH,ComponentDrill
T3C0.0354
; #@! TA.AperFunction,Plated,PTH,ComponentDrill
T4C0.0394
; #@! TA.AperFunction,Plated,PTH,ComponentDrill
T5C0.0433
%
G90
G05
T1
X2.1657Y-3.9909
X2.3961Y-3.2661
X2.4677Y-3.3421
X2.9075Y-3.3555
X3.276Y-5.0594
X3.4024Y-5.4114
X3.6395Y-5.397
X3.6827Y-2.9209
X3.7661Y-5.311
X3.898Y-4.8075
X3.9669Y-5.3264
X4.0228Y-4.7772
X4.0736Y-5.3299
X4.1224Y-4.7754
X4.172Y-5.3366
X4.1996Y-4.7754
X4.2429Y-5.3488
X4.2752Y-4.7754
X4.2906Y-5.3886
X4.3756Y-4.7811
X4.4535Y-4.7063
X4.5177Y-4.7043
X4.6051Y-4.2224
X4.6102Y-4.7287
X4.6429Y-4.4768
X4.6551Y-4.7531
X4.6583Y-2.9882
X4.6815Y-2.7709
X4.6949Y-4.2213
X4.7471Y-3.0064
X4.7732Y-4.426
X4.7756Y-2.815
X4.7976Y-4.2217
X4.8327Y-4.465
X4.8713Y-2.7228
X4.889Y-4.2185
X4.9035Y-4.4689
X4.9835Y-4.4646
X5.0492Y-4.4606
X5.0949Y-4.2138
X5.1709Y-5.6441
X5.1886Y-4.2154
X5.2382Y-5.6831
X5.2882Y-5.2343
X5.3008Y-5.0689
X5.4409Y-4.4197
X5.4831Y-4.378
X5.5004Y-3.5165
X5.5453Y-4.5969
X5.5571Y-5.7514
X5.6362Y-5.2854
X5.6571Y-5.7465
X5.6622Y-5.3228
X5.6945Y-5.3496
X5.7315Y-5.3793
X5.7602Y-5.7472
X5.761Y-5.4106
X5.765Y-5.1217
X5.7724Y-4.9453
X5.7929Y-5.4441
X5.8236Y-5.4813
X5.8421Y-4.7421
X5.8571Y-5.7559
X5.8598Y-5.5091
X5.9094Y-4.9966
X5.9567Y-5.7587
X5.9638Y-2.9953
X5.9681Y-2.7689
X6.0471Y-2.8564
X6.0471Y-2.9964
X6.0551Y-5.7602
X6.0768Y-2.8169
X6.1508Y-5.7559
X6.1795Y-2.798
X6.3217Y-3.813
X6.3618Y-5.6992
X6.3669Y-4.9464
X6.3728Y-4.8437
X6.4693Y-5.6984
X6.5Y-4.09
X6.5618Y-3.7429
X6.5634Y-3.8079
X6.5874Y-5.7012
X6.67Y-4.05
X6.6713Y-5.7004
X6.83Y-4.15
X6.92Y-4.1
X6.9598Y-5.628
X7.0213Y-5.1027
X7.0606Y-5.6272
X7.1264Y-5.2433
X7.1543Y-5.6307
X7.1618Y-3.1276
X7.2303Y-5.628
X7.2528Y-4.8212
X7.2709Y-5.6713
X7.2827Y-5.2346
X7.3134Y-5.7606
X7.3689Y-5.6756
X7.4122Y-5.7669
X7.5197Y-5.6358
X7.6059Y-5.6398
X7.9328Y-4.4812
X8.1858Y-3.9996
X8.1878Y-3.9563
X8.2665Y-3.5287
X8.3795Y-5.2677
X8.4047Y-5.3272
X8.4858Y-5.2484
X8.6571Y-5.7514
X8.6787Y-3.6079
T2
X2.1071Y-3.0756
X2.1071Y-3.3756
X2.1335Y-4.5079
X2.2091Y-3.4024
X2.2299Y-3.0583
X2.2299Y-3.1728
X2.3091Y-3.4024
X2.4083Y-3.6961
X2.4083Y-3.9961
X2.4091Y-3.4024
X2.5083Y-3.6961
X2.5083Y-3.9961
X2.5228Y-4.6412
X2.5228Y-5.2412
X2.5271Y-2.5664
X2.5271Y-2.8664
X2.5299Y-3.0583
X2.5299Y-3.1728
X2.5335Y-4.5079
X2.5693Y-3.2764
X2.5693Y-3.5764
X2.6083Y-3.6961
X2.6083Y-3.9961
X2.6228Y-4.6412
X2.6228Y-5.2412
X2.6488Y-2.8366
X2.6488Y-3.1366
X2.6933Y-3.2764
X2.6933Y-3.5764
X2.7083Y-3.6961
X2.7083Y-3.9961
X2.7228Y-4.6412
X2.7228Y-5.2412
X2.7752Y-2.8681
X2.7752Y-3.065
X2.7878Y-4.1642
X2.7878Y-4.4098
X2.7886Y-4.2858
X2.8083Y-3.6961
X2.8083Y-3.9961
X2.8177Y-3.2764
X2.8177Y-3.4732
X2.8228Y-4.6412
X2.8228Y-5.2412
X2.9083Y-3.6961
X2.9083Y-3.9961
X2.9228Y-4.6412
X2.9228Y-5.2412
X2.9378Y-3.2378
X2.9378Y-3.5378
X2.9846Y-4.1642
X2.9846Y-4.4098
X2.9854Y-4.2858
X3.0083Y-3.6961
X3.0083Y-3.9961
X3.0228Y-4.6412
X3.0228Y-5.2412
X3.063Y-3.2378
X3.063Y-3.5378
X3.1083Y-3.6961
X3.1083Y-3.9961
X3.1228Y-4.6412
X3.1228Y-5.2412
X3.1846Y-4.1803
X3.2083Y-3.6961
X3.2083Y-3.9961
X3.2228Y-4.6412
X3.2228Y-5.2412
X3.3083Y-3.6961
X3.3083Y-3.9961
X3.3228Y-4.6412
X3.3228Y-5.2412
X3.3768Y-4.1803
X3.4083Y-3.6961
X3.4083Y-3.9961
X3.4228Y-4.6412
X3.4228Y-5.2412
X3.5083Y-3.6961
X3.5083Y-3.9961
X3.5228Y-4.6412
X3.5228Y-5.2412
X3.6083Y-3.6961
X3.6083Y-3.9961
X3.6228Y-4.6412
X3.6228Y-5.2412
X3.6563Y-3.1276
X3.6567Y-3.2528
X3.7083Y-3.6961
X3.7083Y-3.9961
X3.7228Y-4.6412
X3.7228Y-5.2412
X3.8228Y-4.6412
X3.8228Y-5.2412
X3.8862Y-2.722
X3.8862Y-3.022
X3.9228Y-4.6412
X3.9228Y-5.2412
X3.9563Y-3.1276
X3.9567Y-3.2528
X4.0165Y-4.5094
X4.0228Y-4.6412
X4.0228Y-5.2412
X4.0461Y-2.5843
X4.0461Y-2.8843
X4.0476Y-3.689
X4.0476Y-4.289
X4.1228Y-4.6412
X4.1228Y-5.2412
X4.1476Y-3.689
X4.1476Y-4.289
X4.1626Y-3.4064
X4.1705Y-2.5843
X4.1705Y-2.8843
X4.2134Y-4.5094
X4.2228Y-4.6412
X4.2228Y-5.2412
X4.2476Y-3.689
X4.2476Y-4.289
X4.2909Y-2.5846
X4.2909Y-2.8846
X4.3228Y-4.6412
X4.3228Y-5.2412
X4.3476Y-3.689
X4.3476Y-4.289
X4.4228Y-4.6412
X4.4228Y-5.2412
X4.4476Y-3.689
X4.4476Y-4.289
X4.4626Y-3.4064
X4.5476Y-3.689
X4.5476Y-4.289
X4.574Y-3.1118
X4.574Y-3.4118
X4.6476Y-3.689
X4.6476Y-4.289
X4.7476Y-3.689
X4.7476Y-4.289
X4.8476Y-3.689
X4.8476Y-4.289
X4.9228Y-4.9012
X4.9228Y-5.2012
X4.9476Y-3.689
X4.9476Y-4.289
X5.0476Y-3.689
X5.0476Y-4.289
X5.0728Y-4.9012
X5.0728Y-5.2012
X5.0996Y-3.5457
X5.1004Y-3.4197
X5.1476Y-3.689
X5.1476Y-4.289
X5.1921Y-3.113
X5.1971Y-2.9964
X5.2197Y-2.5913
X5.2197Y-2.8913
X5.2228Y-4.9012
X5.2228Y-5.2012
X5.2476Y-3.689
X5.2476Y-4.289
X5.3386Y-2.5941
X5.3386Y-2.8941
X5.3476Y-3.689
X5.3476Y-4.289
X5.3728Y-4.9012
X5.3728Y-5.2012
X5.389Y-3.113
X5.3996Y-3.5457
X5.4004Y-3.4197
X5.4587Y-2.5965
X5.4587Y-2.8965
X5.4802Y-4.7764
X5.4971Y-2.9964
X5.5902Y-4.0732
X5.6226Y-4.3008
X5.6226Y-4.6008
X5.6226Y-4.9008
X5.6226Y-5.2008
X5.6771Y-4.7764
X5.7226Y-4.3008
X5.7226Y-4.6008
X5.7226Y-4.9008
X5.7226Y-5.2008
X5.787Y-4.0732
X5.8226Y-4.3008
X5.8226Y-4.6008
X5.8226Y-4.9008
X5.8226Y-5.2008
X5.8283Y-3.6138
X5.8283Y-3.9138
X5.9226Y-4.3008
X5.9226Y-4.6008
X5.9226Y-4.9008
X5.9226Y-5.2008
X5.9839Y-3.6118
X5.9839Y-3.9118
X6.0226Y-4.3008
X6.0226Y-4.6008
X6.0226Y-4.9008
X6.0226Y-5.2008
X6.1226Y-4.3008
X6.1226Y-4.6008
X6.1226Y-4.9008
X6.1226Y-5.2008
X6.1453Y-3.6063
X6.1453Y-3.9063
X6.2226Y-4.3008
X6.2226Y-4.6008
X6.2226Y-4.9008
X6.2226Y-5.2008
X6.2819Y-3.6043
X6.2819Y-3.9043
X6.4394Y-3.4795
X6.4394Y-3.6764
X6.5502Y-4.7564
X6.5726Y-4.9008
X6.5726Y-5.2008
X6.5728Y-4.3262
X6.5728Y-4.6262
X6.5971Y-2.5564
X6.5971Y-2.6664
X6.6098Y-3.5896
X6.6098Y-3.8896
X6.61Y-3.07
X6.61Y-3.37
X6.6726Y-4.9008
X6.6726Y-5.2008
X6.6728Y-4.3262
X6.6728Y-4.6262
X6.7098Y-3.5896
X6.7098Y-3.8896
X6.71Y-3.07
X6.71Y-3.37
X6.7471Y-4.7564
X6.7726Y-4.9008
X6.7726Y-5.2008
X6.7728Y-4.3262
X6.7728Y-4.6262
X6.8098Y-3.5896
X6.8098Y-3.8896
X6.81Y-3.07
X6.81Y-3.37
X6.8726Y-4.9008
X6.8726Y-5.2008
X6.8728Y-4.3262
X6.8728Y-4.6262
X6.8971Y-2.5564
X6.8971Y-2.6664
X6.9098Y-3.5896
X6.9098Y-3.8896
X6.91Y-3.07
X6.91Y-3.37
X6.9726Y-4.9008
X6.9726Y-5.2008
X6.9728Y-4.3262
X6.9728Y-4.6262
X7.0039Y-2.6744
X7.0071Y-2.5504
X7.0098Y-3.5896
X7.0098Y-3.8896
X7.01Y-3.07
X7.01Y-3.37
X7.0726Y-4.9008
X7.0726Y-5.2008
X7.0728Y-4.3262
X7.0728Y-4.6262
X7.1098Y-3.5896
X7.1098Y-3.8896
X7.11Y-3.07
X7.11Y-3.37
X7.1726Y-4.9008
X7.1726Y-5.2008
X7.1728Y-4.3262
X7.1728Y-4.6262
X7.2039Y-2.5504
X7.2098Y-3.5896
X7.2098Y-3.8896
X7.21Y-3.07
X7.21Y-3.37
X7.3039Y-2.6744
X7.3871Y-3.4295
X7.3871Y-3.6264
X7.4228Y-4.9012
X7.4228Y-5.2012
X7.5728Y-4.9012
X7.5728Y-5.2012
X7.5858Y-3.5874
X7.5858Y-3.8874
X7.5872Y-3.0776
X7.5872Y-3.3776
X7.6858Y-3.5874
X7.6858Y-3.8874
X7.6872Y-3.0776
X7.6872Y-3.3776
X7.7228Y-4.9012
X7.7228Y-5.2012
X7.7858Y-3.5874
X7.7858Y-3.8874
X7.7872Y-3.0776
X7.7872Y-3.3776
X7.8728Y-4.9012
X7.8728Y-5.2012
X7.8858Y-3.5874
X7.8858Y-3.8874
X7.8872Y-3.0776
X7.8872Y-3.3776
X7.9858Y-3.5874
X7.9858Y-3.8874
X7.9872Y-3.0776
X7.9872Y-3.3776
X8.0858Y-3.5874
X8.0858Y-3.8874
X8.0872Y-3.0776
X8.0872Y-3.3776
X8.1858Y-3.5874
X8.1858Y-3.8874
X8.1872Y-3.0776
X8.1872Y-3.3776
X8.398Y-3.5866
X8.398Y-3.8866
X8.4971Y-4.1864
X8.5394Y-3.589
X8.5394Y-3.889
X8.5758Y-4.1864
T3
X3.8862Y-2.5307
X3.8862Y-2.6307
X4.2567Y-3.1707
X4.2567Y-3.2707
X5.5339Y-3.103
X5.5339Y-3.203
T4
X2.6671Y-2.6064
X2.6671Y-2.7064
X2.937Y-5.648
X3.037Y-5.648
X3.0732Y-2.5618
X3.0732Y-2.6618
X3.0732Y-2.7618
X3.0732Y-2.8618
X3.0732Y-2.9618
X3.137Y-5.648
X3.1732Y-2.5618
X3.1732Y-2.6618
X3.1732Y-2.7618
X3.1732Y-2.8618
X3.1732Y-2.9618
X3.237Y-5.648
X3.3232Y-3.3913
X3.3232Y-3.4913
X3.337Y-5.648
X3.4232Y-3.3913
X3.4232Y-3.4913
X3.437Y-5.648
X3.5126Y-2.5717
X3.5126Y-2.6717
X3.5126Y-2.7717
X3.5126Y-2.8717
X3.5126Y-2.9717
X3.5232Y-3.3913
X3.5232Y-3.4913
X3.537Y-5.648
X3.6126Y-2.5717
X3.6126Y-2.6717
X3.6126Y-2.7717
X3.6126Y-2.8717
X3.6126Y-2.9717
X3.637Y-5.648
X3.737Y-5.648
X3.7799Y-3.4031
X3.7799Y-3.5031
X3.837Y-5.648
X3.937Y-5.648
X4.037Y-5.648
X4.137Y-5.648
X4.237Y-5.648
X4.337Y-5.648
X4.437Y-5.648
X4.8378Y-4.6126
X4.8378Y-4.7126
X4.9902Y-4.6126
X4.9902Y-4.7126
X5.1409Y-4.6142
X5.1409Y-4.7142
X5.2976Y-4.6126
X5.2976Y-4.7126
X5.615Y-3.6736
X5.615Y-3.7736
X5.615Y-3.8736
X5.8264Y-3.3295
X5.8264Y-3.4295
X5.9819Y-3.3299
X5.9819Y-3.4299
X6.1378Y-3.3299
X6.1378Y-3.4299
X6.2925Y-3.3295
X6.2925Y-3.4295
X6.9106Y-2.8606
X7.0106Y-2.8606
X7.1106Y-2.8606
X7.4185Y-4.5906
X7.4185Y-4.6906
X7.5736Y-4.5921
X7.5736Y-4.6921
X7.728Y-4.5917
X7.728Y-4.6917
X7.8819Y-4.5909
X7.8819Y-4.6909
X8.4051Y-3.2961
X8.4051Y-3.3961
X8.5575Y-3.2953
X8.5575Y-3.3953
T5
X2.1102Y-2.7461
X2.1102Y-2.9232
X2.3661Y-2.7461
X2.3661Y-2.9232
T0
M30
