%TF.GenerationSoftware,KiCad,Pcbnew,(6.0.2)*%
%TF.CreationDate,2022-06-23T20:50:51-05:00*%
%TF.ProjectId,ExtCard,45787443-6172-4642-9e6b-696361645f70,rev?*%
%TF.SameCoordinates,Original*%
%TF.FileFunction,Copper,L2,Bot*%
%TF.FilePolarity,Positive*%
%FSLAX46Y46*%
G04 Gerber Fmt 4.6, Leading zero omitted, Abs format (unit mm)*
G04 Created by KiCad (PCBNEW (6.0.2)) date 2022-06-23 20:50:51*
%MOMM*%
%LPD*%
G01*
G04 APERTURE LIST*
%TA.AperFunction,ComponentPad*%
%ADD10R,1.600000X1.600000*%
%TD*%
%TA.AperFunction,ComponentPad*%
%ADD11O,1.600000X1.600000*%
%TD*%
%TA.AperFunction,ComponentPad*%
%ADD12C,1.600000*%
%TD*%
%TA.AperFunction,ComponentPad*%
%ADD13R,1.500000X1.500000*%
%TD*%
%TA.AperFunction,ComponentPad*%
%ADD14C,1.500000*%
%TD*%
%TA.AperFunction,ComponentPad*%
%ADD15R,1.800000X1.800000*%
%TD*%
%TA.AperFunction,ComponentPad*%
%ADD16C,1.800000*%
%TD*%
%TA.AperFunction,ComponentPad*%
%ADD17R,1.700000X1.700000*%
%TD*%
%TA.AperFunction,ComponentPad*%
%ADD18O,1.700000X1.700000*%
%TD*%
%TA.AperFunction,ViaPad*%
%ADD19C,0.800000*%
%TD*%
%TA.AperFunction,Conductor*%
%ADD20C,0.350000*%
%TD*%
G04 APERTURE END LIST*
D10*
%TO.P,D6,1,K*%
%TO.N,Net-(D4-Pad2)*%
X89570000Y-132770000D03*
D11*
%TO.P,D6,2,A*%
%TO.N,+5V*%
X97190000Y-132770000D03*
%TD*%
D12*
%TO.P,R2,1*%
%TO.N,CS*%
X89570000Y-128960000D03*
D11*
%TO.P,R2,2*%
%TO.N,Net-(Q1-Pad2)*%
X97190000Y-128960000D03*
%TD*%
D12*
%TO.P,R21,1*%
%TO.N,SCK*%
X101000000Y-120070000D03*
D11*
%TO.P,R21,2*%
%TO.N,Net-(R21-Pad2)*%
X101000000Y-112450000D03*
%TD*%
D10*
%TO.P,D9,1,K*%
%TO.N,Net-(D8-Pad2)*%
X97170000Y-88300000D03*
D11*
%TO.P,D9,2,A*%
%TO.N,+5V*%
X89550000Y-88300000D03*
%TD*%
D13*
%TO.P,Q2,1,E*%
%TO.N,+5V*%
X83220000Y-120070000D03*
D14*
%TO.P,Q2,2,B*%
%TO.N,Net-(Q2-Pad2)*%
X83220000Y-122610000D03*
%TO.P,Q2,3,C*%
%TO.N,Net-(Q2-Pad3)*%
X83220000Y-125150000D03*
%TD*%
D10*
%TO.P,D4,1,K*%
%TO.N,Net-(D4-Pad1)*%
X97190000Y-136580000D03*
D11*
%TO.P,D4,2,A*%
%TO.N,Net-(D4-Pad2)*%
X89570000Y-136580000D03*
%TD*%
D12*
%TO.P,R31,1*%
%TO.N,Net-(D4-Pad1)*%
X85760000Y-132770000D03*
D11*
%TO.P,R31,2*%
%TO.N,GND*%
X78140000Y-132770000D03*
%TD*%
D15*
%TO.P,D5,1,K*%
%TO.N,GND*%
X108030000Y-95910000D03*
D16*
%TO.P,D5,2,A*%
%TO.N,Net-(D5-Pad2)*%
X105490000Y-95910000D03*
%TD*%
D10*
%TO.P,C17,1*%
%TO.N,+5V*%
X82225112Y-137310000D03*
D12*
%TO.P,C17,2*%
%TO.N,GND*%
X80225112Y-137310000D03*
%TD*%
D13*
%TO.P,Q1,1,E*%
%TO.N,+5V*%
X101910000Y-123880000D03*
D14*
%TO.P,Q1,2,B*%
%TO.N,Net-(Q1-Pad2)*%
X101910000Y-126420000D03*
%TO.P,Q1,3,C*%
%TO.N,Net-(Q1-Pad3)*%
X101910000Y-128960000D03*
%TD*%
D17*
%TO.P,J3,1,Pin_1*%
%TO.N,+5V*%
X89570000Y-103560000D03*
D18*
%TO.P,J3,2,Pin_2*%
%TO.N,unconnected-(J3-Pad2)*%
X92110000Y-103560000D03*
%TO.P,J3,3,Pin_3*%
%TO.N,GND*%
X89570000Y-106100000D03*
%TO.P,J3,4,Pin_4*%
%TO.N,MISO*%
X92110000Y-106100000D03*
%TO.P,J3,5,Pin_5*%
%TO.N,unconnected-(J3-Pad5)*%
X89570000Y-108640000D03*
%TO.P,J3,6,Pin_6*%
%TO.N,MOSI*%
X92110000Y-108640000D03*
%TO.P,J3,7,Pin_7*%
%TO.N,CS2*%
X89570000Y-111180000D03*
%TO.P,J3,8,Pin_8*%
%TO.N,CS3*%
X92110000Y-111180000D03*
%TO.P,J3,9,Pin_9*%
%TO.N,CS*%
X89570000Y-113720000D03*
%TO.P,J3,10,Pin_10*%
%TO.N,SCK*%
X92110000Y-113720000D03*
%TD*%
D12*
%TO.P,R25,1*%
%TO.N,Net-(R24-Pad2)*%
X104810000Y-101020000D03*
D11*
%TO.P,R25,2*%
%TO.N,GND*%
X104810000Y-108640000D03*
%TD*%
D12*
%TO.P,R1,1*%
%TO.N,CS*%
X89570000Y-120070000D03*
D11*
%TO.P,R1,2*%
%TO.N,GND*%
X97190000Y-120070000D03*
%TD*%
D13*
%TO.P,Q3,1,E*%
%TO.N,+5V*%
X84490000Y-92130000D03*
D14*
%TO.P,Q3,2,B*%
%TO.N,Net-(Q3-Pad2)*%
X84490000Y-89590000D03*
%TO.P,Q3,3,C*%
%TO.N,Net-(Q3-Pad3)*%
X84490000Y-87050000D03*
%TD*%
D12*
%TO.P,C7,1*%
%TO.N,GND*%
X111560000Y-92120000D03*
%TO.P,C7,2*%
%TO.N,Net-(C7-Pad2)*%
X111560000Y-97120000D03*
%TD*%
%TO.P,R5,1*%
%TO.N,CS2*%
X70520000Y-95940000D03*
D11*
%TO.P,R5,2*%
%TO.N,Net-(Q3-Pad2)*%
X78140000Y-95940000D03*
%TD*%
D12*
%TO.P,R32,1*%
%TO.N,Net-(Q1-Pad3)*%
X108620000Y-121340000D03*
D11*
%TO.P,R32,2*%
%TO.N,Net-(R32-Pad2)*%
X108620000Y-128960000D03*
%TD*%
D17*
%TO.P,J1,1,Pin_1*%
%TO.N,+5V*%
X71790000Y-103560000D03*
D18*
%TO.P,J1,2,Pin_2*%
%TO.N,unconnected-(J1-Pad2)*%
X74330000Y-103560000D03*
%TO.P,J1,3,Pin_3*%
%TO.N,GND*%
X71790000Y-106100000D03*
%TO.P,J1,4,Pin_4*%
%TO.N,MISO*%
X74330000Y-106100000D03*
%TO.P,J1,5,Pin_5*%
%TO.N,unconnected-(J1-Pad5)*%
X71790000Y-108640000D03*
%TO.P,J1,6,Pin_6*%
%TO.N,MOSI*%
X74330000Y-108640000D03*
%TO.P,J1,7,Pin_7*%
%TO.N,unconnected-(J1-Pad7)*%
X71790000Y-111180000D03*
%TO.P,J1,8,Pin_8*%
%TO.N,CS3*%
X74330000Y-111180000D03*
%TO.P,J1,9,Pin_9*%
%TO.N,unconnected-(J1-Pad9)*%
X71790000Y-113720000D03*
%TO.P,J1,10,Pin_10*%
%TO.N,SCK*%
X74330000Y-113720000D03*
%TD*%
D12*
%TO.P,R22,1*%
%TO.N,Net-(R21-Pad2)*%
X104810000Y-112450000D03*
D11*
%TO.P,R22,2*%
%TO.N,GND*%
X104810000Y-120070000D03*
%TD*%
D12*
%TO.P,R3,1*%
%TO.N,CS3*%
X71180000Y-121330000D03*
D11*
%TO.P,R3,2*%
%TO.N,Net-(Q2-Pad2)*%
X78800000Y-121330000D03*
%TD*%
D12*
%TO.P,R4,1*%
%TO.N,CS2*%
X89570000Y-123880000D03*
D11*
%TO.P,R4,2*%
%TO.N,GND*%
X97190000Y-123880000D03*
%TD*%
D12*
%TO.P,R23,1*%
%TO.N,Net-(Q2-Pad3)*%
X85760000Y-128960000D03*
D11*
%TO.P,R23,2*%
%TO.N,Net-(D3-Pad2)*%
X78140000Y-128960000D03*
%TD*%
D12*
%TO.P,R24,1*%
%TO.N,MOSI*%
X101000000Y-108640000D03*
D11*
%TO.P,R24,2*%
%TO.N,Net-(R24-Pad2)*%
X101000000Y-101020000D03*
%TD*%
D15*
%TO.P,D7,1,K*%
%TO.N,GND*%
X106080000Y-134040000D03*
D16*
%TO.P,D7,2,A*%
%TO.N,Net-(R32-Pad2)*%
X108620000Y-134040000D03*
%TD*%
D12*
%TO.P,C6,1*%
%TO.N,GND*%
X108620000Y-112450000D03*
%TO.P,C6,2*%
%TO.N,Net-(D4-Pad1)*%
X108620000Y-117450000D03*
%TD*%
D15*
%TO.P,D3,1,K*%
%TO.N,GND*%
X70520000Y-126420000D03*
D16*
%TO.P,D3,2,A*%
%TO.N,Net-(D3-Pad2)*%
X73060000Y-126420000D03*
%TD*%
D12*
%TO.P,C16,1*%
%TO.N,GND*%
X80680000Y-95940000D03*
%TO.P,C16,2*%
%TO.N,+5V*%
X85680000Y-95940000D03*
%TD*%
%TO.P,R30,1*%
%TO.N,Net-(Q3-Pad3)*%
X88300000Y-95940000D03*
D11*
%TO.P,R30,2*%
%TO.N,Net-(D5-Pad2)*%
X95920000Y-95940000D03*
%TD*%
D10*
%TO.P,D8,1,K*%
%TO.N,Net-(C7-Pad2)*%
X97190000Y-92130000D03*
D11*
%TO.P,D8,2,A*%
%TO.N,Net-(D8-Pad2)*%
X89570000Y-92130000D03*
%TD*%
D12*
%TO.P,R33,1*%
%TO.N,Net-(C7-Pad2)*%
X101000000Y-88320000D03*
D11*
%TO.P,R33,2*%
%TO.N,GND*%
X108620000Y-88320000D03*
%TD*%
D19*
%TO.N,Net-(D4-Pad1)*%
X113430000Y-123570000D03*
%TO.N,Net-(C7-Pad2)*%
X117440000Y-103230000D03*
%TO.N,MISO*%
X117720000Y-106610000D03*
X117460000Y-126880000D03*
X112020000Y-106580000D03*
X96480000Y-105320000D03*
%TO.N,Net-(R21-Pad2)*%
X117370000Y-124470000D03*
X112920000Y-105210000D03*
%TO.N,Net-(R24-Pad2)*%
X113150000Y-102300000D03*
X119620000Y-122440000D03*
X119480000Y-102260000D03*
%TO.N,CS*%
X113930000Y-121440000D03*
X93350000Y-112480000D03*
%TO.N,CS2*%
X87030000Y-114990000D03*
X113270000Y-101010000D03*
X91490000Y-99650000D03*
X87540000Y-100180000D03*
%TD*%
D20*
%TO.N,Net-(D3-Pad2)*%
X73060000Y-126420000D02*
X75600000Y-126420000D01*
X75600000Y-126420000D02*
X78140000Y-128960000D01*
%TO.N,Net-(Q2-Pad2)*%
X80080000Y-122610000D02*
X78800000Y-121330000D01*
X83220000Y-122610000D02*
X80080000Y-122610000D01*
%TO.N,Net-(Q3-Pad2)*%
X78140000Y-95305000D02*
X78140000Y-95940000D01*
X83855000Y-89590000D02*
X78140000Y-95305000D01*
X84490000Y-89590000D02*
X83855000Y-89590000D01*
%TO.N,Net-(Q3-Pad3)*%
X86470000Y-94010000D02*
X88300000Y-95840000D01*
X84490000Y-87050000D02*
X86470000Y-89030000D01*
X86470000Y-89030000D02*
X86470000Y-94010000D01*
X88300000Y-95840000D02*
X88300000Y-95940000D01*
%TO.N,Net-(Q2-Pad3)*%
X83220000Y-125150000D02*
X83220000Y-126420000D01*
X83220000Y-126420000D02*
X85760000Y-128960000D01*
%TO.N,Net-(R32-Pad2)*%
X108620000Y-128960000D02*
X108620000Y-134040000D01*
%TO.N,Net-(Q1-Pad3)*%
X101910000Y-128960000D02*
X103540000Y-128960000D01*
X103540000Y-128960000D02*
X108620000Y-123880000D01*
X108620000Y-123880000D02*
X108620000Y-121340000D01*
%TO.N,Net-(D4-Pad1)*%
X113420000Y-123560000D02*
X113430000Y-123570000D01*
X110350000Y-123560000D02*
X110350000Y-119050000D01*
X97190000Y-136580000D02*
X98010000Y-136580000D01*
X110350000Y-119050000D02*
X108750000Y-117450000D01*
X110350000Y-123560000D02*
X113420000Y-123560000D01*
X97140000Y-136580000D02*
X95660000Y-138060000D01*
X108750000Y-117450000D02*
X108620000Y-117450000D01*
X95660000Y-138060000D02*
X88480000Y-138060000D01*
X85760000Y-135340000D02*
X85760000Y-132770000D01*
X98010000Y-136580000D02*
X110350000Y-124240000D01*
X97190000Y-136580000D02*
X97140000Y-136580000D01*
X88480000Y-138060000D02*
X85760000Y-135340000D01*
X110350000Y-124240000D02*
X110350000Y-123560000D01*
%TO.N,+5V*%
X95540000Y-130720000D02*
X95540000Y-128100000D01*
X99760000Y-123880000D02*
X101910000Y-123880000D01*
X83220000Y-120070000D02*
X81950000Y-118800000D01*
X84610000Y-130720000D02*
X88560000Y-130720000D01*
X89570000Y-103560000D02*
X89860000Y-103270000D01*
X81950000Y-118800000D02*
X76920000Y-118800000D01*
X88270000Y-101800000D02*
X89570000Y-103100000D01*
X82225112Y-137310000D02*
X82225112Y-133104888D01*
X97190000Y-132770000D02*
X95540000Y-131120000D01*
X72580000Y-123140000D02*
X70310000Y-123140000D01*
X70310000Y-123140000D02*
X69250000Y-122080000D01*
X89860000Y-95000000D02*
X87800000Y-92940000D01*
X85680000Y-95940000D02*
X86000000Y-95940000D01*
X69250000Y-104830000D02*
X70520000Y-103560000D01*
X86000000Y-95940000D02*
X89860000Y-99800000D01*
X87320000Y-129480000D02*
X87320000Y-124170000D01*
X95540000Y-130720000D02*
X88560000Y-130720000D01*
X69250000Y-122080000D02*
X69250000Y-104830000D01*
X95540000Y-128100000D02*
X99760000Y-123880000D01*
X84490000Y-94750000D02*
X85680000Y-95940000D01*
X82225112Y-133104888D02*
X84610000Y-130720000D01*
X87800000Y-92940000D02*
X87800000Y-90050000D01*
X72740000Y-101800000D02*
X88270000Y-101800000D01*
X89860000Y-103270000D02*
X89860000Y-95000000D01*
X71790000Y-102750000D02*
X72740000Y-101800000D01*
X87320000Y-124170000D02*
X83220000Y-120070000D01*
X87800000Y-90050000D02*
X89550000Y-88300000D01*
X88560000Y-130720000D02*
X87320000Y-129480000D01*
X84490000Y-92130000D02*
X84490000Y-94750000D01*
X71790000Y-103560000D02*
X71790000Y-102750000D01*
X89570000Y-103100000D02*
X89570000Y-103560000D01*
X70520000Y-103560000D02*
X71790000Y-103560000D01*
X95540000Y-131120000D02*
X95540000Y-130720000D01*
X76920000Y-118800000D02*
X72580000Y-123140000D01*
%TO.N,Net-(C7-Pad2)*%
X111560000Y-94750000D02*
X111560000Y-97120000D01*
X115800000Y-97170000D02*
X117640000Y-99010000D01*
X101000000Y-88320000D02*
X105130000Y-88320000D01*
X97190000Y-92130000D02*
X101000000Y-88320000D01*
X105130000Y-88320000D02*
X111560000Y-94750000D01*
X111610000Y-97170000D02*
X115800000Y-97170000D01*
X111560000Y-97120000D02*
X111610000Y-97170000D01*
X117640000Y-103030000D02*
X117440000Y-103230000D01*
X117640000Y-99010000D02*
X117640000Y-103030000D01*
%TO.N,MISO*%
X103870000Y-105350000D02*
X103840000Y-105320000D01*
X118670000Y-107560000D02*
X118670000Y-125630000D01*
X117460000Y-126840000D02*
X117460000Y-126880000D01*
X74330000Y-106100000D02*
X75600000Y-104830000D01*
X112020000Y-106580000D02*
X105100000Y-106580000D01*
X90840000Y-104830000D02*
X92110000Y-106100000D01*
X117720000Y-106610000D02*
X118670000Y-107560000D01*
X118670000Y-125630000D02*
X117460000Y-126840000D01*
X103840000Y-105320000D02*
X96480000Y-105320000D01*
X105100000Y-106580000D02*
X103870000Y-105350000D01*
X75600000Y-104830000D02*
X90840000Y-104830000D01*
%TO.N,SCK*%
X97190000Y-116260000D02*
X93380000Y-116260000D01*
X90850000Y-112460000D02*
X92110000Y-113720000D01*
X92110000Y-114990000D02*
X92110000Y-113720000D01*
X74330000Y-113720000D02*
X75590000Y-112460000D01*
X93380000Y-116260000D02*
X92110000Y-114990000D01*
X75590000Y-112460000D02*
X90850000Y-112460000D01*
X101000000Y-120070000D02*
X97190000Y-116260000D01*
%TO.N,MOSI*%
X75600000Y-107370000D02*
X90840000Y-107370000D01*
X74330000Y-108640000D02*
X75600000Y-107370000D01*
X92110000Y-108640000D02*
X101000000Y-108640000D01*
X90840000Y-107370000D02*
X92110000Y-108640000D01*
%TO.N,CS3*%
X73060000Y-112450000D02*
X74330000Y-111180000D01*
X74330000Y-111180000D02*
X75620000Y-109890000D01*
X73060000Y-116550000D02*
X73060000Y-112450000D01*
X75620000Y-109890000D02*
X90820000Y-109890000D01*
X71180000Y-118430000D02*
X73060000Y-116550000D01*
X71180000Y-121330000D02*
X71180000Y-118430000D01*
X90820000Y-109890000D02*
X92110000Y-111180000D01*
%TO.N,Net-(D4-Pad2)*%
X89570000Y-132770000D02*
X89570000Y-136580000D01*
%TO.N,Net-(Q1-Pad2)*%
X97190000Y-128960000D02*
X99730000Y-126420000D01*
X99730000Y-126420000D02*
X101910000Y-126420000D01*
%TO.N,Net-(R21-Pad2)*%
X112930000Y-117900000D02*
X113700000Y-118670000D01*
X107240000Y-110020000D02*
X112610000Y-110020000D01*
X116190000Y-118740000D02*
X117350000Y-119900000D01*
X112930000Y-105220000D02*
X112920000Y-105210000D01*
X117350000Y-119900000D02*
X117350000Y-124450000D01*
X104810000Y-112450000D02*
X107240000Y-110020000D01*
X113700000Y-118670000D02*
X113770000Y-118740000D01*
X113770000Y-118740000D02*
X116190000Y-118740000D01*
X112610000Y-110020000D02*
X112930000Y-109700000D01*
X117350000Y-124450000D02*
X117370000Y-124470000D01*
X112930000Y-105220000D02*
X112930000Y-117900000D01*
%TO.N,Net-(R24-Pad2)*%
X109720000Y-101020000D02*
X111000000Y-102300000D01*
X101000000Y-101020000D02*
X104810000Y-101020000D01*
X120460000Y-119710000D02*
X120460000Y-103240000D01*
X120460000Y-121600000D02*
X120460000Y-119710000D01*
X104810000Y-101020000D02*
X109720000Y-101020000D01*
X111000000Y-102300000D02*
X113150000Y-102300000D01*
X120460000Y-103240000D02*
X119480000Y-102260000D01*
X119620000Y-122440000D02*
X120460000Y-121600000D01*
%TO.N,CS*%
X111680000Y-116980000D02*
X111680000Y-119190000D01*
X89570000Y-120070000D02*
X89570000Y-113720000D01*
X89570000Y-128960000D02*
X91250000Y-127280000D01*
X91250000Y-127280000D02*
X91250000Y-121750000D01*
X93350000Y-112480000D02*
X93910000Y-112480000D01*
X111680000Y-119190000D02*
X113930000Y-121440000D01*
X109370000Y-114670000D02*
X111680000Y-116980000D01*
X91250000Y-121750000D02*
X89570000Y-120070000D01*
X93910000Y-112480000D02*
X96100000Y-114670000D01*
X96100000Y-114670000D02*
X109370000Y-114670000D01*
%TO.N,CS2*%
X87030000Y-121340000D02*
X87030000Y-114990000D01*
X91990000Y-99150000D02*
X111410000Y-99150000D01*
X91990000Y-99150000D02*
X91490000Y-99650000D01*
X89570000Y-123880000D02*
X87030000Y-121340000D01*
X113270000Y-101010000D02*
X111410000Y-99150000D01*
X87540000Y-100180000D02*
X87520000Y-100160000D01*
X74740000Y-100160000D02*
X70520000Y-95940000D01*
X87520000Y-100160000D02*
X74740000Y-100160000D01*
%TO.N,Net-(D5-Pad2)*%
X105490000Y-95910000D02*
X105460000Y-95940000D01*
X105460000Y-95940000D02*
X95920000Y-95940000D01*
%TO.N,Net-(D8-Pad2)*%
X90850000Y-92130000D02*
X94680000Y-88300000D01*
X89570000Y-92130000D02*
X90850000Y-92130000D01*
X94680000Y-88300000D02*
X97170000Y-88300000D01*
%TD*%
M02*
