M48
; DRILL file {KiCad (6.0.2)} date Fri Jun 24 04:05:15 2022
; FORMAT={-:-/ absolute / inch / decimal}
; #@! TF.CreationDate,2022-06-24T04:05:15-05:00
; #@! TF.GenerationSoftware,Kicad,Pcbnew,(6.0.2)
; #@! TF.FileFunction,Plated,1,2,PTH
FMAT,2
INCH
; #@! TA.AperFunction,Plated,PTH,ViaDrill
T1C0.0157
; #@! TA.AperFunction,Plated,PTH,ComponentDrill
T2C0.0315
; #@! TA.AperFunction,Plated,PTH,ComponentDrill
T3C0.0354
; #@! TA.AperFunction,Plated,PTH,ComponentDrill
T4C0.0394
%
G90
G05
T1
X3.4264Y-4.5272
X3.4465Y-3.9441
X3.602Y-3.9232
X3.6752Y-4.4283
X3.7984Y-4.1465
X4.4102Y-4.1961
X4.4457Y-4.1421
X4.4547Y-4.0276
X4.4594Y-3.9768
X4.4657Y-4.865
X4.4854Y-4.7811
X4.6209Y-4.9004
X4.6236Y-4.0642
X4.6244Y-4.9953
X4.6346Y-4.1972
X4.7039Y-4.026
X4.7094Y-4.8205
T2
X2.7764Y-3.7772
X2.8024Y-4.7768
X3.0764Y-3.7772
X3.0764Y-5.0772
X3.0764Y-5.2272
X3.1024Y-4.7768
X3.1585Y-5.4059
X3.1764Y-3.7772
X3.2372Y-5.4059
X3.2764Y-4.7272
X3.2764Y-4.8272
X3.2764Y-4.9272
X3.3264Y-3.4272
X3.3264Y-3.5272
X3.3264Y-3.6272
X3.3732Y-3.7772
X3.3764Y-5.0772
X3.3764Y-5.2272
X3.5264Y-4.7272
X3.5264Y-4.8772
X3.5264Y-5.0772
X3.5264Y-5.2272
X3.5264Y-5.3772
X3.5417Y-3.5054
X3.5417Y-3.6454
X3.5417Y-3.7754
X3.8264Y-4.7272
X3.8264Y-4.8772
X3.8264Y-5.0772
X3.8264Y-5.2272
X3.8264Y-5.3772
X3.8417Y-3.5054
X3.8417Y-3.6454
X3.8417Y-3.7754
X3.9736Y-3.489
X3.9736Y-3.789
X3.9764Y-3.9772
X3.9764Y-4.2772
X3.9764Y-4.4272
X3.9764Y-4.7272
X3.9929Y-4.8791
X3.9929Y-4.9791
X3.9929Y-5.0791
X4.1264Y-3.9772
X4.1264Y-4.2772
X4.1264Y-4.4272
X4.1264Y-4.7272
X4.2524Y-3.9091
X4.2524Y-4.1059
X4.2764Y-4.4272
X4.2764Y-4.624
X4.2764Y-4.7772
X4.2764Y-5.0772
T3
X2.788Y-4.9957
X2.888Y-4.9957
X4.3709Y-3.476
X4.3709Y-3.576
X4.3764Y-5.3433
X4.3764Y-5.4433
T4
X2.8264Y-4.0772
X2.8264Y-4.1772
X2.8264Y-4.2772
X2.8264Y-4.3772
X2.8264Y-4.4772
X2.9264Y-4.0772
X2.9264Y-4.1772
X2.9264Y-4.2772
X2.9264Y-4.3772
X2.9264Y-4.4772
X3.5264Y-4.0772
X3.5264Y-4.1772
X3.5264Y-4.2772
X3.5264Y-4.3772
X3.5264Y-4.4772
X3.6264Y-4.0772
X3.6264Y-4.1772
X3.6264Y-4.2772
X3.6264Y-4.3772
X3.6264Y-4.4772
T0
M30
