%TF.GenerationSoftware,KiCad,Pcbnew,(6.0.2)*%
%TF.CreationDate,2022-06-23T20:50:51-05:00*%
%TF.ProjectId,ExtCard,45787443-6172-4642-9e6b-696361645f70,rev?*%
%TF.SameCoordinates,Original*%
%TF.FileFunction,Legend,Top*%
%TF.FilePolarity,Positive*%
%FSLAX46Y46*%
G04 Gerber Fmt 4.6, Leading zero omitted, Abs format (unit mm)*
G04 Created by KiCad (PCBNEW (6.0.2)) date 2022-06-23 20:50:51*
%MOMM*%
%LPD*%
G01*
G04 APERTURE LIST*
%ADD10C,0.150000*%
%ADD11C,0.120000*%
%ADD12C,0.250000*%
%ADD13C,1.000000*%
G04 APERTURE END LIST*
D10*
X85467142Y-111537142D02*
X85419523Y-111584761D01*
X85276666Y-111632380D01*
X85181428Y-111632380D01*
X85038571Y-111584761D01*
X84943333Y-111489523D01*
X84895714Y-111394285D01*
X84848095Y-111203809D01*
X84848095Y-111060952D01*
X84895714Y-110870476D01*
X84943333Y-110775238D01*
X85038571Y-110680000D01*
X85181428Y-110632380D01*
X85276666Y-110632380D01*
X85419523Y-110680000D01*
X85467142Y-110727619D01*
X85848095Y-111584761D02*
X85990952Y-111632380D01*
X86229047Y-111632380D01*
X86324285Y-111584761D01*
X86371904Y-111537142D01*
X86419523Y-111441904D01*
X86419523Y-111346666D01*
X86371904Y-111251428D01*
X86324285Y-111203809D01*
X86229047Y-111156190D01*
X86038571Y-111108571D01*
X85943333Y-111060952D01*
X85895714Y-111013333D01*
X85848095Y-110918095D01*
X85848095Y-110822857D01*
X85895714Y-110727619D01*
X85943333Y-110680000D01*
X86038571Y-110632380D01*
X86276666Y-110632380D01*
X86419523Y-110680000D01*
X86800476Y-110727619D02*
X86848095Y-110680000D01*
X86943333Y-110632380D01*
X87181428Y-110632380D01*
X87276666Y-110680000D01*
X87324285Y-110727619D01*
X87371904Y-110822857D01*
X87371904Y-110918095D01*
X87324285Y-111060952D01*
X86752857Y-111632380D01*
X87371904Y-111632380D01*
X94877142Y-111527142D02*
X94829523Y-111574761D01*
X94686666Y-111622380D01*
X94591428Y-111622380D01*
X94448571Y-111574761D01*
X94353333Y-111479523D01*
X94305714Y-111384285D01*
X94258095Y-111193809D01*
X94258095Y-111050952D01*
X94305714Y-110860476D01*
X94353333Y-110765238D01*
X94448571Y-110670000D01*
X94591428Y-110622380D01*
X94686666Y-110622380D01*
X94829523Y-110670000D01*
X94877142Y-110717619D01*
X95258095Y-111574761D02*
X95400952Y-111622380D01*
X95639047Y-111622380D01*
X95734285Y-111574761D01*
X95781904Y-111527142D01*
X95829523Y-111431904D01*
X95829523Y-111336666D01*
X95781904Y-111241428D01*
X95734285Y-111193809D01*
X95639047Y-111146190D01*
X95448571Y-111098571D01*
X95353333Y-111050952D01*
X95305714Y-111003333D01*
X95258095Y-110908095D01*
X95258095Y-110812857D01*
X95305714Y-110717619D01*
X95353333Y-110670000D01*
X95448571Y-110622380D01*
X95686666Y-110622380D01*
X95829523Y-110670000D01*
X96162857Y-110622380D02*
X96781904Y-110622380D01*
X96448571Y-111003333D01*
X96591428Y-111003333D01*
X96686666Y-111050952D01*
X96734285Y-111098571D01*
X96781904Y-111193809D01*
X96781904Y-111431904D01*
X96734285Y-111527142D01*
X96686666Y-111574761D01*
X96591428Y-111622380D01*
X96305714Y-111622380D01*
X96210476Y-111574761D01*
X96162857Y-111527142D01*
X94294285Y-114134761D02*
X94437142Y-114182380D01*
X94675238Y-114182380D01*
X94770476Y-114134761D01*
X94818095Y-114087142D01*
X94865714Y-113991904D01*
X94865714Y-113896666D01*
X94818095Y-113801428D01*
X94770476Y-113753809D01*
X94675238Y-113706190D01*
X94484761Y-113658571D01*
X94389523Y-113610952D01*
X94341904Y-113563333D01*
X94294285Y-113468095D01*
X94294285Y-113372857D01*
X94341904Y-113277619D01*
X94389523Y-113230000D01*
X94484761Y-113182380D01*
X94722857Y-113182380D01*
X94865714Y-113230000D01*
X95865714Y-114087142D02*
X95818095Y-114134761D01*
X95675238Y-114182380D01*
X95580000Y-114182380D01*
X95437142Y-114134761D01*
X95341904Y-114039523D01*
X95294285Y-113944285D01*
X95246666Y-113753809D01*
X95246666Y-113610952D01*
X95294285Y-113420476D01*
X95341904Y-113325238D01*
X95437142Y-113230000D01*
X95580000Y-113182380D01*
X95675238Y-113182380D01*
X95818095Y-113230000D01*
X95865714Y-113277619D01*
X96294285Y-114182380D02*
X96294285Y-113182380D01*
X96865714Y-114182380D02*
X96437142Y-113610952D01*
X96865714Y-113182380D02*
X96294285Y-113753809D01*
X86413333Y-114077142D02*
X86365714Y-114124761D01*
X86222857Y-114172380D01*
X86127619Y-114172380D01*
X85984761Y-114124761D01*
X85889523Y-114029523D01*
X85841904Y-113934285D01*
X85794285Y-113743809D01*
X85794285Y-113600952D01*
X85841904Y-113410476D01*
X85889523Y-113315238D01*
X85984761Y-113220000D01*
X86127619Y-113172380D01*
X86222857Y-113172380D01*
X86365714Y-113220000D01*
X86413333Y-113267619D01*
X86794285Y-114124761D02*
X86937142Y-114172380D01*
X87175238Y-114172380D01*
X87270476Y-114124761D01*
X87318095Y-114077142D01*
X87365714Y-113981904D01*
X87365714Y-113886666D01*
X87318095Y-113791428D01*
X87270476Y-113743809D01*
X87175238Y-113696190D01*
X86984761Y-113648571D01*
X86889523Y-113600952D01*
X86841904Y-113553333D01*
X86794285Y-113458095D01*
X86794285Y-113362857D01*
X86841904Y-113267619D01*
X86889523Y-113220000D01*
X86984761Y-113172380D01*
X87222857Y-113172380D01*
X87365714Y-113220000D01*
X118577619Y-131764761D02*
X118720476Y-131812380D01*
X118958571Y-131812380D01*
X119053809Y-131764761D01*
X119101428Y-131717142D01*
X119149047Y-131621904D01*
X119149047Y-131526666D01*
X119101428Y-131431428D01*
X119053809Y-131383809D01*
X118958571Y-131336190D01*
X118768095Y-131288571D01*
X118672857Y-131240952D01*
X118625238Y-131193333D01*
X118577619Y-131098095D01*
X118577619Y-131002857D01*
X118625238Y-130907619D01*
X118672857Y-130860000D01*
X118768095Y-130812380D01*
X119006190Y-130812380D01*
X119149047Y-130860000D01*
X120053809Y-131812380D02*
X119577619Y-131812380D01*
X119577619Y-130812380D01*
X120577619Y-130812380D02*
X120768095Y-130812380D01*
X120863333Y-130860000D01*
X120958571Y-130955238D01*
X121006190Y-131145714D01*
X121006190Y-131479047D01*
X120958571Y-131669523D01*
X120863333Y-131764761D01*
X120768095Y-131812380D01*
X120577619Y-131812380D01*
X120482380Y-131764761D01*
X120387142Y-131669523D01*
X120339523Y-131479047D01*
X120339523Y-131145714D01*
X120387142Y-130955238D01*
X120482380Y-130860000D01*
X120577619Y-130812380D01*
X121291904Y-130812380D02*
X121863333Y-130812380D01*
X121577619Y-131812380D02*
X121577619Y-130812380D01*
X123482380Y-131812380D02*
X122910952Y-131812380D01*
X123196666Y-131812380D02*
X123196666Y-130812380D01*
X123101428Y-130955238D01*
X123006190Y-131050476D01*
X122910952Y-131098095D01*
X76628571Y-109252380D02*
X76628571Y-108252380D01*
X76961904Y-108966666D01*
X77295238Y-108252380D01*
X77295238Y-109252380D01*
X77961904Y-108252380D02*
X78152380Y-108252380D01*
X78247619Y-108300000D01*
X78342857Y-108395238D01*
X78390476Y-108585714D01*
X78390476Y-108919047D01*
X78342857Y-109109523D01*
X78247619Y-109204761D01*
X78152380Y-109252380D01*
X77961904Y-109252380D01*
X77866666Y-109204761D01*
X77771428Y-109109523D01*
X77723809Y-108919047D01*
X77723809Y-108585714D01*
X77771428Y-108395238D01*
X77866666Y-108300000D01*
X77961904Y-108252380D01*
X78771428Y-109204761D02*
X78914285Y-109252380D01*
X79152380Y-109252380D01*
X79247619Y-109204761D01*
X79295238Y-109157142D01*
X79342857Y-109061904D01*
X79342857Y-108966666D01*
X79295238Y-108871428D01*
X79247619Y-108823809D01*
X79152380Y-108776190D01*
X78961904Y-108728571D01*
X78866666Y-108680952D01*
X78819047Y-108633333D01*
X78771428Y-108538095D01*
X78771428Y-108442857D01*
X78819047Y-108347619D01*
X78866666Y-108300000D01*
X78961904Y-108252380D01*
X79200000Y-108252380D01*
X79342857Y-108300000D01*
X79771428Y-109252380D02*
X79771428Y-108252380D01*
X76738571Y-106602380D02*
X76738571Y-105602380D01*
X77071904Y-106316666D01*
X77405238Y-105602380D01*
X77405238Y-106602380D01*
X77881428Y-106602380D02*
X77881428Y-105602380D01*
X78310000Y-106554761D02*
X78452857Y-106602380D01*
X78690952Y-106602380D01*
X78786190Y-106554761D01*
X78833809Y-106507142D01*
X78881428Y-106411904D01*
X78881428Y-106316666D01*
X78833809Y-106221428D01*
X78786190Y-106173809D01*
X78690952Y-106126190D01*
X78500476Y-106078571D01*
X78405238Y-106030952D01*
X78357619Y-105983333D01*
X78310000Y-105888095D01*
X78310000Y-105792857D01*
X78357619Y-105697619D01*
X78405238Y-105650000D01*
X78500476Y-105602380D01*
X78738571Y-105602380D01*
X78881428Y-105650000D01*
X79500476Y-105602380D02*
X79690952Y-105602380D01*
X79786190Y-105650000D01*
X79881428Y-105745238D01*
X79929047Y-105935714D01*
X79929047Y-106269047D01*
X79881428Y-106459523D01*
X79786190Y-106554761D01*
X79690952Y-106602380D01*
X79500476Y-106602380D01*
X79405238Y-106554761D01*
X79310000Y-106459523D01*
X79262380Y-106269047D01*
X79262380Y-105935714D01*
X79310000Y-105745238D01*
X79405238Y-105650000D01*
X79500476Y-105602380D01*
X67388095Y-105540000D02*
X67292857Y-105492380D01*
X67150000Y-105492380D01*
X67007142Y-105540000D01*
X66911904Y-105635238D01*
X66864285Y-105730476D01*
X66816666Y-105920952D01*
X66816666Y-106063809D01*
X66864285Y-106254285D01*
X66911904Y-106349523D01*
X67007142Y-106444761D01*
X67150000Y-106492380D01*
X67245238Y-106492380D01*
X67388095Y-106444761D01*
X67435714Y-106397142D01*
X67435714Y-106063809D01*
X67245238Y-106063809D01*
X67864285Y-106492380D02*
X67864285Y-105492380D01*
X68435714Y-106492380D01*
X68435714Y-105492380D01*
X68911904Y-106492380D02*
X68911904Y-105492380D01*
X69150000Y-105492380D01*
X69292857Y-105540000D01*
X69388095Y-105635238D01*
X69435714Y-105730476D01*
X69483333Y-105920952D01*
X69483333Y-106063809D01*
X69435714Y-106254285D01*
X69388095Y-106349523D01*
X69292857Y-106444761D01*
X69150000Y-106492380D01*
X68911904Y-106492380D01*
X76534285Y-114334761D02*
X76677142Y-114382380D01*
X76915238Y-114382380D01*
X77010476Y-114334761D01*
X77058095Y-114287142D01*
X77105714Y-114191904D01*
X77105714Y-114096666D01*
X77058095Y-114001428D01*
X77010476Y-113953809D01*
X76915238Y-113906190D01*
X76724761Y-113858571D01*
X76629523Y-113810952D01*
X76581904Y-113763333D01*
X76534285Y-113668095D01*
X76534285Y-113572857D01*
X76581904Y-113477619D01*
X76629523Y-113430000D01*
X76724761Y-113382380D01*
X76962857Y-113382380D01*
X77105714Y-113430000D01*
X78105714Y-114287142D02*
X78058095Y-114334761D01*
X77915238Y-114382380D01*
X77820000Y-114382380D01*
X77677142Y-114334761D01*
X77581904Y-114239523D01*
X77534285Y-114144285D01*
X77486666Y-113953809D01*
X77486666Y-113810952D01*
X77534285Y-113620476D01*
X77581904Y-113525238D01*
X77677142Y-113430000D01*
X77820000Y-113382380D01*
X77915238Y-113382380D01*
X78058095Y-113430000D01*
X78105714Y-113477619D01*
X78534285Y-114382380D02*
X78534285Y-113382380D01*
X79105714Y-114382380D02*
X78677142Y-113810952D01*
X79105714Y-113382380D02*
X78534285Y-113953809D01*
X118017619Y-111504761D02*
X118160476Y-111552380D01*
X118398571Y-111552380D01*
X118493809Y-111504761D01*
X118541428Y-111457142D01*
X118589047Y-111361904D01*
X118589047Y-111266666D01*
X118541428Y-111171428D01*
X118493809Y-111123809D01*
X118398571Y-111076190D01*
X118208095Y-111028571D01*
X118112857Y-110980952D01*
X118065238Y-110933333D01*
X118017619Y-110838095D01*
X118017619Y-110742857D01*
X118065238Y-110647619D01*
X118112857Y-110600000D01*
X118208095Y-110552380D01*
X118446190Y-110552380D01*
X118589047Y-110600000D01*
X119493809Y-111552380D02*
X119017619Y-111552380D01*
X119017619Y-110552380D01*
X120017619Y-110552380D02*
X120208095Y-110552380D01*
X120303333Y-110600000D01*
X120398571Y-110695238D01*
X120446190Y-110885714D01*
X120446190Y-111219047D01*
X120398571Y-111409523D01*
X120303333Y-111504761D01*
X120208095Y-111552380D01*
X120017619Y-111552380D01*
X119922380Y-111504761D01*
X119827142Y-111409523D01*
X119779523Y-111219047D01*
X119779523Y-110885714D01*
X119827142Y-110695238D01*
X119922380Y-110600000D01*
X120017619Y-110552380D01*
X120731904Y-110552380D02*
X121303333Y-110552380D01*
X121017619Y-111552380D02*
X121017619Y-110552380D01*
X122350952Y-110647619D02*
X122398571Y-110600000D01*
X122493809Y-110552380D01*
X122731904Y-110552380D01*
X122827142Y-110600000D01*
X122874761Y-110647619D01*
X122922380Y-110742857D01*
X122922380Y-110838095D01*
X122874761Y-110980952D01*
X122303333Y-111552380D01*
X122922380Y-111552380D01*
X94348571Y-109092380D02*
X94348571Y-108092380D01*
X94681904Y-108806666D01*
X95015238Y-108092380D01*
X95015238Y-109092380D01*
X95681904Y-108092380D02*
X95872380Y-108092380D01*
X95967619Y-108140000D01*
X96062857Y-108235238D01*
X96110476Y-108425714D01*
X96110476Y-108759047D01*
X96062857Y-108949523D01*
X95967619Y-109044761D01*
X95872380Y-109092380D01*
X95681904Y-109092380D01*
X95586666Y-109044761D01*
X95491428Y-108949523D01*
X95443809Y-108759047D01*
X95443809Y-108425714D01*
X95491428Y-108235238D01*
X95586666Y-108140000D01*
X95681904Y-108092380D01*
X96491428Y-109044761D02*
X96634285Y-109092380D01*
X96872380Y-109092380D01*
X96967619Y-109044761D01*
X97015238Y-108997142D01*
X97062857Y-108901904D01*
X97062857Y-108806666D01*
X97015238Y-108711428D01*
X96967619Y-108663809D01*
X96872380Y-108616190D01*
X96681904Y-108568571D01*
X96586666Y-108520952D01*
X96539047Y-108473333D01*
X96491428Y-108378095D01*
X96491428Y-108282857D01*
X96539047Y-108187619D01*
X96586666Y-108140000D01*
X96681904Y-108092380D01*
X96920000Y-108092380D01*
X97062857Y-108140000D01*
X97491428Y-109092380D02*
X97491428Y-108092380D01*
X94348571Y-106552380D02*
X94348571Y-105552380D01*
X94681904Y-106266666D01*
X95015238Y-105552380D01*
X95015238Y-106552380D01*
X95491428Y-106552380D02*
X95491428Y-105552380D01*
X95920000Y-106504761D02*
X96062857Y-106552380D01*
X96300952Y-106552380D01*
X96396190Y-106504761D01*
X96443809Y-106457142D01*
X96491428Y-106361904D01*
X96491428Y-106266666D01*
X96443809Y-106171428D01*
X96396190Y-106123809D01*
X96300952Y-106076190D01*
X96110476Y-106028571D01*
X96015238Y-105980952D01*
X95967619Y-105933333D01*
X95920000Y-105838095D01*
X95920000Y-105742857D01*
X95967619Y-105647619D01*
X96015238Y-105600000D01*
X96110476Y-105552380D01*
X96348571Y-105552380D01*
X96491428Y-105600000D01*
X97110476Y-105552380D02*
X97300952Y-105552380D01*
X97396190Y-105600000D01*
X97491428Y-105695238D01*
X97539047Y-105885714D01*
X97539047Y-106219047D01*
X97491428Y-106409523D01*
X97396190Y-106504761D01*
X97300952Y-106552380D01*
X97110476Y-106552380D01*
X97015238Y-106504761D01*
X96920000Y-106409523D01*
X96872380Y-106219047D01*
X96872380Y-105885714D01*
X96920000Y-105695238D01*
X97015238Y-105600000D01*
X97110476Y-105552380D01*
X84998095Y-105600000D02*
X84902857Y-105552380D01*
X84760000Y-105552380D01*
X84617142Y-105600000D01*
X84521904Y-105695238D01*
X84474285Y-105790476D01*
X84426666Y-105980952D01*
X84426666Y-106123809D01*
X84474285Y-106314285D01*
X84521904Y-106409523D01*
X84617142Y-106504761D01*
X84760000Y-106552380D01*
X84855238Y-106552380D01*
X84998095Y-106504761D01*
X85045714Y-106457142D01*
X85045714Y-106123809D01*
X84855238Y-106123809D01*
X85474285Y-106552380D02*
X85474285Y-105552380D01*
X86045714Y-106552380D01*
X86045714Y-105552380D01*
X86521904Y-106552380D02*
X86521904Y-105552380D01*
X86760000Y-105552380D01*
X86902857Y-105600000D01*
X86998095Y-105695238D01*
X87045714Y-105790476D01*
X87093333Y-105980952D01*
X87093333Y-106123809D01*
X87045714Y-106314285D01*
X86998095Y-106409523D01*
X86902857Y-106504761D01*
X86760000Y-106552380D01*
X86521904Y-106552380D01*
X86309523Y-103012380D02*
X85833333Y-103012380D01*
X85785714Y-103488571D01*
X85833333Y-103440952D01*
X85928571Y-103393333D01*
X86166666Y-103393333D01*
X86261904Y-103440952D01*
X86309523Y-103488571D01*
X86357142Y-103583809D01*
X86357142Y-103821904D01*
X86309523Y-103917142D01*
X86261904Y-103964761D01*
X86166666Y-104012380D01*
X85928571Y-104012380D01*
X85833333Y-103964761D01*
X85785714Y-103917142D01*
X86642857Y-103012380D02*
X86976190Y-104012380D01*
X87309523Y-103012380D01*
X68139523Y-102802380D02*
X67663333Y-102802380D01*
X67615714Y-103278571D01*
X67663333Y-103230952D01*
X67758571Y-103183333D01*
X67996666Y-103183333D01*
X68091904Y-103230952D01*
X68139523Y-103278571D01*
X68187142Y-103373809D01*
X68187142Y-103611904D01*
X68139523Y-103707142D01*
X68091904Y-103754761D01*
X67996666Y-103802380D01*
X67758571Y-103802380D01*
X67663333Y-103754761D01*
X67615714Y-103707142D01*
X68472857Y-102802380D02*
X68806190Y-103802380D01*
X69139523Y-102802380D01*
X77303333Y-111627142D02*
X77255714Y-111674761D01*
X77112857Y-111722380D01*
X77017619Y-111722380D01*
X76874761Y-111674761D01*
X76779523Y-111579523D01*
X76731904Y-111484285D01*
X76684285Y-111293809D01*
X76684285Y-111150952D01*
X76731904Y-110960476D01*
X76779523Y-110865238D01*
X76874761Y-110770000D01*
X77017619Y-110722380D01*
X77112857Y-110722380D01*
X77255714Y-110770000D01*
X77303333Y-110817619D01*
X77684285Y-111674761D02*
X77827142Y-111722380D01*
X78065238Y-111722380D01*
X78160476Y-111674761D01*
X78208095Y-111627142D01*
X78255714Y-111531904D01*
X78255714Y-111436666D01*
X78208095Y-111341428D01*
X78160476Y-111293809D01*
X78065238Y-111246190D01*
X77874761Y-111198571D01*
X77779523Y-111150952D01*
X77731904Y-111103333D01*
X77684285Y-111008095D01*
X77684285Y-110912857D01*
X77731904Y-110817619D01*
X77779523Y-110770000D01*
X77874761Y-110722380D01*
X78112857Y-110722380D01*
X78255714Y-110770000D01*
%TO.C,D6*%
X92641904Y-133222380D02*
X92641904Y-132222380D01*
X92880000Y-132222380D01*
X93022857Y-132270000D01*
X93118095Y-132365238D01*
X93165714Y-132460476D01*
X93213333Y-132650952D01*
X93213333Y-132793809D01*
X93165714Y-132984285D01*
X93118095Y-133079523D01*
X93022857Y-133174761D01*
X92880000Y-133222380D01*
X92641904Y-133222380D01*
X94070476Y-132222380D02*
X93880000Y-132222380D01*
X93784761Y-132270000D01*
X93737142Y-132317619D01*
X93641904Y-132460476D01*
X93594285Y-132650952D01*
X93594285Y-133031904D01*
X93641904Y-133127142D01*
X93689523Y-133174761D01*
X93784761Y-133222380D01*
X93975238Y-133222380D01*
X94070476Y-133174761D01*
X94118095Y-133127142D01*
X94165714Y-133031904D01*
X94165714Y-132793809D01*
X94118095Y-132698571D01*
X94070476Y-132650952D01*
X93975238Y-132603333D01*
X93784761Y-132603333D01*
X93689523Y-132650952D01*
X93641904Y-132698571D01*
X93594285Y-132793809D01*
%TO.C,R2*%
X93213333Y-129412380D02*
X92880000Y-128936190D01*
X92641904Y-129412380D02*
X92641904Y-128412380D01*
X93022857Y-128412380D01*
X93118095Y-128460000D01*
X93165714Y-128507619D01*
X93213333Y-128602857D01*
X93213333Y-128745714D01*
X93165714Y-128840952D01*
X93118095Y-128888571D01*
X93022857Y-128936190D01*
X92641904Y-128936190D01*
X93594285Y-128507619D02*
X93641904Y-128460000D01*
X93737142Y-128412380D01*
X93975238Y-128412380D01*
X94070476Y-128460000D01*
X94118095Y-128507619D01*
X94165714Y-128602857D01*
X94165714Y-128698095D01*
X94118095Y-128840952D01*
X93546666Y-129412380D01*
X94165714Y-129412380D01*
%TO.C,R21*%
X101472380Y-116782857D02*
X100996190Y-117116190D01*
X101472380Y-117354285D02*
X100472380Y-117354285D01*
X100472380Y-116973333D01*
X100520000Y-116878095D01*
X100567619Y-116830476D01*
X100662857Y-116782857D01*
X100805714Y-116782857D01*
X100900952Y-116830476D01*
X100948571Y-116878095D01*
X100996190Y-116973333D01*
X100996190Y-117354285D01*
X100567619Y-116401904D02*
X100520000Y-116354285D01*
X100472380Y-116259047D01*
X100472380Y-116020952D01*
X100520000Y-115925714D01*
X100567619Y-115878095D01*
X100662857Y-115830476D01*
X100758095Y-115830476D01*
X100900952Y-115878095D01*
X101472380Y-116449523D01*
X101472380Y-115830476D01*
X101472380Y-114878095D02*
X101472380Y-115449523D01*
X101472380Y-115163809D02*
X100472380Y-115163809D01*
X100615238Y-115259047D01*
X100710476Y-115354285D01*
X100758095Y-115449523D01*
%TO.C,D9*%
X92367904Y-88752380D02*
X92367904Y-87752380D01*
X92606000Y-87752380D01*
X92748857Y-87800000D01*
X92844095Y-87895238D01*
X92891714Y-87990476D01*
X92939333Y-88180952D01*
X92939333Y-88323809D01*
X92891714Y-88514285D01*
X92844095Y-88609523D01*
X92748857Y-88704761D01*
X92606000Y-88752380D01*
X92367904Y-88752380D01*
X93415523Y-88752380D02*
X93606000Y-88752380D01*
X93701238Y-88704761D01*
X93748857Y-88657142D01*
X93844095Y-88514285D01*
X93891714Y-88323809D01*
X93891714Y-87942857D01*
X93844095Y-87847619D01*
X93796476Y-87800000D01*
X93701238Y-87752380D01*
X93510761Y-87752380D01*
X93415523Y-87800000D01*
X93367904Y-87847619D01*
X93320285Y-87942857D01*
X93320285Y-88180952D01*
X93367904Y-88276190D01*
X93415523Y-88323809D01*
X93510761Y-88371428D01*
X93701238Y-88371428D01*
X93796476Y-88323809D01*
X93844095Y-88276190D01*
X93891714Y-88180952D01*
%TO.C,Q2*%
X87327619Y-122705238D02*
X87280000Y-122800476D01*
X87184761Y-122895714D01*
X87041904Y-123038571D01*
X86994285Y-123133809D01*
X86994285Y-123229047D01*
X87232380Y-123181428D02*
X87184761Y-123276666D01*
X87089523Y-123371904D01*
X86899047Y-123419523D01*
X86565714Y-123419523D01*
X86375238Y-123371904D01*
X86280000Y-123276666D01*
X86232380Y-123181428D01*
X86232380Y-122990952D01*
X86280000Y-122895714D01*
X86375238Y-122800476D01*
X86565714Y-122752857D01*
X86899047Y-122752857D01*
X87089523Y-122800476D01*
X87184761Y-122895714D01*
X87232380Y-122990952D01*
X87232380Y-123181428D01*
X86327619Y-122371904D02*
X86280000Y-122324285D01*
X86232380Y-122229047D01*
X86232380Y-121990952D01*
X86280000Y-121895714D01*
X86327619Y-121848095D01*
X86422857Y-121800476D01*
X86518095Y-121800476D01*
X86660952Y-121848095D01*
X87232380Y-122419523D01*
X87232380Y-121800476D01*
%TO.C,D4*%
X92641904Y-137032380D02*
X92641904Y-136032380D01*
X92880000Y-136032380D01*
X93022857Y-136080000D01*
X93118095Y-136175238D01*
X93165714Y-136270476D01*
X93213333Y-136460952D01*
X93213333Y-136603809D01*
X93165714Y-136794285D01*
X93118095Y-136889523D01*
X93022857Y-136984761D01*
X92880000Y-137032380D01*
X92641904Y-137032380D01*
X94070476Y-136365714D02*
X94070476Y-137032380D01*
X93832380Y-135984761D02*
X93594285Y-136699047D01*
X94213333Y-136699047D01*
%TO.C,R31*%
X81207142Y-133252380D02*
X80873809Y-132776190D01*
X80635714Y-133252380D02*
X80635714Y-132252380D01*
X81016666Y-132252380D01*
X81111904Y-132300000D01*
X81159523Y-132347619D01*
X81207142Y-132442857D01*
X81207142Y-132585714D01*
X81159523Y-132680952D01*
X81111904Y-132728571D01*
X81016666Y-132776190D01*
X80635714Y-132776190D01*
X81540476Y-132252380D02*
X82159523Y-132252380D01*
X81826190Y-132633333D01*
X81969047Y-132633333D01*
X82064285Y-132680952D01*
X82111904Y-132728571D01*
X82159523Y-132823809D01*
X82159523Y-133061904D01*
X82111904Y-133157142D01*
X82064285Y-133204761D01*
X81969047Y-133252380D01*
X81683333Y-133252380D01*
X81588095Y-133204761D01*
X81540476Y-133157142D01*
X83111904Y-133252380D02*
X82540476Y-133252380D01*
X82826190Y-133252380D02*
X82826190Y-132252380D01*
X82730952Y-132395238D01*
X82635714Y-132490476D01*
X82540476Y-132538095D01*
%TO.C,D5*%
X106021904Y-99322380D02*
X106021904Y-98322380D01*
X106260000Y-98322380D01*
X106402857Y-98370000D01*
X106498095Y-98465238D01*
X106545714Y-98560476D01*
X106593333Y-98750952D01*
X106593333Y-98893809D01*
X106545714Y-99084285D01*
X106498095Y-99179523D01*
X106402857Y-99274761D01*
X106260000Y-99322380D01*
X106021904Y-99322380D01*
X107498095Y-98322380D02*
X107021904Y-98322380D01*
X106974285Y-98798571D01*
X107021904Y-98750952D01*
X107117142Y-98703333D01*
X107355238Y-98703333D01*
X107450476Y-98750952D01*
X107498095Y-98798571D01*
X107545714Y-98893809D01*
X107545714Y-99131904D01*
X107498095Y-99227142D01*
X107450476Y-99274761D01*
X107355238Y-99322380D01*
X107117142Y-99322380D01*
X107021904Y-99274761D01*
X106974285Y-99227142D01*
%TO.C,C17*%
X77927142Y-137972857D02*
X77974761Y-138020476D01*
X78022380Y-138163333D01*
X78022380Y-138258571D01*
X77974761Y-138401428D01*
X77879523Y-138496666D01*
X77784285Y-138544285D01*
X77593809Y-138591904D01*
X77450952Y-138591904D01*
X77260476Y-138544285D01*
X77165238Y-138496666D01*
X77070000Y-138401428D01*
X77022380Y-138258571D01*
X77022380Y-138163333D01*
X77070000Y-138020476D01*
X77117619Y-137972857D01*
X78022380Y-137020476D02*
X78022380Y-137591904D01*
X78022380Y-137306190D02*
X77022380Y-137306190D01*
X77165238Y-137401428D01*
X77260476Y-137496666D01*
X77308095Y-137591904D01*
X77022380Y-136687142D02*
X77022380Y-136020476D01*
X78022380Y-136449047D01*
%TO.C,Q1*%
X99567619Y-126315238D02*
X99520000Y-126410476D01*
X99424761Y-126505714D01*
X99281904Y-126648571D01*
X99234285Y-126743809D01*
X99234285Y-126839047D01*
X99472380Y-126791428D02*
X99424761Y-126886666D01*
X99329523Y-126981904D01*
X99139047Y-127029523D01*
X98805714Y-127029523D01*
X98615238Y-126981904D01*
X98520000Y-126886666D01*
X98472380Y-126791428D01*
X98472380Y-126600952D01*
X98520000Y-126505714D01*
X98615238Y-126410476D01*
X98805714Y-126362857D01*
X99139047Y-126362857D01*
X99329523Y-126410476D01*
X99424761Y-126505714D01*
X99472380Y-126600952D01*
X99472380Y-126791428D01*
X99472380Y-125410476D02*
X99472380Y-125981904D01*
X99472380Y-125696190D02*
X98472380Y-125696190D01*
X98615238Y-125791428D01*
X98710476Y-125886666D01*
X98758095Y-125981904D01*
%TO.C,J3*%
X90506666Y-100682380D02*
X90506666Y-101396666D01*
X90459047Y-101539523D01*
X90363809Y-101634761D01*
X90220952Y-101682380D01*
X90125714Y-101682380D01*
X90887619Y-100682380D02*
X91506666Y-100682380D01*
X91173333Y-101063333D01*
X91316190Y-101063333D01*
X91411428Y-101110952D01*
X91459047Y-101158571D01*
X91506666Y-101253809D01*
X91506666Y-101491904D01*
X91459047Y-101587142D01*
X91411428Y-101634761D01*
X91316190Y-101682380D01*
X91030476Y-101682380D01*
X90935238Y-101634761D01*
X90887619Y-101587142D01*
%TO.C,R25*%
X105296380Y-105472857D02*
X104820190Y-105806190D01*
X105296380Y-106044285D02*
X104296380Y-106044285D01*
X104296380Y-105663333D01*
X104344000Y-105568095D01*
X104391619Y-105520476D01*
X104486857Y-105472857D01*
X104629714Y-105472857D01*
X104724952Y-105520476D01*
X104772571Y-105568095D01*
X104820190Y-105663333D01*
X104820190Y-106044285D01*
X104391619Y-105091904D02*
X104344000Y-105044285D01*
X104296380Y-104949047D01*
X104296380Y-104710952D01*
X104344000Y-104615714D01*
X104391619Y-104568095D01*
X104486857Y-104520476D01*
X104582095Y-104520476D01*
X104724952Y-104568095D01*
X105296380Y-105139523D01*
X105296380Y-104520476D01*
X104296380Y-103615714D02*
X104296380Y-104091904D01*
X104772571Y-104139523D01*
X104724952Y-104091904D01*
X104677333Y-103996666D01*
X104677333Y-103758571D01*
X104724952Y-103663333D01*
X104772571Y-103615714D01*
X104867809Y-103568095D01*
X105105904Y-103568095D01*
X105201142Y-103615714D01*
X105248761Y-103663333D01*
X105296380Y-103758571D01*
X105296380Y-103996666D01*
X105248761Y-104091904D01*
X105201142Y-104139523D01*
%TO.C,R1*%
X93213333Y-120522380D02*
X92880000Y-120046190D01*
X92641904Y-120522380D02*
X92641904Y-119522380D01*
X93022857Y-119522380D01*
X93118095Y-119570000D01*
X93165714Y-119617619D01*
X93213333Y-119712857D01*
X93213333Y-119855714D01*
X93165714Y-119950952D01*
X93118095Y-119998571D01*
X93022857Y-120046190D01*
X92641904Y-120046190D01*
X94165714Y-120522380D02*
X93594285Y-120522380D01*
X93880000Y-120522380D02*
X93880000Y-119522380D01*
X93784761Y-119665238D01*
X93689523Y-119760476D01*
X93594285Y-119808095D01*
%TO.C,Q3*%
X81477619Y-89685238D02*
X81430000Y-89780476D01*
X81334761Y-89875714D01*
X81191904Y-90018571D01*
X81144285Y-90113809D01*
X81144285Y-90209047D01*
X81382380Y-90161428D02*
X81334761Y-90256666D01*
X81239523Y-90351904D01*
X81049047Y-90399523D01*
X80715714Y-90399523D01*
X80525238Y-90351904D01*
X80430000Y-90256666D01*
X80382380Y-90161428D01*
X80382380Y-89970952D01*
X80430000Y-89875714D01*
X80525238Y-89780476D01*
X80715714Y-89732857D01*
X81049047Y-89732857D01*
X81239523Y-89780476D01*
X81334761Y-89875714D01*
X81382380Y-89970952D01*
X81382380Y-90161428D01*
X80382380Y-89399523D02*
X80382380Y-88780476D01*
X80763333Y-89113809D01*
X80763333Y-88970952D01*
X80810952Y-88875714D01*
X80858571Y-88828095D01*
X80953809Y-88780476D01*
X81191904Y-88780476D01*
X81287142Y-88828095D01*
X81334761Y-88875714D01*
X81382380Y-88970952D01*
X81382380Y-89256666D01*
X81334761Y-89351904D01*
X81287142Y-89399523D01*
%TO.C,U13*%
X122292380Y-103528095D02*
X123101904Y-103528095D01*
X123197142Y-103480476D01*
X123244761Y-103432857D01*
X123292380Y-103337619D01*
X123292380Y-103147142D01*
X123244761Y-103051904D01*
X123197142Y-103004285D01*
X123101904Y-102956666D01*
X122292380Y-102956666D01*
X123292380Y-101956666D02*
X123292380Y-102528095D01*
X123292380Y-102242380D02*
X122292380Y-102242380D01*
X122435238Y-102337619D01*
X122530476Y-102432857D01*
X122578095Y-102528095D01*
X122292380Y-101623333D02*
X122292380Y-101004285D01*
X122673333Y-101337619D01*
X122673333Y-101194761D01*
X122720952Y-101099523D01*
X122768571Y-101051904D01*
X122863809Y-101004285D01*
X123101904Y-101004285D01*
X123197142Y-101051904D01*
X123244761Y-101099523D01*
X123292380Y-101194761D01*
X123292380Y-101480476D01*
X123244761Y-101575714D01*
X123197142Y-101623333D01*
%TO.C,C7*%
X111917142Y-94786666D02*
X111964761Y-94834285D01*
X112012380Y-94977142D01*
X112012380Y-95072380D01*
X111964761Y-95215238D01*
X111869523Y-95310476D01*
X111774285Y-95358095D01*
X111583809Y-95405714D01*
X111440952Y-95405714D01*
X111250476Y-95358095D01*
X111155238Y-95310476D01*
X111060000Y-95215238D01*
X111012380Y-95072380D01*
X111012380Y-94977142D01*
X111060000Y-94834285D01*
X111107619Y-94786666D01*
X111012380Y-94453333D02*
X111012380Y-93786666D01*
X112012380Y-94215238D01*
%TO.C,R5*%
X74163333Y-96392380D02*
X73830000Y-95916190D01*
X73591904Y-96392380D02*
X73591904Y-95392380D01*
X73972857Y-95392380D01*
X74068095Y-95440000D01*
X74115714Y-95487619D01*
X74163333Y-95582857D01*
X74163333Y-95725714D01*
X74115714Y-95820952D01*
X74068095Y-95868571D01*
X73972857Y-95916190D01*
X73591904Y-95916190D01*
X75068095Y-95392380D02*
X74591904Y-95392380D01*
X74544285Y-95868571D01*
X74591904Y-95820952D01*
X74687142Y-95773333D01*
X74925238Y-95773333D01*
X75020476Y-95820952D01*
X75068095Y-95868571D01*
X75115714Y-95963809D01*
X75115714Y-96201904D01*
X75068095Y-96297142D01*
X75020476Y-96344761D01*
X74925238Y-96392380D01*
X74687142Y-96392380D01*
X74591904Y-96344761D01*
X74544285Y-96297142D01*
%TO.C,R32*%
X109142380Y-125732857D02*
X108666190Y-126066190D01*
X109142380Y-126304285D02*
X108142380Y-126304285D01*
X108142380Y-125923333D01*
X108190000Y-125828095D01*
X108237619Y-125780476D01*
X108332857Y-125732857D01*
X108475714Y-125732857D01*
X108570952Y-125780476D01*
X108618571Y-125828095D01*
X108666190Y-125923333D01*
X108666190Y-126304285D01*
X108142380Y-125399523D02*
X108142380Y-124780476D01*
X108523333Y-125113809D01*
X108523333Y-124970952D01*
X108570952Y-124875714D01*
X108618571Y-124828095D01*
X108713809Y-124780476D01*
X108951904Y-124780476D01*
X109047142Y-124828095D01*
X109094761Y-124875714D01*
X109142380Y-124970952D01*
X109142380Y-125256666D01*
X109094761Y-125351904D01*
X109047142Y-125399523D01*
X108237619Y-124399523D02*
X108190000Y-124351904D01*
X108142380Y-124256666D01*
X108142380Y-124018571D01*
X108190000Y-123923333D01*
X108237619Y-123875714D01*
X108332857Y-123828095D01*
X108428095Y-123828095D01*
X108570952Y-123875714D01*
X109142380Y-124447142D01*
X109142380Y-123828095D01*
%TO.C,J1*%
X72726666Y-100682380D02*
X72726666Y-101396666D01*
X72679047Y-101539523D01*
X72583809Y-101634761D01*
X72440952Y-101682380D01*
X72345714Y-101682380D01*
X73726666Y-101682380D02*
X73155238Y-101682380D01*
X73440952Y-101682380D02*
X73440952Y-100682380D01*
X73345714Y-100825238D01*
X73250476Y-100920476D01*
X73155238Y-100968095D01*
%TO.C,R22*%
X105342380Y-116842857D02*
X104866190Y-117176190D01*
X105342380Y-117414285D02*
X104342380Y-117414285D01*
X104342380Y-117033333D01*
X104390000Y-116938095D01*
X104437619Y-116890476D01*
X104532857Y-116842857D01*
X104675714Y-116842857D01*
X104770952Y-116890476D01*
X104818571Y-116938095D01*
X104866190Y-117033333D01*
X104866190Y-117414285D01*
X104437619Y-116461904D02*
X104390000Y-116414285D01*
X104342380Y-116319047D01*
X104342380Y-116080952D01*
X104390000Y-115985714D01*
X104437619Y-115938095D01*
X104532857Y-115890476D01*
X104628095Y-115890476D01*
X104770952Y-115938095D01*
X105342380Y-116509523D01*
X105342380Y-115890476D01*
X104437619Y-115509523D02*
X104390000Y-115461904D01*
X104342380Y-115366666D01*
X104342380Y-115128571D01*
X104390000Y-115033333D01*
X104437619Y-114985714D01*
X104532857Y-114938095D01*
X104628095Y-114938095D01*
X104770952Y-114985714D01*
X105342380Y-115557142D01*
X105342380Y-114938095D01*
%TO.C,R3*%
X74823333Y-121782380D02*
X74490000Y-121306190D01*
X74251904Y-121782380D02*
X74251904Y-120782380D01*
X74632857Y-120782380D01*
X74728095Y-120830000D01*
X74775714Y-120877619D01*
X74823333Y-120972857D01*
X74823333Y-121115714D01*
X74775714Y-121210952D01*
X74728095Y-121258571D01*
X74632857Y-121306190D01*
X74251904Y-121306190D01*
X75156666Y-120782380D02*
X75775714Y-120782380D01*
X75442380Y-121163333D01*
X75585238Y-121163333D01*
X75680476Y-121210952D01*
X75728095Y-121258571D01*
X75775714Y-121353809D01*
X75775714Y-121591904D01*
X75728095Y-121687142D01*
X75680476Y-121734761D01*
X75585238Y-121782380D01*
X75299523Y-121782380D01*
X75204285Y-121734761D01*
X75156666Y-121687142D01*
%TO.C,R4*%
X93213333Y-124332380D02*
X92880000Y-123856190D01*
X92641904Y-124332380D02*
X92641904Y-123332380D01*
X93022857Y-123332380D01*
X93118095Y-123380000D01*
X93165714Y-123427619D01*
X93213333Y-123522857D01*
X93213333Y-123665714D01*
X93165714Y-123760952D01*
X93118095Y-123808571D01*
X93022857Y-123856190D01*
X92641904Y-123856190D01*
X94070476Y-123665714D02*
X94070476Y-124332380D01*
X93832380Y-123284761D02*
X93594285Y-123999047D01*
X94213333Y-123999047D01*
%TO.C,R23*%
X81377142Y-129342380D02*
X81043809Y-128866190D01*
X80805714Y-129342380D02*
X80805714Y-128342380D01*
X81186666Y-128342380D01*
X81281904Y-128390000D01*
X81329523Y-128437619D01*
X81377142Y-128532857D01*
X81377142Y-128675714D01*
X81329523Y-128770952D01*
X81281904Y-128818571D01*
X81186666Y-128866190D01*
X80805714Y-128866190D01*
X81758095Y-128437619D02*
X81805714Y-128390000D01*
X81900952Y-128342380D01*
X82139047Y-128342380D01*
X82234285Y-128390000D01*
X82281904Y-128437619D01*
X82329523Y-128532857D01*
X82329523Y-128628095D01*
X82281904Y-128770952D01*
X81710476Y-129342380D01*
X82329523Y-129342380D01*
X82662857Y-128342380D02*
X83281904Y-128342380D01*
X82948571Y-128723333D01*
X83091428Y-128723333D01*
X83186666Y-128770952D01*
X83234285Y-128818571D01*
X83281904Y-128913809D01*
X83281904Y-129151904D01*
X83234285Y-129247142D01*
X83186666Y-129294761D01*
X83091428Y-129342380D01*
X82805714Y-129342380D01*
X82710476Y-129294761D01*
X82662857Y-129247142D01*
%TO.C,R24*%
X101452380Y-105462857D02*
X100976190Y-105796190D01*
X101452380Y-106034285D02*
X100452380Y-106034285D01*
X100452380Y-105653333D01*
X100500000Y-105558095D01*
X100547619Y-105510476D01*
X100642857Y-105462857D01*
X100785714Y-105462857D01*
X100880952Y-105510476D01*
X100928571Y-105558095D01*
X100976190Y-105653333D01*
X100976190Y-106034285D01*
X100547619Y-105081904D02*
X100500000Y-105034285D01*
X100452380Y-104939047D01*
X100452380Y-104700952D01*
X100500000Y-104605714D01*
X100547619Y-104558095D01*
X100642857Y-104510476D01*
X100738095Y-104510476D01*
X100880952Y-104558095D01*
X101452380Y-105129523D01*
X101452380Y-104510476D01*
X100785714Y-103653333D02*
X101452380Y-103653333D01*
X100404761Y-103891428D02*
X101119047Y-104129523D01*
X101119047Y-103510476D01*
%TO.C,D7*%
X103992380Y-134778095D02*
X102992380Y-134778095D01*
X102992380Y-134540000D01*
X103040000Y-134397142D01*
X103135238Y-134301904D01*
X103230476Y-134254285D01*
X103420952Y-134206666D01*
X103563809Y-134206666D01*
X103754285Y-134254285D01*
X103849523Y-134301904D01*
X103944761Y-134397142D01*
X103992380Y-134540000D01*
X103992380Y-134778095D01*
X102992380Y-133873333D02*
X102992380Y-133206666D01*
X103992380Y-133635238D01*
%TO.C,U12*%
X122292380Y-123848095D02*
X123101904Y-123848095D01*
X123197142Y-123800476D01*
X123244761Y-123752857D01*
X123292380Y-123657619D01*
X123292380Y-123467142D01*
X123244761Y-123371904D01*
X123197142Y-123324285D01*
X123101904Y-123276666D01*
X122292380Y-123276666D01*
X123292380Y-122276666D02*
X123292380Y-122848095D01*
X123292380Y-122562380D02*
X122292380Y-122562380D01*
X122435238Y-122657619D01*
X122530476Y-122752857D01*
X122578095Y-122848095D01*
X122387619Y-121895714D02*
X122340000Y-121848095D01*
X122292380Y-121752857D01*
X122292380Y-121514761D01*
X122340000Y-121419523D01*
X122387619Y-121371904D01*
X122482857Y-121324285D01*
X122578095Y-121324285D01*
X122720952Y-121371904D01*
X123292380Y-121943333D01*
X123292380Y-121324285D01*
%TO.C,C6*%
X108977142Y-115116666D02*
X109024761Y-115164285D01*
X109072380Y-115307142D01*
X109072380Y-115402380D01*
X109024761Y-115545238D01*
X108929523Y-115640476D01*
X108834285Y-115688095D01*
X108643809Y-115735714D01*
X108500952Y-115735714D01*
X108310476Y-115688095D01*
X108215238Y-115640476D01*
X108120000Y-115545238D01*
X108072380Y-115402380D01*
X108072380Y-115307142D01*
X108120000Y-115164285D01*
X108167619Y-115116666D01*
X108072380Y-114259523D02*
X108072380Y-114450000D01*
X108120000Y-114545238D01*
X108167619Y-114592857D01*
X108310476Y-114688095D01*
X108500952Y-114735714D01*
X108881904Y-114735714D01*
X108977142Y-114688095D01*
X109024761Y-114640476D01*
X109072380Y-114545238D01*
X109072380Y-114354761D01*
X109024761Y-114259523D01*
X108977142Y-114211904D01*
X108881904Y-114164285D01*
X108643809Y-114164285D01*
X108548571Y-114211904D01*
X108500952Y-114259523D01*
X108453333Y-114354761D01*
X108453333Y-114545238D01*
X108500952Y-114640476D01*
X108548571Y-114688095D01*
X108643809Y-114735714D01*
%TO.C,D3*%
X76052380Y-127158095D02*
X75052380Y-127158095D01*
X75052380Y-126920000D01*
X75100000Y-126777142D01*
X75195238Y-126681904D01*
X75290476Y-126634285D01*
X75480952Y-126586666D01*
X75623809Y-126586666D01*
X75814285Y-126634285D01*
X75909523Y-126681904D01*
X76004761Y-126777142D01*
X76052380Y-126920000D01*
X76052380Y-127158095D01*
X75052380Y-126253333D02*
X75052380Y-125634285D01*
X75433333Y-125967619D01*
X75433333Y-125824761D01*
X75480952Y-125729523D01*
X75528571Y-125681904D01*
X75623809Y-125634285D01*
X75861904Y-125634285D01*
X75957142Y-125681904D01*
X76004761Y-125729523D01*
X76052380Y-125824761D01*
X76052380Y-126110476D01*
X76004761Y-126205714D01*
X75957142Y-126253333D01*
%TO.C,C16*%
X82537142Y-96355142D02*
X82489523Y-96402761D01*
X82346666Y-96450380D01*
X82251428Y-96450380D01*
X82108571Y-96402761D01*
X82013333Y-96307523D01*
X81965714Y-96212285D01*
X81918095Y-96021809D01*
X81918095Y-95878952D01*
X81965714Y-95688476D01*
X82013333Y-95593238D01*
X82108571Y-95498000D01*
X82251428Y-95450380D01*
X82346666Y-95450380D01*
X82489523Y-95498000D01*
X82537142Y-95545619D01*
X83489523Y-96450380D02*
X82918095Y-96450380D01*
X83203809Y-96450380D02*
X83203809Y-95450380D01*
X83108571Y-95593238D01*
X83013333Y-95688476D01*
X82918095Y-95736095D01*
X84346666Y-95450380D02*
X84156190Y-95450380D01*
X84060952Y-95498000D01*
X84013333Y-95545619D01*
X83918095Y-95688476D01*
X83870476Y-95878952D01*
X83870476Y-96259904D01*
X83918095Y-96355142D01*
X83965714Y-96402761D01*
X84060952Y-96450380D01*
X84251428Y-96450380D01*
X84346666Y-96402761D01*
X84394285Y-96355142D01*
X84441904Y-96259904D01*
X84441904Y-96021809D01*
X84394285Y-95926571D01*
X84346666Y-95878952D01*
X84251428Y-95831333D01*
X84060952Y-95831333D01*
X83965714Y-95878952D01*
X83918095Y-95926571D01*
X83870476Y-96021809D01*
%TO.C,R30*%
X91547142Y-96262380D02*
X91213809Y-95786190D01*
X90975714Y-96262380D02*
X90975714Y-95262380D01*
X91356666Y-95262380D01*
X91451904Y-95310000D01*
X91499523Y-95357619D01*
X91547142Y-95452857D01*
X91547142Y-95595714D01*
X91499523Y-95690952D01*
X91451904Y-95738571D01*
X91356666Y-95786190D01*
X90975714Y-95786190D01*
X91880476Y-95262380D02*
X92499523Y-95262380D01*
X92166190Y-95643333D01*
X92309047Y-95643333D01*
X92404285Y-95690952D01*
X92451904Y-95738571D01*
X92499523Y-95833809D01*
X92499523Y-96071904D01*
X92451904Y-96167142D01*
X92404285Y-96214761D01*
X92309047Y-96262380D01*
X92023333Y-96262380D01*
X91928095Y-96214761D01*
X91880476Y-96167142D01*
X93118571Y-95262380D02*
X93213809Y-95262380D01*
X93309047Y-95310000D01*
X93356666Y-95357619D01*
X93404285Y-95452857D01*
X93451904Y-95643333D01*
X93451904Y-95881428D01*
X93404285Y-96071904D01*
X93356666Y-96167142D01*
X93309047Y-96214761D01*
X93213809Y-96262380D01*
X93118571Y-96262380D01*
X93023333Y-96214761D01*
X92975714Y-96167142D01*
X92928095Y-96071904D01*
X92880476Y-95881428D01*
X92880476Y-95643333D01*
X92928095Y-95452857D01*
X92975714Y-95357619D01*
X93023333Y-95310000D01*
X93118571Y-95262380D01*
%TO.C,D8*%
X92387904Y-92582380D02*
X92387904Y-91582380D01*
X92626000Y-91582380D01*
X92768857Y-91630000D01*
X92864095Y-91725238D01*
X92911714Y-91820476D01*
X92959333Y-92010952D01*
X92959333Y-92153809D01*
X92911714Y-92344285D01*
X92864095Y-92439523D01*
X92768857Y-92534761D01*
X92626000Y-92582380D01*
X92387904Y-92582380D01*
X93530761Y-92010952D02*
X93435523Y-91963333D01*
X93387904Y-91915714D01*
X93340285Y-91820476D01*
X93340285Y-91772857D01*
X93387904Y-91677619D01*
X93435523Y-91630000D01*
X93530761Y-91582380D01*
X93721238Y-91582380D01*
X93816476Y-91630000D01*
X93864095Y-91677619D01*
X93911714Y-91772857D01*
X93911714Y-91820476D01*
X93864095Y-91915714D01*
X93816476Y-91963333D01*
X93721238Y-92010952D01*
X93530761Y-92010952D01*
X93435523Y-92058571D01*
X93387904Y-92106190D01*
X93340285Y-92201428D01*
X93340285Y-92391904D01*
X93387904Y-92487142D01*
X93435523Y-92534761D01*
X93530761Y-92582380D01*
X93721238Y-92582380D01*
X93816476Y-92534761D01*
X93864095Y-92487142D01*
X93911714Y-92391904D01*
X93911714Y-92201428D01*
X93864095Y-92106190D01*
X93816476Y-92058571D01*
X93721238Y-92010952D01*
%TO.C,R33*%
X104167142Y-88772380D02*
X103833809Y-88296190D01*
X103595714Y-88772380D02*
X103595714Y-87772380D01*
X103976666Y-87772380D01*
X104071904Y-87820000D01*
X104119523Y-87867619D01*
X104167142Y-87962857D01*
X104167142Y-88105714D01*
X104119523Y-88200952D01*
X104071904Y-88248571D01*
X103976666Y-88296190D01*
X103595714Y-88296190D01*
X104500476Y-87772380D02*
X105119523Y-87772380D01*
X104786190Y-88153333D01*
X104929047Y-88153333D01*
X105024285Y-88200952D01*
X105071904Y-88248571D01*
X105119523Y-88343809D01*
X105119523Y-88581904D01*
X105071904Y-88677142D01*
X105024285Y-88724761D01*
X104929047Y-88772380D01*
X104643333Y-88772380D01*
X104548095Y-88724761D01*
X104500476Y-88677142D01*
X105452857Y-87772380D02*
X106071904Y-87772380D01*
X105738571Y-88153333D01*
X105881428Y-88153333D01*
X105976666Y-88200952D01*
X106024285Y-88248571D01*
X106071904Y-88343809D01*
X106071904Y-88581904D01*
X106024285Y-88677142D01*
X105976666Y-88724761D01*
X105881428Y-88772380D01*
X105595714Y-88772380D01*
X105500476Y-88724761D01*
X105452857Y-88677142D01*
D11*
%TO.C,D6*%
X91980000Y-131650000D02*
X91980000Y-133890000D01*
X95500000Y-131650000D02*
X91260000Y-131650000D01*
X91260000Y-131650000D02*
X91260000Y-133890000D01*
X90610000Y-132770000D02*
X91260000Y-132770000D01*
X92100000Y-131650000D02*
X92100000Y-133890000D01*
X96150000Y-132770000D02*
X95500000Y-132770000D01*
X91260000Y-133890000D02*
X95500000Y-133890000D01*
X91860000Y-131650000D02*
X91860000Y-133890000D01*
X95500000Y-133890000D02*
X95500000Y-131650000D01*
%TO.C,R2*%
X90110000Y-130000000D02*
X90110000Y-130330000D01*
X90110000Y-127920000D02*
X90110000Y-127590000D01*
X96650000Y-130330000D02*
X96650000Y-130000000D01*
X90110000Y-130330000D02*
X96650000Y-130330000D01*
X90110000Y-127590000D02*
X96650000Y-127590000D01*
X96650000Y-127590000D02*
X96650000Y-127920000D01*
%TO.C,R21*%
X99630000Y-119530000D02*
X99630000Y-112990000D01*
X99630000Y-112990000D02*
X99960000Y-112990000D01*
X99960000Y-119530000D02*
X99630000Y-119530000D01*
X102370000Y-119530000D02*
X102370000Y-112990000D01*
X102370000Y-112990000D02*
X102040000Y-112990000D01*
X102040000Y-119530000D02*
X102370000Y-119530000D01*
%TO.C,D9*%
X94880000Y-89420000D02*
X94880000Y-87180000D01*
X94640000Y-89420000D02*
X94640000Y-87180000D01*
X96130000Y-88300000D02*
X95480000Y-88300000D01*
X95480000Y-89420000D02*
X95480000Y-87180000D01*
X90590000Y-88300000D02*
X91240000Y-88300000D01*
X91240000Y-87180000D02*
X91240000Y-89420000D01*
X91240000Y-89420000D02*
X95480000Y-89420000D01*
X94760000Y-89420000D02*
X94760000Y-87180000D01*
X95480000Y-87180000D02*
X91240000Y-87180000D01*
%TO.C,Q2*%
X81370000Y-120810000D02*
X81370000Y-124410000D01*
X84318807Y-124966400D02*
G75*
G03*
X85820000Y-122610000I-1098804J2356399D01*
G01*
X81370000Y-124410000D02*
G75*
G03*
X82097205Y-124934184I1849994J1799991D01*
G01*
X85820000Y-122610000D02*
G75*
G03*
X84318807Y-120253600I-2600002J-2D01*
G01*
X82097205Y-120285816D02*
G75*
G03*
X81370000Y-120810000I1122789J-2324175D01*
G01*
%TO.C,D4*%
X94780000Y-137700000D02*
X94780000Y-135460000D01*
X95500000Y-135460000D02*
X91260000Y-135460000D01*
X96150000Y-136580000D02*
X95500000Y-136580000D01*
X94660000Y-137700000D02*
X94660000Y-135460000D01*
X90610000Y-136580000D02*
X91260000Y-136580000D01*
X91260000Y-137700000D02*
X95500000Y-137700000D01*
X94900000Y-137700000D02*
X94900000Y-135460000D01*
X95500000Y-137700000D02*
X95500000Y-135460000D01*
X91260000Y-135460000D02*
X91260000Y-137700000D01*
%TO.C,R31*%
X85220000Y-131730000D02*
X85220000Y-131400000D01*
X85220000Y-131400000D02*
X78680000Y-131400000D01*
X78680000Y-131400000D02*
X78680000Y-131730000D01*
X85220000Y-133810000D02*
X85220000Y-134140000D01*
X85220000Y-134140000D02*
X78680000Y-134140000D01*
X78680000Y-134140000D02*
X78680000Y-133810000D01*
%TO.C,D5*%
X108320000Y-94830000D02*
X108320000Y-94674000D01*
X108320000Y-97146000D02*
X108320000Y-96990000D01*
X107800961Y-94830000D02*
G75*
G03*
X105718870Y-94830163I-1040961J-1080000D01*
G01*
X108320000Y-94674484D02*
G75*
G03*
X105087665Y-94831392I-1560000J-1235517D01*
G01*
X105087665Y-96988608D02*
G75*
G03*
X108320000Y-97145516I1672335J1078609D01*
G01*
X105718870Y-96989837D02*
G75*
G03*
X107800961Y-96990000I1041130J1079837D01*
G01*
%TO.C,C17*%
X79544112Y-136270000D02*
X79544112Y-135339000D01*
X78704112Y-137987000D02*
X78704112Y-136633000D01*
X79544112Y-139281000D02*
X79544112Y-138350000D01*
X78944112Y-138561000D02*
X78944112Y-136059000D01*
X79864112Y-136270000D02*
X79864112Y-135110000D01*
X79224112Y-138963000D02*
X79224112Y-138350000D01*
X81145112Y-136270000D02*
X81145112Y-134731000D01*
X80344112Y-139738000D02*
X80344112Y-138350000D01*
X79224112Y-136270000D02*
X79224112Y-135657000D01*
X80304112Y-136270000D02*
X80304112Y-134896000D01*
X81185112Y-139890000D02*
X81185112Y-138350000D01*
X78824112Y-138321000D02*
X78824112Y-136299000D01*
X80865112Y-136270000D02*
X80865112Y-134754000D01*
X79184112Y-138915000D02*
X79184112Y-135705000D01*
X79624112Y-136270000D02*
X79624112Y-135275000D01*
X80464112Y-136270000D02*
X80464112Y-134842000D01*
X78624112Y-137594000D02*
X78624112Y-137026000D01*
X80464112Y-139778000D02*
X80464112Y-138350000D01*
X80785112Y-136270000D02*
X80785112Y-134767000D01*
X78904112Y-138488000D02*
X78904112Y-136132000D01*
X79264112Y-136270000D02*
X79264112Y-135611000D01*
X80344112Y-136270000D02*
X80344112Y-134882000D01*
X79904112Y-136270000D02*
X79904112Y-135086000D01*
X81065112Y-136270000D02*
X81065112Y-134734000D01*
X79904112Y-139534000D02*
X79904112Y-138350000D01*
X80104112Y-139639000D02*
X80104112Y-138350000D01*
X80945112Y-139875000D02*
X80945112Y-138350000D01*
X79344112Y-139095000D02*
X79344112Y-138350000D01*
X80064112Y-139620000D02*
X80064112Y-138350000D01*
X80545112Y-136270000D02*
X80545112Y-134819000D01*
X80745112Y-139846000D02*
X80745112Y-138350000D01*
X79144112Y-138864000D02*
X79144112Y-135756000D01*
X80745112Y-136270000D02*
X80745112Y-134774000D01*
X80825112Y-139860000D02*
X80825112Y-138350000D01*
X79464112Y-139211000D02*
X79464112Y-138350000D01*
X80024112Y-136270000D02*
X80024112Y-135020000D01*
X79944112Y-136270000D02*
X79944112Y-135063000D01*
X78864112Y-138408000D02*
X78864112Y-136212000D01*
X81105112Y-136270000D02*
X81105112Y-134732000D01*
X80384112Y-139752000D02*
X80384112Y-138350000D01*
X80064112Y-136270000D02*
X80064112Y-135000000D01*
X80104112Y-136270000D02*
X80104112Y-134981000D01*
X79784112Y-136270000D02*
X79784112Y-135161000D01*
X79584112Y-136270000D02*
X79584112Y-135306000D01*
X79944112Y-139557000D02*
X79944112Y-138350000D01*
X79824112Y-139485000D02*
X79824112Y-138350000D01*
X79584112Y-139314000D02*
X79584112Y-138350000D01*
X80625112Y-139821000D02*
X80625112Y-138350000D01*
X80785112Y-139853000D02*
X80785112Y-138350000D01*
X80024112Y-139600000D02*
X80024112Y-138350000D01*
X79464112Y-136270000D02*
X79464112Y-135409000D01*
X81065112Y-139886000D02*
X81065112Y-138350000D01*
X81225112Y-136270000D02*
X81225112Y-134730000D01*
X79504112Y-139247000D02*
X79504112Y-138350000D01*
X80705112Y-139838000D02*
X80705112Y-138350000D01*
X79424112Y-139174000D02*
X79424112Y-138350000D01*
X80945112Y-136270000D02*
X80945112Y-134745000D01*
X80264112Y-139708000D02*
X80264112Y-138350000D01*
X79704112Y-136270000D02*
X79704112Y-135215000D01*
X80184112Y-136270000D02*
X80184112Y-134945000D01*
X80905112Y-136270000D02*
X80905112Y-134749000D01*
X80144112Y-136270000D02*
X80144112Y-134962000D01*
X80705112Y-136270000D02*
X80705112Y-134782000D01*
X80585112Y-136270000D02*
X80585112Y-134809000D01*
X80905112Y-139871000D02*
X80905112Y-138350000D01*
X79344112Y-136270000D02*
X79344112Y-135525000D01*
X81225112Y-139890000D02*
X81225112Y-138350000D01*
X80224112Y-136270000D02*
X80224112Y-134928000D01*
X80625112Y-136270000D02*
X80625112Y-134799000D01*
X79064112Y-138753000D02*
X79064112Y-135867000D01*
X79264112Y-139009000D02*
X79264112Y-138350000D01*
X80184112Y-139675000D02*
X80184112Y-138350000D01*
X79384112Y-136270000D02*
X79384112Y-135484000D01*
X80985112Y-136270000D02*
X80985112Y-134741000D01*
X80545112Y-139801000D02*
X80545112Y-138350000D01*
X80264112Y-136270000D02*
X80264112Y-134912000D01*
X79304112Y-139053000D02*
X79304112Y-138350000D01*
X79984112Y-139578000D02*
X79984112Y-138350000D01*
X79744112Y-136270000D02*
X79744112Y-135188000D01*
X78784112Y-138225000D02*
X78784112Y-136395000D01*
X79864112Y-139510000D02*
X79864112Y-138350000D01*
X81145112Y-139889000D02*
X81145112Y-138350000D01*
X79744112Y-139432000D02*
X79744112Y-138350000D01*
X79624112Y-139345000D02*
X79624112Y-138350000D01*
X80504112Y-136270000D02*
X80504112Y-134830000D01*
X79304112Y-136270000D02*
X79304112Y-135567000D01*
X84029887Y-138785000D02*
X83529887Y-138785000D01*
X80424112Y-139765000D02*
X80424112Y-138350000D01*
X81025112Y-136270000D02*
X81025112Y-134737000D01*
X80825112Y-136270000D02*
X80825112Y-134760000D01*
X80424112Y-136270000D02*
X80424112Y-134855000D01*
X79504112Y-136270000D02*
X79504112Y-135373000D01*
X79784112Y-139459000D02*
X79784112Y-138350000D01*
X80304112Y-139724000D02*
X80304112Y-138350000D01*
X78664112Y-137828000D02*
X78664112Y-136792000D01*
X79024112Y-138693000D02*
X79024112Y-135927000D01*
X81105112Y-139888000D02*
X81105112Y-138350000D01*
X79824112Y-136270000D02*
X79824112Y-135135000D01*
X80865112Y-139866000D02*
X80865112Y-138350000D01*
X79984112Y-136270000D02*
X79984112Y-135042000D01*
X79704112Y-139405000D02*
X79704112Y-138350000D01*
X80585112Y-139811000D02*
X80585112Y-138350000D01*
X80224112Y-139692000D02*
X80224112Y-138350000D01*
X80384112Y-136270000D02*
X80384112Y-134868000D01*
X83779887Y-139035000D02*
X83779887Y-138535000D01*
X79104112Y-138810000D02*
X79104112Y-135810000D01*
X81025112Y-139883000D02*
X81025112Y-138350000D01*
X78744112Y-138115000D02*
X78744112Y-136505000D01*
X80665112Y-136270000D02*
X80665112Y-134790000D01*
X79384112Y-139136000D02*
X79384112Y-138350000D01*
X79664112Y-136270000D02*
X79664112Y-135245000D01*
X78984112Y-138629000D02*
X78984112Y-135991000D01*
X80665112Y-139830000D02*
X80665112Y-138350000D01*
X79664112Y-139375000D02*
X79664112Y-138350000D01*
X79424112Y-136270000D02*
X79424112Y-135446000D01*
X80985112Y-139879000D02*
X80985112Y-138350000D01*
X80144112Y-139658000D02*
X80144112Y-138350000D01*
X81185112Y-136270000D02*
X81185112Y-134730000D01*
X80504112Y-139790000D02*
X80504112Y-138350000D01*
X83845112Y-137310000D02*
G75*
G03*
X83845112Y-137310000I-2620000J0D01*
G01*
%TO.C,Q1*%
X100060000Y-124620000D02*
X100060000Y-128220000D01*
X100787205Y-124095816D02*
G75*
G03*
X100060000Y-124620000I1122789J-2324175D01*
G01*
X104510000Y-126420000D02*
G75*
G03*
X103008807Y-124063600I-2600002J-2D01*
G01*
X103008807Y-128776400D02*
G75*
G03*
X104510000Y-126420000I-1098804J2356399D01*
G01*
X100060000Y-128220000D02*
G75*
G03*
X100787205Y-128744184I1849994J1799991D01*
G01*
%TO.C,J3*%
X93440000Y-102230000D02*
X93440000Y-115050000D01*
X88240000Y-115050000D02*
X93440000Y-115050000D01*
X88240000Y-104830000D02*
X90840000Y-104830000D01*
X90840000Y-104830000D02*
X90840000Y-102230000D01*
X88240000Y-104830000D02*
X88240000Y-115050000D01*
X90840000Y-102230000D02*
X93440000Y-102230000D01*
X88240000Y-102230000D02*
X89570000Y-102230000D01*
X88240000Y-103560000D02*
X88240000Y-102230000D01*
%TO.C,R25*%
X105850000Y-101560000D02*
X106180000Y-101560000D01*
X106180000Y-108100000D02*
X105850000Y-108100000D01*
X103770000Y-101560000D02*
X103440000Y-101560000D01*
X103440000Y-101560000D02*
X103440000Y-108100000D01*
X106180000Y-101560000D02*
X106180000Y-108100000D01*
X103440000Y-108100000D02*
X103770000Y-108100000D01*
%TO.C,R1*%
X90110000Y-121440000D02*
X96650000Y-121440000D01*
X96650000Y-118700000D02*
X96650000Y-119030000D01*
X96650000Y-121440000D02*
X96650000Y-121110000D01*
X90110000Y-118700000D02*
X96650000Y-118700000D01*
X90110000Y-121110000D02*
X90110000Y-121440000D01*
X90110000Y-119030000D02*
X90110000Y-118700000D01*
%TO.C,Q3*%
X86340000Y-91390000D02*
X86340000Y-87790000D01*
X85612795Y-91914184D02*
G75*
G03*
X86340000Y-91390000I-1122789J2324175D01*
G01*
X81890000Y-89590000D02*
G75*
G03*
X83391193Y-91946400I2600002J2D01*
G01*
X83391193Y-87233600D02*
G75*
G03*
X81890000Y-89590000I1098804J-2356399D01*
G01*
X86340000Y-87790000D02*
G75*
G03*
X85612795Y-87265816I-1849994J-1799991D01*
G01*
D12*
%TO.C,U13*%
X129740000Y-109640000D02*
X129740000Y-99940000D01*
X130140000Y-98240000D02*
X130440000Y-97940000D01*
X130440000Y-97940000D02*
X130440000Y-94940000D01*
X129940000Y-98640000D02*
X130140000Y-98240000D01*
X129740000Y-99940000D02*
X129840000Y-99240000D01*
X130440000Y-94940000D02*
X115940000Y-94940000D01*
X115940000Y-109640000D02*
X129740000Y-109640000D01*
X115940000Y-109640000D02*
X115940000Y-94940000D01*
X129840000Y-99240000D02*
X129940000Y-98640000D01*
D11*
%TO.C,C7*%
X112930000Y-92000000D02*
X112615000Y-92000000D01*
X110505000Y-92000000D02*
X110190000Y-92000000D01*
X112930000Y-92000000D02*
X112930000Y-97240000D01*
X112930000Y-97240000D02*
X112615000Y-97240000D01*
X110190000Y-92000000D02*
X110190000Y-97240000D01*
X110505000Y-97240000D02*
X110190000Y-97240000D01*
%TO.C,R5*%
X71060000Y-96980000D02*
X71060000Y-97310000D01*
X71060000Y-94900000D02*
X71060000Y-94570000D01*
X71060000Y-97310000D02*
X77600000Y-97310000D01*
X77600000Y-94570000D02*
X77600000Y-94900000D01*
X71060000Y-94570000D02*
X77600000Y-94570000D01*
X77600000Y-97310000D02*
X77600000Y-96980000D01*
%TO.C,R32*%
X109990000Y-121880000D02*
X109990000Y-128420000D01*
X107250000Y-128420000D02*
X107580000Y-128420000D01*
X109990000Y-128420000D02*
X109660000Y-128420000D01*
X107250000Y-121880000D02*
X107250000Y-128420000D01*
X109660000Y-121880000D02*
X109990000Y-121880000D01*
X107580000Y-121880000D02*
X107250000Y-121880000D01*
%TO.C,J1*%
X70460000Y-103560000D02*
X70460000Y-102230000D01*
X73060000Y-102230000D02*
X75660000Y-102230000D01*
X70460000Y-104830000D02*
X73060000Y-104830000D01*
X70460000Y-104830000D02*
X70460000Y-115050000D01*
X73060000Y-104830000D02*
X73060000Y-102230000D01*
X75660000Y-102230000D02*
X75660000Y-115050000D01*
X70460000Y-115050000D02*
X75660000Y-115050000D01*
X70460000Y-102230000D02*
X71790000Y-102230000D01*
%TO.C,R22*%
X103770000Y-112990000D02*
X103440000Y-112990000D01*
X105850000Y-112990000D02*
X106180000Y-112990000D01*
X103440000Y-112990000D02*
X103440000Y-119530000D01*
X103440000Y-119530000D02*
X103770000Y-119530000D01*
X106180000Y-112990000D02*
X106180000Y-119530000D01*
X106180000Y-119530000D02*
X105850000Y-119530000D01*
%TO.C,R3*%
X78260000Y-119960000D02*
X78260000Y-120290000D01*
X71720000Y-119960000D02*
X78260000Y-119960000D01*
X71720000Y-122370000D02*
X71720000Y-122700000D01*
X78260000Y-122700000D02*
X78260000Y-122370000D01*
X71720000Y-122700000D02*
X78260000Y-122700000D01*
X71720000Y-120290000D02*
X71720000Y-119960000D01*
%TO.C,R4*%
X90110000Y-122840000D02*
X90110000Y-122510000D01*
X90110000Y-124920000D02*
X90110000Y-125250000D01*
X90110000Y-125250000D02*
X96650000Y-125250000D01*
X96650000Y-125250000D02*
X96650000Y-124920000D01*
X96650000Y-122510000D02*
X96650000Y-122840000D01*
X90110000Y-122510000D02*
X96650000Y-122510000D01*
%TO.C,R23*%
X85220000Y-127590000D02*
X78680000Y-127590000D01*
X85220000Y-130000000D02*
X85220000Y-130330000D01*
X85220000Y-127920000D02*
X85220000Y-127590000D01*
X78680000Y-127590000D02*
X78680000Y-127920000D01*
X78680000Y-130330000D02*
X78680000Y-130000000D01*
X85220000Y-130330000D02*
X78680000Y-130330000D01*
%TO.C,R24*%
X99630000Y-101560000D02*
X99960000Y-101560000D01*
X102040000Y-108100000D02*
X102370000Y-108100000D01*
X99960000Y-108100000D02*
X99630000Y-108100000D01*
X102370000Y-101560000D02*
X102040000Y-101560000D01*
X102370000Y-108100000D02*
X102370000Y-101560000D01*
X99630000Y-108100000D02*
X99630000Y-101560000D01*
%TO.C,D7*%
X105790000Y-132804000D02*
X105790000Y-132960000D01*
X105790000Y-135120000D02*
X105790000Y-135276000D01*
X105790000Y-135275516D02*
G75*
G03*
X109022335Y-135118608I1560000J1235517D01*
G01*
X108391130Y-132960163D02*
G75*
G03*
X106309039Y-132960000I-1041130J-1079837D01*
G01*
X106309039Y-135120000D02*
G75*
G03*
X108391130Y-135119837I1040961J1080000D01*
G01*
X109022335Y-132961392D02*
G75*
G03*
X105790000Y-132804484I-1672335J-1078609D01*
G01*
D12*
%TO.C,U12*%
X115940000Y-129960000D02*
X129740000Y-129960000D01*
X130140000Y-118560000D02*
X130440000Y-118260000D01*
X115940000Y-129960000D02*
X115940000Y-115260000D01*
X130440000Y-115260000D02*
X115940000Y-115260000D01*
X129740000Y-120260000D02*
X129840000Y-119560000D01*
X129940000Y-118960000D02*
X130140000Y-118560000D01*
X129840000Y-119560000D02*
X129940000Y-118960000D01*
X130440000Y-118260000D02*
X130440000Y-115260000D01*
X129740000Y-129960000D02*
X129740000Y-120260000D01*
D11*
%TO.C,C6*%
X109990000Y-112330000D02*
X109990000Y-117570000D01*
X107565000Y-112330000D02*
X107250000Y-112330000D01*
X109990000Y-112330000D02*
X109675000Y-112330000D01*
X109990000Y-117570000D02*
X109675000Y-117570000D01*
X107565000Y-117570000D02*
X107250000Y-117570000D01*
X107250000Y-112330000D02*
X107250000Y-117570000D01*
%TO.C,D3*%
X70230000Y-125184000D02*
X70230000Y-125340000D01*
X70230000Y-127500000D02*
X70230000Y-127656000D01*
X70230000Y-127655516D02*
G75*
G03*
X73462335Y-127498608I1560000J1235517D01*
G01*
X70749039Y-127500000D02*
G75*
G03*
X72831130Y-127499837I1040961J1080000D01*
G01*
X73462335Y-125341392D02*
G75*
G03*
X70230000Y-125184484I-1672335J-1078609D01*
G01*
X72831130Y-125340163D02*
G75*
G03*
X70749039Y-125340000I-1041130J-1079837D01*
G01*
%TO.C,C16*%
X80560000Y-94570000D02*
X85800000Y-94570000D01*
X85800000Y-94570000D02*
X85800000Y-94885000D01*
X85800000Y-96995000D02*
X85800000Y-97310000D01*
X80560000Y-97310000D02*
X85800000Y-97310000D01*
X80560000Y-96995000D02*
X80560000Y-97310000D01*
X80560000Y-94570000D02*
X80560000Y-94885000D01*
%TO.C,R30*%
X95380000Y-94570000D02*
X95380000Y-94900000D01*
X95380000Y-97310000D02*
X95380000Y-96980000D01*
X88840000Y-94570000D02*
X95380000Y-94570000D01*
X88840000Y-96980000D02*
X88840000Y-97310000D01*
X88840000Y-94900000D02*
X88840000Y-94570000D01*
X88840000Y-97310000D02*
X95380000Y-97310000D01*
%TO.C,D8*%
X90610000Y-92130000D02*
X91260000Y-92130000D01*
X91260000Y-93250000D02*
X95500000Y-93250000D01*
X95500000Y-91010000D02*
X91260000Y-91010000D01*
X91260000Y-91010000D02*
X91260000Y-93250000D01*
X94900000Y-93250000D02*
X94900000Y-91010000D01*
X94660000Y-93250000D02*
X94660000Y-91010000D01*
X94780000Y-93250000D02*
X94780000Y-91010000D01*
X96150000Y-92130000D02*
X95500000Y-92130000D01*
X95500000Y-93250000D02*
X95500000Y-91010000D01*
%TO.C,R33*%
X101540000Y-86950000D02*
X108080000Y-86950000D01*
X108080000Y-86950000D02*
X108080000Y-87280000D01*
X108080000Y-89690000D02*
X108080000Y-89360000D01*
X101540000Y-89690000D02*
X108080000Y-89690000D01*
X101540000Y-87280000D02*
X101540000Y-86950000D01*
X101540000Y-89360000D02*
X101540000Y-89690000D01*
%TD*%
D13*
%TO.C,U13*%
X126040000Y-99240000D03*
X126040000Y-107240000D03*
%TD*%
%TO.C,U12*%
X126040000Y-119560000D03*
X126040000Y-127560000D03*
%TD*%
M02*
