%TF.GenerationSoftware,KiCad,Pcbnew,(6.0.2)*%
%TF.CreationDate,2022-06-23T20:50:51-05:00*%
%TF.ProjectId,ExtCard,45787443-6172-4642-9e6b-696361645f70,rev?*%
%TF.SameCoordinates,Original*%
%TF.FileFunction,Soldermask,Top*%
%TF.FilePolarity,Negative*%
%FSLAX46Y46*%
G04 Gerber Fmt 4.6, Leading zero omitted, Abs format (unit mm)*
G04 Created by KiCad (PCBNEW (6.0.2)) date 2022-06-23 20:50:51*
%MOMM*%
%LPD*%
G01*
G04 APERTURE LIST*
%ADD10R,1.600000X1.600000*%
%ADD11O,1.600000X1.600000*%
%ADD12C,1.600000*%
%ADD13R,1.500000X1.500000*%
%ADD14C,1.500000*%
%ADD15R,1.800000X1.800000*%
%ADD16C,1.800000*%
%ADD17R,1.700000X1.700000*%
%ADD18O,1.700000X1.700000*%
%ADD19C,1.000000*%
%ADD20R,1.400000X1.600000*%
%ADD21R,2.200000X1.200000*%
%ADD22R,1.600000X0.700000*%
%ADD23R,1.400000X1.200000*%
%ADD24C,3.200000*%
G04 APERTURE END LIST*
D10*
%TO.C,D6*%
X89570000Y-132770000D03*
D11*
X97190000Y-132770000D03*
%TD*%
D12*
%TO.C,R2*%
X89570000Y-128960000D03*
D11*
X97190000Y-128960000D03*
%TD*%
D12*
%TO.C,R21*%
X101000000Y-120070000D03*
D11*
X101000000Y-112450000D03*
%TD*%
D10*
%TO.C,D9*%
X97170000Y-88300000D03*
D11*
X89550000Y-88300000D03*
%TD*%
D13*
%TO.C,Q2*%
X83220000Y-120070000D03*
D14*
X83220000Y-122610000D03*
X83220000Y-125150000D03*
%TD*%
D10*
%TO.C,D4*%
X97190000Y-136580000D03*
D11*
X89570000Y-136580000D03*
%TD*%
D12*
%TO.C,R31*%
X85760000Y-132770000D03*
D11*
X78140000Y-132770000D03*
%TD*%
D15*
%TO.C,D5*%
X108030000Y-95910000D03*
D16*
X105490000Y-95910000D03*
%TD*%
D10*
%TO.C,C17*%
X82225112Y-137310000D03*
D12*
X80225112Y-137310000D03*
%TD*%
D13*
%TO.C,Q1*%
X101910000Y-123880000D03*
D14*
X101910000Y-126420000D03*
X101910000Y-128960000D03*
%TD*%
D17*
%TO.C,J3*%
X89570000Y-103560000D03*
D18*
X92110000Y-103560000D03*
X89570000Y-106100000D03*
X92110000Y-106100000D03*
X89570000Y-108640000D03*
X92110000Y-108640000D03*
X89570000Y-111180000D03*
X92110000Y-111180000D03*
X89570000Y-113720000D03*
X92110000Y-113720000D03*
%TD*%
D12*
%TO.C,R25*%
X104810000Y-101020000D03*
D11*
X104810000Y-108640000D03*
%TD*%
D12*
%TO.C,R1*%
X89570000Y-120070000D03*
D11*
X97190000Y-120070000D03*
%TD*%
D13*
%TO.C,Q3*%
X84490000Y-92130000D03*
D14*
X84490000Y-89590000D03*
X84490000Y-87050000D03*
%TD*%
D19*
%TO.C,U13*%
X126040000Y-99240000D03*
X126040000Y-107240000D03*
D20*
X116140000Y-95440000D03*
D21*
X125640000Y-110040000D03*
D22*
X115540000Y-100040000D03*
X115540000Y-101140000D03*
X115540000Y-102240000D03*
X115540000Y-103340000D03*
X115540000Y-104440000D03*
X115540000Y-105540000D03*
X115540000Y-106640000D03*
X115540000Y-107740000D03*
X115540000Y-108840000D03*
D23*
X116140000Y-110040000D03*
D21*
X125740000Y-94540000D03*
%TD*%
D12*
%TO.C,C7*%
X111560000Y-92120000D03*
X111560000Y-97120000D03*
%TD*%
%TO.C,R5*%
X70520000Y-95940000D03*
D11*
X78140000Y-95940000D03*
%TD*%
D12*
%TO.C,R32*%
X108620000Y-121340000D03*
D11*
X108620000Y-128960000D03*
%TD*%
D17*
%TO.C,J1*%
X71790000Y-103560000D03*
D18*
X74330000Y-103560000D03*
X71790000Y-106100000D03*
X74330000Y-106100000D03*
X71790000Y-108640000D03*
X74330000Y-108640000D03*
X71790000Y-111180000D03*
X74330000Y-111180000D03*
X71790000Y-113720000D03*
X74330000Y-113720000D03*
%TD*%
D12*
%TO.C,R22*%
X104810000Y-112450000D03*
D11*
X104810000Y-120070000D03*
%TD*%
D12*
%TO.C,R3*%
X71180000Y-121330000D03*
D11*
X78800000Y-121330000D03*
%TD*%
D12*
%TO.C,R4*%
X89570000Y-123880000D03*
D11*
X97190000Y-123880000D03*
%TD*%
D12*
%TO.C,R23*%
X85760000Y-128960000D03*
D11*
X78140000Y-128960000D03*
%TD*%
D12*
%TO.C,R24*%
X101000000Y-108640000D03*
D11*
X101000000Y-101020000D03*
%TD*%
D15*
%TO.C,D7*%
X106080000Y-134040000D03*
D16*
X108620000Y-134040000D03*
%TD*%
D21*
%TO.C,U12*%
X125640000Y-130360000D03*
D19*
X126040000Y-119560000D03*
X126040000Y-127560000D03*
D20*
X116140000Y-115760000D03*
D22*
X115540000Y-120360000D03*
X115540000Y-121460000D03*
X115540000Y-122560000D03*
X115540000Y-123660000D03*
X115540000Y-124760000D03*
X115540000Y-125860000D03*
X115540000Y-126960000D03*
X115540000Y-128060000D03*
X115540000Y-129160000D03*
D23*
X116140000Y-130360000D03*
D21*
X125740000Y-114860000D03*
%TD*%
D12*
%TO.C,C6*%
X108620000Y-112450000D03*
X108620000Y-117450000D03*
%TD*%
D15*
%TO.C,D3*%
X70520000Y-126420000D03*
D16*
X73060000Y-126420000D03*
%TD*%
D24*
%TO.C,H1*%
X72180000Y-136790000D03*
%TD*%
D12*
%TO.C,C16*%
X80680000Y-95940000D03*
X85680000Y-95940000D03*
%TD*%
%TO.C,R30*%
X88300000Y-95940000D03*
D11*
X95920000Y-95940000D03*
%TD*%
D10*
%TO.C,D8*%
X97190000Y-92130000D03*
D11*
X89570000Y-92130000D03*
%TD*%
D12*
%TO.C,R33*%
X101000000Y-88320000D03*
D11*
X108620000Y-88320000D03*
%TD*%
D24*
%TO.C,H4*%
X121710000Y-89800000D03*
%TD*%
%TO.C,H3*%
X121710000Y-136790000D03*
%TD*%
%TO.C,H2*%
X72180000Y-89800000D03*
%TD*%
M02*
